<svg id="Layer_1" data-name="Layer 1" xmlns="http://www.w3.org/2000/svg" viewBox="0 0 768.13 1128.69"><defs><style>.cls-1{fill:#fff;}.cls-2{fill:#ced0d1;}.cls-3{fill:#e3e3e2;}.cls-4{fill:#5b4a42;stroke:#988279;}.cls-13,.cls-4{stroke-miterlimit:10;stroke-width:19px;}.cls-5{fill:#00a49a;}.cls-6{fill:#284250;}.cls-7{fill:#00877d;}.cls-8{fill:#414141;}.cls-9{fill:#f0f0f0;}.cls-10{fill:#a5a6a9;}.cls-11{fill:#ffd15d;}.cls-12{fill:#f0ba53;opacity:0.58;}.cls-13{fill:none;stroke:#a67c4f;}.cls-14{fill:#c3556a;}.cls-15{fill:#b44560;}.cls-16,.cls-17{fill:#00a59b;}.cls-17{opacity:0.48;}.cls-18{fill:#59595c;}.cls-19{fill:#6d6f70;}.cls-20{fill:#5e5f5e;}.cls-21{fill:#a5a7aa;}.cls-22{fill:#e4e4e3;}.cls-23{fill:#ffd25e;}.cls-24{fill:#7a56b9;}</style></defs><title>webmocup_v2</title><rect class="cls-1" x="-160.79" y="199.77" width="1089.71" height="768.13" transform="translate(967.91 199.77) rotate(90)"/><rect class="cls-2" x="364.57" y="-364.57" width="38.99" height="768.13" transform="translate(364.57 403.56) rotate(-90)"/><rect class="cls-3" x="46.43" y="521.54" width="200.91" height="200.91" transform="translate(-475.1 768.88) rotate(-90)"/><rect class="cls-3" x="444.35" y="738.57" width="248.06" height="310.23" transform="translate(-325.31 1462.06) rotate(-90)"/><rect class="cls-3" x="283.61" y="521.54" width="200.91" height="200.91" transform="translate(-237.92 1006.06) rotate(-90)"/><rect class="cls-3" x="520.79" y="521.54" width="200.91" height="200.91" transform="translate(-0.74 1243.24) rotate(-90)"/><rect class="cls-3" x="171.01" y="-132.02" width="426.12" height="768.13" transform="translate(132.02 636.12) rotate(-90)"/><circle class="cls-1" cx="27.1" cy="20.98" r="8.58"/><circle class="cls-1" cx="54.44" cy="20.98" r="8.58"/><circle class="cls-1" cx="81.77" cy="20.98" r="8.58"/><circle class="cls-4" cx="386.51" cy="625" r="52.87"/><circle class="cls-5" cx="386.51" cy="625" r="36.11"/><circle class="cls-6" cx="386.51" cy="625" r="1.42"/><circle class="cls-6" cx="386.51" cy="618.97" r="1.42"/><circle class="cls-6" cx="386.51" cy="612.94" r="1.42"/><circle class="cls-6" cx="386.51" cy="606.91" r="1.42"/><circle class="cls-6" cx="386.51" cy="600.88" r="1.42"/><circle class="cls-6" cx="386.51" cy="594.86" r="1.42"/><circle class="cls-6" cx="386.51" cy="588.83" r="1.42"/><circle class="cls-6" cx="386.51" cy="625.06" r="1.42" transform="translate(-282.32 320.5) rotate(-33.79)"/><circle class="cls-6" cx="386.51" cy="654.71" r="1.42"/><circle class="cls-6" cx="386.51" cy="648.68" r="1.42"/><circle class="cls-6" cx="386.51" cy="642.65" r="1.42"/><circle class="cls-6" cx="386.51" cy="636.62" r="1.42"/><circle class="cls-6" cx="386.51" cy="630.59" r="1.42"/><circle class="cls-6" cx="386.51" cy="660.8" r="1.42" transform="translate(-302.19 326.53) rotate(-33.79)"/><circle class="cls-6" cx="386.48" cy="625.17" r="1.42"/><circle class="cls-6" cx="392.5" cy="625.17" r="1.42"/><circle class="cls-6" cx="398.53" cy="625.17" r="1.42"/><circle class="cls-6" cx="404.56" cy="625.17" r="1.42"/><circle class="cls-6" cx="410.59" cy="625.17" r="1.42"/><circle class="cls-6" cx="416.62" cy="625.17" r="1.42"/><circle class="cls-6" cx="422.65" cy="625.17" r="1.42"/><circle class="cls-6" cx="386.42" cy="625.17" r="1.42" transform="translate(-282.36 320.38) rotate(-33.78)"/><circle class="cls-6" cx="356.77" cy="625.16" r="1.42"/><circle class="cls-6" cx="362.8" cy="625.17" r="1.42"/><circle class="cls-6" cx="368.83" cy="625.17" r="1.42"/><circle class="cls-6" cx="374.86" cy="625.17" r="1.42"/><circle class="cls-6" cx="380.89" cy="625.17" r="1.42"/><circle class="cls-6" cx="350.68" cy="625.16" r="1.42" transform="translate(-288.39 300.51) rotate(-33.78)"/><circle class="cls-6" cx="386.32" cy="624.98" r="1.42" transform="translate(-317.08 412.66) rotate(-41.48)"/><circle class="cls-6" cx="386.36" cy="625.03" r="1.42" transform="translate(-316.37 839.74) rotate(-75.27)"/><circle class="cls-6" cx="386.4" cy="625.13" r="1.42" transform="translate(-317.12 412.66) rotate(-41.47)"/><circle class="cls-6" cx="390.92" cy="621.14" r="1.42" transform="translate(-313.35 414.65) rotate(-41.47)"/><circle class="cls-6" cx="395.44" cy="617.14" r="1.42" transform="translate(-309.57 416.64) rotate(-41.47)"/><circle class="cls-6" cx="399.96" cy="613.15" r="1.42" transform="translate(-305.79 418.63) rotate(-41.47)"/><circle class="cls-6" cx="404.48" cy="609.16" r="1.42" transform="translate(-302.01 420.62) rotate(-41.47)"/><circle class="cls-6" cx="408.99" cy="605.16" r="1.42" transform="translate(-298.24 422.61) rotate(-41.47)"/><circle class="cls-6" cx="413.51" cy="601.17" r="1.42" transform="translate(-294.46 424.6) rotate(-41.47)"/><circle class="cls-6" cx="364.15" cy="644.8" r="1.42" transform="translate(-335.73 402.85) rotate(-41.47)"/><circle class="cls-6" cx="368.66" cy="640.81" r="1.42" transform="translate(-331.96 404.84) rotate(-41.47)"/><circle class="cls-6" cx="373.18" cy="636.82" r="1.42" transform="translate(-328.18 406.83) rotate(-41.47)"/><circle class="cls-6" cx="377.7" cy="632.82" r="1.42" transform="translate(-324.4 408.82) rotate(-41.47)"/><circle class="cls-6" cx="382.22" cy="628.83" r="1.42" transform="translate(-320.62 410.81) rotate(-41.47)"/><circle class="cls-6" cx="359.59" cy="648.84" r="1.42" transform="translate(-359.39 831.51) rotate(-75.26)"/><circle class="cls-6" cx="391.75" cy="613.74" r="1.42" transform="translate(-325.02 741.72) rotate(-67.57)"/><circle class="cls-6" cx="394.05" cy="608.16" r="1.42" transform="translate(-318.45 740.4) rotate(-67.57)"/><circle class="cls-6" cx="396.35" cy="602.59" r="1.42" transform="translate(-311.87 739.08) rotate(-67.57)"/><circle class="cls-6" cx="398.65" cy="597.02" r="1.42" transform="translate(-305.3 737.76) rotate(-67.57)"/><circle class="cls-6" cx="400.95" cy="591.44" r="1.42" transform="translate(-298.72 736.43) rotate(-67.57)"/><circle class="cls-6" cx="372.42" cy="658.41" r="1.42" transform="translate(-378.27 751.48) rotate(-67.57)"/><circle class="cls-6" cx="374.72" cy="652.83" r="1.42" transform="translate(-371.69 750.16) rotate(-67.57)"/><circle class="cls-6" cx="377.02" cy="647.26" r="1.42" transform="translate(-365.12 748.84) rotate(-67.57)"/><circle class="cls-6" cx="379.32" cy="641.69" r="1.42" transform="translate(-358.55 747.52) rotate(-67.57)"/><circle class="cls-6" cx="381.62" cy="636.11" r="1.42" transform="translate(-351.97 746.2) rotate(-67.57)"/><circle class="cls-6" cx="372.48" cy="591.72" r="1.42" transform="translate(-207.1 200.62) rotate(-23.8)"/><circle class="cls-6" cx="374.91" cy="597.23" r="1.42" transform="translate(-209.12 202.07) rotate(-23.8)"/><circle class="cls-6" cx="377.34" cy="602.75" r="1.42" transform="translate(-211.14 203.52) rotate(-23.8)"/><circle class="cls-6" cx="379.78" cy="608.27" r="1.42" transform="translate(-213.16 204.97) rotate(-23.8)"/><circle class="cls-6" cx="382.21" cy="613.78" r="1.42" transform="translate(-215.18 206.42) rotate(-23.8)"/><circle class="cls-6" cx="397.32" cy="629.83" r="1.42" transform="translate(-325.98 806.98) rotate(-71.52)"/><circle class="cls-6" cx="403.04" cy="631.74" r="1.42" transform="translate(-323.89 813.71) rotate(-71.52)"/><circle class="cls-6" cx="408.76" cy="633.65" r="1.42" transform="translate(-321.8 820.44) rotate(-71.52)"/><circle class="cls-6" cx="414.48" cy="635.57" r="1.42" transform="translate(-319.7 827.17) rotate(-71.52)"/><circle class="cls-6" cx="420.2" cy="637.48" r="1.42" transform="translate(-317.61 833.9) rotate(-71.52)"/><circle class="cls-6" cx="352.98" cy="611.17" r="1.42" transform="translate(-346.2 707.49) rotate(-67.83)"/><circle class="cls-6" cx="358.56" cy="613.45" r="1.42" transform="translate(-344.83 714.07) rotate(-67.83)"/><circle class="cls-6" cx="364.15" cy="615.72" r="1.42" transform="translate(-343.46 720.66) rotate(-67.83)"/><circle class="cls-6" cx="369.73" cy="618" r="1.42" transform="translate(-342.09 727.25) rotate(-67.83)"/><circle class="cls-6" cx="375.32" cy="620.27" r="1.42" transform="translate(-340.72 733.84) rotate(-67.83)"/><circle class="cls-6" cx="391" cy="635.76" r="1.42" transform="matrix(0.95, -0.3, 0.3, 0.95, -172.72, 146.59)"/><circle class="cls-6" cx="392.81" cy="641.51" r="1.42" transform="translate(-174.36 147.39) rotate(-17.46)"/><circle class="cls-6" cx="394.62" cy="647.26" r="1.42" transform="translate(-176 148.2) rotate(-17.46)"/><circle class="cls-6" cx="396.43" cy="653.01" r="1.42" transform="translate(-177.65 149.01) rotate(-17.46)"/><circle class="cls-6" cx="398.24" cy="658.76" r="1.42" transform="translate(-179.29 149.82) rotate(-17.46)"/><circle class="cls-6" cx="353.21" cy="639.42" r="1.42" transform="translate(-236.68 208.55) rotate(-24.94)"/><circle class="cls-6" cx="358.68" cy="636.88" r="1.42" transform="translate(-235.09 210.62) rotate(-24.94)"/><circle class="cls-6" cx="364.15" cy="634.34" r="1.42" transform="translate(-233.51 212.69) rotate(-24.94)"/><circle class="cls-6" cx="369.61" cy="631.79" r="1.42" transform="translate(-231.93 214.76) rotate(-24.94)"/><circle class="cls-6" cx="375.08" cy="629.25" r="1.42" transform="translate(-230.35 216.82) rotate(-24.94)"/><circle class="cls-6" cx="398.25" cy="620.4" r="1.42" transform="translate(-176.14 158.26) rotate(-18.48)"/><circle class="cls-6" cx="403.97" cy="618.49" r="1.42" transform="translate(-175.24 159.97) rotate(-18.48)"/><circle class="cls-6" cx="409.68" cy="616.58" r="1.42" transform="translate(-174.34 161.69) rotate(-18.48)"/><circle class="cls-6" cx="415.4" cy="614.67" r="1.42" transform="translate(-173.44 163.4) rotate(-18.48)"/><circle class="cls-6" cx="421.12" cy="612.59" r="1.42" transform="translate(-172.49 165.11) rotate(-18.48)"/><circle class="cls-6" cx="386.52" cy="625.2" r="1.42" transform="translate(-322.96 433.08) rotate(-43.12)"/><circle class="cls-6" cx="386.48" cy="625.24" r="1.42" transform="translate(-310.06 860.05) rotate(-76.91)"/><circle class="cls-6" cx="386.38" cy="625.29" r="1.42" transform="translate(-323.04 432.91) rotate(-43.11)"/><circle class="cls-6" cx="390.5" cy="629.69" r="1.42" transform="translate(-324.93 436.92) rotate(-43.11)"/><circle class="cls-6" cx="394.62" cy="634.09" r="1.42" transform="translate(-326.83 440.92) rotate(-43.11)"/><circle class="cls-6" cx="398.74" cy="638.5" r="1.42" transform="translate(-328.72 444.93) rotate(-43.11)"/><circle class="cls-6" cx="402.86" cy="642.9" r="1.42" transform="translate(-330.62 448.93) rotate(-43.11)"/><circle class="cls-6" cx="406.98" cy="647.3" r="1.42" transform="translate(-332.51 452.94) rotate(-43.11)"/><circle class="cls-6" cx="411.1" cy="651.7" r="1.42" transform="translate(-334.41 456.94) rotate(-43.11)"/><circle class="cls-6" cx="366.08" cy="603.61" r="1.42" transform="translate(-313.7 413.18) rotate(-43.11)"/><circle class="cls-6" cx="370.2" cy="608.01" r="1.42" transform="translate(-315.59 417.19) rotate(-43.11)"/><circle class="cls-6" cx="374.32" cy="612.41" r="1.42" transform="translate(-317.49 421.19) rotate(-43.11)"/><circle class="cls-6" cx="378.44" cy="616.81" r="1.42" transform="translate(-319.38 425.2) rotate(-43.11)"/><circle class="cls-6" cx="382.56" cy="621.21" r="1.42" transform="translate(-321.28 429.2) rotate(-43.11)"/><circle class="cls-6" cx="361.91" cy="599.16" r="1.42" transform="translate(-303.68 815.87) rotate(-76.9)"/><circle class="cls-4" cx="621.25" cy="623.2" r="52.87"/><path class="cls-5" d="M621.25,623s-.89,35.55-49.66,36.18"/><path class="cls-7" d="M571.58,659.17s7.82-43.55,49.66-36.18"/><path class="cls-5" d="M695.91,631.72s-30.28,31.23-74.66-8.65"/><path class="cls-7" d="M621.25,623.08s43.15-32.68,74.66,8.65"/><path class="cls-5" d="M627.19,555.09s29.14,26.77-6,68.11"/><path class="cls-7" d="M621.17,623.2s-30.78-38.43,6-68.11"/><path class="cls-5" d="M635.91,657.38S615,652,621.29,623"/><path class="cls-7" d="M621.29,623s24.73,10.61,14.62,34.39"/><path class="cls-5" d="M621.17,623.23s-24.53,12-42.22-21"/><path class="cls-7" d="M579,602.21s32.43-10.09,42.22,21"/><circle class="cls-4" cx="146.05" cy="621.42" r="52.87" transform="translate(-491.5 653.37) rotate(-79.64)"/><path class="cls-5" d="M146,622.16s-29.21,19.25-63.37,15.66"/><path class="cls-5" d="M146,621.42s-12.71-32.59-2.06-65.25"/><path class="cls-5" d="M146,621.38s18.85-29.47,51.52-40.1"/><path class="cls-5" d="M146,621.86s5.39-34.57,31-57.45"/><path class="cls-5" d="M146.34,621.7s-34.5,5.8-64.3-11.29"/><path class="cls-5" d="M146.3,621.69s-25-24.47-28.75-58.61"/><path class="cls-5" d="M146.77,621.79S114,609.47,96.85,579.73"/><path class="cls-5" d="M145.43,621.7s-3,34.85-27,59.43"/><path class="cls-5" d="M146.15,621.72s-19,29.38-51.69,39.87"/><path class="cls-5" d="M145.82,622s33.87,8.74,54.14,36.47"/><path class="cls-5" d="M145.85,621.78s12.89,32.52,2.41,65.24"/><path class="cls-5" d="M145.46,621.49s24.9,24.58,28.49,58.74"/><path class="cls-5" d="M144.89,622.35s34.49-5.85,64.31,11.19"/><path class="cls-5" d="M145.33,622.43S174.62,603.3,208.77,607"/><path class="cls-7" d="M144,556.17s12.42,31.24,2.06,65.25"/><path class="cls-7" d="M197.56,581.28s-17.93,28.44-51.52,40.1"/><path class="cls-7" d="M177,564.41s-5,33.25-31,57.45"/><path class="cls-7" d="M82,610.41s33.11-5.79,64.3,11.29"/><path class="cls-7" d="M117.55,563.08s24.18,23.35,28.75,58.61"/><path class="cls-7" d="M96.85,579.73s31.54,11.63,49.92,42.06"/><path class="cls-7" d="M118.42,681.13s2.67-33.51,27-59.43"/><path class="cls-7" d="M94.46,661.59s18.05-28.36,51.69-39.87"/><path class="cls-7" d="M200,658.46s-32.61-8.18-54.14-36.47"/><path class="cls-7" d="M148.27,687s-12.59-31.17-2.41-65.24"/><path class="cls-7" d="M173.95,680.23s-24.08-23.46-28.49-58.74"/><path class="cls-7" d="M209.21,633.54s-33.11,5.84-64.31-11.19"/><path class="cls-7" d="M82.58,637.83s27.95-18.68,63.37-15.66"/><path class="cls-7" d="M208.77,607s-28,18.57-63.43,15.42"/><circle class="cls-1" cx="519.95" cy="901.93" r="73.06"/><path class="cls-8" d="M723.68,984.51a58.94,58.94,0,0,1,0-117.88"/><circle class="cls-9" cx="664.74" cy="925.57" r="36.69"/><path class="cls-1" d="M616.66,944.73l-6.42,41.19a3.65,3.65,0,1,1-7.2-1.12l6.42-41.19a3.64,3.64,0,0,1,2.9-3l.61-3.91a1.24,1.24,0,1,1,2.46.38l-.61,3.9a3.67,3.67,0,0,1,1.19,1A3.63,3.63,0,0,1,616.66,944.73Z"/><path class="cls-10" d="M609.89,983.14l-1,6.67a2.87,2.87,0,0,1-3.27,2.39h0a2.87,2.87,0,0,1-2.39-3.27l1-6.67"/><rect class="cls-10" x="601.23" y="982.29" width="10.97" height="5.2" rx="0.83" ry="0.83" transform="translate(158.79 -81.64) rotate(8.85)"/><rect class="cls-3" x="48.84" y="770.45" width="310.23" height="310.23" transform="translate(-721.61 1129.53) rotate(-90)"/><path class="cls-11" d="M161.56,826.88a117.49,117.49,0,1,1-60.48,66.55l110.57,39.73Z"/><polygon class="cls-12" points="211.65 933.16 101.87 974.88 101.08 893.43 211.65 933.16"/><polygon class="cls-12" points="254.87 1042.64 165.15 1040.99 212 933.25 254.87 1042.64"/><polygon class="cls-12" points="161.75 826.79 251.38 822.58 211.65 933.16 161.75 826.79"/><polygon class="cls-12" points="320.97 890.05 319.69 979.77 211.75 933.36 320.97 890.05"/><path class="cls-13" d="M161.56,826.88a117.49,117.49,0,1,1-60.48,66.55"/><path class="cls-11" d="M129.15,798a117.12,117.12,0,0,0-60.48,66.55l110.57,39.73Z"/><path class="cls-13" d="M131.83,804.1A110,110,0,0,0,75,866.63"/><path class="cls-14" d="M190.7,982.22a12.79,12.79,0,0,1,10.17-23.39"/><circle class="cls-14" cx="152" cy="989.11" r="12.79" transform="translate(-403 156.4) rotate(-24.95)"/><circle class="cls-14" cx="263.19" cy="976.73" r="12.79" transform="translate(-387.41 202.14) rotate(-24.95)"/><circle class="cls-14" cx="249.05" cy="892.41" r="12.79" transform="translate(-353.16 188.31) rotate(-24.95)"/><circle class="cls-14" cx="130.42" cy="862.2" r="12.79" transform="translate(-351.49 135.45) rotate(-24.95)"/><path class="cls-14" d="M276.95,907.58a12.79,12.79,0,0,1,23.54-9.82"/><path class="cls-15" d="M200.87,958.83a12.79,12.79,0,1,1-10.17,23.39"/><circle class="cls-15" cx="136.75" cy="934.33" r="12.79" transform="translate(-381.32 144.85) rotate(-24.95)"/><circle class="cls-15" cx="219.85" cy="1008.36" r="12.79" transform="translate(-404.79 186.81) rotate(-24.95)"/><circle class="cls-15" cx="216.51" cy="859.73" r="12.79" transform="translate(-342.41 171.53) rotate(-24.95)"/><circle class="cls-15" cx="262.88" cy="934.54" r="12.79" transform="translate(-369.64 198.07) rotate(-24.95)"/><path class="cls-15" d="M300.49,897.76a12.79,12.79,0,1,1-23.54,9.82"/><path class="cls-1" d="M649.94,816.63a30.37,30.37,0,1,1-54,11.84l-5.38-10.95,13.2-3.72a30.39,30.39,0,0,1,46.16,2.82Z"/><circle class="cls-16" cx="625.92" cy="835.23" r="17.08" transform="translate(-376.26 543.65) rotate(-36.93)"/><rect class="cls-2" x="608.49" y="827.42" width="57.89" height="2.89" rx="1.43" ry="1.43" transform="translate(-218.61 228.42) rotate(-17.39)"/><circle class="cls-17" cx="625.92" cy="835.23" r="25.98" transform="matrix(0.8, -0.6, 0.6, 0.8, -376.26, 543.65)"/><rect class="cls-18" x="682" y="879.88" width="51.21" height="91.38" rx="8.46" ry="8.46"/><rect class="cls-19" x="703.63" y="879.88" width="29.58" height="91.38" rx="8.46" ry="8.46"/><path class="cls-8" d="M746.81,891.41v26.9H719a3.62,3.62,0,0,1-.57,0c-3.8-.53-6.81-6.33-6.81-13.41s3-12.88,6.81-13.4a2.73,2.73,0,0,1,.57,0Z"/><path class="cls-8" d="M747.31,932.81v26.91H719.49a3.62,3.62,0,0,1-.57,0c-3.8-.53-6.81-6.33-6.81-13.41s3-12.89,6.81-13.41a2.73,2.73,0,0,1,.57,0Z"/><path class="cls-8" d="M718.42,918.27a3.62,3.62,0,0,0,.57,0h-.57Z"/><path class="cls-8" d="M719,891.41a2.73,2.73,0,0,0-.57,0v0Z"/><path class="cls-8" d="M718.42,959.68a3.62,3.62,0,0,0,.57,0h-.57Z"/><path class="cls-8" d="M719,932.81a2.73,2.73,0,0,0-.57,0v0Z"/><ellipse class="cls-19" cx="746.81" cy="904.86" rx="7.39" ry="13.45"/><ellipse class="cls-19" cx="746.81" cy="946.27" rx="7.39" ry="13.45"/><ellipse class="cls-20" cx="746.81" cy="904.86" rx="4.69" ry="8.54"/><ellipse class="cls-20" cx="746.81" cy="946.27" rx="4.77" ry="8.68"/><polyline class="cls-21" points="689.68 1048.32 691.18 1040.44 699.58 1043.7"/><circle class="cls-22" cx="702.75" cy="1063.39" r="19.94"/><circle class="cls-21" cx="702.75" cy="1063.39" r="4.52"/><rect class="cls-22" x="414.07" y="1044.38" width="250.49" height="35.01"/><circle class="cls-1" cx="457.67" cy="1061.89" r="13.85"/><circle class="cls-16" cx="457.67" cy="1061.89" r="9.13"/><circle class="cls-1" cx="511.63" cy="1061.89" r="13.85"/><circle class="cls-14" cx="511.63" cy="1061.89" r="9.13"/><circle class="cls-1" cx="565.58" cy="1061.89" r="13.85"/><circle class="cls-23" cx="565.58" cy="1061.89" r="9.13"/><circle class="cls-1" cx="619.53" cy="1061.89" r="13.85"/><circle class="cls-24" cx="619.53" cy="1061.89" r="9.13"/></svg>