<?xml version="1.0" encoding="UTF-8" standalone="no"?>
<svg width="769px" height="2234px" viewBox="0 0 769 2234" version="1.1" xmlns="http://www.w3.org/2000/svg" xmlns:xlink="http://www.w3.org/1999/xlink">
    <!-- Generator: Sketch 39.1 (31720) - http://www.bohemiancoding.com/sketch -->
    <title>Group 2</title>
    <desc>Created with Sketch.</desc>
    <defs></defs>
    <g id="Page-1" stroke="none" stroke-width="1" fill="none" fill-rule="evenodd">
        <g id="Group-2">
            <g id="About_screen1">
                <rect id="Rectangle-path" fill="#FFFFFF" transform="translate(384.065000, 583.835000) rotate(90.000000) translate(-384.065000, -583.835000) " x="-160.79" y="199.77" width="1089.71" height="768.13"></rect>
                <rect id="Rectangle-path" fill="#CED0D1" transform="translate(384.065000, 19.495000) rotate(-90.000000) translate(-384.065000, -19.495000) " x="364.57" y="-364.57" width="38.99" height="768.13"></rect>
                <rect id="Rectangle-path" fill="#E3E3E2" transform="translate(146.885000, 621.995000) rotate(-90.000000) translate(-146.885000, -621.995000) " x="46.43" y="521.54" width="200.91" height="200.91"></rect>
                <rect id="Rectangle-path" fill="#E3E3E2" transform="translate(568.380000, 893.685000) rotate(-90.000000) translate(-568.380000, -893.685000) " x="444.35" y="738.57" width="248.06" height="310.23"></rect>
                <rect id="Rectangle-path" fill="#E3E3E2" transform="translate(384.065000, 621.995000) rotate(-90.000000) translate(-384.065000, -621.995000) " x="283.61" y="521.54" width="200.91" height="200.91"></rect>
                <rect id="Rectangle-path" fill="#E3E3E2" transform="translate(621.245000, 621.995000) rotate(-90.000000) translate(-621.245000, -621.995000) " x="520.79" y="521.54" width="200.91" height="200.91"></rect>
                <rect id="Rectangle-path" fill="#E3E3E2" transform="translate(384.070000, 252.045000) rotate(-90.000000) translate(-384.070000, -252.045000) " x="171.01" y="-132.02" width="426.12" height="768.13"></rect>
                <circle id="Oval" fill="#FFFFFF" cx="27.1" cy="20.98" r="8.58"></circle>
                <circle id="Oval" fill="#FFFFFF" cx="54.44" cy="20.98" r="8.58"></circle>
                <circle id="Oval" fill="#FFFFFF" cx="81.77" cy="20.98" r="8.58"></circle>
                <circle id="Oval" stroke="#988279" fill="#5B4A42" cx="386.51" cy="625" r="52.87"></circle>
                <circle id="Oval" fill="#00A49A" cx="386.51" cy="625" r="36.11"></circle>
                <circle id="Oval" fill="#284250" cx="386.51" cy="625" r="1.42"></circle>
                <circle id="Oval" fill="#284250" cx="386.51" cy="618.97" r="1.42"></circle>
                <circle id="Oval" fill="#284250" cx="386.51" cy="612.94" r="1.42"></circle>
                <circle id="Oval" fill="#284250" cx="386.51" cy="606.91" r="1.42"></circle>
                <circle id="Oval" fill="#284250" cx="386.51" cy="600.88" r="1.42"></circle>
                <circle id="Oval" fill="#284250" cx="386.51" cy="594.86" r="1.42"></circle>
                <circle id="Oval" fill="#284250" cx="386.51" cy="588.83" r="1.42"></circle>
                <circle id="Oval" fill="#284250" transform="translate(386.510000, 625.060000) rotate(-33.790000) translate(-386.510000, -625.060000) " cx="386.51" cy="625.06" r="1.42"></circle>
                <circle id="Oval" fill="#284250" cx="386.51" cy="654.71" r="1.42"></circle>
                <circle id="Oval" fill="#284250" cx="386.51" cy="648.68" r="1.42"></circle>
                <circle id="Oval" fill="#284250" cx="386.51" cy="642.65" r="1.42"></circle>
                <circle id="Oval" fill="#284250" cx="386.51" cy="636.62" r="1.42"></circle>
                <circle id="Oval" fill="#284250" cx="386.51" cy="630.59" r="1.42"></circle>
                <circle id="Oval" fill="#284250" transform="translate(386.510000, 660.800000) rotate(-33.790000) translate(-386.510000, -660.800000) " cx="386.51" cy="660.8" r="1.42"></circle>
                <circle id="Oval" fill="#284250" cx="386.48" cy="625.17" r="1.42"></circle>
                <circle id="Oval" fill="#284250" cx="392.5" cy="625.17" r="1.42"></circle>
                <circle id="Oval" fill="#284250" cx="398.53" cy="625.17" r="1.42"></circle>
                <circle id="Oval" fill="#284250" cx="404.56" cy="625.17" r="1.42"></circle>
                <circle id="Oval" fill="#284250" cx="410.59" cy="625.17" r="1.42"></circle>
                <circle id="Oval" fill="#284250" cx="416.62" cy="625.17" r="1.42"></circle>
                <circle id="Oval" fill="#284250" cx="422.65" cy="625.17" r="1.42"></circle>
                <circle id="Oval" fill="#284250" transform="translate(386.420000, 625.170000) rotate(-33.780000) translate(-386.420000, -625.170000) " cx="386.42" cy="625.17" r="1.42"></circle>
                <circle id="Oval" fill="#284250" cx="356.77" cy="625.16" r="1.42"></circle>
                <circle id="Oval" fill="#284250" cx="362.8" cy="625.17" r="1.42"></circle>
                <circle id="Oval" fill="#284250" cx="368.83" cy="625.17" r="1.42"></circle>
                <circle id="Oval" fill="#284250" cx="374.86" cy="625.17" r="1.42"></circle>
                <circle id="Oval" fill="#284250" cx="380.89" cy="625.17" r="1.42"></circle>
                <circle id="Oval" fill="#284250" transform="translate(350.680000, 625.160000) rotate(-33.780000) translate(-350.680000, -625.160000) " cx="350.68" cy="625.16" r="1.42"></circle>
                <circle id="Oval" fill="#284250" transform="translate(386.320000, 624.980000) rotate(-41.480000) translate(-386.320000, -624.980000) " cx="386.32" cy="624.98" r="1.42"></circle>
                <circle id="Oval" fill="#284250" transform="translate(386.360000, 625.030000) rotate(-75.270000) translate(-386.360000, -625.030000) " cx="386.36" cy="625.03" r="1.42"></circle>
                <circle id="Oval" fill="#284250" transform="translate(386.400000, 625.130000) rotate(-41.470000) translate(-386.400000, -625.130000) " cx="386.4" cy="625.13" r="1.42"></circle>
                <circle id="Oval" fill="#284250" transform="translate(390.920000, 621.140000) rotate(-41.470000) translate(-390.920000, -621.140000) " cx="390.92" cy="621.14" r="1.42"></circle>
                <circle id="Oval" fill="#284250" transform="translate(395.440000, 617.140000) rotate(-41.470000) translate(-395.440000, -617.140000) " cx="395.44" cy="617.14" r="1.42"></circle>
                <circle id="Oval" fill="#284250" transform="translate(399.960000, 613.150000) rotate(-41.470000) translate(-399.960000, -613.150000) " cx="399.96" cy="613.15" r="1.42"></circle>
                <circle id="Oval" fill="#284250" transform="translate(404.480000, 609.160000) rotate(-41.470000) translate(-404.480000, -609.160000) " cx="404.48" cy="609.16" r="1.42"></circle>
                <circle id="Oval" fill="#284250" transform="translate(408.990000, 605.160000) rotate(-41.470000) translate(-408.990000, -605.160000) " cx="408.99" cy="605.16" r="1.42"></circle>
                <circle id="Oval" fill="#284250" transform="translate(413.510000, 601.170000) rotate(-41.470000) translate(-413.510000, -601.170000) " cx="413.51" cy="601.17" r="1.42"></circle>
                <circle id="Oval" fill="#284250" transform="translate(364.150000, 644.800000) rotate(-41.470000) translate(-364.150000, -644.800000) " cx="364.15" cy="644.8" r="1.42"></circle>
                <circle id="Oval" fill="#284250" transform="translate(368.660000, 640.810000) rotate(-41.470000) translate(-368.660000, -640.810000) " cx="368.66" cy="640.81" r="1.42"></circle>
                <circle id="Oval" fill="#284250" transform="translate(373.180000, 636.820000) rotate(-41.470000) translate(-373.180000, -636.820000) " cx="373.18" cy="636.82" r="1.42"></circle>
                <circle id="Oval" fill="#284250" transform="translate(377.700000, 632.820000) rotate(-41.470000) translate(-377.700000, -632.820000) " cx="377.7" cy="632.82" r="1.42"></circle>
                <circle id="Oval" fill="#284250" transform="translate(382.220000, 628.830000) rotate(-41.470000) translate(-382.220000, -628.830000) " cx="382.22" cy="628.83" r="1.42"></circle>
                <circle id="Oval" fill="#284250" transform="translate(359.590000, 648.840000) rotate(-75.260000) translate(-359.590000, -648.840000) " cx="359.59" cy="648.84" r="1.42"></circle>
                <circle id="Oval" fill="#284250" transform="translate(391.750000, 613.740000) rotate(-67.570000) translate(-391.750000, -613.740000) " cx="391.75" cy="613.74" r="1.42"></circle>
                <circle id="Oval" fill="#284250" transform="translate(394.050000, 608.160000) rotate(-67.570000) translate(-394.050000, -608.160000) " cx="394.05" cy="608.16" r="1.42"></circle>
                <circle id="Oval" fill="#284250" transform="translate(396.350000, 602.590000) rotate(-67.570000) translate(-396.350000, -602.590000) " cx="396.35" cy="602.59" r="1.42"></circle>
                <circle id="Oval" fill="#284250" transform="translate(398.650000, 597.020000) rotate(-67.570000) translate(-398.650000, -597.020000) " cx="398.65" cy="597.02" r="1.42"></circle>
                <circle id="Oval" fill="#284250" transform="translate(400.950000, 591.440000) rotate(-67.570000) translate(-400.950000, -591.440000) " cx="400.95" cy="591.44" r="1.42"></circle>
                <circle id="Oval" fill="#284250" transform="translate(372.420000, 658.410000) rotate(-67.570000) translate(-372.420000, -658.410000) " cx="372.42" cy="658.41" r="1.42"></circle>
                <circle id="Oval" fill="#284250" transform="translate(374.720000, 652.830000) rotate(-67.570000) translate(-374.720000, -652.830000) " cx="374.72" cy="652.83" r="1.42"></circle>
                <circle id="Oval" fill="#284250" transform="translate(377.020000, 647.260000) rotate(-67.570000) translate(-377.020000, -647.260000) " cx="377.02" cy="647.26" r="1.42"></circle>
                <circle id="Oval" fill="#284250" transform="translate(379.320000, 641.690000) rotate(-67.570000) translate(-379.320000, -641.690000) " cx="379.32" cy="641.69" r="1.42"></circle>
                <circle id="Oval" fill="#284250" transform="translate(381.620000, 636.110000) rotate(-67.570000) translate(-381.620000, -636.110000) " cx="381.62" cy="636.11" r="1.42"></circle>
                <circle id="Oval" fill="#284250" transform="translate(372.480000, 591.720000) rotate(-23.800000) translate(-372.480000, -591.720000) " cx="372.48" cy="591.72" r="1.42"></circle>
                <circle id="Oval" fill="#284250" transform="translate(374.910000, 597.230000) rotate(-23.800000) translate(-374.910000, -597.230000) " cx="374.91" cy="597.23" r="1.42"></circle>
                <circle id="Oval" fill="#284250" transform="translate(377.340000, 602.750000) rotate(-23.800000) translate(-377.340000, -602.750000) " cx="377.34" cy="602.75" r="1.42"></circle>
                <circle id="Oval" fill="#284250" transform="translate(379.780000, 608.270000) rotate(-23.800000) translate(-379.780000, -608.270000) " cx="379.78" cy="608.27" r="1.42"></circle>
                <circle id="Oval" fill="#284250" transform="translate(382.210000, 613.780000) rotate(-23.800000) translate(-382.210000, -613.780000) " cx="382.21" cy="613.78" r="1.42"></circle>
                <circle id="Oval" fill="#284250" transform="translate(397.320000, 629.830000) rotate(-71.520000) translate(-397.320000, -629.830000) " cx="397.32" cy="629.83" r="1.42"></circle>
                <circle id="Oval" fill="#284250" transform="translate(403.040000, 631.740000) rotate(-71.520000) translate(-403.040000, -631.740000) " cx="403.04" cy="631.74" r="1.42"></circle>
                <circle id="Oval" fill="#284250" transform="translate(408.760000, 633.650000) rotate(-71.520000) translate(-408.760000, -633.650000) " cx="408.76" cy="633.65" r="1.42"></circle>
                <circle id="Oval" fill="#284250" transform="translate(414.480000, 635.570000) rotate(-71.520000) translate(-414.480000, -635.570000) " cx="414.48" cy="635.57" r="1.42"></circle>
                <circle id="Oval" fill="#284250" transform="translate(420.200000, 637.480000) rotate(-71.520000) translate(-420.200000, -637.480000) " cx="420.2" cy="637.48" r="1.42"></circle>
                <circle id="Oval" fill="#284250" transform="translate(352.980000, 611.170000) rotate(-67.830000) translate(-352.980000, -611.170000) " cx="352.98" cy="611.17" r="1.42"></circle>
                <circle id="Oval" fill="#284250" transform="translate(358.560000, 613.450000) rotate(-67.830000) translate(-358.560000, -613.450000) " cx="358.56" cy="613.45" r="1.42"></circle>
                <circle id="Oval" fill="#284250" transform="translate(364.150000, 615.720000) rotate(-67.830000) translate(-364.150000, -615.720000) " cx="364.15" cy="615.72" r="1.42"></circle>
                <circle id="Oval" fill="#284250" transform="translate(369.730000, 618.000000) rotate(-67.830000) translate(-369.730000, -618.000000) " cx="369.73" cy="618" r="1.42"></circle>
                <circle id="Oval" fill="#284250" transform="translate(375.320000, 620.270000) rotate(-67.830000) translate(-375.320000, -620.270000) " cx="375.32" cy="620.27" r="1.42"></circle>
                <circle id="Oval" fill="#284250" transform="translate(391.000000, 635.760000) rotate(-17.525568) translate(-391.000000, -635.760000) " cx="391" cy="635.76" r="1.42"></circle>
                <circle id="Oval" fill="#284250" transform="translate(392.810000, 641.510000) rotate(-17.460000) translate(-392.810000, -641.510000) " cx="392.81" cy="641.51" r="1.42"></circle>
                <circle id="Oval" fill="#284250" transform="translate(394.620000, 647.260000) rotate(-17.460000) translate(-394.620000, -647.260000) " cx="394.62" cy="647.26" r="1.42"></circle>
                <circle id="Oval" fill="#284250" transform="translate(396.430000, 653.010000) rotate(-17.460000) translate(-396.430000, -653.010000) " cx="396.43" cy="653.01" r="1.42"></circle>
                <circle id="Oval" fill="#284250" transform="translate(398.240000, 658.760000) rotate(-17.460000) translate(-398.240000, -658.760000) " cx="398.24" cy="658.76" r="1.42"></circle>
                <circle id="Oval" fill="#284250" transform="translate(353.210000, 639.420000) rotate(-24.940000) translate(-353.210000, -639.420000) " cx="353.21" cy="639.42" r="1.42"></circle>
                <circle id="Oval" fill="#284250" transform="translate(358.680000, 636.880000) rotate(-24.940000) translate(-358.680000, -636.880000) " cx="358.68" cy="636.88" r="1.42"></circle>
                <circle id="Oval" fill="#284250" transform="translate(364.150000, 634.340000) rotate(-24.940000) translate(-364.150000, -634.340000) " cx="364.15" cy="634.34" r="1.42"></circle>
                <circle id="Oval" fill="#284250" transform="translate(369.610000, 631.790000) rotate(-24.940000) translate(-369.610000, -631.790000) " cx="369.61" cy="631.79" r="1.42"></circle>
                <circle id="Oval" fill="#284250" transform="translate(375.080000, 629.250000) rotate(-24.940000) translate(-375.080000, -629.250000) " cx="375.08" cy="629.25" r="1.42"></circle>
                <circle id="Oval" fill="#284250" transform="translate(398.250000, 620.400000) rotate(-18.480000) translate(-398.250000, -620.400000) " cx="398.25" cy="620.4" r="1.42"></circle>
                <circle id="Oval" fill="#284250" transform="translate(403.970000, 618.490000) rotate(-18.480000) translate(-403.970000, -618.490000) " cx="403.97" cy="618.49" r="1.42"></circle>
                <circle id="Oval" fill="#284250" transform="translate(409.680000, 616.580000) rotate(-18.480000) translate(-409.680000, -616.580000) " cx="409.68" cy="616.58" r="1.42"></circle>
                <circle id="Oval" fill="#284250" transform="translate(415.400000, 614.670000) rotate(-18.480000) translate(-415.400000, -614.670000) " cx="415.4" cy="614.67" r="1.42"></circle>
                <circle id="Oval" fill="#284250" transform="translate(421.120000, 612.590000) rotate(-18.480000) translate(-421.120000, -612.590000) " cx="421.12" cy="612.59" r="1.42"></circle>
                <circle id="Oval" fill="#284250" transform="translate(386.520000, 625.200000) rotate(-43.120000) translate(-386.520000, -625.200000) " cx="386.52" cy="625.2" r="1.42"></circle>
                <circle id="Oval" fill="#284250" transform="translate(386.480000, 625.240000) rotate(-76.910000) translate(-386.480000, -625.240000) " cx="386.48" cy="625.24" r="1.42"></circle>
                <circle id="Oval" fill="#284250" transform="translate(386.380000, 625.290000) rotate(-43.110000) translate(-386.380000, -625.290000) " cx="386.38" cy="625.29" r="1.42"></circle>
                <circle id="Oval" fill="#284250" transform="translate(390.500000, 629.690000) rotate(-43.110000) translate(-390.500000, -629.690000) " cx="390.5" cy="629.69" r="1.42"></circle>
                <circle id="Oval" fill="#284250" transform="translate(394.620000, 634.090000) rotate(-43.110000) translate(-394.620000, -634.090000) " cx="394.62" cy="634.09" r="1.42"></circle>
                <circle id="Oval" fill="#284250" transform="translate(398.740000, 638.500000) rotate(-43.110000) translate(-398.740000, -638.500000) " cx="398.74" cy="638.5" r="1.42"></circle>
                <circle id="Oval" fill="#284250" transform="translate(402.860000, 642.900000) rotate(-43.110000) translate(-402.860000, -642.900000) " cx="402.86" cy="642.9" r="1.42"></circle>
                <circle id="Oval" fill="#284250" transform="translate(406.980000, 647.300000) rotate(-43.110000) translate(-406.980000, -647.300000) " cx="406.98" cy="647.3" r="1.42"></circle>
                <circle id="Oval" fill="#284250" transform="translate(411.100000, 651.700000) rotate(-43.110000) translate(-411.100000, -651.700000) " cx="411.1" cy="651.7" r="1.42"></circle>
                <circle id="Oval" fill="#284250" transform="translate(366.080000, 603.610000) rotate(-43.110000) translate(-366.080000, -603.610000) " cx="366.08" cy="603.61" r="1.42"></circle>
                <circle id="Oval" fill="#284250" transform="translate(370.200000, 608.010000) rotate(-43.110000) translate(-370.200000, -608.010000) " cx="370.2" cy="608.01" r="1.42"></circle>
                <circle id="Oval" fill="#284250" transform="translate(374.320000, 612.410000) rotate(-43.110000) translate(-374.320000, -612.410000) " cx="374.32" cy="612.41" r="1.42"></circle>
                <circle id="Oval" fill="#284250" transform="translate(378.440000, 616.810000) rotate(-43.110000) translate(-378.440000, -616.810000) " cx="378.44" cy="616.81" r="1.42"></circle>
                <circle id="Oval" fill="#284250" transform="translate(382.560000, 621.210000) rotate(-43.110000) translate(-382.560000, -621.210000) " cx="382.56" cy="621.21" r="1.42"></circle>
                <circle id="Oval" fill="#284250" transform="translate(361.910000, 599.160000) rotate(-76.900000) translate(-361.910000, -599.160000) " cx="361.91" cy="599.16" r="1.42"></circle>
                <circle id="Oval" stroke="#988279" fill="#5B4A42" cx="621.25" cy="623.2" r="52.87"></circle>
                <path d="M621.25,623 C621.25,623 620.36,658.55 571.59,659.18" id="Shape" fill="#00A49A"></path>
                <path d="M571.58,659.17 C571.58,659.17 579.4,615.62 621.24,622.99" id="Shape" fill="#00877D"></path>
                <path d="M695.91,631.72 C695.91,631.72 665.63,662.95 621.25,623.07" id="Shape" fill="#00A49A"></path>
                <path d="M621.25,623.08 C621.25,623.08 664.4,590.4 695.91,631.73" id="Shape" fill="#00877D"></path>
                <path d="M627.19,555.09 C627.19,555.09 656.33,581.86 621.19,623.2" id="Shape" fill="#00A49A"></path>
                <path d="M621.17,623.2 C621.17,623.2 590.39,584.77 627.17,555.09" id="Shape" fill="#00877D"></path>
                <path d="M635.91,657.38 C635.91,657.38 615,652 621.29,623" id="Shape" fill="#00A49A"></path>
                <path d="M621.29,623 C621.29,623 646.02,633.61 635.91,657.39" id="Shape" fill="#00877D"></path>
                <path d="M621.17,623.23 C621.17,623.23 596.64,635.23 578.95,602.23" id="Shape" fill="#00A49A"></path>
                <path d="M579,602.21 C579,602.21 611.43,592.12 621.22,623.21" id="Shape" fill="#00877D"></path>
                <circle id="Oval" stroke="#988279" fill="#5B4A42" transform="translate(146.050000, 621.420000) rotate(-79.640000) translate(-146.050000, -621.420000) " cx="146.05" cy="621.42" r="52.87"></circle>
                <path d="M146,622.16 C146,622.16 116.79,641.41 82.63,637.82" id="Shape" fill="#00A49A"></path>
                <path d="M146,621.42 C146,621.42 133.29,588.83 143.94,556.17" id="Shape" fill="#00A49A"></path>
                <path d="M146,621.38 C146,621.38 164.85,591.91 197.52,581.28" id="Shape" fill="#00A49A"></path>
                <path d="M146,621.86 C146,621.86 151.39,587.29 177,564.41" id="Shape" fill="#00A49A"></path>
                <path d="M146.34,621.7 C146.34,621.7 111.84,627.5 82.04,610.41" id="Shape" fill="#00A49A"></path>
                <path d="M146.3,621.69 C146.3,621.69 121.3,597.22 117.55,563.08" id="Shape" fill="#00A49A"></path>
                <path d="M146.77,621.79 C146.77,621.79 114,609.47 96.85,579.73" id="Shape" fill="#00A49A"></path>
                <path d="M145.43,621.7 C145.43,621.7 142.43,656.55 118.43,681.13" id="Shape" fill="#00A49A"></path>
                <path d="M146.15,621.72 C146.15,621.72 127.15,651.1 94.46,661.59" id="Shape" fill="#00A49A"></path>
                <path d="M145.82,622 C145.82,622 179.69,630.74 199.96,658.47" id="Shape" fill="#00A49A"></path>
                <path d="M145.85,621.78 C145.85,621.78 158.74,654.3 148.26,687.02" id="Shape" fill="#00A49A"></path>
                <path d="M145.46,621.49 C145.46,621.49 170.36,646.07 173.95,680.23" id="Shape" fill="#00A49A"></path>
                <path d="M144.89,622.35 C144.89,622.35 179.38,616.5 209.2,633.54" id="Shape" fill="#00A49A"></path>
                <path d="M145.33,622.43 C145.33,622.43 174.62,603.3 208.77,607" id="Shape" fill="#00A49A"></path>
                <path d="M144,556.17 C144,556.17 156.42,587.41 146.06,621.42" id="Shape" fill="#00877D"></path>
                <path d="M197.56,581.28 C197.56,581.28 179.63,609.72 146.04,621.38" id="Shape" fill="#00877D"></path>
                <path d="M177,564.41 C177,564.41 172,597.66 146,621.86" id="Shape" fill="#00877D"></path>
                <path d="M82,610.41 C82,610.41 115.11,604.62 146.3,621.7" id="Shape" fill="#00877D"></path>
                <path d="M117.55,563.08 C117.55,563.08 141.73,586.43 146.3,621.69" id="Shape" fill="#00877D"></path>
                <path d="M96.85,579.73 C96.85,579.73 128.39,591.36 146.77,621.79" id="Shape" fill="#00877D"></path>
                <path d="M118.42,681.13 C118.42,681.13 121.09,647.62 145.42,621.7" id="Shape" fill="#00877D"></path>
                <path d="M94.46,661.59 C94.46,661.59 112.51,633.23 146.15,621.72" id="Shape" fill="#00877D"></path>
                <path d="M200,658.46 C200,658.46 167.39,650.28 145.86,621.99" id="Shape" fill="#00877D"></path>
                <path d="M148.27,687 C148.27,687 135.68,655.83 145.86,621.76" id="Shape" fill="#00877D"></path>
                <path d="M173.95,680.23 C173.95,680.23 149.87,656.77 145.46,621.49" id="Shape" fill="#00877D"></path>
                <path d="M209.21,633.54 C209.21,633.54 176.1,639.38 144.9,622.35" id="Shape" fill="#00877D"></path>
                <path d="M82.58,637.83 C82.58,637.83 110.53,619.15 145.95,622.17" id="Shape" fill="#00877D"></path>
                <path d="M208.77,607 C208.77,607 180.77,625.57 145.34,622.42" id="Shape" fill="#00877D"></path>
                <circle id="Oval" fill="#FFFFFF" cx="519.95" cy="901.93" r="73.06"></circle>
                <path d="M723.68,984.51 C691.128337,984.51 664.74,958.121663 664.74,925.57 C664.74,893.018337 691.128337,866.63 723.68,866.63" id="Shape" fill="#414141"></path>
                <circle id="Oval" fill="#F0F0F0" cx="664.74" cy="925.57" r="36.69"></circle>
                <path d="M616.66,944.73 L610.24,985.92 C610.113052,987.270914 609.247208,988.439914 607.991967,988.955135 C606.736725,989.470356 605.29928,989.246753 604.259855,988.374584 C603.22043,987.502415 602.750595,986.125643 603.04,984.8 L609.46,943.61 C609.700717,942.100209 610.859234,940.901743 612.36,940.61 L612.97,936.7 C613.03788,936.260563 613.335041,935.890721 613.749545,935.729789 C614.164048,935.568857 614.632922,935.641284 614.979545,935.919789 C615.326168,936.198293 615.49788,936.640563 615.43,937.08 L614.82,940.98 C615.283516,941.224545 615.689282,941.565525 616.01,941.98 C616.589208,942.771246 616.823662,943.763166 616.66,944.73 L616.66,944.73 Z" id="Shape" fill="#FFFFFF"></path>
                <path d="M609.89,983.14 L608.89,989.81 C608.643944,991.371106 607.18212,992.439534 605.62,992.2 L605.62,992.2 C604.058894,991.953944 602.990466,990.49212 603.23,988.93 L604.23,982.26" id="Shape" fill="#A5A6A9"></path>
                <rect id="Rectangle-path" fill="#A5A6A9" transform="translate(606.715000, 984.890000) rotate(8.850000) translate(-606.715000, -984.890000) " x="601.23" y="982.29" width="10.97" height="5.2" rx="0.83"></rect>
                <rect id="Rectangle-path" fill="#E3E3E2" transform="translate(203.955000, 925.565000) rotate(-90.000000) translate(-203.955000, -925.565000) " x="48.84" y="770.45" width="310.23" height="310.23"></rect>
                <path d="M161.56,826.88 C212.262039,802.983735 272.783631,818.230539 306.112557,863.296168 C339.441483,908.361798 336.295294,970.695012 298.598055,1012.17569 C260.900816,1053.65636 199.151595,1062.73171 151.113373,1033.85165 C103.07515,1004.9716 82.1270641,946.179545 101.08,893.43 L211.65,933.16 L161.56,826.88 Z" id="Shape" fill="#FFD15D"></path>
                <polygon id="Shape" fill="#F0BA53" opacity="0.58" points="211.65 933.16 101.87 974.88 101.08 893.43"></polygon>
                <polygon id="Shape" fill="#F0BA53" opacity="0.58" points="254.87 1042.64 165.15 1040.99 212 933.25"></polygon>
                <polygon id="Shape" fill="#F0BA53" opacity="0.58" points="161.75 826.79 251.38 822.58 211.65 933.16"></polygon>
                <polygon id="Shape" fill="#F0BA53" opacity="0.58" points="320.97 890.05 319.69 979.77 211.75 933.36"></polygon>
                <path d="M161.56,826.88 C212.262039,802.983735 272.783631,818.230539 306.112557,863.296168 C339.441483,908.361798 336.295294,970.695012 298.598055,1012.17569 C260.900816,1053.65636 199.151595,1062.73171 151.113373,1033.85165 C103.07515,1004.9716 82.1270641,946.179545 101.08,893.43" id="Shape" stroke="#A67C4F"></path>
                <path d="M129.15,798 C100.937563,811.251636 79.1711954,835.202558 68.67,864.55 L179.24,904.28 L129.15,798 Z" id="Shape" fill="#FFD15D"></path>
                <path d="M131.83,804.1 C105.317455,816.54634 84.8632655,839.052066 75,866.63" id="Shape" stroke="#A67C4F"></path>
                <path d="M190.7,982.22 C184.790965,979.094117 182.285868,971.945017 184.951406,965.814541 C187.616945,959.684064 194.553881,956.640371 200.87,958.83" id="Shape" fill="#C3556A"></path>
                <circle id="Oval" fill="#C3556A" transform="translate(152.000000, 989.110000) rotate(-24.950000) translate(-152.000000, -989.110000) " cx="152" cy="989.11" r="12.79"></circle>
                <circle id="Oval" fill="#C3556A" transform="translate(263.190000, 976.730000) rotate(-24.950000) translate(-263.190000, -976.730000) " cx="263.19" cy="976.73" r="12.79"></circle>
                <circle id="Oval" fill="#C3556A" transform="translate(249.050000, 892.410000) rotate(-24.950000) translate(-249.050000, -892.410000) " cx="249.05" cy="892.41" r="12.79"></circle>
                <circle id="Oval" fill="#C3556A" transform="translate(130.420000, 862.200000) rotate(-24.950000) translate(-130.420000, -862.200000) " cx="130.42" cy="862.2" r="12.79"></circle>
                <path d="M276.95,907.58 C274.851494,901.230782 277.998124,894.336736 284.169676,891.762197 C290.341228,889.187659 297.454293,891.801747 300.49,897.76" id="Shape" fill="#C3556A"></path>
                <path d="M200.87,958.83 C205.408115,960.403242 208.682243,964.386376 209.34741,969.143174 C210.012577,973.899973 207.956635,978.628437 204.024142,981.386167 C200.091649,984.143897 194.945626,984.465938 190.7,982.22" id="Shape" fill="#B44560"></path>
                <circle id="Oval" fill="#B44560" transform="translate(136.750000, 934.330000) rotate(-24.950000) translate(-136.750000, -934.330000) " cx="136.75" cy="934.33" r="12.79"></circle>
                <circle id="Oval" fill="#B44560" transform="translate(219.850000, 1008.360000) rotate(-24.950000) translate(-219.850000, -1008.360000) " cx="219.85" cy="1008.36" r="12.79"></circle>
                <circle id="Oval" fill="#B44560" transform="translate(216.510000, 859.730000) rotate(-24.950000) translate(-216.510000, -859.730000) " cx="216.51" cy="859.73" r="12.79"></circle>
                <circle id="Oval" fill="#B44560" transform="translate(262.880000, 934.540000) rotate(-24.950000) translate(-262.880000, -934.540000) " cx="262.88" cy="934.54" r="12.79"></circle>
                <path d="M300.49,897.76 C302.66985,902.038443 302.269661,907.17737 299.453747,911.066772 C296.637833,914.956175 291.880684,916.940678 287.135552,916.205458 C282.39042,915.470239 278.456874,912.139184 276.95,907.58" id="Shape" fill="#B44560"></path>
                <path d="M649.94,816.63 C658.337415,827.838639 657.980979,843.336289 649.077132,854.14701 C640.173285,864.957732 625.031239,868.277766 612.420973,862.184213 C599.810707,856.09066 593.002693,842.163882 595.94,828.47 L590.56,817.52 L603.76,813.8 C609.936021,807.39436 618.609138,804.017248 627.490638,804.559836 C636.372139,805.102423 644.569663,809.510194 649.92,816.62 L649.94,816.63 Z" id="Shape" fill="#FFFFFF"></path>
                <circle id="Oval" fill="#000000" transform="translate(625.920000, 835.230000) rotate(-36.930000) translate(-625.920000, -835.230000) " cx="625.92" cy="835.23" r="17.08"></circle>
                <rect id="Rectangle-path" fill="#CED0D1" transform="translate(637.435000, 828.865000) rotate(-17.390000) translate(-637.435000, -828.865000) " x="608.49" y="827.42" width="57.89" height="2.89" rx="1.43"></rect>
                <circle id="Oval" fill="#000000" opacity="0.48" transform="translate(625.920000, 835.230000) rotate(-36.869898) translate(-625.920000, -835.230000) " cx="625.92" cy="835.23" r="25.98"></circle>
                <rect id="Rectangle-path" fill="#59595C" x="682" y="879.88" width="51.21" height="91.38" rx="8.46"></rect>
                <rect id="Rectangle-path" fill="#6D6F70" x="703.63" y="879.88" width="29.58" height="91.38" rx="8.46"></rect>
                <path d="M746.81,891.41 L746.81,918.31 L719,918.31 C718.810295,918.324982 718.619705,918.324982 718.43,918.31 C714.63,917.78 711.62,911.98 711.62,904.9 C711.62,897.82 714.62,892.02 718.43,891.5 C718.619479,891.48011 718.810521,891.48011 719,891.5 L746.81,891.41 Z" id="Shape" fill="#414141"></path>
                <path d="M747.31,932.81 L747.31,959.72 L719.49,959.72 C719.300295,959.734982 719.109705,959.734982 718.92,959.72 C715.12,959.19 712.11,953.39 712.11,946.31 C712.11,939.23 715.11,933.42 718.92,932.9 C719.109479,932.88011 719.300521,932.88011 719.49,932.9 L747.31,932.81 Z" id="Shape" fill="#414141"></path>
                <path d="M718.42,918.27 C718.609705,918.284982 718.800295,918.284982 718.99,918.27 L718.42,918.27 L718.42,918.27 Z" id="Shape" fill="#414141"></path>
                <path d="M719,891.41 C718.810521,891.39011 718.619479,891.39011 718.43,891.41 L718.43,891.41 L719,891.41 Z" id="Shape" fill="#414141"></path>
                <path d="M718.42,959.68 C718.609705,959.694982 718.800295,959.694982 718.99,959.68 L718.42,959.68 L718.42,959.68 Z" id="Shape" fill="#414141"></path>
                <path d="M719,932.81 C718.810521,932.79011 718.619479,932.79011 718.43,932.81 L718.43,932.81 L719,932.81 Z" id="Shape" fill="#414141"></path>
                <ellipse id="Oval" fill="#6D6F70" cx="746.81" cy="904.86" rx="7.39" ry="13.45"></ellipse>
                <ellipse id="Oval" fill="#6D6F70" cx="746.81" cy="946.27" rx="7.39" ry="13.45"></ellipse>
                <ellipse id="Oval" fill="#5E5F5E" cx="746.81" cy="904.86" rx="4.69" ry="8.54"></ellipse>
                <ellipse id="Oval" fill="#5E5F5E" cx="746.81" cy="946.27" rx="4.77" ry="8.68"></ellipse>
                <polyline id="Shape" fill="#A5A7AA" points="689.68 1048.32 691.18 1040.44 699.58 1043.7"></polyline>
                <circle id="Oval" fill="#E4E4E3" cx="702.75" cy="1063.39" r="19.94"></circle>
                <circle id="Oval" fill="#A5A7AA" cx="702.75" cy="1063.39" r="4.52"></circle>
                <rect id="Rectangle-path" fill="#E4E4E3" x="414.07" y="1044.38" width="250.49" height="35.01"></rect>
                <circle id="Oval" fill="#FFFFFF" cx="457.67" cy="1061.89" r="13.85"></circle>
                <circle id="Oval" fill="#000000" cx="457.67" cy="1061.89" r="9.13"></circle>
                <circle id="Oval" fill="#FFFFFF" cx="511.63" cy="1061.89" r="13.85"></circle>
                <circle id="Oval" fill="#C3556A" cx="511.63" cy="1061.89" r="9.13"></circle>
                <circle id="Oval" fill="#FFFFFF" cx="565.58" cy="1061.89" r="13.85"></circle>
                <circle id="Oval" fill="#FFD25E" cx="565.58" cy="1061.89" r="9.13"></circle>
                <circle id="Oval" fill="#FFFFFF" cx="619.53" cy="1061.89" r="13.85"></circle>
                <circle id="Oval" fill="#7A56B9" cx="619.53" cy="1061.89" r="9.13"></circle>
            </g>
            <g id="About_screen2" transform="translate(0.000000, 1129.000000)">
                <g id="Layer_1">
                    <rect id="Rectangle-path" fill="#FFFFFF" x="0" y="39" width="768.1" height="1065.1"></rect>
                    <rect id="Rectangle-path" fill="#E4E4E3" x="46.4" y="637.3" width="208.4" height="91.5"></rect>
                    <rect id="Rectangle-path" fill="#CFD1D2" x="0" y="0" width="768.1" height="39"></rect>
                    <rect id="Rectangle-path" fill="#E5E6E7" x="0" y="39" width="768.1" height="341.4"></rect>
                    <circle id="Oval" fill="#FFFFFF" cx="27.1" cy="21" r="8.6"></circle>
                    <circle id="Oval" fill="#FFFFFF" cx="54.4" cy="21" r="8.6"></circle>
                    <circle id="Oval" fill="#FFFFFF" cx="81.8" cy="21" r="8.6"></circle>
                    <path d="M46.6,1008.7 L46.6,782.3 C46.6,772 55,763.6 65.3,763.6 L236.1,763.6 C246.4,763.6 254.8,772 254.8,782.3 L254.8,1008.7 C254.8,1019 246.4,1027.4 236.1,1027.4 L65.3,1027.4 C55,1027.4 46.6,1019 46.6,1008.7 L46.6,1008.7 Z" id="Shape" fill="#CFD1D2"></path>
                    <path d="M59.7,926.7 L59.7,864.3 C59.7,857 65.6,851.1 72.9,851.1 L102.9,851.1 C110.2,851.1 116.1,857 116.1,864.3 L116.1,926.7 C116.1,934 110.2,939.9 102.9,939.9 L72.9,939.9 C65.6,939.9 59.7,934 59.7,926.7 L59.7,926.7 Z" id="Shape" fill="#A5A7AA"></path>
                    <path d="M236.6,1027.4 L236.6,763.6 L236.6,763.6 L239.5,763.6 C247.9,763.6 254.6,770.4 254.6,778.7 L254.6,778.7 L254.6,1012.2 C254.6,1020.6 247.8,1027.3 239.5,1027.3 L239.5,1027.3 L236.6,1027.3 L236.6,1027.4 L236.6,1027.4 Z" id="Shape" fill="#BABCBE"></path>
                    <path d="M236.6,906.5 L236.6,868.5 L236.6,868.5 L236.7,868.5 C239.3,868.5 241.3,870.6 241.3,873.1 L241.3,873.1 L241.3,901.8 C241.3,904.5 239.2,906.6 236.6,906.5 L236.6,906.5 L236.6,906.5 L236.6,906.5 L236.6,906.5 Z" id="Shape" fill="#A5A7AA"></path>
                    <rect id="Rectangle-path" stroke="#CFD1D2" stroke-width="3" fill="#58595B" x="128.2" y="855.4" width="16" height="80.4"></rect>
                    <rect id="Rectangle-path" stroke="#CFD1D2" stroke-width="3" fill="#58595B" x="128.2" y="935.6" width="16" height="16.1"></rect>
                    <rect id="Rectangle-path" stroke="#CFD1D2" stroke-width="3" fill="#58595B" x="128.2" y="951.7" width="16" height="16.1"></rect>
                    <rect id="Rectangle-path" stroke="#CFD1D2" stroke-width="3" fill="#58595B" x="128.2" y="967.9" width="16" height="16.1"></rect>
                    <rect id="Rectangle-path" stroke="#CFD1D2" stroke-width="3" fill="#58595B" x="128.2" y="984" width="16" height="16.1"></rect>
                    <rect id="Rectangle-path" stroke="#CFD1D2" stroke-width="3" fill="#58595B" x="128.2" y="790.9" width="16" height="16.1"></rect>
                    <rect id="Rectangle-path" stroke="#CFD1D2" stroke-width="3" fill="#58595B" x="128.2" y="807" width="16" height="16.1"></rect>
                    <rect id="Rectangle-path" stroke="#CFD1D2" stroke-width="3" fill="#58595B" x="128.2" y="823.2" width="16" height="16.1"></rect>
                    <rect id="Rectangle-path" stroke="#CFD1D2" stroke-width="3" fill="#58595B" x="128.2" y="839.3" width="16" height="16.1"></rect>
                    <rect id="Rectangle-path" stroke="#CFD1D2" stroke-width="3" fill="#58595B" x="144.2" y="935.6" width="16" height="16.1"></rect>
                    <rect id="Rectangle-path" stroke="#CFD1D2" stroke-width="3" fill="#58595B" x="144.2" y="951.7" width="16" height="16.1"></rect>
                    <rect id="Rectangle-path" stroke="#CFD1D2" stroke-width="3" fill="#58595B" x="144.2" y="967.9" width="16" height="32.3"></rect>
                    <rect id="Rectangle-path" stroke="#CFD1D2" stroke-width="3" fill="#58595B" x="160.2" y="943.7" width="16" height="16.1"></rect>
                    <rect id="Rectangle-path" stroke="#CFD1D2" stroke-width="3" fill="#58595B" x="160.2" y="959.8" width="16" height="16.1"></rect>
                    <rect id="Rectangle-path" stroke="#CFD1D2" stroke-width="3" fill="#58595B" x="160.2" y="975.9" width="16" height="24.2"></rect>
                    <rect id="Rectangle-path" stroke="#CFD1D2" stroke-width="3" fill="#58595B" x="176.2" y="935.6" width="16" height="16.1"></rect>
                    <rect id="Rectangle-path" stroke="#CFD1D2" stroke-width="3" fill="#58595B" x="176.2" y="951.7" width="16" height="16.1"></rect>
                    <rect id="Rectangle-path" stroke="#CFD1D2" stroke-width="3" fill="#58595B" x="176.2" y="967.9" width="16" height="16.1"></rect>
                    <rect id="Rectangle-path" stroke="#CFD1D2" stroke-width="3" fill="#58595B" x="176.2" y="984" width="16" height="16.1"></rect>
                    <rect id="Rectangle-path" stroke="#CFD1D2" stroke-width="3" fill="#58595B" x="192.2" y="943.8" width="16" height="16.1"></rect>
                    <rect id="Rectangle-path" stroke="#CFD1D2" stroke-width="3" fill="#58595B" x="192.2" y="959.9" width="16" height="16.1"></rect>
                    <rect id="Rectangle-path" stroke="#CFD1D2" stroke-width="3" fill="#58595B" x="192.2" y="975.9" width="16" height="24.2"></rect>
                    <rect id="Rectangle-path" stroke="#CFD1D2" stroke-width="3" fill="#58595B" x="144.2" y="871.3" width="16" height="16.1"></rect>
                    <rect id="Rectangle-path" stroke="#CFD1D2" stroke-width="3" fill="#58595B" x="144.2" y="887.5" width="16" height="16.1"></rect>
                    <rect id="Rectangle-path" stroke="#CFD1D2" stroke-width="3" fill="#58595B" x="144.2" y="903.6" width="16" height="16.1"></rect>
                    <rect id="Rectangle-path" stroke="#CFD1D2" stroke-width="3" fill="#58595B" x="144.2" y="919.7" width="16" height="16.1"></rect>
                    <rect id="Rectangle-path" stroke="#CFD1D2" stroke-width="3" fill="#58595B" x="160.2" y="879.5" width="16" height="16.1"></rect>
                    <rect id="Rectangle-path" stroke="#CFD1D2" stroke-width="3" fill="#58595B" x="160.2" y="895.5" width="16" height="16.1"></rect>
                    <rect id="Rectangle-path" stroke="#CFD1D2" stroke-width="3" fill="#58595B" x="160.2" y="911.6" width="16" height="16.1"></rect>
                    <rect id="Rectangle-path" stroke="#CFD1D2" stroke-width="3" fill="#58595B" x="160.2" y="927.8" width="16" height="16.1"></rect>
                    <rect id="Rectangle-path" stroke="#CFD1D2" stroke-width="3" fill="#58595B" x="176.2" y="871.3" width="16" height="16.1"></rect>
                    <rect id="Rectangle-path" stroke="#CFD1D2" stroke-width="3" fill="#58595B" x="176.2" y="887.5" width="16" height="16.1"></rect>
                    <rect id="Rectangle-path" stroke="#CFD1D2" stroke-width="3" fill="#58595B" x="176.2" y="903.6" width="16" height="16.1"></rect>
                    <rect id="Rectangle-path" stroke="#CFD1D2" stroke-width="3" fill="#58595B" x="176.2" y="919.7" width="16" height="16.1"></rect>
                    <rect id="Rectangle-path" stroke="#CFD1D2" stroke-width="3" fill="#58595B" x="192.2" y="879.5" width="16" height="16.1"></rect>
                    <rect id="Rectangle-path" stroke="#CFD1D2" stroke-width="3" fill="#58595B" x="192.2" y="895.6" width="16" height="16.1"></rect>
                    <rect id="Rectangle-path" stroke="#CFD1D2" stroke-width="3" fill="#58595B" x="192.2" y="911.8" width="16" height="16.1"></rect>
                    <rect id="Rectangle-path" stroke="#CFD1D2" stroke-width="3" fill="#58595B" x="192.2" y="927.9" width="16" height="16.1"></rect>
                    <rect id="Rectangle-path" stroke="#CFD1D2" stroke-width="3" fill="#58595B" x="144.2" y="823.2" width="16" height="16.1"></rect>
                    <rect id="Rectangle-path" stroke="#CFD1D2" stroke-width="3" fill="#58595B" x="144.2" y="839.3" width="16" height="16.1"></rect>
                    <rect id="Rectangle-path" stroke="#CFD1D2" stroke-width="3" fill="#58595B" x="144.2" y="855.4" width="16" height="16.1"></rect>
                    <rect id="Rectangle-path" stroke="#CFD1D2" stroke-width="3" fill="#58595B" x="160.2" y="815.1" width="16" height="16.1"></rect>
                    <rect id="Rectangle-path" stroke="#CFD1D2" stroke-width="3" fill="#58595B" x="160.2" y="831.2" width="16" height="16.1"></rect>
                    <rect id="Rectangle-path" stroke="#CFD1D2" stroke-width="3" fill="#58595B" x="160.2" y="847.4" width="16" height="16.1"></rect>
                    <rect id="Rectangle-path" stroke="#CFD1D2" stroke-width="3" fill="#58595B" x="160.2" y="863.5" width="16" height="16.1"></rect>
                    <rect id="Rectangle-path" stroke="#CFD1D2" stroke-width="3" fill="#58595B" x="176.2" y="807" width="16" height="16.1"></rect>
                    <rect id="Rectangle-path" stroke="#CFD1D2" stroke-width="3" fill="#58595B" x="176.2" y="823.2" width="16" height="16.1"></rect>
                    <rect id="Rectangle-path" stroke="#CFD1D2" stroke-width="3" fill="#58595B" x="176.2" y="839.3" width="16" height="16.1"></rect>
                    <rect id="Rectangle-path" stroke="#CFD1D2" stroke-width="3" fill="#58595B" x="176.2" y="855.4" width="16" height="16.1"></rect>
                    <rect id="Rectangle-path" stroke="#CFD1D2" stroke-width="3" fill="#58595B" x="192.2" y="815.2" width="16" height="16.1"></rect>
                    <rect id="Rectangle-path" stroke="#CFD1D2" stroke-width="3" fill="#58595B" x="144.2" y="790.9" width="16" height="32.3"></rect>
                    <rect id="Rectangle-path" stroke="#CFD1D2" stroke-width="3" fill="#58595B" x="160.2" y="790.9" width="16" height="24.2"></rect>
                    <rect id="Rectangle-path" stroke="#CFD1D2" stroke-width="3" fill="#58595B" x="176.2" y="790.9" width="16" height="16.1"></rect>
                    <rect id="Rectangle-path" stroke="#CFD1D2" stroke-width="3" fill="#58595B" x="192.2" y="790.9" width="16" height="24.3"></rect>
                    <rect id="Rectangle-path" stroke="#CFD1D2" stroke-width="3" fill="#58595B" x="192.2" y="831.4" width="16" height="16.1"></rect>
                    <rect id="Rectangle-path" stroke="#CFD1D2" stroke-width="3" fill="#58595B" x="192.2" y="847.5" width="16" height="16.1"></rect>
                    <rect id="Rectangle-path" stroke="#CFD1D2" stroke-width="3" fill="#58595B" x="192.2" y="863.6" width="16" height="16.1"></rect>
                    <rect id="Rectangle-path" stroke="#CFD1D2" stroke-width="3" fill="#58595B" x="207.7" y="935.7" width="9" height="16.1"></rect>
                    <rect id="Rectangle-path" stroke="#CFD1D2" stroke-width="3" fill="#58595B" x="207.7" y="951.8" width="9" height="16.1"></rect>
                    <rect id="Rectangle-path" stroke="#CFD1D2" stroke-width="3" fill="#58595B" x="207.7" y="968" width="9" height="16.1"></rect>
                    <rect id="Rectangle-path" stroke="#CFD1D2" stroke-width="3" fill="#58595B" x="207.7" y="984.1" width="9" height="16.1"></rect>
                    <rect id="Rectangle-path" stroke="#CFD1D2" stroke-width="3" fill="#58595B" x="207.8" y="871.4" width="9" height="16.1"></rect>
                    <rect id="Rectangle-path" stroke="#CFD1D2" stroke-width="3" fill="#58595B" x="207.8" y="887.6" width="9" height="16.1"></rect>
                    <rect id="Rectangle-path" stroke="#CFD1D2" stroke-width="3" fill="#58595B" x="207.8" y="903.7" width="9" height="16.1"></rect>
                    <rect id="Rectangle-path" stroke="#CFD1D2" stroke-width="3" fill="#58595B" x="207.8" y="919.8" width="9" height="16.1"></rect>
                    <rect id="Rectangle-path" stroke="#CFD1D2" stroke-width="3" fill="#58595B" x="207.8" y="807.2" width="9" height="16.1"></rect>
                    <rect id="Rectangle-path" stroke="#CFD1D2" stroke-width="3" fill="#58595B" x="207.7" y="791" width="9" height="16.1"></rect>
                    <rect id="Rectangle-path" stroke="#CFD1D2" stroke-width="3" fill="#58595B" x="207.8" y="823.3" width="9" height="16.1"></rect>
                    <rect id="Rectangle-path" stroke="#CFD1D2" stroke-width="3" fill="#58595B" x="207.8" y="839.4" width="9" height="16.1"></rect>
                    <rect id="Rectangle-path" stroke="#CFD1D2" stroke-width="3" fill="#58595B" x="207.8" y="855.6" width="9" height="16.1"></rect>
                    <path d="M414.8,221.6 C414.8,246.2 406.9,270.2 392.1,289.8 C361.9,249.3 361.9,193.8 392.1,153.3 C406.9,173.1 414.8,197 414.8,221.6 L414.8,221.6 Z" id="Shape" fill="#00A59B" opacity="0.6"></path>
                    <path d="M369.4,221.6 C369.4,246.2 377.3,270.2 392.1,289.8 C354.4,340.3 283,350.6 232.5,313 C182,275.4 171.7,203.9 209.4,153.4 C247.1,102.9 318.6,92.6 369,130.3 C377.8,136.8 385.5,144.6 392.1,153.4 C377.3,173.1 369.4,197 369.4,221.6 L369.4,221.6 Z" id="Shape" fill="#7A56B9"></path>
                    <path d="M414.8,221.6 C414.8,246.2 406.9,270.2 392.1,289.8 C361.9,249.3 361.9,193.8 392.1,153.3 C406.9,173.1 414.8,197 414.8,221.6 L414.8,221.6 Z" id="Shape" fill="#E4617B"></path>
                    <path d="M597.3,221.6 C597.2,284.6 546.1,335.5 483.2,335.5 C447.3,335.5 413.6,318.6 392.1,289.9 C422.3,249.4 422.3,193.9 392.1,153.4 C429.9,103 501.3,92.8 551.7,130.5 C580.4,152 597.3,185.8 597.3,221.6 L597.3,221.6 L597.3,221.6 Z" id="Shape" fill="#C74564"></path>
                    <rect id="Rectangle-path" fill="#E4E4E3" x="46.4" y="429.3" width="506.4" height="171.1"></rect>
                    <rect id="Rectangle-path" fill="#E4E4E3" x="334.9" y="641.5" width="377.3" height="386"></rect>
                    <circle id="Oval" stroke="#BABCBE" stroke-width="10.0001745" fill="#5A4A42" transform="translate(107.699030, 687.793110) rotate(-44.578656) translate(-107.699030, -687.793110) " cx="107.69903" cy="687.79311" r="30.0005235"></circle>
                    <rect id="Rectangle-path" stroke="#BABCBE" stroke-width="1.00001745" fill="#BABCBE" transform="translate(79.480830, 659.255010) rotate(-44.578656) translate(-79.480830, -659.255010) " x="75.5807619" y="649.154834" width="7.80013611" height="20.2003525"></rect>
                    <path d="M102.9,672 C102.9,672 87.4,676.8 90.6,693.8 C90.6,693.8 99.3,674 102.9,672 L102.9,672 Z" id="Shape" fill="#716558"></path>
                    <path d="M419.8,872 C419.8,872 398.6,883.4 386.3,891.4 C374,899.4 341.3,893.4 341.3,893.4" id="Shape" stroke="#BABCBE" stroke-width="3"></path>
                    <path d="M331.6,796.8 L341.9,796.8 C357.5,796.8 370.2,809.5 370.2,825.1 L370.2,847.4 C370.2,863 357.5,875.7 341.9,875.7 L331.6,875.7 C316,875.7 303.3,863 303.3,847.4 L303.3,825.1 C303.3,809.5 316,796.8 331.6,796.8 L331.6,796.8 Z" id="Shape" fill="#BABCBE"></path>
                    <path d="M622.2,677.2 L653.1,677.2 C661.9,677.2 669.1,684.4 669.1,693.2 L669.1,719.5 C669.1,728.3 661.9,735.5 653.1,735.5 L622.2,735.5 C613.4,735.5 606.2,728.3 606.2,719.5 L606.2,693.2 C606.2,684.3 613.4,677.2 622.2,677.2 L622.2,677.2 Z" id="Shape" fill="#BABCBE"></path>
                    <path d="M630.4,695.1 L645,695.1 C651.1,695.1 656.1,700.1 656.1,706.2 L656.1,706.5 C656.1,712.6 651.1,717.6 645,717.6 L630.4,717.6 C624.3,717.6 619.3,712.6 619.3,706.5 L619.3,706.2 C619.3,700.1 624.3,695.1 630.4,695.1 L630.4,695.1 Z" id="Shape" fill="#FFFFFF"></path>
                    <path d="M323.9,1022.3 L323.9,647.5 C323.9,644.3 326.5,641.7 329.7,641.7 L343.9,641.7 C347.1,641.7 349.7,644.3 349.7,647.5 L349.7,1022.3 C349.7,1025.5 347.1,1028.1 343.9,1028.1 L329.7,1028.1 C326.5,1028.1 323.9,1025.5 323.9,1022.3 L323.9,1022.3 Z" id="Shape" fill="#CFD1D2"></path>
                    <rect id="Rectangle-path" fill="#BABCBE" x="413.8" y="719.6" width="73.3" height="281.4"></rect>
                    <rect id="Rectangle-path" stroke="#BABCBE" stroke-width="3" fill="#FFFFFF" x="467.6" y="872.1" width="13.2" height="66.1"></rect>
                    <rect id="Rectangle-path" stroke="#BABCBE" stroke-width="3" fill="#FFFFFF" x="467.6" y="938" width="13.2" height="13.3"></rect>
                    <rect id="Rectangle-path" stroke="#BABCBE" stroke-width="3" fill="#FFFFFF" x="467.6" y="951.3" width="13.2" height="13.3"></rect>
                    <rect id="Rectangle-path" stroke="#BABCBE" stroke-width="3" fill="#FFFFFF" x="467.6" y="964.6" width="13.2" height="13.3"></rect>
                    <rect id="Rectangle-path" stroke="#BABCBE" stroke-width="3" fill="#FFFFFF" x="467.6" y="977.9" width="13.2" height="13.3"></rect>
                    <rect id="Rectangle-path" stroke="#BABCBE" stroke-width="3" fill="#FFFFFF" x="467.6" y="819.1" width="13.2" height="13.3"></rect>
                    <rect id="Rectangle-path" stroke="#BABCBE" stroke-width="3" fill="#FFFFFF" x="467.6" y="832.3" width="13.2" height="13.3"></rect>
                    <rect id="Rectangle-path" stroke="#BABCBE" stroke-width="3" fill="#FFFFFF" x="467.6" y="845.6" width="13.2" height="13.3"></rect>
                    <rect id="Rectangle-path" stroke="#BABCBE" stroke-width="3" fill="#FFFFFF" x="467.6" y="858.8" width="13.2" height="13.3"></rect>
                    <rect id="Rectangle-path" stroke="#BABCBE" stroke-width="3" fill="#FFFFFF" x="454.5" y="938" width="13.2" height="13.3"></rect>
                    <rect id="Rectangle-path" stroke="#BABCBE" stroke-width="3" fill="#FFFFFF" x="454.5" y="951.3" width="13.2" height="13.3"></rect>
                    <rect id="Rectangle-path" stroke="#BABCBE" stroke-width="3" fill="#FFFFFF" x="454.5" y="964.6" width="13.2" height="26.5"></rect>
                    <rect id="Rectangle-path" stroke="#BABCBE" stroke-width="3" fill="#FFFFFF" x="441.3" y="944.7" width="13.2" height="13.3"></rect>
                    <rect id="Rectangle-path" stroke="#BABCBE" stroke-width="3" fill="#FFFFFF" x="441.3" y="958" width="13.2" height="13.3"></rect>
                    <rect id="Rectangle-path" stroke="#BABCBE" stroke-width="3" fill="#FFFFFF" x="441.3" y="971.2" width="13.2" height="19.9"></rect>
                    <rect id="Rectangle-path" stroke="#BABCBE" stroke-width="3" fill="#FFFFFF" x="428.1" y="938" width="13.2" height="13.3"></rect>
                    <rect id="Rectangle-path" stroke="#BABCBE" stroke-width="3" fill="#FFFFFF" x="428.1" y="951.3" width="13.2" height="13.3"></rect>
                    <rect id="Rectangle-path" stroke="#BABCBE" stroke-width="3" fill="#FFFFFF" x="428.1" y="964.6" width="13.2" height="13.3"></rect>
                    <rect id="Rectangle-path" stroke="#BABCBE" stroke-width="3" fill="#FFFFFF" x="428.1" y="977.9" width="13.2" height="13.3"></rect>
                    <rect id="Rectangle-path" stroke="#BABCBE" stroke-width="3" fill="#FFFFFF" x="454.4" y="885.2" width="13.2" height="13.3"></rect>
                    <rect id="Rectangle-path" stroke="#BABCBE" stroke-width="3" fill="#FFFFFF" x="454.4" y="898.5" width="13.2" height="13.3"></rect>
                    <rect id="Rectangle-path" stroke="#BABCBE" stroke-width="3" fill="#FFFFFF" x="454.4" y="911.7" width="13.2" height="13.3"></rect>
                    <rect id="Rectangle-path" stroke="#BABCBE" stroke-width="3" fill="#FFFFFF" x="454.4" y="925" width="13.2" height="13.3"></rect>
                    <rect id="Rectangle-path" stroke="#BABCBE" stroke-width="3" fill="#FFFFFF" x="441.3" y="891.9" width="13.2" height="13.3"></rect>
                    <rect id="Rectangle-path" stroke="#BABCBE" stroke-width="3" fill="#FFFFFF" x="441.3" y="905.1" width="13.2" height="13.3"></rect>
                    <rect id="Rectangle-path" stroke="#BABCBE" stroke-width="3" fill="#FFFFFF" x="441.3" y="918.3" width="13.2" height="13.3"></rect>
                    <rect id="Rectangle-path" stroke="#BABCBE" stroke-width="3" fill="#FFFFFF" x="441.3" y="931.6" width="13.2" height="13.3"></rect>
                    <rect id="Rectangle-path" stroke="#BABCBE" stroke-width="3" fill="#FFFFFF" x="428.1" y="885.2" width="13.2" height="13.3"></rect>
                    <rect id="Rectangle-path" stroke="#BABCBE" stroke-width="3" fill="#FFFFFF" x="428.1" y="898.5" width="13.2" height="13.3"></rect>
                    <rect id="Rectangle-path" stroke="#BABCBE" stroke-width="3" fill="#FFFFFF" x="428.1" y="911.7" width="13.2" height="13.3"></rect>
                    <rect id="Rectangle-path" stroke="#BABCBE" stroke-width="3" fill="#FFFFFF" x="428.1" y="925" width="13.2" height="13.3"></rect>
                    <rect id="Rectangle-path" stroke="#BABCBE" stroke-width="3" fill="#FFFFFF" x="454.4" y="845.6" width="13.2" height="13.3"></rect>
                    <rect id="Rectangle-path" stroke="#BABCBE" stroke-width="3" fill="#FFFFFF" x="454.4" y="858.8" width="13.2" height="13.3"></rect>
                    <rect id="Rectangle-path" stroke="#BABCBE" stroke-width="3" fill="#FFFFFF" x="454.4" y="872.1" width="13.2" height="13.3"></rect>
                    <rect id="Rectangle-path" stroke="#BABCBE" stroke-width="3" fill="#FFFFFF" x="441.3" y="839" width="13.2" height="13.3"></rect>
                    <rect id="Rectangle-path" stroke="#BABCBE" stroke-width="3" fill="#FFFFFF" x="441.3" y="852.2" width="13.2" height="13.3"></rect>
                    <rect id="Rectangle-path" stroke="#BABCBE" stroke-width="3" fill="#FFFFFF" x="441.3" y="865.5" width="13.2" height="13.3"></rect>
                    <rect id="Rectangle-path" stroke="#BABCBE" stroke-width="3" fill="#FFFFFF" x="441.3" y="878.8" width="13.2" height="13.3"></rect>
                    <rect id="Rectangle-path" stroke="#BABCBE" stroke-width="3" fill="#FFFFFF" x="428.1" y="832.3" width="13.2" height="13.3"></rect>
                    <rect id="Rectangle-path" stroke="#BABCBE" stroke-width="3" fill="#FFFFFF" x="428.1" y="845.6" width="13.2" height="13.3"></rect>
                    <rect id="Rectangle-path" stroke="#BABCBE" stroke-width="3" fill="#FFFFFF" x="428.1" y="858.8" width="13.2" height="13.3"></rect>
                    <rect id="Rectangle-path" stroke="#BABCBE" stroke-width="3" fill="#FFFFFF" x="428.1" y="872.1" width="13.2" height="13.3"></rect>
                    <rect id="Rectangle-path" stroke="#BABCBE" stroke-width="3" fill="#FFFFFF" x="454.5" y="819.1" width="13.2" height="26.5"></rect>
                    <rect id="Rectangle-path" stroke="#BABCBE" stroke-width="3" fill="#FFFFFF" x="441.3" y="819.1" width="13.2" height="19.9"></rect>
                    <rect id="Rectangle-path" stroke="#BABCBE" stroke-width="3" fill="#FFFFFF" x="428.2" y="819.1" width="13.2" height="13.3"></rect>
                    <rect id="Rectangle-path" stroke="#BABCBE" stroke-width="3" fill="#FFFFFF" x="420.7" y="938.1" width="7.4" height="13.3"></rect>
                    <rect id="Rectangle-path" stroke="#BABCBE" stroke-width="3" fill="#FFFFFF" x="420.7" y="951.4" width="7.4" height="13.3"></rect>
                    <rect id="Rectangle-path" stroke="#BABCBE" stroke-width="3" fill="#FFFFFF" x="420.7" y="964.7" width="7.4" height="13.3"></rect>
                    <rect id="Rectangle-path" stroke="#BABCBE" stroke-width="3" fill="#FFFFFF" x="420.7" y="978" width="7.4" height="13.3"></rect>
                    <rect id="Rectangle-path" stroke="#BABCBE" stroke-width="3" fill="#FFFFFF" x="420.7" y="885.3" width="7.4" height="13.3"></rect>
                    <rect id="Rectangle-path" stroke="#BABCBE" stroke-width="3" fill="#FFFFFF" x="420.7" y="898.5" width="7.4" height="13.3"></rect>
                    <rect id="Rectangle-path" stroke="#BABCBE" stroke-width="3" fill="#FFFFFF" x="420.7" y="911.8" width="7.4" height="13.3"></rect>
                    <rect id="Rectangle-path" stroke="#BABCBE" stroke-width="3" fill="#FFFFFF" x="420.7" y="925.1" width="7.4" height="13.3"></rect>
                    <rect id="Rectangle-path" stroke="#BABCBE" stroke-width="3" fill="#FFFFFF" x="420.7" y="832.4" width="7.4" height="13.3"></rect>
                    <rect id="Rectangle-path" stroke="#BABCBE" stroke-width="3" fill="#FFFFFF" x="420.7" y="819.1" width="7.4" height="13.3"></rect>
                    <rect id="Rectangle-path" stroke="#BABCBE" stroke-width="3" fill="#FFFFFF" x="420.7" y="845.7" width="7.4" height="13.3"></rect>
                    <rect id="Rectangle-path" stroke="#BABCBE" stroke-width="3" fill="#FFFFFF" x="421.9" y="741.2" width="7.4" height="13.3"></rect>
                    <rect id="Rectangle-path" stroke="#BABCBE" stroke-width="3" fill="#FFFFFF" x="421.9" y="728" width="7.4" height="13.3"></rect>
                    <rect id="Rectangle-path" stroke="#BABCBE" stroke-width="3" fill="#FFFFFF" x="421.9" y="754.5" width="7.4" height="13.3"></rect>
                    <rect id="Rectangle-path" stroke="#BABCBE" stroke-width="3" fill="#FFFFFF" x="470.9" y="799.4" width="10.7" height="13.3"></rect>
                    <rect id="Rectangle-path" stroke="#BABCBE" stroke-width="3" fill="#FFFFFF" x="470.9" y="786.6" width="10.7" height="13.3"></rect>
                    <rect id="Rectangle-path" stroke="#BABCBE" stroke-width="3" fill="#FFFFFF" x="470.9" y="773.6" width="10.7" height="13.3"></rect>
                    <rect id="Rectangle-path" stroke="#BABCBE" stroke-width="3" fill="#FFFFFF" x="460.2" y="786.9" width="10.7" height="13.3"></rect>
                    <rect id="Rectangle-path" stroke="#BABCBE" stroke-width="3" fill="#FFFFFF" x="420.7" y="859" width="7.4" height="13.3"></rect>
                    <rect id="Rectangle-path" stroke="#BABCBE" stroke-width="3" fill="#FFFFFF" x="420.7" y="872.2" width="7.4" height="13.3"></rect>
                    <rect id="Rectangle-path" stroke="#BABCBE" stroke-width="3" fill="#FFFFFF" x="442.5" y="754.5" width="13.2" height="13.3"></rect>
                    <rect id="Rectangle-path" stroke="#BABCBE" stroke-width="3" fill="#FFFFFF" x="455.6" y="754.5" width="26.4" height="13.3"></rect>
                    <rect id="Rectangle-path" stroke="#BABCBE" stroke-width="3" fill="#FFFFFF" x="429.3" y="754.5" width="13.2" height="13.3"></rect>
                    <rect id="Rectangle-path" stroke="#BABCBE" stroke-width="3" fill="#FFFFFF" x="429.3" y="741.2" width="13.2" height="13.3"></rect>
                    <rect id="Rectangle-path" stroke="#BABCBE" stroke-width="3" fill="#FFFFFF" x="429.3" y="728" width="13.2" height="13.3"></rect>
                    <rect id="Rectangle-path" stroke="#BABCBE" stroke-width="3" fill="#FFFFFF" x="442.5" y="741.2" width="13.2" height="13.3"></rect>
                    <rect id="Rectangle-path" stroke="#BABCBE" stroke-width="3" fill="#FFFFFF" x="442.5" y="728" width="13.2" height="13.3"></rect>
                    <rect id="Rectangle-path" stroke="#BABCBE" stroke-width="3" fill="#FFFFFF" x="455.6" y="741.2" width="13.2" height="13.3"></rect>
                    <rect id="Rectangle-path" stroke="#BABCBE" stroke-width="3" fill="#FFFFFF" x="455.6" y="728" width="13.2" height="13.3"></rect>
                    <rect id="Rectangle-path" stroke="#BABCBE" stroke-width="3" fill="#FFFFFF" x="468.8" y="727.9" width="13.2" height="26.5"></rect>
                    <rect id="Rectangle-path" fill="#CFD1D2" transform="translate(159.698570, 518.401290) rotate(-7.209585) translate(-159.698570, -518.401290) " x="75.8980395" y="461.100927" width="167.601061" height="114.600725"></rect>
                    <rect id="Rectangle-path" fill="#F0F0F1" transform="translate(174.238693, 518.400126) rotate(-85.229829) translate(-174.238693, -518.400126) " x="116.940779" y="434.603177" width="114.595827" height="167.593897"></rect>
                    <path d="M597.5,429.3 L704.4,429.3 C708.7,429.3 712.2,432.8 712.2,437.1 L712.2,592.6 C712.2,596.9 708.7,600.4 704.4,600.4 L597.5,600.4 C593.2,600.4 589.7,596.9 589.7,592.6 L589.7,437.1 C589.7,432.8 593.1,429.3 597.5,429.3 L597.5,429.3 Z" id="Shape" fill="#284250"></path>
                    <path d="M604,435.6 L697.8,435.6 C702.3,435.6 705.9,439.2 705.9,443.7 L705.9,443.7 L705.9,513.6 L705.9,513.6 L595.9,513.6 L595.9,513.6 L595.9,443.7 C595.9,439.3 599.5,435.6 604,435.6 L604,435.6 L604,435.6 Z" id="Shape" fill="#F0F0F1"></path>
                    <path d="M595.9,516.1 L705.9,516.1 L705.9,516.1 L705.9,587 C705.9,590.9 702.7,594.1 698.8,594.1 L603,594.1 C599.1,594.1 595.9,590.9 595.9,587 L595.9,516.1 L595.9,516.1 L595.9,516.1 Z" id="Shape" fill="#F0F0F1"></path>
                    <rect id="Rectangle-path" stroke="#284250" stroke-width="2" x="613.3" y="449.1" width="75.2" height="47.1"></rect>
                    <rect id="Rectangle-path" stroke="#284250" stroke-width="2" x="613.2" y="449.1" width="31.9" height="47.1"></rect>
                    <path d="M613.3,449.1 L645.1,496.2" id="Shape" stroke="#284250" stroke-width="2"></path>
                    <path d="M613.3,496.2 L645.1,449.1" id="Shape" stroke="#284250" stroke-width="2"></path>
                    <path d="M657.5,457.1 L657.5,488.2" id="Shape" stroke="#284250" stroke-width="2"></path>
                    <path d="M666.5,457.1 L666.5,488.2" id="Shape" stroke="#284250" stroke-width="2"></path>
                    <path d="M674.6,457.1 L674.6,488.2" id="Shape" stroke="#284250" stroke-width="2"></path>
                    <path d="M613.2,528.6 L613.2,582" id="Shape" stroke="#284250" stroke-width="2"></path>
                    <path d="M624.2,528.6 L624.2,582" id="Shape" stroke="#284250" stroke-width="2"></path>
                    <path d="M635.2,528.6 L635.2,582" id="Shape" stroke="#284250" stroke-width="2"></path>
                    <path d="M646.3,546.1 L646.3,582" id="Shape" stroke="#284250" stroke-width="2"></path>
                    <rect id="Rectangle-path" fill="#497A74" x="589.7" y="513.6" width="122.5" height="2.5"></rect>
                    <path d="M415.6,456.8 L497,440.5 C506.4,438.6 515.6,444.7 517.5,454.2 L517.5,454.2 L536.9,551 C538.8,560.4 532.7,569.6 523.2,571.5 L523.2,571.5 L441.8,587.8 L441.8,587.8 L415.6,456.8 L415.6,456.8 L415.6,456.8 Z" id="Shape" fill="#284250"></path>
                    <path d="M442.4,444.4 L499.1,452.9 C508.6,454.3 515.2,463.2 513.8,472.7 L513.8,472.7 L502.5,548.5 C501.1,558 492.2,564.6 482.7,563.2 L482.7,563.2 L426,554.7 L426,554.7 L442.4,444.4 L442.4,444.4 L442.4,444.4 Z" id="Shape" fill="#00A59B"></path>
                    <rect id="Rectangle-path" fill="#284250" transform="translate(475.483800, 476.609350) rotate(-81.489066) translate(-475.483800, -476.609350) " x="467.333698" y="450.909029" width="16.3002037" height="51.4006425"></rect>
                    <rect id="Rectangle-path" fill="#FFD25E" transform="translate(239.704535, 463.181721) rotate(-89.650007) translate(-239.704535, -463.181721) " x="228.904333" y="350.379616" width="21.600403" height="225.604209"></rect>
                    <g id="Group" opacity="0.23" transform="translate(139.000000, 451.000000)" fill="#5A4A42">
                        <rect id="Rectangle-path" transform="translate(1.309339, 6.235064) rotate(-89.650007) translate(-1.309339, -6.235064) " x="-4.09076221" y="4.98504043" width="10.8002015" height="2.50004664"></rect>
                        <rect id="Rectangle-path" transform="translate(7.845355, 3.551070) rotate(-89.650007) translate(-7.845355, -3.551070) " x="5.14530502" y="2.30104717" width="5.40010075" height="2.50004664"></rect>
                        <rect id="Rectangle-path" transform="translate(15.239848, 3.635681) rotate(-89.650007) translate(-15.239848, -3.635681) " x="12.5397979" y="2.38565803" width="5.40010075" height="2.50004664"></rect>
                        <rect id="Rectangle-path" transform="translate(22.544852, 3.629781) rotate(-89.650007) translate(-22.544852, -3.629781) " x="19.8448016" y="2.37975803" width="5.40010075" height="2.50004664"></rect>
                        <rect id="Rectangle-path" transform="translate(35.664175, 3.708892) rotate(-89.650007) translate(-35.664175, -3.708892) " x="32.9641245" y="2.45886889" width="5.40010075" height="2.50004664"></rect>
                        <rect id="Rectangle-path" transform="translate(42.968568, 3.802992) rotate(-89.650007) translate(-42.968568, -3.802992) " x="40.2685174" y="2.55296889" width="5.40010075" height="2.50004664"></rect>
                        <rect id="Rectangle-path" transform="translate(50.363671, 3.787603) rotate(-89.650007) translate(-50.363671, -3.787603) " x="47.6636211" y="2.53757976" width="5.40010075" height="2.50004664"></rect>
                        <rect id="Rectangle-path" transform="translate(63.492794, 3.876914) rotate(-89.650007) translate(-63.492794, -3.876914) " x="60.792744" y="2.62689062" width="5.40010075" height="2.50004664"></rect>
                        <rect id="Rectangle-path" transform="translate(70.787287, 3.960914) rotate(-89.650007) translate(-70.787287, -3.960914) " x="68.0872368" y="2.71089062" width="5.40010075" height="2.50004664"></rect>
                        <rect id="Rectangle-path" transform="translate(78.181780, 4.045525) rotate(-89.650007) translate(-78.181780, -4.045525) " x="75.4817297" y="2.79550148" width="5.40010075" height="2.50004664"></rect>
                        <rect id="Rectangle-path" transform="translate(91.211614, 4.034125) rotate(-89.650007) translate(-91.211614, -4.034125) " x="88.5115634" y="2.78410148" width="5.40010075" height="2.50004664"></rect>
                        <rect id="Rectangle-path" transform="translate(98.606007, 4.118736) rotate(-89.650007) translate(-98.606007, -4.118736) " x="95.9059563" y="2.86871234" width="5.40010075" height="2.50004664"></rect>
                        <rect id="Rectangle-path" transform="translate(105.910500, 4.212836) rotate(-89.650007) translate(-105.910500, -4.212836) " x="103.210449" y="2.96281234" width="5.40010075" height="2.50004664"></rect>
                        <rect id="Rectangle-path" transform="translate(119.050133, 4.212047) rotate(-89.650007) translate(-119.050133, -4.212047) " x="116.350083" y="2.9620232" width="5.40010075" height="2.50004664"></rect>
                        <rect id="Rectangle-path" transform="translate(126.344626, 4.295947) rotate(-89.650007) translate(-126.344626, -4.295947) " x="123.644576" y="3.0459232" width="5.40010075" height="2.50004664"></rect>
                        <rect id="Rectangle-path" transform="translate(133.739119, 4.380657) rotate(-89.650007) translate(-133.739119, -4.380657) " x="131.039069" y="3.13063406" width="5.40010075" height="2.50004664"></rect>
                        <rect id="Rectangle-path" transform="translate(146.858242, 4.479768) rotate(-89.650007) translate(-146.858242, -4.479768) " x="144.158192" y="3.22974492" width="5.40010075" height="2.50004664"></rect>
                        <rect id="Rectangle-path" transform="translate(154.163346, 4.453868) rotate(-89.650007) translate(-154.163346, -4.453868) " x="151.463295" y="3.20384492" width="5.40010075" height="2.50004664"></rect>
                        <rect id="Rectangle-path" transform="translate(161.557739, 4.558479) rotate(-89.650007) translate(-161.557739, -4.558479) " x="158.857688" y="3.30845579" width="5.40010075" height="2.50004664"></rect>
                        <rect id="Rectangle-path" transform="translate(174.676961, 4.637590) rotate(-89.650007) translate(-174.676961, -4.637590) " x="171.976911" y="3.38756665" width="5.40010075" height="2.50004664"></rect>
                        <rect id="Rectangle-path" transform="translate(181.991965, 4.621790) rotate(-89.650007) translate(-181.991965, -4.621790) " x="179.291915" y="3.37176665" width="5.40010075" height="2.50004664"></rect>
                        <rect id="Rectangle-path" transform="translate(189.276458, 4.715790) rotate(-89.650007) translate(-189.276458, -4.715790) " x="186.576408" y="3.46576665" width="5.40010075" height="2.50004664"></rect>
                        <rect id="Rectangle-path" transform="translate(29.138058, 6.402985) rotate(-89.650007) translate(-29.138058, -6.402985) " x="23.7379573" y="5.15296215" width="10.8002015" height="2.50004664"></rect>
                        <rect id="Rectangle-path" transform="translate(56.866677, 6.570296) rotate(-89.650007) translate(-56.866677, -6.570296) " x="51.4665767" y="5.32027301" width="10.8002015" height="2.50004664"></rect>
                        <rect id="Rectangle-path" transform="translate(84.685497, 6.728218) rotate(-89.650007) translate(-84.685497, -6.728218) " x="79.2853962" y="5.47819474" width="10.8002015" height="2.50004664"></rect>
                        <rect id="Rectangle-path" transform="translate(112.514116, 6.896040) rotate(-89.650007) translate(-112.514116, -6.896040) " x="107.114016" y="5.64601646" width="10.8002015" height="2.50004664"></rect>
                        <rect id="Rectangle-path" transform="translate(140.232836, 7.053351) rotate(-89.650007) translate(-140.232836, -7.053351) " x="134.832735" y="5.80332732" width="10.8002015" height="2.50004664"></rect>
                        <rect id="Rectangle-path" transform="translate(168.041555, 7.221172) rotate(-89.650007) translate(-168.041555, -7.221172) " x="162.641455" y="5.97114904" width="10.8002015" height="2.50004664"></rect>
                        <rect id="Rectangle-path" transform="translate(195.880175, 7.398994) rotate(-89.650007) translate(-195.880175, -7.398994) " x="190.480074" y="6.14897077" width="10.8002015" height="2.50004664"></rect>
                    </g>
                    <polyline id="Shape" fill="#284250" points="388.4 470.4 391 463.2 395.7 469.2"></polyline>
                    <polyline id="Shape" fill="#FFD25E" points="395.7 469.2 403.7 518.2 396.4 519.3 388.4 470.4"></polyline>
                    <rect id="Rectangle-path" fill="#C74564" transform="translate(400.480040, 521.366815) rotate(-9.288066) translate(-400.480040, -521.366815) " x="396.78" y="518.716786" width="7.40007981" height="5.30005716"></rect>
                    <rect id="Rectangle-path" fill="#FFD25E" transform="translate(535.622383, 745.531020) rotate(-2.049918) translate(-535.622383, -745.531020) " x="515.921595" y="725.830233" width="39.4015754" height="39.4015754"></rect>
                    <rect id="Rectangle-path" fill="#284250" opacity="0.3" transform="translate(527.450641, 744.647037) rotate(-2.290612) translate(-527.450641, -744.647037) " x="525.300643" y="731.49705" width="4.29999588" height="26.2999748"></rect>
                    <rect id="Rectangle-path" fill="#284250" opacity="0.3" transform="translate(533.673356, 750.330995) rotate(-2.049918) translate(-533.673356, -750.330995) " x="531.523271" y="741.430639" width="4.30017193" height="17.8007117"></rect>
                    <rect id="Rectangle-path" fill="#FFD25E" transform="translate(478.220548, 681.926771) rotate(-2.049918) translate(-478.220548, -681.926771) " x="458.51976" y="662.225984" width="39.4015754" height="39.4015754"></rect>
                    <rect id="Rectangle-path" fill="#284250" opacity="0.3" transform="translate(466.468904, 682.777478) rotate(-2.049918) translate(-466.468904, -682.777478) " x="464.318818" y="669.626952" width="4.30017193" height="26.3010516"></rect>
                    <rect id="Rectangle-path" fill="#284250" opacity="0.3" transform="translate(476.267944, 686.626306) rotate(-2.049918) translate(-476.267944, -686.626306) " x="474.117858" y="677.72595" width="4.30017193" height="17.8007117"></rect>
                    <rect id="Rectangle-path" fill="#FFD25E" transform="translate(547.073490, 683.230280) rotate(-9.137349) translate(-547.073490, -683.230280) " x="527.3737" y="663.53049" width="39.399581" height="39.399581"></rect>
                    <rect id="Rectangle-path" fill="#284250" opacity="0.3" transform="translate(535.610305, 685.468865) rotate(-9.137349) translate(-535.610305, -685.468865) " x="533.460328" y="672.319005" width="4.29995427" height="26.2997203"></rect>
                    <rect id="Rectangle-path" fill="#284250" opacity="0.3" transform="translate(545.114955, 683.968415) rotate(-9.137349) translate(-545.114955, -683.968415) " x="542.964978" y="670.818555" width="4.29995427" height="26.2997203"></rect>
                    <rect id="Rectangle-path" fill="#284250" opacity="0.3" transform="translate(555.110415, 685.415500) rotate(-9.137349) translate(-555.110415, -685.415500) " x="552.960438" y="675.315607" width="4.29995427" height="20.1997852"></rect>
                    <circle id="Oval" fill="#F0F0F1" cx="194.5" cy="683" r="38.2"></circle>
                    <path d="M194.5,654.4 C179,654.4 166.4,667 166.4,682.5 C166.4,698 179,710.6 194.5,710.6 C210,710.6 222.6,698 222.6,682.5 C222.6,666.9 210,654.4 194.5,654.4 L194.5,654.4 L194.5,654.4 Z M194,691.2 C189,691.2 185,687.2 185,682.2 C185,677.2 189,673.2 194,673.2 C199,673.2 203,677.2 203,682.2 C203,687.2 199,691.2 194,691.2 L194,691.2 Z" id="Shape" fill="#DEAE7E"></path>
                    <path d="M194.5,658.6 C181.3,658.6 170.6,669.3 170.6,682.5 C170.6,695.7 181.3,706.4 194.5,706.4 C207.7,706.4 218.4,695.7 218.4,682.5 C218.4,669.3 207.7,658.6 194.5,658.6 L194.5,658.6 L194.5,658.6 Z M194,691.2 C189,691.2 185,687.2 185,682.2 C185,677.2 189,673.2 194,673.2 C199,673.2 203,677.2 203,682.2 L203,682.2 C203,687.1 199,691.1 194,691.2 L194,691.2 L194,691.2 Z" id="Shape" fill="#C74564"></path>
                    <path d="M305.3,492.6 L337.9,487.4 C341.8,486.8 345.5,489.4 346.1,493.3 L357.7,565.6 C358.3,569.5 355.7,573.2 351.8,573.8 L319.2,579 C315.3,579.6 311.6,577 311,573.1 L299.4,500.8 C298.7,496.8 301.4,493.2 305.3,492.6 L305.3,492.6 Z" id="Shape" fill="#404041"></path>
                    <polyline id="Shape" fill="#67C7D3" points="355.1 561.2 312.2 568.1 301.7 502.2"></polyline>
                    <polyline id="Shape" fill="#1CBDD6" points="301.7 502.2 344.6 495.4 355.1 561.2"></polyline>
                    <circle id="Oval" fill="#6D6E70" transform="translate(334.393060, 570.172880) rotate(-9.091182) translate(-334.393060, -570.172880) " cx="334.39306" cy="570.17288" r="2.99988414"></circle>
                    <g id="Group" opacity="0.44" transform="translate(118.000000, 484.000000)" stroke="#284250">
                        <path d="M115.8,17.7 L111.5,63.3 C111.1,67.2 107.6,70.1 103.7,69.8 L7.2,60.8 C3.3,60.4 0.4,56.9 0.7,53 L5,7.4 C5.4,3.5 8.9,0.6 12.8,0.9 L109.3,9.9 C113.2,10.3 116.1,13.8 115.8,17.7 L115.8,17.7 Z" id="Shape" stroke-width="2"></path>
                        <polyline id="Shape" stroke-width="2" points="15.2 59.3 20.4 4.3 104.8 12.2"></polyline>
                        <polyline id="Shape" stroke-width="2" points="104.8 12.2 99.7 67.2 15.2 59.3"></polyline>
                        <circle id="Oval" stroke-width="1.99991296" transform="translate(10.765282, 30.830218) rotate(-84.649768) translate(-10.765282, -30.830218) " cx="10.7652824" cy="30.830218" r="3.79983461"></circle>
                    </g>
                    <path d="M222.8,496.2 L133.2,543.3" id="Shape" stroke="#284250" stroke-width="2" opacity="0.44"></path>
                    <path d="M570.3,790 L656.3,790 C669.1,790 679.5,800.4 679.5,813.2 L679.5,813.2 L679.5,977.5 L679.5,977.5 L547.1,977.5 L547.1,977.5 L547.1,813.2 C547.1,800.4 557.5,790 570.3,790 L570.3,790 L570.3,790 Z" id="Shape" fill="#273135"></path>
                    <polyline id="Shape" fill="#717B7D" points="562 939.2 562 977.5 664.1 977.5 664.1 939.1"></polyline>
                    <path d="M664.3,940 L664.2,815.2 C664.3,810.6 660.6,806.8 656.1,806.7 L570.3,806.7 C565.7,806.8 562.1,810.6 562.2,815.2 L562.3,940.4" id="Shape" fill="#586366"></path>
                    <circle id="Oval" fill="#586366" cx="613" cy="959.4" r="12.1"></circle>
                    <circle id="Oval" fill="#717B7D" cx="613" cy="959.4" r="5.3"></circle>
                    <rect id="Rectangle-path" fill="#586366" x="631.4" y="951.4" width="6.4" height="16"></rect>
                    <rect id="Rectangle-path" fill="#586366" x="643.7" y="951.4" width="6.4" height="16"></rect>
                    <rect id="Rectangle-path" fill="#586366" x="576.8" y="951.4" width="6.4" height="16"></rect>
                    <rect id="Rectangle-path" fill="#586366" x="589.1" y="951.4" width="6.4" height="16"></rect>
                    <path d="M687.3,951.4 L701.5,968.2 C704.2,971.3 703.8,976 700.6,978.7 L700.5,978.8 C697.4,981.5 692.7,981.1 690,977.9 L675.8,961.1 C673.1,958 673.5,953.3 676.7,950.6 L676.8,950.5 C680,947.9 684.7,948.3 687.3,951.4 L687.3,951.4 Z" id="Shape" fill="#FAD2AB"></path>
                    <path d="M768.2,880.9 L768.2,898.6 C768.2,894.8 768.1,890.8 768.1,886.7 C768.1,880.5 768.1,884.5 768.2,880.9 L768.2,880.9 Z" id="Shape" fill="#0FA6B5"></path>
                </g>
            </g>
        </g>
    </g>
</svg>