<?xml version="1.0" encoding="utf-8"?>
<!-- Generator: Adobe Illustrator 20.0.0, SVG Export Plug-In . SVG Version: 6.00 Build 0)  -->
<svg version="1.1" id="Layer_1" xmlns="http://www.w3.org/2000/svg" xmlns:xlink="http://www.w3.org/1999/xlink" x="0px" y="0px"
	 viewBox="0 0 768.1 1104.1" style="enable-background:new 0 0 768.1 1104.1;" xml:space="preserve">
<style type="text/css">
	.st0{fill:#FFFFFF;}
	.st1{fill:#E4E4E3;}
	.st2{fill:#CFD1D2;}
	.st3{fill:#E5E6E7;}
	.st4{fill:#A5A7AA;}
	.st5{fill:#BABCBE;}
	.st6{fill:#58595B;stroke:#CFD1D2;stroke-width:3;stroke-miterlimit:10;}
	.st7{opacity:0.6;fill:#00A59B;enable-background:new    ;}
	.st8{fill:#7A56B9;}
	.st9{fill:#E4617B;}
	.st10{fill:#C74564;}
	.st11{fill:#5A4A42;stroke:#BABCBE;stroke-width:10;stroke-miterlimit:10;}
	.st12{fill:#BABCBE;stroke:#BABCBE;stroke-miterlimit:10;}
	.st13{fill:#716558;}
	.st14{fill:none;stroke:#BABCBE;stroke-width:3;stroke-miterlimit:10;}
	.st15{fill:#FFFFFF;stroke:#BABCBE;stroke-width:3;stroke-miterlimit:10;}
	.st16{fill:#F0F0F1;}
	.st17{fill:#284250;}
	.st18{fill:none;stroke:#284250;stroke-width:2;stroke-miterlimit:10;}
	.st19{fill:#497A74;}
	.st20{fill:#00A59B;}
	.st21{fill:#FFD25E;}
	.st22{opacity:0.23;}
	.st23{fill:#5A4A42;}
	.st24{opacity:0.3;fill:#284250;enable-background:new    ;}
	.st25{fill:#DEAE7E;}
	.st26{fill:#404041;}
	.st27{fill:#67C7D3;}
	.st28{fill:#1CBDD6;}
	.st29{fill:#6D6E70;}
	.st30{opacity:0.44;}
	.st31{opacity:0.44;fill:none;stroke:#284250;stroke-width:2;stroke-miterlimit:10;enable-background:new    ;}
	.st32{fill:#273135;}
	.st33{fill:#717B7D;}
	.st34{fill:#586366;}
	.st35{fill:#FAD2AB;}
	.st36{fill:#0FA6B5;}
</style>
<title>webmocup_v2</title>
<rect y="39" class="st0" width="768.1" height="1065.1"/>
<rect x="46.4" y="637.3" class="st1" width="208.4" height="91.5"/>
<rect class="st2" width="768.1" height="39"/>
<rect y="39" class="st3" width="768.1" height="341.4"/>
<circle class="st0" cx="27.1" cy="21" r="8.6"/>
<circle class="st0" cx="54.4" cy="21" r="8.6"/>
<circle class="st0" cx="81.8" cy="21" r="8.6"/>
<path class="st2" d="M46.6,1008.7V782.3c0-10.3,8.4-18.7,18.7-18.7h170.8c10.3,0,18.7,8.4,18.7,18.7v226.4
	c0,10.3-8.4,18.7-18.7,18.7H65.3C55,1027.4,46.6,1019,46.6,1008.7z"/>
<path class="st4" d="M59.7,926.7v-62.4c0-7.3,5.9-13.2,13.2-13.2h30c7.3,0,13.2,5.9,13.2,13.2v62.4c0,7.3-5.9,13.2-13.2,13.2h-30
	C65.6,939.9,59.7,934,59.7,926.7z"/>
<path class="st5" d="M236.6,1027.4V763.6l0,0h2.9c8.4,0,15.1,6.8,15.1,15.1l0,0v233.5c0,8.4-6.8,15.1-15.1,15.1l0,0H236.6
	L236.6,1027.4z"/>
<path class="st4" d="M236.6,906.5v-38l0,0h0.1c2.6,0,4.6,2.1,4.6,4.6l0,0v28.7C241.3,904.5,239.2,906.6,236.6,906.5L236.6,906.5
	L236.6,906.5L236.6,906.5z"/>
<rect x="128.2" y="855.4" class="st6" width="16" height="80.4"/>
<rect x="128.2" y="935.6" class="st6" width="16" height="16.1"/>
<rect x="128.2" y="951.7" class="st6" width="16" height="16.1"/>
<rect x="128.2" y="967.9" class="st6" width="16" height="16.1"/>
<rect x="128.2" y="984" class="st6" width="16" height="16.1"/>
<rect x="128.2" y="790.9" class="st6" width="16" height="16.1"/>
<rect x="128.2" y="807" class="st6" width="16" height="16.1"/>
<rect x="128.2" y="823.2" class="st6" width="16" height="16.1"/>
<rect x="128.2" y="839.3" class="st6" width="16" height="16.1"/>
<rect x="144.2" y="935.6" class="st6" width="16" height="16.1"/>
<rect x="144.2" y="951.7" class="st6" width="16" height="16.1"/>
<rect x="144.2" y="967.9" class="st6" width="16" height="32.3"/>
<rect x="160.2" y="943.7" class="st6" width="16" height="16.1"/>
<rect x="160.2" y="959.8" class="st6" width="16" height="16.1"/>
<rect x="160.2" y="975.9" class="st6" width="16" height="24.2"/>
<rect x="176.2" y="935.6" class="st6" width="16" height="16.1"/>
<rect x="176.2" y="951.7" class="st6" width="16" height="16.1"/>
<rect x="176.2" y="967.9" class="st6" width="16" height="16.1"/>
<rect x="176.2" y="984" class="st6" width="16" height="16.1"/>
<rect x="192.2" y="943.8" class="st6" width="16" height="16.1"/>
<rect x="192.2" y="959.9" class="st6" width="16" height="16.1"/>
<rect x="192.2" y="975.9" class="st6" width="16" height="24.2"/>
<rect x="144.2" y="871.3" class="st6" width="16" height="16.1"/>
<rect x="144.2" y="887.5" class="st6" width="16" height="16.1"/>
<rect x="144.2" y="903.6" class="st6" width="16" height="16.1"/>
<rect x="144.2" y="919.7" class="st6" width="16" height="16.1"/>
<rect x="160.2" y="879.5" class="st6" width="16" height="16.1"/>
<rect x="160.2" y="895.5" class="st6" width="16" height="16.1"/>
<rect x="160.2" y="911.6" class="st6" width="16" height="16.1"/>
<rect x="160.2" y="927.8" class="st6" width="16" height="16.1"/>
<rect x="176.2" y="871.3" class="st6" width="16" height="16.1"/>
<rect x="176.2" y="887.5" class="st6" width="16" height="16.1"/>
<rect x="176.2" y="903.6" class="st6" width="16" height="16.1"/>
<rect x="176.2" y="919.7" class="st6" width="16" height="16.1"/>
<rect x="192.2" y="879.5" class="st6" width="16" height="16.1"/>
<rect x="192.2" y="895.6" class="st6" width="16" height="16.1"/>
<rect x="192.2" y="911.8" class="st6" width="16" height="16.1"/>
<rect x="192.2" y="927.9" class="st6" width="16" height="16.1"/>
<rect x="144.2" y="823.2" class="st6" width="16" height="16.1"/>
<rect x="144.2" y="839.3" class="st6" width="16" height="16.1"/>
<rect x="144.2" y="855.4" class="st6" width="16" height="16.1"/>
<rect x="160.2" y="815.1" class="st6" width="16" height="16.1"/>
<rect x="160.2" y="831.2" class="st6" width="16" height="16.1"/>
<rect x="160.2" y="847.4" class="st6" width="16" height="16.1"/>
<rect x="160.2" y="863.5" class="st6" width="16" height="16.1"/>
<rect x="176.2" y="807" class="st6" width="16" height="16.1"/>
<rect x="176.2" y="823.2" class="st6" width="16" height="16.1"/>
<rect x="176.2" y="839.3" class="st6" width="16" height="16.1"/>
<rect x="176.2" y="855.4" class="st6" width="16" height="16.1"/>
<rect x="192.2" y="815.2" class="st6" width="16" height="16.1"/>
<rect x="144.2" y="790.9" class="st6" width="16" height="32.3"/>
<rect x="160.2" y="790.9" class="st6" width="16" height="24.2"/>
<rect x="176.2" y="790.9" class="st6" width="16" height="16.1"/>
<rect x="192.2" y="790.9" class="st6" width="16" height="24.3"/>
<rect x="192.2" y="831.4" class="st6" width="16" height="16.1"/>
<rect x="192.2" y="847.5" class="st6" width="16" height="16.1"/>
<rect x="192.2" y="863.6" class="st6" width="16" height="16.1"/>
<rect x="207.7" y="935.7" class="st6" width="9" height="16.1"/>
<rect x="207.7" y="951.8" class="st6" width="9" height="16.1"/>
<rect x="207.7" y="968" class="st6" width="9" height="16.1"/>
<rect x="207.7" y="984.1" class="st6" width="9" height="16.1"/>
<rect x="207.8" y="871.4" class="st6" width="9" height="16.1"/>
<rect x="207.8" y="887.6" class="st6" width="9" height="16.1"/>
<rect x="207.8" y="903.7" class="st6" width="9" height="16.1"/>
<rect x="207.8" y="919.8" class="st6" width="9" height="16.1"/>
<rect x="207.8" y="807.2" class="st6" width="9" height="16.1"/>
<rect x="207.7" y="791" class="st6" width="9" height="16.1"/>
<rect x="207.8" y="823.3" class="st6" width="9" height="16.1"/>
<rect x="207.8" y="839.4" class="st6" width="9" height="16.1"/>
<rect x="207.8" y="855.6" class="st6" width="9" height="16.1"/>
<path class="st7" d="M414.8,221.6c0,24.6-7.9,48.6-22.7,68.2c-30.2-40.5-30.2-96,0-136.5C406.9,173.1,414.8,197,414.8,221.6z"/>
<path class="st8" d="M369.4,221.6c0,24.6,7.9,48.6,22.7,68.2C354.4,340.3,283,350.6,232.5,313s-60.8-109.1-23.1-159.6
	S318.6,92.6,369,130.3c8.8,6.5,16.5,14.3,23.1,23.1C377.3,173.1,369.4,197,369.4,221.6z"/>
<path class="st9" d="M414.8,221.6c0,24.6-7.9,48.6-22.7,68.2c-30.2-40.5-30.2-96,0-136.5C406.9,173.1,414.8,197,414.8,221.6z"/>
<path class="st10" d="M597.3,221.6c-0.1,63-51.2,113.9-114.1,113.9c-35.9,0-69.6-16.9-91.1-45.6c30.2-40.5,30.2-96,0-136.5
	c37.8-50.4,109.2-60.6,159.6-22.9C580.4,152,597.3,185.8,597.3,221.6L597.3,221.6z"/>
<rect x="46.4" y="429.3" class="st1" width="506.4" height="171.1"/>
<rect x="334.9" y="641.5" class="st1" width="377.3" height="386"/>
<ellipse transform="matrix(0.7123 -0.7019 0.7019 0.7123 -451.7825 273.4678)" class="st11" cx="107.7" cy="687.8" rx="30" ry="30"/>
<rect x="75.6" y="649.1" transform="matrix(0.7123 -0.7019 0.7019 0.7123 -439.8395 245.5079)" class="st12" width="7.8" height="20.2"/>
<path class="st13" d="M102.9,672c0,0-15.5,4.8-12.3,21.8C90.6,693.8,99.3,674,102.9,672z"/>
<path class="st14" d="M419.8,872c0,0-21.2,11.4-33.5,19.4s-45,2-45,2"/>
<path class="st5" d="M331.6,796.8h10.3c15.6,0,28.3,12.7,28.3,28.3v22.3c0,15.6-12.7,28.3-28.3,28.3h-10.3
	c-15.6,0-28.3-12.7-28.3-28.3v-22.3C303.3,809.5,316,796.8,331.6,796.8z"/>
<path class="st5" d="M622.2,677.2h30.9c8.8,0,16,7.2,16,16v26.3c0,8.8-7.2,16-16,16h-30.9c-8.8,0-16-7.2-16-16v-26.3
	C606.2,684.3,613.4,677.2,622.2,677.2z"/>
<path class="st0" d="M630.4,695.1H645c6.1,0,11.1,5,11.1,11.1v0.3c0,6.1-5,11.1-11.1,11.1h-14.6c-6.1,0-11.1-5-11.1-11.1v-0.3
	C619.3,700.1,624.3,695.1,630.4,695.1z"/>
<path class="st2" d="M323.9,1022.3V647.5c0-3.2,2.6-5.8,5.8-5.8h14.2c3.2,0,5.8,2.6,5.8,5.8v374.8c0,3.2-2.6,5.8-5.8,5.8h-14.2
	C326.5,1028.1,323.9,1025.5,323.9,1022.3z"/>
<rect x="413.8" y="719.6" class="st5" width="73.3" height="281.4"/>
<rect x="467.6" y="872.1" class="st15" width="13.2" height="66.1"/>
<rect x="467.6" y="938" class="st15" width="13.2" height="13.3"/>
<rect x="467.6" y="951.3" class="st15" width="13.2" height="13.3"/>
<rect x="467.6" y="964.6" class="st15" width="13.2" height="13.3"/>
<rect x="467.6" y="977.9" class="st15" width="13.2" height="13.3"/>
<rect x="467.6" y="819.1" class="st15" width="13.2" height="13.3"/>
<rect x="467.6" y="832.3" class="st15" width="13.2" height="13.3"/>
<rect x="467.6" y="845.6" class="st15" width="13.2" height="13.3"/>
<rect x="467.6" y="858.8" class="st15" width="13.2" height="13.3"/>
<rect x="454.5" y="938" class="st15" width="13.2" height="13.3"/>
<rect x="454.5" y="951.3" class="st15" width="13.2" height="13.3"/>
<rect x="454.5" y="964.6" class="st15" width="13.2" height="26.5"/>
<rect x="441.3" y="944.7" class="st15" width="13.2" height="13.3"/>
<rect x="441.3" y="958" class="st15" width="13.2" height="13.3"/>
<rect x="441.3" y="971.2" class="st15" width="13.2" height="19.9"/>
<rect x="428.1" y="938" class="st15" width="13.2" height="13.3"/>
<rect x="428.1" y="951.3" class="st15" width="13.2" height="13.3"/>
<rect x="428.1" y="964.6" class="st15" width="13.2" height="13.3"/>
<rect x="428.1" y="977.9" class="st15" width="13.2" height="13.3"/>
<rect x="454.4" y="885.2" class="st15" width="13.2" height="13.3"/>
<rect x="454.4" y="898.5" class="st15" width="13.2" height="13.3"/>
<rect x="454.4" y="911.7" class="st15" width="13.2" height="13.3"/>
<rect x="454.4" y="925" class="st15" width="13.2" height="13.3"/>
<rect x="441.3" y="891.9" class="st15" width="13.2" height="13.3"/>
<rect x="441.3" y="905.1" class="st15" width="13.2" height="13.3"/>
<rect x="441.3" y="918.3" class="st15" width="13.2" height="13.3"/>
<rect x="441.3" y="931.6" class="st15" width="13.2" height="13.3"/>
<rect x="428.1" y="885.2" class="st15" width="13.2" height="13.3"/>
<rect x="428.1" y="898.5" class="st15" width="13.2" height="13.3"/>
<rect x="428.1" y="911.7" class="st15" width="13.2" height="13.3"/>
<rect x="428.1" y="925" class="st15" width="13.2" height="13.3"/>
<rect x="454.4" y="845.6" class="st15" width="13.2" height="13.3"/>
<rect x="454.4" y="858.8" class="st15" width="13.2" height="13.3"/>
<rect x="454.4" y="872.1" class="st15" width="13.2" height="13.3"/>
<rect x="441.3" y="839" class="st15" width="13.2" height="13.3"/>
<rect x="441.3" y="852.2" class="st15" width="13.2" height="13.3"/>
<rect x="441.3" y="865.5" class="st15" width="13.2" height="13.3"/>
<rect x="441.3" y="878.8" class="st15" width="13.2" height="13.3"/>
<rect x="428.1" y="832.3" class="st15" width="13.2" height="13.3"/>
<rect x="428.1" y="845.6" class="st15" width="13.2" height="13.3"/>
<rect x="428.1" y="858.8" class="st15" width="13.2" height="13.3"/>
<rect x="428.1" y="872.1" class="st15" width="13.2" height="13.3"/>
<rect x="454.5" y="819.1" class="st15" width="13.2" height="26.5"/>
<rect x="441.3" y="819.1" class="st15" width="13.2" height="19.9"/>
<rect x="428.2" y="819.1" class="st15" width="13.2" height="13.3"/>
<rect x="420.7" y="938.1" class="st15" width="7.4" height="13.3"/>
<rect x="420.7" y="951.4" class="st15" width="7.4" height="13.3"/>
<rect x="420.7" y="964.7" class="st15" width="7.4" height="13.3"/>
<rect x="420.7" y="978" class="st15" width="7.4" height="13.3"/>
<rect x="420.7" y="885.3" class="st15" width="7.4" height="13.3"/>
<rect x="420.7" y="898.5" class="st15" width="7.4" height="13.3"/>
<rect x="420.7" y="911.8" class="st15" width="7.4" height="13.3"/>
<rect x="420.7" y="925.1" class="st15" width="7.4" height="13.3"/>
<rect x="420.7" y="832.4" class="st15" width="7.4" height="13.3"/>
<rect x="420.7" y="819.1" class="st15" width="7.4" height="13.3"/>
<rect x="420.7" y="845.7" class="st15" width="7.4" height="13.3"/>
<rect x="421.9" y="741.2" class="st15" width="7.4" height="13.3"/>
<rect x="421.9" y="728" class="st15" width="7.4" height="13.3"/>
<rect x="421.9" y="754.5" class="st15" width="7.4" height="13.3"/>
<rect x="470.9" y="799.4" class="st15" width="10.7" height="13.3"/>
<rect x="470.9" y="786.6" class="st15" width="10.7" height="13.3"/>
<rect x="470.9" y="773.6" class="st15" width="10.7" height="13.3"/>
<rect x="460.2" y="786.9" class="st15" width="10.7" height="13.3"/>
<rect x="420.7" y="859" class="st15" width="7.4" height="13.3"/>
<rect x="420.7" y="872.2" class="st15" width="7.4" height="13.3"/>
<rect x="442.5" y="754.5" class="st15" width="13.2" height="13.3"/>
<rect x="455.6" y="754.5" class="st15" width="26.4" height="13.3"/>
<rect x="429.3" y="754.5" class="st15" width="13.2" height="13.3"/>
<rect x="429.3" y="741.2" class="st15" width="13.2" height="13.3"/>
<rect x="429.3" y="728" class="st15" width="13.2" height="13.3"/>
<rect x="442.5" y="741.2" class="st15" width="13.2" height="13.3"/>
<rect x="442.5" y="728" class="st15" width="13.2" height="13.3"/>
<rect x="455.6" y="741.2" class="st15" width="13.2" height="13.3"/>
<rect x="455.6" y="728" class="st15" width="13.2" height="13.3"/>
<rect x="468.8" y="727.9" class="st15" width="13.2" height="26.5"/>
<rect x="75.9" y="461.1" transform="matrix(0.9921 -0.1255 0.1255 0.9921 -63.799 24.139)" class="st2" width="167.6" height="114.6"/>
<rect x="117" y="434.6" transform="matrix(8.315601e-02 -0.9965 0.9965 8.315601e-02 -356.841 648.982)" class="st16" width="114.6" height="167.6"/>
<path class="st17" d="M597.5,429.3h106.9c4.3,0,7.8,3.5,7.8,7.8v155.5c0,4.3-3.5,7.8-7.8,7.8H597.5c-4.3,0-7.8-3.5-7.8-7.8V437.1
	C589.7,432.8,593.1,429.3,597.5,429.3z"/>
<path class="st16" d="M604,435.6h93.8c4.5,0,8.1,3.6,8.1,8.1c0,0,0,0,0,0v69.9l0,0h-110l0,0v-69.9
	C595.9,439.3,599.5,435.6,604,435.6C604,435.6,604,435.6,604,435.6z"/>
<path class="st16" d="M595.9,516.1h110l0,0V587c0,3.9-3.2,7.1-7.1,7.1H603c-3.9,0-7.1-3.2-7.1-7.1L595.9,516.1L595.9,516.1z"/>
<rect x="613.3" y="449.1" class="st18" width="75.2" height="47.1"/>
<rect x="613.2" y="449.1" class="st18" width="31.9" height="47.1"/>
<line class="st18" x1="613.3" y1="449.1" x2="645.1" y2="496.2"/>
<line class="st18" x1="613.3" y1="496.2" x2="645.1" y2="449.1"/>
<line class="st18" x1="657.5" y1="457.1" x2="657.5" y2="488.2"/>
<line class="st18" x1="666.5" y1="457.1" x2="666.5" y2="488.2"/>
<line class="st18" x1="674.6" y1="457.1" x2="674.6" y2="488.2"/>
<line class="st18" x1="613.2" y1="528.6" x2="613.2" y2="582"/>
<line class="st18" x1="624.2" y1="528.6" x2="624.2" y2="582"/>
<line class="st18" x1="635.2" y1="528.6" x2="635.2" y2="582"/>
<line class="st18" x1="646.3" y1="546.1" x2="646.3" y2="582"/>
<rect x="589.7" y="513.6" class="st19" width="122.5" height="2.5"/>
<path class="st17" d="M415.6,456.8l81.4-16.3c9.4-1.9,18.6,4.2,20.5,13.7c0,0,0,0,0,0l19.4,96.8c1.9,9.4-4.2,18.6-13.7,20.5
	c0,0,0,0,0,0l-81.4,16.3l0,0L415.6,456.8L415.6,456.8z"/>
<path class="st20" d="M442.4,444.4l56.7,8.5c9.5,1.4,16.1,10.3,14.7,19.8c0,0,0,0,0,0l-11.3,75.8c-1.4,9.5-10.3,16.1-19.8,14.7
	c0,0,0,0,0,0l-56.7-8.5l0,0L442.4,444.4L442.4,444.4z"/>
<rect x="467.2" y="450.9" transform="matrix(0.148 -0.989 0.989 0.148 -66.2254 876.1937)" class="st17" width="16.3" height="51.4"/>
<rect x="228.9" y="350.5" transform="matrix(6.108614e-03 -1 1 6.108614e-03 -225.0597 700.0516)" class="st21" width="21.6" height="225.6"/>
<g class="st22">
	
		<rect x="134.9" y="456" transform="matrix(6.108614e-03 -1 1 6.108614e-03 -317.7977 594.7419)" class="st23" width="10.8" height="2.5"/>
	
		<rect x="144.2" y="453.3" transform="matrix(6.108614e-03 -1 1 6.108614e-03 -308.602 598.6744)" class="st23" width="5.4" height="2.5"/>
	
		<rect x="151.5" y="453.4" transform="matrix(6.108614e-03 -1 1 6.108614e-03 -301.3521 606.0584)" class="st23" width="5.4" height="2.5"/>
	
		<rect x="158.9" y="453.4" transform="matrix(6.108614e-03 -1 1 6.108614e-03 -294.0923 613.4525)" class="st23" width="5.4" height="2.5"/>
	
		<rect x="172" y="453.5" transform="matrix(6.108614e-03 -1 1 6.108614e-03 -281.153 626.631)" class="st23" width="5.4" height="2.5"/>
	
		<rect x="179.3" y="453.5" transform="matrix(6.108614e-03 -1 1 6.108614e-03 -273.8932 634.0251)" class="st23" width="5.4" height="2.5"/>
	
		<rect x="186.7" y="453.6" transform="matrix(6.108614e-03 -1 1 6.108614e-03 -266.6433 641.4091)" class="st23" width="5.4" height="2.5"/>
	
		<rect x="199.8" y="453.7" transform="matrix(6.108614e-03 -1 1 6.108614e-03 -253.6942 654.5978)" class="st23" width="5.4" height="2.5"/>
	
		<rect x="207.1" y="453.7" transform="matrix(6.108614e-03 -1 1 6.108614e-03 -246.4443 661.9818)" class="st23" width="5.4" height="2.5"/>
	
		<rect x="214.4" y="453.8" transform="matrix(6.108614e-03 -1 1 6.108614e-03 -239.1944 669.3658)" class="st23" width="5.4" height="2.5"/>
	
		<rect x="227.6" y="453.8" transform="matrix(6.108614e-03 -1 1 6.108614e-03 -226.2452 682.5544)" class="st23" width="5.4" height="2.5"/>
	
		<rect x="234.9" y="453.9" transform="matrix(6.108614e-03 -1 1 6.108614e-03 -218.9954 689.9384)" class="st23" width="5.4" height="2.5"/>
	
		<rect x="242.2" y="453.9" transform="matrix(6.108614e-03 -1 1 6.108614e-03 -211.7355 697.3325)" class="st23" width="5.4" height="2.5"/>
	
		<rect x="255.4" y="454" transform="matrix(6.108614e-03 -1 1 6.108614e-03 -198.7765 710.5311)" class="st23" width="5.4" height="2.5"/>
	
		<rect x="262.7" y="454" transform="matrix(6.108614e-03 -1 1 6.108614e-03 -191.5266 717.915)" class="st23" width="5.4" height="2.5"/>
	
		<rect x="270" y="454.1" transform="matrix(6.108614e-03 -1 1 6.108614e-03 -184.2767 725.2991)" class="st23" width="5.4" height="2.5"/>
	
		<rect x="283.1" y="454.2" transform="matrix(6.108614e-03 -1 1 6.108614e-03 -171.3376 738.4976)" class="st23" width="5.4" height="2.5"/>
	
		<rect x="290.5" y="454.2" transform="matrix(6.108614e-03 -1 1 6.108614e-03 -164.0777 745.8717)" class="st23" width="5.4" height="2.5"/>
	
		<rect x="297.8" y="454.3" transform="matrix(6.108614e-03 -1 1 6.108614e-03 -156.8279 753.2757)" class="st23" width="5.4" height="2.5"/>
	
		<rect x="310.9" y="454.4" transform="matrix(6.108614e-03 -1 1 6.108614e-03 -143.8887 766.4542)" class="st23" width="5.4" height="2.5"/>
	
		<rect x="318.3" y="454.4" transform="matrix(6.108614e-03 -1 1 6.108614e-03 -136.6189 773.8384)" class="st23" width="5.4" height="2.5"/>
	
		<rect x="325.6" y="454.4" transform="matrix(6.108614e-03 -1 1 6.108614e-03 -129.379 781.2324)" class="st23" width="5.4" height="2.5"/>
	
		<rect x="162.7" y="456.2" transform="matrix(6.108614e-03 -1 1 6.108614e-03 -290.3388 622.7086)" class="st23" width="10.8" height="2.5"/>
	
		<rect x="190.5" y="456.3" transform="matrix(6.108614e-03 -1 1 6.108614e-03 -262.88 650.6753)" class="st23" width="10.8" height="2.5"/>
	
		<rect x="218.3" y="456.5" transform="matrix(6.108614e-03 -1 1 6.108614e-03 -235.431 678.632)" class="st23" width="10.8" height="2.5"/>
	
		<rect x="246.1" y="456.7" transform="matrix(6.108614e-03 -1 1 6.108614e-03 -207.9722 706.5986)" class="st23" width="10.8" height="2.5"/>
	
		<rect x="273.9" y="456.8" transform="matrix(6.108614e-03 -1 1 6.108614e-03 -180.5233 734.5553)" class="st23" width="10.8" height="2.5"/>
	
		<rect x="301.7" y="457" transform="matrix(6.108614e-03 -1 1 6.108614e-03 -153.0844 762.5219)" class="st23" width="10.8" height="2.5"/>
	
		<rect x="329.5" y="457.2" transform="matrix(6.108614e-03 -1 1 6.108614e-03 -125.6156 790.4985)" class="st23" width="10.8" height="2.5"/>
</g>
<polyline class="st17" points="388.4,470.4 391,463.2 395.7,469.2 "/>
<polyline class="st21" points="395.7,469.2 403.7,518.2 396.4,519.3 388.4,470.4 "/>
<rect x="396.8" y="518.7" transform="matrix(0.9869 -0.1614 0.1614 0.9869 -78.9193 71.4872)" class="st10" width="7.4" height="5.3"/>
<rect x="515.9" y="725.8" transform="matrix(0.9994 -3.577162e-02 3.577162e-02 0.9994 -26.324 19.6376)" class="st21" width="39.4" height="39.4"/>
<rect x="525.3" y="731.5" transform="matrix(0.9992 -3.996804e-02 3.996804e-02 0.9992 -29.3396 21.6739)" class="st24" width="4.3" height="26.3"/>
<rect x="531.5" y="741.4" transform="matrix(0.9994 -3.577162e-02 3.577162e-02 0.9994 -26.4959 19.5707)" class="st24" width="4.3" height="17.8"/>
<rect x="458.5" y="662.2" transform="matrix(0.9994 -3.577162e-02 3.577162e-02 0.9994 -24.0852 17.5419)" class="st21" width="39.4" height="39.4"/>
<rect x="464.3" y="669.6" transform="matrix(0.9994 -3.577162e-02 3.577162e-02 0.9994 -24.1243 17.1228)" class="st24" width="4.3" height="26.3"/>
<rect x="474.1" y="677.7" transform="matrix(0.9994 -3.577162e-02 3.577162e-02 0.9994 -24.2571 17.4745)" class="st24" width="4.3" height="17.8"/>
<rect x="527.4" y="663.5" transform="matrix(0.9873 -0.1588 0.1588 0.9873 -101.5705 95.5864)" class="st21" width="39.4" height="39.4"/>
<rect x="533.5" y="672.3" transform="matrix(0.9873 -0.1588 0.1588 0.9873 -102.0864 93.7853)" class="st24" width="4.3" height="26.3"/>
<rect x="543" y="670.8" transform="matrix(0.9873 -0.1588 0.1588 0.9873 -101.7229 95.2744)" class="st24" width="4.3" height="26.3"/>
<rect x="553" y="675.3" transform="matrix(0.9873 -0.1588 0.1588 0.9873 -101.8307 96.8779)" class="st24" width="4.3" height="20.2"/>
<circle class="st16" cx="194.5" cy="683" r="38.2"/>
<path class="st25" d="M194.5,654.4c-15.5,0-28.1,12.6-28.1,28.1c0,15.5,12.6,28.1,28.1,28.1s28.1-12.6,28.1-28.1
	C222.6,666.9,210,654.4,194.5,654.4L194.5,654.4z M194,691.2c-5,0-9-4-9-9s4-9,9-9s9,4,9,9S199,691.2,194,691.2z"/>
<path class="st10" d="M194.5,658.6c-13.2,0-23.9,10.7-23.9,23.9s10.7,23.9,23.9,23.9s23.9-10.7,23.9-23.9S207.7,658.6,194.5,658.6
	L194.5,658.6z M194,691.2c-5,0-9-4-9-9s4-9,9-9s9,4,9,9l0,0C203,687.1,199,691.1,194,691.2L194,691.2z"/>
<path class="st26" d="M305.3,492.6l32.6-5.2c3.9-0.6,7.6,2,8.2,5.9l11.6,72.3c0.6,3.9-2,7.6-5.9,8.2l-32.6,5.2
	c-3.9,0.6-7.6-2-8.2-5.9l-11.6-72.3C298.7,496.8,301.4,493.2,305.3,492.6z"/>
<polyline class="st27" points="355.1,561.2 312.2,568.1 301.7,502.2 "/>
<polyline class="st28" points="301.7,502.2 344.6,495.4 355.1,561.2 "/>
<ellipse transform="matrix(0.9874 -0.158 0.158 0.9874 -85.8851 59.9926)" class="st29" cx="334.4" cy="570.2" rx="3" ry="3"/>
<g class="st30">
	<path class="st18" d="M233.8,501.7l-4.3,45.6c-0.4,3.9-3.9,6.8-7.8,6.5l-96.5-9c-3.9-0.4-6.8-3.9-6.5-7.8l4.3-45.6
		c0.4-3.9,3.9-6.8,7.8-6.5l96.5,9C231.2,494.3,234.1,497.8,233.8,501.7z"/>
	<polyline class="st18" points="133.2,543.3 138.4,488.3 222.8,496.2 	"/>
	<polyline class="st18" points="222.8,496.2 217.7,551.2 133.2,543.3 	"/>
	
		<ellipse transform="matrix(9.323946e-02 -0.9956 0.9956 9.323946e-02 -395.8784 595.0545)" class="st18" cx="128.8" cy="514.9" rx="3.8" ry="3.8"/>
</g>
<line class="st31" x1="222.8" y1="496.2" x2="133.2" y2="543.3"/>
<path class="st32" d="M570.3,790h86c12.8,0,23.2,10.4,23.2,23.2v0v164.3l0,0H547.1l0,0V813.2C547.1,800.4,557.5,790,570.3,790
	L570.3,790z"/>
<polyline class="st33" points="562,939.2 562,977.5 664.1,977.5 664.1,939.1 "/>
<path class="st34" d="M664.3,940l-0.1-124.8c0.1-4.6-3.6-8.4-8.1-8.5h-85.8c-4.6,0.1-8.2,3.9-8.1,8.5l0.1,125.2"/>
<circle class="st34" cx="613" cy="959.4" r="12.1"/>
<circle class="st33" cx="613" cy="959.4" r="5.3"/>
<rect x="631.4" y="951.4" class="st34" width="6.4" height="16"/>
<rect x="643.7" y="951.4" class="st34" width="6.4" height="16"/>
<rect x="576.8" y="951.4" class="st34" width="6.4" height="16"/>
<rect x="589.1" y="951.4" class="st34" width="6.4" height="16"/>
<path class="st35" d="M687.3,951.4l14.2,16.8c2.7,3.1,2.3,7.8-0.9,10.5l-0.1,0.1c-3.1,2.7-7.8,2.3-10.5-0.9l-14.2-16.8
	c-2.7-3.1-2.3-7.8,0.9-10.5l0.1-0.1C680,947.9,684.7,948.3,687.3,951.4z"/>
<path class="st36" d="M768.2,880.9v17.7c0-3.8-0.1-7.8-0.1-11.9C768.1,880.5,768.1,884.5,768.2,880.9z"/>
</svg>
