<svg id="Layer_1" data-name="Layer 1" xmlns="http://www.w3.org/2000/svg" viewBox="0 0 185.28 433.16"><defs><style>.cls-1{fill:#fbfcfa;}.cls-2{fill:#d0dde3;}.cls-3{fill:#e3637e;}</style></defs><title>webmocup_v2</title><rect class="cls-1" width="185.28" height="48.02" rx="24.01" ry="24.01"/><rect class="cls-1" x="24.77" y="24.01" width="135.73" height="343.73"/><ellipse class="cls-1" cx="92.64" cy="370.17" rx="67.87" ry="62.29"/><path class="cls-2" d="M92.64.7h68.63a24,24,0,0,1,24,24h0a24,24,0,0,1-24,24h-.76V368.44h-.07c0,.81.07,1.62.07,2.43,0,34.4-30.39,62.29-67.87,62.29Z"/><ellipse class="cls-3" cx="93.2" cy="350.67" rx="52.37" ry="66.52"/><rect class="cls-3" x="42.94" y="279.11" width="101.01" height="88.63"/><ellipse class="cls-3" cx="128.33" cy="276.15" rx="15.62" ry="13.95"/><circle class="cls-3" cx="107.92" cy="279.79" r="7.44"/><ellipse class="cls-3" cx="89.85" cy="281.44" rx="12.84" ry="13.58"/><ellipse class="cls-3" cx="68.34" cy="279.79" rx="10.28" ry="7.44"/><ellipse class="cls-3" cx="52.28" cy="279.2" rx="9.34" ry="11.34"/><circle class="cls-3" cx="123.54" cy="216.45" r="10.83"/><circle class="cls-3" cx="70.41" cy="203.56" r="2.07"/><circle class="cls-3" cx="69.32" cy="244.73" r="7.69"/><circle class="cls-3" cx="96.27" cy="169.58" r="6.42"/></svg>