<svg id="Layer_1" data-name="Layer 1" xmlns="http://www.w3.org/2000/svg" viewBox="0 0 329.24 447.59"><defs><style>.cls-1{fill:#ffd25e;}.cls-2{fill:#f6e083;}.cls-3{fill:#f5d332;}.cls-4,.cls-7,.cls-8{fill:none;stroke-linecap:round;stroke-miterlimit:10;}.cls-4,.cls-7{stroke:#4b4156;}.cls-4,.cls-8{stroke-width:3px;}.cls-5{fill:#757675;}.cls-6{fill:#515352;}.cls-7{stroke-width:4px;}.cls-8{stroke:#fcfdff;}.cls-9{fill:#fcfdff;opacity:0.33;}</style></defs><title>webmocup_v2</title><circle class="cls-1" cx="164.34" cy="164.34" r="164.34"/><circle class="cls-2" cx="164.34" cy="164.34" r="114.35"/><path class="cls-3" d="M260,297.93s-44.85,27.62-44.85,48H113.53Z"/><path class="cls-3" d="M68.68,297.93s44.85,27.62,44.85,48H215.16Z"/><line class="cls-4" x1="227.87" y1="183.06" x2="197.71" y2="347.4"/><line class="cls-4" x1="103.61" y1="183.06" x2="133.78" y2="347.4"/><path class="cls-5" d="M164.34,447.59h10.17a40.64,40.64,0,0,0,40.64-40.64V346H164.34Z"/><path class="cls-6" d="M164.34,447.59H154.17a40.64,40.64,0,0,1-40.64-40.64V346h50.82Z"/><line class="cls-7" x1="108.99" y1="381.97" x2="220.48" y2="381.97"/><line class="cls-7" x1="108.99" y1="367.74" x2="220.48" y2="367.74"/><line class="cls-7" x1="108.6" y1="396.77" x2="220.09" y2="396.77"/><path class="cls-8" d="M180.7,192.28c-33.94-13.06-62.67,24.37-78.33,14.8"/><path class="cls-8" d="M148.35,192.28c33.94-13.06,62.67,24.37,78.33,14.8"/><path class="cls-9" d="M164.74,0V346h50.82s.05-16.65,44.85-48,71.18-86.09,68.68-133.59S299.37,8.53,164.74,0Z"/></svg>