<svg id="Layer_1" data-name="Layer 1" xmlns="http://www.w3.org/2000/svg" viewBox="0 0 431.43 557.87"><defs><style>.cls-1{fill:#665a4f;}.cls-2{fill:#fff;}.cls-3{fill:#232323;opacity:0.29;}.cls-4{fill:#aeaeae;}.cls-5{fill:#c3556a;}</style></defs><title>webmocup_v2</title><rect class="cls-1" x="1.44" y="19.89" width="428.56" height="536.84" rx="5.06" ry="5.06" transform="translate(1.58 -1.18) rotate(0.31)"/><rect class="cls-2" x="47.22" y="50.91" width="335.46" height="461.26" transform="translate(1.54 -1.17) rotate(0.31)"/><rect class="cls-3" x="84.65" y="110.17" width="202.37" height="13.82" transform="translate(0.64 -1.02) rotate(0.31)"/><rect class="cls-3" x="84.25" y="183.28" width="202.37" height="13.82" transform="translate(1.04 -1.01) rotate(0.31)"/><rect class="cls-3" x="83.88" y="249.33" width="202.37" height="13.82" transform="translate(1.41 -1.01) rotate(0.31)"/><rect class="cls-3" x="83.51" y="318.63" width="202.37" height="13.82" transform="translate(1.78 -1.01) rotate(0.31)"/><rect class="cls-4" x="125.33" y="19.92" width="192.45" height="45.27" transform="translate(0.24 -1.21) rotate(0.31)"/><rect class="cls-4" x="158.66" y="0.34" width="126.06" height="32.02" transform="translate(0.09 -1.21) rotate(0.31)"/><rect class="cls-5" x="306.31" y="101.77" width="28.12" height="33.25" transform="translate(0.65 -1.75) rotate(0.31)"/><rect class="cls-5" x="305.94" y="171.07" width="28.12" height="33.25" transform="translate(638.96 377.13) rotate(-179.69)"/><rect class="cls-5" x="305.56" y="240.36" width="28.12" height="33.25" transform="translate(637.82 515.71) rotate(-179.69)"/><rect class="cls-5" x="305.18" y="309.65" width="28.12" height="33.25" transform="translate(636.68 654.3) rotate(-179.69)"/></svg>