<svg id="Layer_1" data-name="Layer 1" xmlns="http://www.w3.org/2000/svg" viewBox="0 0 265.43 239.52"><defs><style>.cls-1{fill:#fff;}</style></defs><title>webmocup_v2</title><path class="cls-1" d="M241.57,23.86A81.5,81.5,0,0,0,132.7,18.13,81.49,81.49,0,0,0,23.47,138.75l.34.38,15.13,15.12c-1,2.93-2.1,9.22,3.66,15.58,3.54,3.9,10.87,6.46,16.68,4.76l.77.77c-1,3-2,9.18,3.7,15.45,3.51,3.87,10.77,6.44,16.55,4.8l.65.65c-1,3-1.8,9.12,3.76,15.26,3.47,3.83,10.61,6.4,16.37,4.87l.9.9c-1,3.09-1.7,9.08,3.8,15.14,3.66,4,11.35,6.62,17.24,4.55a20.36,20.36,0,0,0,30.11-17.92,21.29,21.29,0,0,0-.16-2.43,21.61,21.61,0,0,0,2.43.16,20.41,20.41,0,0,0,20.43-20.41,19.93,19.93,0,0,0-.16-2.43,21.38,21.38,0,0,0,2.42.16h0a20.39,20.39,0,0,0,20.24-22.87,20.16,20.16,0,0,0,16.92-5.83h0l26.31-26.28a4.69,4.69,0,0,0,.31-.35,81.51,81.51,0,0,0-.33-114.92ZM209.1,159.22a11.69,11.69,0,0,1-16.53,0l-46.68-46.67a4.37,4.37,0,1,0-6.18,6.19l46.67,46.68a11.68,11.68,0,0,1-8.24,19.94h0a11.6,11.6,0,0,1-8.26-3.43h0l-46.67-46.67a4.37,4.37,0,1,0-6.18,6.19l46.67,46.67a11.68,11.68,0,0,1-16.51,16.53L100.48,158a4.38,4.38,0,1,0-6.19,6.19L141,210.84a11.56,11.56,0,0,1,3.43,8.24,11.69,11.69,0,0,1-20,8.27L30.36,133.3a4.42,4.42,0,0,0-.33-.36,72.7,72.7,0,0,1,96-108.8L68.27,81.92c-5.51,5.5-5,13.46,1.38,19.81,8.33,8.34,27.5,13.83,42.21-.85L140.8,74.5l68.28,68.2A11.69,11.69,0,0,1,209.1,159.22Z"/></svg>