<svg id="Layer_1" data-name="Layer 1" xmlns="http://www.w3.org/2000/svg" viewBox="0 0 209.51 286.68"><defs><style>.cls-1{fill:#fff;}</style></defs><title>webmocup_v2</title><rect class="cls-1" x="104.76" width="0.18" height="23.82"/><rect class="cls-1" x="104.76" width="0.18" height="23.82"/><circle class="cls-1" cx="74.61" cy="214.17" r="13.69"/><path class="cls-1" d="M207.11,260,135.37,135.77v-112h-5.81c8.6,0,15.57-3.79,15.57-8.47V8.49c0-4.7-7-8.49-15.57-8.49H104.94V23.82h-.18V0H80.15c-8.6,0-15.57,3.79-15.57,8.49v6.85c0,4.68,7,8.47,15.57,8.47h-6v112L2.41,260A17.77,17.77,0,0,0,17.8,286.68H191.7A17.78,17.78,0,0,0,207.11,260ZM88.29,145.58a8,8,0,1,1-8,8A8,8,0,0,1,88.29,145.58Zm94.56,134.29H27.15a16,16,0,0,1-13.83-24l45.87-79.46H150.8l45.87,79.46A16,16,0,0,1,182.85,279.87Z"/><circle class="cls-1" cx="105" cy="249.49" r="10.3" transform="translate(-145.66 147.32) rotate(-45)"/></svg>