<svg id="Layer_1" data-name="Layer 1" xmlns="http://www.w3.org/2000/svg" viewBox="0 0 2455.25 914.6"><defs><style>.cls-1,.cls-7{fill:#fff;}.cls-2{fill:#969599;}.cls-3,.cls-4,.cls-5,.cls-6{fill:none;}.cls-19,.cls-3,.cls-4,.cls-5,.cls-6,.cls-7{stroke:#23222d;stroke-miterlimit:10;}.cls-3,.cls-7{stroke-width:2px;}.cls-5{stroke-dasharray:6.28 6.28;}.cls-6{stroke-dasharray:6;}.cls-8{fill:#edc39a;}.cls-9{fill:#b13f60;}.cls-10{fill:#211f38;}.cls-11{fill:#2b294f;}.cls-12{fill:#c74564;}.cls-13{fill:#544741;}.cls-14{fill:#978475;}.cls-15{fill:#e5e6e7;}.cls-16{fill:#cfd1d2;}.cls-17{fill:#9e3659;}.cls-18{fill:#714c9c;}.cls-19{fill:#23222d;stroke-width:0.5px;}.cls-20{fill:#64488c;}.cls-21{fill:#736458;}.cls-22{fill:#02b2a1;}.cls-23{fill:#00a59b;}.cls-24{fill:#736357;}.cls-25{fill:#998675;}</style></defs><title>team</title><rect class="cls-1" x="42.52" y="44.86" width="799.41" height="539.6"/><rect class="cls-2" x="42.52" y="569.17" width="799.41" height="15.28"/><rect class="cls-3" x="137.51" y="128.83" width="112.3" height="152.07"/><rect class="cls-3" x="311.96" y="128.83" width="112.3" height="152.07"/><polygon class="cls-3" points="589.11 280.91 476.81 280.91 476.81 191.06 532.96 128.83 589.11 191.06 589.11 280.91"/><rect class="cls-3" x="476.81" y="191.06" width="112.3" height="89.85"/><line class="cls-4" x1="532.96" y1="128.83" x2="534.3" y2="131.52"/><line class="cls-5" x1="537.12" y1="137.13" x2="586.36" y2="235.36"/><line class="cls-4" x1="587.77" y1="238.16" x2="589.11" y2="240.84"/><line class="cls-4" x1="532.96" y1="128.83" x2="531.62" y2="131.52"/><line class="cls-5" x1="528.8" y1="137.13" x2="479.56" y2="235.36"/><line class="cls-4" x1="478.16" y1="238.16" x2="476.81" y2="240.84"/><line class="cls-3" x1="532.96" y1="280.91" x2="532.96" y2="128.83"/><polygon class="cls-3" points="757.15 235.98 757.15 280.91 644.85 280.91 644.85 235.98 701 128.83 757.15 235.98"/><line class="cls-6" x1="193.66" y1="128.83" x2="193.66" y2="280.91"/><line class="cls-3" x1="368.11" y1="128.83" x2="368.11" y2="280.91"/><polyline class="cls-6" points="311.96 188.1 368.11 128.83 424.25 188.1"/><line class="cls-3" x1="701" y1="128.83" x2="701" y2="280.91"/><polyline class="cls-3" points="644.85 235.98 701 195.67 757.15 235.98"/><polygon class="cls-3" points="249.81 437.61 249.81 482.54 137.51 482.54 137.51 437.61 193.66 330.46 249.81 437.61"/><line class="cls-6" x1="193.66" y1="330.46" x2="193.66" y2="482.54"/><polyline class="cls-3" points="137.51 437.61 193.66 397.3 249.81 437.61"/><line class="cls-3" x1="336.98" y1="397.3" x2="393.13" y2="437.61"/><polygon class="cls-3" points="393.13 437.61 393.13 482.54 336.98 482.54 336.98 330.46 393.13 437.61"/><line class="cls-3" x1="452.33" y1="397.3" x2="508.48" y2="437.61"/><polygon class="cls-3" points="508.48 437.61 508.48 482.54 452.33 482.54 452.33 330.46 508.48 437.61"/><line class="cls-6" x1="452.33" y1="330.46" x2="491.75" y2="482.54"/><polygon class="cls-3" points="600.63 482.54 561.21 333.3 561.21 482.54 600.63 482.54"/><polygon class="cls-7" points="600.63 482.54 561.21 333.3 561.21 448 586.36 489.5 600.63 482.54"/><path class="cls-8" d="M422.81,569.17h-32a8.44,8.44,0,0,1-8.41-8.41v-3.1a8.44,8.44,0,0,1,8.41-8.41L422,553.46a8.44,8.44,0,0,1,8.41,8.41V565C430.39,569.59,427.44,569.17,422.81,569.17Z"/><path class="cls-9" d="M337,436l59.51,113.85s-3.34,9.73-14.77,5.17-41.11-39.08-41.11-39.08"/><polygon class="cls-10" points="246.13 615.82 273.99 913.4 320.02 912.57 302.61 636.41 246.13 615.82"/><path class="cls-11" d="M245.94,556s-23,58.14,5.92,86.22c0,0,21,9.12,26.75,14.08L295.34,913h76l-40.73-29.81s33-237.44,6.69-320"/><path class="cls-12" d="M224.94,419.92s0-90.26,26.27-102.7c22.84-10.81,48.22-2.55,86.06,30.78,36.28,32,0,216.48,0,216.48s-77.25,32.46-91.95-8C223.38,496.21,224.94,419.92,224.94,419.92Z"/><rect class="cls-11" x="494.83" y="292.64" width="5.4" height="55.4" transform="translate(22.68 -32.74) rotate(3.86)"/><path class="cls-8" d="M462.38,346.62s33.09-46,37.92-28.23,6,40.38-21.47,39.21"/><path class="cls-9" d="M322.72,345.68s-25.55,15.93-18.29,41.82,93.72,61,93.72,61S423,448,478.83,357.61c0,0-1.3-11.49-16.45-11L403.3,399.11S335.23,333.54,322.72,345.68Z"/><circle class="cls-8" cx="308.06" cy="238.52" r="56.32"/><path class="cls-8" d="M363.31,249.48s-12.1,62.18-26.64,62.4-45.79,3.47-53.6-22.88"/><path class="cls-8" d="M280.81,269l-4.54,47.16s8.93,11.54,40.38,15.06c0,0-7.68-7.86-5-35.51"/><path class="cls-13" d="M262,275.46a100.52,100.52,0,0,0,20.46,18.82c2.26,1.57,4.84,3.1,7.58,2.83,2.48-.25,4.54-1.91,6.44-3.51,11.13-9.36,21.84-21,33.87-29-1.2-4.85-2.06-10.19.21-14.65s9-6.87,12.51-3.32c4.14,4.14.58,11.37,2.56,16.85L361,238.23l15.55,7.56c.5-5.74,1-11.56.06-17.25s-3.5-11.33-8.09-14.87l6.05,1.24c-3-17-16-36.55-34.39-39.09-15.47-2.14-31.49-2.44-46.45,2s-28.83,14.09-35.75,28c-4.42,8.84-5.83,18.87-6.2,28.73-.49,13.07.93,26.73,7.82,37.89"/><rect class="cls-14" x="1237.21" y="593.27" width="886.8" height="320.13"/><path class="cls-8" d="M1279.45,553.38s-.19.82-.78-.56,3.83-9.41,3.83-9.41l-5.08-5.33s-13,16.5-13.25,30.58"/><path class="cls-8" d="M1221.1,531c15.15,5.87,36.56-8.93,35.44-13.51-.65-2.66-13.68,1.92-13.68,1.92"/><polygon class="cls-15" points="1326.01 550.05 1324.13 507.63 1237.21 502.82 1326.01 550.05"/><polygon class="cls-16" points="1326.01 550.05 1317.94 515.46 1316.92 545.22 1326.01 550.05"/><polygon class="cls-1" points="1317.94 515.46 1319.31 557.54 1286.12 551.14 1237.21 502.82 1317.94 515.46"/><polygon class="cls-16" points="1324.13 507.63 1335.58 542.75 1325.52 538.33 1324.13 507.63"/><path class="cls-8" d="M1194.74,419.9c0,33.21-7.28,60.13-36.27,60.13s-68.72-26.92-68.72-60.13,23.5-60.13,52.49-60.13S1194.74,386.7,1194.74,419.9Z"/><path class="cls-8" d="M1114.66,507.7l-19-5a5.38,5.38,0,0,1-3.81-6.56L1105,446.72a5.38,5.38,0,0,1,6.56-3.81l21.79,5.79a4.77,4.77,0,0,1,3.38,5.82l-11.88,47.74C1123.74,506.33,1118.73,508.78,1114.66,507.7Z"/><path class="cls-11" d="M1050.85,667.37s-10.26,54.23,24.1,60.91,147.1,11.45,147.1,11.45,7.17,51,15.81,145c0,0-8.66,19.29-5.78,29.29h64.07l-32.93-31.3s15.27-151.66,11.45-174.56-96.4-38.73-135.53-40.82"/><path class="cls-13" d="M1148.14,349.33c17.23-.06,36,6.24,44.66,22,6.38,11.61,6.26,30.55,5,43.74-9.66,1.48-34.54,1-40-10.51a112.49,112.49,0,0,1-3.8,28c-6.54-3-6.42-15.87-13.59-15.25-5.88.5-8.36,14.37-6.45,18.65,1.21,2.71,3.78,7.29,6.68,7.88-1.63,2.61-4.73,3.82-7.51,5.16-10.9,5.22-24,13.32-32.09,12.63-6.83-.58-9.81-14-11.16-20.74-1.9-9.52-3.38-19.19-3.27-28.92,0-2,.47-4,.56-5.95s-.59-4.06-.8-6.09a28,28,0,0,1,1.48-13.06,46.14,46.14,0,0,1,4.18-7.72l5.25-8.37a52,52,0,0,1,4.88-6.92c7.34-8.32,19-11.06,30-12.89,3.88-.65,7.78-1.24,11.71-1.5Q1145.95,349.33,1148.14,349.33Z"/><path class="cls-13" d="M1110.35,363.24c-2.55-7.82-10.14-13.46-18.29-14.6s-16.56,1.88-22.85,7.18-10.55,12.72-13,20.55a47.3,47.3,0,0,0-1.5,24.45c1.62,7.25,5.24,13.91,7.12,21.1s1.62,15.67-3.54,21c7,1.53,13.82-3.45,18.54-8.88a66.33,66.33,0,0,0,15.36-32.85"/><path class="cls-8" d="M1263.59,504.38s-8.45,2.09-14,6.52c-4.94,8.18-15.42,16.73-17.91,18-4.14,2.1-14.85,4.62-19.75-1.34s13.27-22.84,19.54-24C1250.49,500,1261.14,496.89,1263.59,504.38Z"/><path class="cls-9" d="M1215.88,514.48s6.9,15.59,6.62,18.28L1164,563.92l-19.65-27.79Z"/><path class="cls-8" d="M1263.38,569.65a68.59,68.59,0,0,1,25.44-21.95,7.32,7.32,0,0,0,3.29-2.47,6.67,6.67,0,0,0,.69-2.2c.89-4.82,1.85-10.37,6.07-12.84a3.32,3.32,0,0,1,1.8-.55,4.22,4.22,0,0,1,2.33,1.21c3.22,2.66,6.55,5.48,8.15,9.34a23.27,23.27,0,0,1,1.38,7.72,82,82,0,0,1,0,14.28c-.2,2.09-.9,5.83-2.06,7.63-.91,1.42-3,5.33-4.45,6.1a62,62,0,0,1-33.22,7.22"/><path class="cls-12" d="M1097.9,475.35s7.7,12.17,27.81,15.56c0,0,20.29,8.59,26.79,51.61,7.22,47.76-13.36,124.86-13.36,124.86s-79.22,14.64-90.67,0C1048.47,667.37,1018.94,502.17,1097.9,475.35Z"/><rect class="cls-11" x="1086.22" y="743.8" width="30.54" height="143.55"/><circle class="cls-10" cx="1059.09" cy="897.77" r="16.62"/><circle class="cls-10" cx="1144.23" cy="897.99" r="16.62"/><rect class="cls-11" x="1046.62" y="864.06" width="109.76" height="23.29"/><rect class="cls-10" x="995.02" y="722.04" width="231.24" height="62.99" rx="31.5" ry="31.5"/><rect class="cls-10" x="995.02" y="438.56" width="55.12" height="339.32" rx="27.56" ry="27.56"/><path class="cls-9" d="M1073.76,509.71s1.7-20,24.33-16c14.32,2.53,70.46,70.52,70.46,70.52l96.05-.29s12.24,13,11.52,19.66c0,0-40.93,5.73-70.41,8.71C1176,595.28,1159,598,1159,598s-45.73-32.32-75.44-65C1077.86,526.75,1074.8,517.73,1073.76,509.71Z"/><path class="cls-8" d="M2103.56,456.63c-.6-6.12-1.25-12.42-4.17-17.83-3.51-6.52-9.85-10.95-16-15-1.16-.77-3-1.42-3.72-.24a2.34,2.34,0,0,0-.21,1.51,9.76,9.76,0,0,0,3.74,6.62c1.55,1.18,3.77,2.64,3.06,4.46a77,77,0,0,1-26.72-14.33c-1.67-1.38-3.68-2.94-5.78-2.4-2.58.67-3.34,3.91-3.61,6.57-.53,5.25-1,10.74.25,15.92s3.28,6.68,7.32,9.32c9.74,6.39,18.91,13.49,28.93,19.51"/><path class="cls-8" d="M2104.18,456.63c-.59-5.91-1.2-12-3.88-17.39s-7.21-9.38-12-12.85c-1.59-1.15-6.88-6.17-9.08-3.31s1.77,7.43,3.59,9.06c.11.1,1.83,1.36,1.89,1.51.54,1.38,0,1-.7,1.08-1.23.22-4.38-1.64-5.46-2.1a77,77,0,0,1-10.44-5.44c-3.34-2.08-6.21-4.83-9.5-6.93-1.5-1-3.13-2-5-1.47-3.39.87-3.85,5.19-4.15,8.05-.61,5.82-1.11,12.49,1.27,18s8.92,8.32,13.54,11.52c7.3,5.06,14.5,10.25,22.09,14.87.69.42,1.32-.66.63-1.08-7.33-4.46-14.29-9.45-21.34-14.35-3.23-2.24-6.66-4.28-9.79-6.66-4.38-3.33-5.38-8.16-5.58-13.44-.13-3.6-.55-9.74,1.24-13,3-5.42,10.74,2.05,13.83,4.13a80.09,80.09,0,0,0,20.75,9.84.63.63,0,0,0,.79-.6c.2-2.09-.87-2.89-2.39-4.26a9.78,9.78,0,0,1-4.14-5.46q1.92-3.52,4-1.21c2,.69,4.79,3.33,6.34,4.6,8.75,7.17,11.14,16,12.22,26.84.08.79,1.33.8,1.25,0Z"/><path class="cls-17" d="M2219.75,511.64,2168.4,518l-64.07-63.66s-18.67,14.53-18.67,20l67,73.5,71.59,7.81"/><path class="cls-8" d="M2168.25,408.11c-1.34,33.18,5.45,70.6,34.45,70.6s68.72-26.92,68.72-60.13-23.5-60.13-52.49-60.13S2170,364.75,2168.25,408.11Z"/><path class="cls-8" d="M2091.72,498.67a51.7,51.7,0,0,0-6.2-16.56c-5-8.52-13.76-16-23.6-15.21-1.13,2.08.52,4.61,2.43,6s4.26,2.46,5.32,4.58a1.61,1.61,0,0,1,.21,1.06c-.14.6-.8.91-1.39,1.08-3.45,1-7.15.54-10.68-.17a86,86,0,0,1-24.83-9.21c-.37-.21-.82-.42-1.19-.21a1.25,1.25,0,0,0-.48.84c-1.48,5.7-2.76,12.4,1,17a18.84,18.84,0,0,0,5.17,3.94l10.49,6.22c5,3,10.13,6,15.71,7.78s11.78,2.24,17.23.11"/><path class="cls-8" d="M2092.32,498.5c-3-14.64-13.16-32.93-30.4-32.23a.64.64,0,0,0-.6.46c-1.21,4.27,2.13,5.23,4.5,7.93q2.7,1.36-.85,4.92h-1.79c-2,.31-4.87-.63-6.94-1.09a86.51,86.51,0,0,1-10.21-3,84.32,84.32,0,0,1-10.4-4.55c-.78-.41-2.71-2.06-3.85-1.55-2.11.94-2.22,6.14-2.42,8.13-1.24,12,9.38,15.73,18.26,21,10.18,6,21.38,12,33.43,8,.76-.26.43-1.46-.33-1.21-9.2,3.12-18.16.12-26.37-4.31-6.06-3.28-12.25-6.78-18-10.59-5.08-3.36-6.37-7.78-5.64-13.51.17-1.37.34-5.46,1.94-6.09.61-.24,4.17,2.19,4.72,2.45a86.56,86.56,0,0,0,19.4,6.64c2.84.6,10.92,2.65,13.12-.31,2.37-3.19-3.53-5.55-5.12-7.22q-2.62-1.41-1.39-4.88a11.74,11.74,0,0,1,2.79.27,20.41,20.41,0,0,1,6.55,2.25,29.5,29.5,0,0,1,7.94,6.48c5.55,6.26,8.77,14.25,10.45,22.37.16.79,1.37.45,1.21-.33Z"/><path class="cls-8" d="M2246.5,506.38l19-5c2.85-.76,6.1-6.34,5.34-9.2l-14.63-46.74a5.38,5.38,0,0,0-6.56-3.81l-21.79,5.79a4.77,4.77,0,0,0-3.38,5.82l12.67,47.74A7.69,7.69,0,0,0,2246.5,506.38Z"/><path class="cls-11" d="M2312.31,666.37s10.26,54.23-24.1,60.91-147.1,11.45-147.1,11.45-7.17,51-15.81,145c0,0,8.66,19.29,5.78,29.29H2067l10-32.63s7.67-150.33,11.49-173.24,96.4-38.73,135.53-40.82"/><path class="cls-12" d="M2265.26,474.35a50.86,50.86,0,0,1-30.67,17.79s-21.4,12.89-24.26,61.11S2224,666.37,2224,666.37s79.22,14.64,90.67,0C2314.7,666.37,2344.22,501.17,2265.26,474.35Z"/><rect class="cls-11" x="2246.4" y="742.8" width="30.54" height="143.55" transform="translate(4523.33 1629.15) rotate(-180)"/><circle class="cls-10" cx="2304.08" cy="896.77" r="16.62"/><circle class="cls-10" cx="2218.93" cy="896.99" r="16.62"/><rect class="cls-11" x="2206.79" y="863.06" width="109.76" height="23.29" transform="translate(4523.33 1749.41) rotate(-180)"/><rect class="cls-10" x="2136.91" y="721.04" width="231.24" height="62.99" rx="31.5" ry="31.5" transform="translate(4505.06 1505.08) rotate(180)"/><rect class="cls-10" x="2313.03" y="437.56" width="55.12" height="339.32" rx="27.56" ry="27.56" transform="translate(4681.18 1214.43) rotate(-180)"/><path class="cls-9" d="M2289.43,530.54S2297,511.91,2275,505.2c-13.91-4.24-93.94,26.24-93.94,26.24l-89.78-40.89s-12.12,12-14.48,18.18c0,0,32.65,19.55,57.58,35.57,25.16,16.17,43,23.45,43,23.45s51.5-5.24,92.79-20.89C2278.05,543.87,2284.87,537.21,2289.43,530.54Z"/><path class="cls-10" d="M2213.64,422.19c-3.32-6.69-4.09-9-4.15-15.69s-1.52-10-3.82-16.33c-.35-1-2.48-2.74-3.17-3.5-1.76-2-6.91-2-9.5-2.92-3.39-1.17-9-3.42-14.25-4.5-7.56-1.55-12.7-16.33-9.25-20.8,3-3.87,23.67-9.2,28.17-11.12,11.23-4.79,24.09-6.76,36.29-6.67,6.28,0,11.47-.16,17.71.67,3.08.41,5.89,4.34,8.85,5.28,2.28.72,4.68,5.55,7,5.14a15,15,0,0,1-.64-9.89c1.25-3.59,5.73-4.67,9.52-5.07a29.5,29.5,0,0,1,9,0,11.2,11.2,0,0,1,7.4,4.68,21.42,21.42,0,0,1,1.92,5c1.15,3.66,2.83,7.14,3.89,10.83s1.46,7.73.06,11.3a12.07,12.07,0,0,1-8.13,7.16c-4,1-7.08-.47-10.52-2.16,2.8,7.06,5.85,13.38,6.82,21.09a57.58,57.58,0,0,1-1.57,22.5c-1,3.61-2.35,7.12-3.7,10.62-2.58,6.69-5.19,13.48-9.18,19.48-1.77,2.66-4,3.88-6,6.17-1.88,2.13-3.46,5.46-6.22,6.61-2.94,1.22-6.27-4.47-8.65-6.4-2-1.6-3.65-3.53-5.47-5.31-3.6-3.5-7.8-6.42-10.87-10.4-.13-.17-.26-.2-.29-.4a1.83,1.83,0,0,1,.21-.91,30.71,30.71,0,0,0,2.61-9.78c.59-4.6.7-9.45-1.19-13.68-2.58-5.76-9.48-9.22-15.23-5.87a15.15,15.15,0,0,0-5.81,6.44C2214.72,415.13,2213.39,419.69,2213.64,422.19Z"/><path class="cls-10" d="M2215.8,420.92c-1.59-3.25-3.15-6.48-3.6-10.11-.4-3.27-.14-6.58-.65-9.84-.87-5.52-2.55-11.62-6.72-15.51-3.79-3.53-9.36-3.47-14.09-5.17-6.13-2.2-13.45-2.53-17.05-8.52-2-3.33-4.84-10.13-.79-12.82s9.5-4,14.11-5.48c12.64-4.09,24.74-9,38.16-10,4.73-.35,9.47-.31,14.21-.29,4.39,0,9.88-.52,13.85,1.55a41.81,41.81,0,0,1,8.23,5.81c1.91,1.82,3.25,3.56,6,3.71a2.51,2.51,0,0,0,2.41-3.16c-1.06-2.66-2.05-7,0-9.51,1.71-2.06,5.84-2.27,8.28-2.47,3-.25,6.25-.36,9,1,3.59,1.74,4.16,4.47,5.3,7.84,1.72,5.12,4.68,10.34,4.5,15.9a10,10,0,0,1-5.19,8.77c-3.6,1.86-7.25.48-10.6-1.14-1.73-.83-4.56.6-3.67,2.82,3.7,9.21,7.23,17.85,7.2,28,0,10.59-3.68,20.25-7.6,29.93-1.89,4.67-3.92,9.78-7,13.86-2,2.65-4.74,4.56-6.82,7.15-1.07,1.33-2.5,4.59-4.72,4.26-1.22-.18-3.07-3.13-3.9-4-2.6-2.75-5.44-5.41-8.22-8-2.25-2.09-8.62-5.85-8.65-9.08,0-1.53,1.32-3.89,1.64-5.48a53.12,53.12,0,0,0,.82-5.75c.63-6.84-.43-14.41-6.29-18.79-11.43-8.57-23.18,4.12-22.89,15.84.08,3.21,5.08,3.22,5,0-.2-8.24,8.57-19.22,16.32-10.56,3.83,4.28,3.34,11,2.51,16.27a52.1,52.1,0,0,1-2.12,7.5,6.11,6.11,0,0,0-.55,2.17c.22,2.75,3.79,5.3,5.63,7,3.2,2.93,6.35,5.83,9.47,8.84s7.78,10.26,12.89,9.18c2.56-.54,4.26-2.78,5.79-4.71,2.31-2.91,5.16-5.21,7.47-8.08,5.44-6.75,8.35-15.91,11.36-23.93,3.33-8.85,5.29-17.88,4.7-27.38-.56-9.11-3.9-17.15-7.26-25.52l-3.67,2.82c7.76,3.75,16.74,3.88,21.47-4.62,4.85-8.71-.88-20.23-4.15-28.52-3.54-9-14-9.58-22.24-8-9,1.73-12,9.43-8.69,17.77l2.41-3.16c-1.57-.09-4.17-3.87-5.72-4.8-2.69-1.61-5.31-4.18-8.31-5.22-3.49-1.22-7.87-1-11.51-1-4.71-.07-9.45-.13-14.16.1-14.71.73-27.77,5.74-41.59,10.18-7.79,2.51-20.86,4.69-20.27,15.14a23.5,23.5,0,0,0,6.46,14.7c4.42,4.41,12,5,17.64,7,3.28,1.17,7.81,1.14,10.68,3.09,3.34,2.27,4.54,7.35,5.45,11.08,1,4.25.55,8.57,1.22,12.85.62,4,2.33,7.51,4.08,11.08C2212.9,426.34,2217.21,423.81,2215.8,420.92Z"/><rect class="cls-1" x="1373.38" y="483.68" width="143.88" height="109.4"/><path class="cls-18" d="M1692.52,609.84h-75c-19.25,0-21.2-6.55-21.2-25.79l-10.67-65.33c0-19.25,8.94-27.67,21.8-30.33l47.78-2.58,47.89,3.58c14.86,3,14.21,8.79,17.47,29l-9.11,74.42C1711.5,612,1711.77,609.84,1692.52,609.84Z"/><path class="cls-8" d="M1658.9,475.61h-10.61c-24.33,0-39.13-16.77-44.24-44.24V395.8a44.37,44.37,0,0,1,44.24-44.24h10.61a44.37,44.37,0,0,1,44.24,44.24v35.57C1697.13,459.12,1683.23,475.61,1658.9,475.61Z"/><rect class="cls-8" x="1640.95" y="457.62" width="28.15" height="46.48" rx="14.08" ry="14.08"/><path class="cls-8" d="M1703.24,430.15a10.3,10.3,0,0,0,6.81-4.32,17.49,17.49,0,0,0,2-7.1c.35-3.14,1.75-11.31-.8-13.34-6.09-4.86-8.4-1.86-11.36-3.3"/><path class="cls-8" d="M1604.16,430.15a10.3,10.3,0,0,1-6.81-4.32,17.49,17.49,0,0,1-2-7.1c-.35-3.14-1.75-11.31.8-13.34,6.09-4.86,8.4-1.86,11.36-3.3"/><path class="cls-10" d="M1617.64,379.11c3.65,7.64,11.67,12.45,19.93,14.31s16.85,1.21,25.29.54l-2.07-4.34a73.16,73.16,0,0,0,31.93,4.72l-6.06-7.2c3.61.84,8.3,1.13,11.65,2.69,3,1.4,2.23,4.06,2.34,7.32a231.24,231.24,0,0,1-.49,24,1.12,1.12,0,0,0,1.5-.39,3.26,3.26,0,0,0,.42-1.66c.79-10.93,1.6-21.9,2.8-32.72,1-9.26-2.51-19.43-8.1-26.72,2.85,1.16,5.67-2.67,4.81-5.63s-3.76-4.77-6.5-6.16a85.33,85.33,0,0,0-36.51-9c-10.35-.23-24.22-.81-33.61,3.66a27.19,27.19,0,0,0-8.4,5.71c-2.67,2.87-4.28,6.54-5.83,10.14-6.62,15.3-10.77,27.27-7.17,44.1,1.31,6.1,4.66,13.22,4.66,19.4a77.94,77.94,0,0,0,4.07-28.34c-.16-3.67-.56-7.45.65-10.92s4.63-6.51,8.24-5.85"/><path class="cls-10" d="M1616.34,379.87c8.93,17.1,29.86,16.9,46.51,15.59a1.52,1.52,0,0,0,1.3-2.26l-2.07-4.34-1.69,2.2a77.52,77.52,0,0,0,32.33,4.78,1.52,1.52,0,0,0,1.06-2.56l-6.06-7.2-1.46,2.51c2.91.61,6.1.77,8.92,1.73,2.51.86,3.53,1.67,4,4.2a33.59,33.59,0,0,1,0,4.48q.21,11.08-.54,22.11a1.5,1.5,0,0,0,1.1,1.45c3.6.52,3.74-2.57,4-5.42.6-7.71,1.14-15.43,1.87-23.13.62-6.47,1.47-12.63,0-19.05a43.61,43.61,0,0,0-7.53-16.08l-1.69,2.2a5.57,5.57,0,0,0,6.69-4.59c1-4.54-3.12-7.73-6.64-9.63-12.27-6.62-26.21-9.3-40-9.61-12.36-.28-25.91-.68-36.68,6.38-5.45,3.58-8.13,8.89-10.64,14.73a121.16,121.16,0,0,0-6.54,18,56.53,56.53,0,0,0-1.36,21c1,8.32,5.17,16.07,5.53,24.45a1.51,1.51,0,0,0,2.95.4,82.73,82.73,0,0,0,4-20.64c.4-6.51-3.18-24,7.47-23.36,1.93.11,1.92-2.89,0-3-7.68-.45-10.56,7.19-10.56,13.66,0,11.32-.27,21.64-3.84,32.55l2.95.4c-.27-6.37-2.81-12.14-4.34-18.25a53.23,53.23,0,0,1-1.29-19.23,77.26,77.26,0,0,1,5.42-19.24c2.88-7.22,5.56-15,12.46-19.3,10.93-6.84,25.13-5.89,37.51-5.45a85.52,85.52,0,0,1,21.81,3.6,79.89,79.89,0,0,1,11.42,4.41,36.85,36.85,0,0,1,3.38,1.76,12.36,12.36,0,0,1,2.38,1.73q3.93,3.37-1.3,6.34c-1.14-.23-2.54,1.06-1.69,2.2a39,39,0,0,1,7.68,27.87c-.3,2.88-3.18,31.32-2.62,31.4l1.1,1.45c.62-9,1.64-19,.45-28-.88-6.65-10-6.4-15-7.45a1.51,1.51,0,0,0-1.46,2.51l6.06,7.2,1.06-2.56a75.51,75.51,0,0,1-31.53-4.67c-1.34-.5-2.2,1.14-1.69,2.2l2.07,4.34,1.3-2.26c-15.55,1.22-35.51,2-43.92-14.11-.89-1.71-3.48-.2-2.59,1.51Z"/><rect class="cls-19" x="1614.49" y="567.98" width="45.42" height="4.67" transform="translate(1417.35 -1149.39) rotate(63.51)"/><rect class="cls-1" x="1622.82" y="588.94" width="83.84" height="3.72"/><path class="cls-20" d="M1703.14,489.33s12.11,2.43,18.86,13.21,27.25,65.76,27.25,65.76,5.75,12.52-1.25,25h-44s-13.5-12.07-.5-19.85l18.68-2.58-6.5-12S1722.28,498.32,1703.14,489.33Z"/><path class="cls-8" d="M1685.54,572.72a3.17,3.17,0,0,0-1.16,1.08c-4,5.4-5.8,12.12-7.43,18.66l20.83.07h2.5a9.08,9.08,0,0,0,2.7,0c.93-.39.86-2.35,1-3.32a39.82,39.82,0,0,0,.15-10,6.08,6.08,0,0,0-1.24-3.53,5.52,5.52,0,0,0-2-1.24c-3.62-1.54-7.64-1.82-11.56-2.08A8.88,8.88,0,0,0,1685.54,572.72Z"/><path class="cls-8" d="M1685.27,572.45c-5.24,4.88-7,13.25-8.69,19.91a.38.38,0,0,0,.36.47c8.06,0,16.14.23,24.19.14,3.45,0,3.13-2.27,3.4-5.41.34-3.87,1.24-10.31-2.38-13-3.78-2.76-12.38-3.43-16.73-2.25a.38.38,0,0,0,.2.72c3.2-.87,7.18-.28,10.35.31a9.17,9.17,0,0,1,5.42,2.71c2.44,2.16,2.48,3.38,2.57,6.43.06,2,.43,5.71-.47,7.57-1.37,2.82-5.1,2.06-7.63,2l-9.47,0c-2,0-6.89.92-8.13-.61s.92-6.06,1.56-7.91c1.3-3.72,3-7.87,6-10.62C1686.16,572.65,1685.63,572.12,1685.27,572.45Z"/><path class="cls-8" d="M1615.91,577.88a7.49,7.49,0,0,1,5.21-2.21,7.63,7.63,0,0,0,4.44-.92c2-1,3.78-2.27,5.66-3.42a11.2,11.2,0,0,1,5.06-2.08,8.28,8.28,0,0,1,3.6.79c5.67,2.4,9.54,7.43,13.15,12.24,1.51,2,3.09,4.2,3.17,6.69,0,.87-5.63,2.78-6.44,3.05a20.56,20.56,0,0,1-7.11,1.24c-5.87-.12-11.74-.31-17.61-.46-2.78-.07-5.88-.27-7.79-2.2a9.9,9.9,0,0,1-2-3.79,12.27,12.27,0,0,1-1-5.37A6,6,0,0,1,1615.91,577.88Z"/><path class="cls-8" d="M1616.17,578.14c3-2.52,5.87-1.56,9-2.8,3.42-1.36,6.25-4.6,9.87-5.49,4.93-1.22,10,3.56,13,6.78,2.42,2.63,5.92,6.22,7,9.68,1.21,3.78-1.84,4.17-4.94,5.21a31.73,31.73,0,0,1-11.36,1.28q-5.87-.14-11.74-.32c-1.91-.06-4.22.11-6.08-.44-5-1.51-8.47-9.25-4.74-13.89.3-.37-.23-.91-.53-.53-2.64,3.29-2.09,7-.25,10.74,2,4.09,5.36,4.64,9.64,4.82,6.82.29,14.57,1.37,21.32.15,2-.37,8.77-1.71,9.92-3.76,1.45-2.56-2.48-6.88-3.84-8.67-3.06-4-6.41-8.16-11-10.52-4.29-2.21-7.19-1.35-11.12,1.07a26.8,26.8,0,0,1-9.93,3.93,9.58,9.58,0,0,0-4.75,2.24C1615.27,577.92,1615.8,578.45,1616.17,578.14Z"/><path class="cls-20" d="M1604.7,489.33s-12.11,2.43-18.86,13.21-27.25,65.76-27.25,65.76-5.75,12.52,1.25,25l61.25-.07s5.75-11.44,2.25-19.05l-38.83-3.31,7.72-12S1585.56,498.32,1604.7,489.33Z"/><rect class="cls-21" x="1261.13" y="593.27" width="832.22" height="320.13"/><rect class="cls-21" x="1176.76" y="593.27" width="1008.04" height="31.9"/><rect class="cls-16" x="1373.38" y="498.78" width="143.88" height="2"/><rect class="cls-16" x="1373.38" y="517.06" width="143.88" height="2"/><rect class="cls-16" x="1373.38" y="534.33" width="143.88" height="2"/><rect class="cls-16" x="1373.38" y="551.61" width="143.88" height="2"/><rect class="cls-16" x="1373.38" y="568.89" width="143.88" height="2"/><path class="cls-22" d="M800.66,765.55S912,442.73,821.77,295.19"/><path class="cls-23" d="M821.77,295.19s-99.14,187.35-21.11,470.35"/><path class="cls-22" d="M800.88,762.05s-26.26-286.7-174.52-357"/><path class="cls-23" d="M626.36,405s65.64,308,174.52,357"/><path class="cls-22" d="M791.49,781S838,546.32,945.78,507.72"/><path class="cls-23" d="M945.78,507.72S861,752.59,791.49,781"/><polygon class="cls-24" points="725.6 790.7 738.01 914 872.43 914 885.88 791.63 725.6 790.7"/><rect class="cls-25" x="715.6" y="749.82" width="180.27" height="54.8"/><polygon class="cls-15" points="1819.88 301.43 1929.87 361.2 1918.09 385.87 1819.88 301.43"/><polygon class="cls-1" points="1916.06 364 1819.88 301.43 1857.07 368.58 1886.64 379.19 1916.06 364"/><polygon class="cls-16" points="1916.06 364 1918.09 385.87 1896.84 373.92 1916.06 364"/><polygon class="cls-1" points="1819.88 301.43 1945.65 361.51 1929.87 361.2 1819.88 301.43"/><path class="cls-6" d="M2043,457.62s-64.1-2.76-119-59.26"/></svg>