<?xml version="1.0" encoding="utf-8"?>
<!-- Generator: Adobe Illustrator 20.0.0, SVG Export Plug-In . SVG Version: 6.00 Build 0)  -->
<svg version="1.1" id="Layer_1" xmlns="http://www.w3.org/2000/svg" xmlns:xlink="http://www.w3.org/1999/xlink" x="0px" y="0px"
	 viewBox="0 0 768.1 2232.8" style="enable-background:new 0 0 768.1 2232.8;" xml:space="preserve">
<style type="text/css">
	.st0{fill:#FFFFFF;}
	.st1{fill:#CED0D1;}
	.st2{fill:#E3E3E2;}
	.st3{fill:#5B4A42;stroke:#988279;stroke-width:19;stroke-miterlimit:10;}
	.st4{fill:#00A49A;}
	.st5{fill:#284250;}
	.st6{fill:#00877D;}
	.st7{fill:#414141;}
	.st8{fill:#F0F0F0;}
	.st9{fill:#A5A6A9;}
	.st10{fill:#FFD15D;}
	.st11{opacity:0.58;fill:#F0BA53;enable-background:new    ;}
	.st12{fill:none;stroke:#A67C4F;stroke-width:19;stroke-miterlimit:10;}
	.st13{fill:#C3556A;}
	.st14{fill:#B44560;}
	.st15{fill:#00A59B;}
	.st16{opacity:0.48;fill:#00A59B;enable-background:new    ;}
	.st17{fill:#59595C;}
	.st18{fill:#6D6F70;}
	.st19{fill:#5E5F5E;}
	.st20{fill:#A5A7AA;}
	.st21{fill:#E4E4E3;}
	.st22{fill:#FFD25E;}
	.st23{fill:#7A56B9;}
	.st24{fill:#CFD1D2;}
	.st25{fill:#E5E6E7;}
	.st26{fill:#BABCBE;}
	.st27{fill:#58595B;stroke:#CFD1D2;stroke-width:3;stroke-miterlimit:10;}
	.st28{opacity:0.6;fill:#00A59B;enable-background:new    ;}
	.st29{fill:#E4617B;}
	.st30{fill:#C74564;}
	.st31{fill:#5A4A42;stroke:#BABCBE;stroke-width:10;stroke-miterlimit:10;}
	.st32{fill:#BABCBE;stroke:#BABCBE;stroke-miterlimit:10;}
	.st33{fill:#716558;}
	.st34{fill:none;stroke:#BABCBE;stroke-width:3;stroke-miterlimit:10;}
	.st35{fill:#FFFFFF;stroke:#BABCBE;stroke-width:3;stroke-miterlimit:10;}
	.st36{fill:#F0F0F1;}
	.st37{fill:none;stroke:#284250;stroke-width:2;stroke-miterlimit:10;}
	.st38{fill:#497A74;}
	.st39{opacity:0.23;}
	.st40{fill:#5A4A42;}
	.st41{opacity:0.3;fill:#284250;enable-background:new    ;}
	.st42{fill:#DEAE7E;}
	.st43{fill:#404041;}
	.st44{fill:#67C7D3;}
	.st45{fill:#1CBDD6;}
	.st46{fill:#6D6E70;}
	.st47{opacity:0.44;}
	.st48{opacity:0.44;fill:none;stroke:#284250;stroke-width:2;stroke-miterlimit:10;enable-background:new    ;}
	.st49{fill:#273135;}
	.st50{fill:#717B7D;}
	.st51{fill:#586366;}
	.st52{fill:#FAD2AB;}
	.st53{fill:#0FA6B5;}
</style>
<title>webmocup_v2</title>
<rect x="0" y="39" class="st0" width="768.1" height="1089.7"/>
<rect y="0" class="st1" width="768.1" height="39"/>
<rect x="46.4" y="521.5" class="st2" width="200.9" height="200.9"/>
<rect x="413.3" y="769.7" class="st2" width="310.2" height="248.1"/>
<rect x="283.6" y="521.5" class="st2" width="200.9" height="200.9"/>
<rect x="520.8" y="521.5" class="st2" width="200.9" height="200.9"/>
<rect y="39" class="st2" width="768.1" height="426.1"/>
<circle class="st0" cx="27.1" cy="21" r="8.6"/>
<circle class="st0" cx="54.4" cy="21" r="8.6"/>
<circle class="st0" cx="81.8" cy="21" r="8.6"/>
<circle class="st3" cx="386.5" cy="625" r="52.9"/>
<circle class="st4" cx="386.5" cy="625" r="36.1"/>
<circle class="st5" cx="386.5" cy="625" r="1.4"/>
<circle class="st5" cx="386.5" cy="619" r="1.4"/>
<circle class="st5" cx="386.5" cy="612.9" r="1.4"/>
<circle class="st5" cx="386.5" cy="606.9" r="1.4"/>
<circle class="st5" cx="386.5" cy="600.9" r="1.4"/>
<circle class="st5" cx="386.5" cy="594.9" r="1.4"/>
<circle class="st5" cx="386.5" cy="588.8" r="1.4"/>
<ellipse transform="matrix(0.8311 -0.5562 0.5562 0.8311 -282.3123 320.5453)" class="st5" cx="386.5" cy="625" rx="1.4" ry="1.4"/>
<circle class="st5" cx="386.5" cy="654.7" r="1.4"/>
<circle class="st5" cx="386.5" cy="648.7" r="1.4"/>
<circle class="st5" cx="386.5" cy="642.7" r="1.4"/>
<circle class="st5" cx="386.5" cy="636.6" r="1.4"/>
<circle class="st5" cx="386.5" cy="630.6" r="1.4"/>
<ellipse transform="matrix(0.8311 -0.5562 0.5562 0.8311 -302.1841 326.5851)" class="st5" cx="386.5" cy="660.8" rx="1.4" ry="1.4"/>
<circle class="st5" cx="386.5" cy="625.2" r="1.4"/>
<circle class="st5" cx="392.5" cy="625.2" r="1.4"/>
<circle class="st5" cx="398.5" cy="625.2" r="1.4"/>
<circle class="st5" cx="404.6" cy="625.2" r="1.4"/>
<circle class="st5" cx="410.6" cy="625.2" r="1.4"/>
<circle class="st5" cx="416.6" cy="625.2" r="1.4"/>
<circle class="st5" cx="422.6" cy="625.2" r="1.4"/>
<ellipse transform="matrix(0.8312 -0.556 0.556 0.8312 -282.3541 320.3925)" class="st5" cx="386.4" cy="625.2" rx="1.4" ry="1.4"/>
<circle class="st5" cx="356.8" cy="625.2" r="1.4"/>
<circle class="st5" cx="362.8" cy="625.2" r="1.4"/>
<circle class="st5" cx="368.8" cy="625.2" r="1.4"/>
<circle class="st5" cx="374.9" cy="625.2" r="1.4"/>
<circle class="st5" cx="380.9" cy="625.2" r="1.4"/>
<ellipse transform="matrix(0.8312 -0.556 0.556 0.8312 -288.3844 300.5187)" class="st5" cx="350.7" cy="625.1" rx="1.4" ry="1.4"/>
<ellipse transform="matrix(0.7492 -0.6624 0.6624 0.7492 -317.0864 412.6329)" class="st5" cx="386.3" cy="625" rx="1.4" ry="1.4"/>
<ellipse transform="matrix(0.2543 -0.9671 0.9671 0.2543 -316.3407 839.7435)" class="st5" cx="386.4" cy="625" rx="1.4" ry="1.4"/>
<ellipse transform="matrix(0.7493 -0.6622 0.6622 0.7493 -317.1494 412.6103)" class="st5" cx="386.4" cy="625.2" rx="1.4" ry="1.4"/>
<ellipse transform="matrix(0.7493 -0.6622 0.6622 0.7493 -313.3733 414.5989)" class="st5" cx="390.9" cy="621.2" rx="1.4" ry="1.4"/>
<ellipse transform="matrix(0.7493 -0.6622 0.6622 0.7493 -309.5914 416.5879)" class="st5" cx="395.4" cy="617.2" rx="1.4" ry="1.4"/>
<ellipse transform="matrix(0.7493 -0.6622 0.6622 0.7493 -305.8129 418.5832)" class="st5" cx="399.9" cy="613.2" rx="1.4" ry="1.4"/>
<ellipse transform="matrix(0.7493 -0.6622 0.6622 0.7493 -302.0343 420.5784)" class="st5" cx="404.5" cy="609.2" rx="1.4" ry="1.4"/>
<ellipse transform="matrix(0.7493 -0.6622 0.6622 0.7493 -298.2612 422.5574)" class="st5" cx="409" cy="605.2" rx="1.4" ry="1.4"/>
<ellipse transform="matrix(0.7493 -0.6622 0.6622 0.7493 -294.4826 424.5527)" class="st5" cx="413.5" cy="601.2" rx="1.4" ry="1.4"/>
<ellipse transform="matrix(0.7493 -0.6622 0.6622 0.7493 -335.7505 402.8013)" class="st5" cx="364.1" cy="644.9" rx="1.4" ry="1.4"/>
<ellipse transform="matrix(0.7493 -0.6622 0.6622 0.7493 -331.9807 404.7866)" class="st5" cx="368.6" cy="640.9" rx="1.4" ry="1.4"/>
<ellipse transform="matrix(0.7493 -0.6622 0.6622 0.7493 -328.2021 406.7819)" class="st5" cx="373.2" cy="636.9" rx="1.4" ry="1.4"/>
<ellipse transform="matrix(0.7493 -0.6622 0.6622 0.7493 -324.4203 408.7709)" class="st5" cx="377.7" cy="632.9" rx="1.4" ry="1.4"/>
<ellipse transform="matrix(0.7493 -0.6622 0.6622 0.7493 -320.6417 410.7661)" class="st5" cx="382.2" cy="628.9" rx="1.4" ry="1.4"/>
<ellipse transform="matrix(0.2544 -0.9671 0.9671 0.2544 -359.3901 831.5086)" class="st5" cx="359.6" cy="648.8" rx="1.4" ry="1.4"/>
<ellipse transform="matrix(0.3816 -0.9243 0.9243 0.3816 -325.0641 741.7152)" class="st5" cx="391.8" cy="613.8" rx="1.4" ry="1.4"/>
<ellipse transform="matrix(0.3816 -0.9243 0.9243 0.3816 -318.4948 740.3838)" class="st5" cx="394.1" cy="608.2" rx="1.4" ry="1.4"/>
<ellipse transform="matrix(0.3816 -0.9243 0.9243 0.3816 -311.917 739.0726)" class="st5" cx="396.4" cy="602.6" rx="1.4" ry="1.4"/>
<ellipse transform="matrix(0.3816 -0.9243 0.9243 0.3816 -305.3454 737.7521)" class="st5" cx="398.7" cy="597.1" rx="1.4" ry="1.4"/>
<ellipse transform="matrix(0.3816 -0.9243 0.9243 0.3816 -298.7606 736.4238)" class="st5" cx="401" cy="591.5" rx="1.4" ry="1.4"/>
<ellipse transform="matrix(0.3816 -0.9243 0.9243 0.3816 -378.3137 751.47)" class="st5" cx="372.4" cy="658.5" rx="1.4" ry="1.4"/>
<ellipse transform="matrix(0.3816 -0.9243 0.9243 0.3816 -371.7382 750.1479)" class="st5" cx="374.7" cy="652.9" rx="1.4" ry="1.4"/>
<ellipse transform="matrix(0.3816 -0.9243 0.9243 0.3816 -365.1667 748.8275)" class="st5" cx="377" cy="647.3" rx="1.4" ry="1.4"/>
<ellipse transform="matrix(0.3816 -0.9243 0.9243 0.3816 -358.5951 747.507)" class="st5" cx="379.3" cy="641.7" rx="1.4" ry="1.4"/>
<ellipse transform="matrix(0.3816 -0.9243 0.9243 0.3816 -352.0195 746.1848)" class="st5" cx="381.6" cy="636.2" rx="1.4" ry="1.4"/>
<ellipse transform="matrix(0.915 -0.4035 0.4035 0.915 -207.1041 200.6356)" class="st5" cx="372.5" cy="591.7" rx="1.4" ry="1.4"/>
<ellipse transform="matrix(0.915 -0.4035 0.4035 0.915 -209.1216 202.0836)" class="st5" cx="374.9" cy="597.2" rx="1.4" ry="1.4"/>
<ellipse transform="matrix(0.915 -0.4035 0.4035 0.915 -211.1424 203.534)" class="st5" cx="377.3" cy="602.7" rx="1.4" ry="1.4"/>
<ellipse transform="matrix(0.915 -0.4035 0.4035 0.915 -213.1608 204.9877)" class="st5" cx="379.8" cy="608.3" rx="1.4" ry="1.4"/>
<ellipse transform="matrix(0.915 -0.4035 0.4035 0.915 -215.1783 206.4357)" class="st5" cx="382.2" cy="613.8" rx="1.4" ry="1.4"/>
<ellipse transform="matrix(0.317 -0.9484 0.9484 0.317 -325.9374 806.9863)" class="st5" cx="397.3" cy="629.8" rx="1.4" ry="1.4"/>
<ellipse transform="matrix(0.317 -0.9484 0.9484 0.317 -323.8461 813.7111)" class="st5" cx="403" cy="631.7" rx="1.4" ry="1.4"/>
<ellipse transform="matrix(0.317 -0.9484 0.9484 0.317 -321.7547 820.4359)" class="st5" cx="408.7" cy="633.6" rx="1.4" ry="1.4"/>
<ellipse transform="matrix(0.317 -0.9484 0.9484 0.317 -319.653 827.1812)" class="st5" cx="414.5" cy="635.5" rx="1.4" ry="1.4"/>
<ellipse transform="matrix(0.317 -0.9484 0.9484 0.317 -317.5617 833.9059)" class="st5" cx="420.2" cy="637.4" rx="1.4" ry="1.4"/>
<ellipse transform="matrix(0.3774 -0.9261 0.9261 0.3774 -346.2619 707.4694)" class="st5" cx="353" cy="611.2" rx="1.4" ry="1.4"/>
<ellipse transform="matrix(0.3774 -0.9261 0.9261 0.3774 -344.888 714.0587)" class="st5" cx="358.6" cy="613.5" rx="1.4" ry="1.4"/>
<ellipse transform="matrix(0.3774 -0.9261 0.9261 0.3774 -343.5147 720.6409)" class="st5" cx="364.2" cy="615.8" rx="1.4" ry="1.4"/>
<ellipse transform="matrix(0.3774 -0.9261 0.9261 0.3774 -342.1501 727.2365)" class="st5" cx="369.7" cy="618.1" rx="1.4" ry="1.4"/>
<ellipse transform="matrix(0.3774 -0.9261 0.9261 0.3774 -340.7768 733.8187)" class="st5" cx="375.3" cy="620.3" rx="1.4" ry="1.4"/>
<ellipse transform="matrix(0.9536 -0.3011 0.3011 0.9536 -172.6175 146.6724)" class="st5" cx="389.5" cy="633.3" rx="1.4" ry="1.4"/>
<ellipse transform="matrix(0.9539 -0.3 0.3 0.9539 -174.3721 147.4202)" class="st5" cx="392.8" cy="641.5" rx="1.4" ry="1.4"/>
<ellipse transform="matrix(0.9539 -0.3 0.3 0.9539 -176.0144 148.2288)" class="st5" cx="394.6" cy="647.2" rx="1.4" ry="1.4"/>
<ellipse transform="matrix(0.9539 -0.3 0.3 0.9539 -177.6572 149.0345)" class="st5" cx="396.4" cy="653" rx="1.4" ry="1.4"/>
<ellipse transform="matrix(0.9539 -0.3 0.3 0.9539 -179.2996 149.8431)" class="st5" cx="398.3" cy="658.7" rx="1.4" ry="1.4"/>
<ellipse transform="matrix(0.9067 -0.4217 0.4217 0.9067 -236.6803 208.5652)" class="st5" cx="353.2" cy="639.4" rx="1.4" ry="1.4"/>
<ellipse transform="matrix(0.9067 -0.4217 0.4217 0.9067 -235.0985 210.6387)" class="st5" cx="358.7" cy="636.9" rx="1.4" ry="1.4"/>
<ellipse transform="matrix(0.9067 -0.4217 0.4217 0.9067 -233.5176 212.7079)" class="st5" cx="364.2" cy="634.3" rx="1.4" ry="1.4"/>
<ellipse transform="matrix(0.9067 -0.4217 0.4217 0.9067 -231.9359 214.7711)" class="st5" cx="369.6" cy="631.8" rx="1.4" ry="1.4"/>
<ellipse transform="matrix(0.9067 -0.4217 0.4217 0.9067 -230.3509 216.8394)" class="st5" cx="375.1" cy="629.2" rx="1.4" ry="1.4"/>
<ellipse transform="matrix(0.9484 -0.317 0.317 0.9484 -176.1265 158.2197)" class="st5" cx="398.2" cy="620.4" rx="1.4" ry="1.4"/>
<ellipse transform="matrix(0.9484 -0.317 0.317 0.9484 -175.2247 159.9339)" class="st5" cx="403.9" cy="618.5" rx="1.4" ry="1.4"/>
<ellipse transform="matrix(0.9484 -0.317 0.317 0.9484 -174.3276 161.6459)" class="st5" cx="409.7" cy="616.6" rx="1.4" ry="1.4"/>
<ellipse transform="matrix(0.9484 -0.317 0.317 0.9484 -173.4257 163.3601)" class="st5" cx="415.4" cy="614.7" rx="1.4" ry="1.4"/>
<ellipse transform="matrix(0.9484 -0.317 0.317 0.9484 -172.473 165.0648)" class="st5" cx="421.1" cy="612.6" rx="1.4" ry="1.4"/>
<ellipse transform="matrix(0.7299 -0.6835 0.6835 0.7299 -322.9755 433.0522)" class="st5" cx="386.5" cy="625.2" rx="1.4" ry="1.4"/>
<ellipse transform="matrix(0.2265 -0.974 0.974 0.2265 -310.0346 860.0395)" class="st5" cx="386.5" cy="625.2" rx="1.4" ry="1.4"/>
<ellipse transform="matrix(0.73 -0.6834 0.6834 0.73 -323.0623 432.8541)" class="st5" cx="386.4" cy="625.3" rx="1.4" ry="1.4"/>
<ellipse transform="matrix(0.73 -0.6834 0.6834 0.73 -324.9602 436.8625)" class="st5" cx="390.5" cy="629.8" rx="1.4" ry="1.4"/>
<ellipse transform="matrix(0.73 -0.6834 0.6834 0.73 -326.8541 440.8615)" class="st5" cx="394.6" cy="634.1" rx="1.4" ry="1.4"/>
<ellipse transform="matrix(0.73 -0.6834 0.6834 0.73 -328.7551 444.8765)" class="st5" cx="398.7" cy="638.6" rx="1.4" ry="1.4"/>
<ellipse transform="matrix(0.73 -0.6834 0.6834 0.73 -330.649 448.8754)" class="st5" cx="402.8" cy="643" rx="1.4" ry="1.4"/>
<ellipse transform="matrix(0.73 -0.6834 0.6834 0.73 -332.5469 452.8839)" class="st5" cx="407" cy="647.4" rx="1.4" ry="1.4"/>
<ellipse transform="matrix(0.73 -0.6834 0.6834 0.73 -334.4407 456.8828)" class="st5" cx="411.1" cy="651.8" rx="1.4" ry="1.4"/>
<ellipse transform="matrix(0.73 -0.6834 0.6834 0.73 -313.7222 413.1299)" class="st5" cx="366.1" cy="603.7" rx="1.4" ry="1.4"/>
<ellipse transform="matrix(0.73 -0.6834 0.6834 0.73 -315.6202 417.1384)" class="st5" cx="370.2" cy="608.1" rx="1.4" ry="1.4"/>
<ellipse transform="matrix(0.73 -0.6834 0.6834 0.73 -317.514 421.1373)" class="st5" cx="374.3" cy="612.5" rx="1.4" ry="1.4"/>
<ellipse transform="matrix(0.73 -0.6834 0.6834 0.73 -319.412 425.1457)" class="st5" cx="378.4" cy="616.9" rx="1.4" ry="1.4"/>
<ellipse transform="matrix(0.73 -0.6834 0.6834 0.73 -321.3058 429.1447)" class="st5" cx="382.5" cy="621.3" rx="1.4" ry="1.4"/>
<ellipse transform="matrix(0.2267 -0.974 0.974 0.2267 -303.6995 815.8705)" class="st5" cx="361.9" cy="599.2" rx="1.4" ry="1.4"/>
<circle class="st3" cx="621.2" cy="623.2" r="52.9"/>
<path class="st4" d="M621.2,623c0,0-0.9,35.5-49.7,36.2"/>
<path class="st6" d="M571.6,659.2c0,0,7.8-43.5,49.7-36.2"/>
<path class="st4" d="M695.9,631.7c0,0-30.3,31.2-74.7-8.7"/>
<path class="st6" d="M621.2,623.1c0,0,43.2-32.7,74.7,8.7"/>
<path class="st4" d="M627.2,555.1c0,0,29.1,26.8-6,68.1"/>
<path class="st6" d="M621.2,623.2c0,0-30.8-38.4,6-68.1"/>
<path class="st4" d="M635.9,657.4c0,0-20.9-5.4-14.6-34.4"/>
<path class="st6" d="M621.3,623c0,0,24.7,10.6,14.6,34.4"/>
<path class="st4" d="M621.2,623.2c0,0-24.5,12-42.2-21"/>
<path class="st6" d="M579,602.2c0,0,32.4-10.1,42.2,21"/>
<ellipse transform="matrix(0.1798 -0.9837 0.9837 0.1798 -491.5327 653.3678)" class="st3" cx="146.1" cy="621.5" rx="52.9" ry="52.9"/>
<path class="st4" d="M146,622.2c0,0-29.2,19.2-63.4,15.7"/>
<path class="st4" d="M146,621.4c0,0-12.7-32.6-2.1-65.2"/>
<path class="st4" d="M146,621.4c0,0,18.9-29.5,51.5-40.1"/>
<path class="st4" d="M146,621.9c0,0,5.4-34.6,31-57.5"/>
<path class="st4" d="M146.3,621.7c0,0-34.5,5.8-64.3-11.3"/>
<path class="st4" d="M146.3,621.7c0,0-25-24.5-28.8-58.6"/>
<path class="st4" d="M146.8,621.8c0,0-32.8-12.3-49.9-42.1"/>
<path class="st4" d="M145.4,621.7c0,0-3,34.8-27,59.4"/>
<path class="st4" d="M146.1,621.7c0,0-19,29.4-51.7,39.9"/>
<path class="st4" d="M145.8,622c0,0,33.9,8.7,54.1,36.5"/>
<path class="st4" d="M145.9,621.8c0,0,12.9,32.5,2.4,65.2"/>
<path class="st4" d="M145.5,621.5c0,0,24.9,24.6,28.5,58.7"/>
<path class="st4" d="M144.9,622.4c0,0,34.5-5.8,64.3,11.2"/>
<path class="st4" d="M145.3,622.4c0,0,29.3-19.1,63.4-15.4"/>
<path class="st6" d="M144,556.2c0,0,12.4,31.2,2.1,65.2"/>
<path class="st6" d="M197.6,581.3c0,0-17.9,28.4-51.5,40.1"/>
<path class="st6" d="M177,564.4c0,0-5,33.2-31,57.5"/>
<path class="st6" d="M82,610.4c0,0,33.1-5.8,64.3,11.3"/>
<path class="st6" d="M117.6,563.1c0,0,24.2,23.3,28.8,58.6"/>
<path class="st6" d="M96.8,579.7c0,0,31.5,11.6,49.9,42.1"/>
<path class="st6" d="M118.4,681.1c0,0,2.7-33.5,27-59.4"/>
<path class="st6" d="M94.5,661.6c0,0,18-28.4,51.7-39.9"/>
<path class="st6" d="M200,658.5c0,0-32.6-8.2-54.1-36.5"/>
<path class="st6" d="M148.3,687c0,0-12.6-31.2-2.4-65.2"/>
<path class="st6" d="M173.9,680.2c0,0-24.1-23.5-28.5-58.7"/>
<path class="st6" d="M209.2,633.5c0,0-33.1,5.8-64.3-11.2"/>
<path class="st6" d="M82.6,637.8c0,0,27.9-18.7,63.4-15.7"/>
<path class="st6" d="M208.8,607c0,0-28,18.6-63.4,15.4"/>
<circle class="st0" cx="520" cy="901.9" r="73.1"/>
<path class="st7" d="M723.7,984.5c-32.6,0-58.9-26.4-58.9-58.9s26.4-58.9,58.9-58.9"/>
<circle class="st8" cx="664.7" cy="925.6" r="36.7"/>
<path class="st0" d="M616.7,944.7l-6.4,41.2c-0.2,2-2,3.5-4,3.3c-2-0.2-3.5-2-3.3-4c0-0.1,0-0.3,0.1-0.4l6.4-41.2
	c0.2-1.5,1.4-2.7,2.9-3l0.6-3.9c0.1-0.7,0.7-1.1,1.4-1c0.7,0.1,1.1,0.7,1,1.4l-0.6,3.9c0.5,0.2,0.9,0.6,1.2,1
	C616.6,942.8,616.8,943.8,616.7,944.7z"/>
<path class="st9" d="M609.9,983.1l-1,6.7c-0.2,1.6-1.7,2.6-3.3,2.4l0,0c-1.6-0.2-2.6-1.7-2.4-3.3l1-6.7"/>
<path class="st9" d="M602.6,981.6l9.2,1.4c0.5,0.1,0.8,0.5,0.7,0.9l-0.5,3.5c-0.1,0.5-0.5,0.8-0.9,0.7l-9.2-1.4
	c-0.5-0.1-0.8-0.5-0.7-0.9l0.5-3.5C601.7,981.8,602.1,981.5,602.6,981.6z"/>
<rect x="48.8" y="770.5" class="st2" width="310.2" height="310.2"/>
<path class="st10" d="M161.6,826.9c58.7-27.7,128.7-2.5,156.4,56.2s2.5,128.7-56.2,156.4c-58.7,27.7-128.7,2.5-156.4-56.2
	c-13.3-28.2-14.8-60.5-4.3-89.8l110.6,39.7L161.6,826.9z"/>
<polygon class="st11" points="211.6,933.2 101.9,974.9 101.1,893.4 "/>
<polygon class="st11" points="254.9,1042.6 165.1,1041 212,933.3 "/>
<polygon class="st11" points="161.8,826.8 251.4,822.6 211.6,933.2 "/>
<polygon class="st11" points="321,890.1 319.7,979.8 211.8,933.4 "/>
<path class="st12" d="M161.6,826.9c58.7-27.7,128.7-2.5,156.4,56.2s2.5,128.7-56.2,156.4c-58.7,27.7-128.7,2.5-156.4-56.2
	c-13.3-28.2-14.8-60.5-4.3-89.8"/>
<path class="st10" d="M129.1,798c-28.2,13.3-50,37.2-60.5,66.5l110.6,39.7L129.1,798z"/>
<path class="st12" d="M131.8,804.1c-26.5,12.4-47,35-56.8,62.5"/>
<path class="st13" d="M190.7,982.2c-6.2-3.3-8.6-11-5.3-17.3c3-5.6,9.5-8.2,15.5-6.1"/>
<ellipse transform="matrix(0.9067 -0.4218 0.4218 0.9067 -403.0332 156.4432)" class="st13" cx="152" cy="989.1" rx="12.8" ry="12.8"/>
<ellipse transform="matrix(0.9067 -0.4218 0.4218 0.9067 -387.4319 202.1864)" class="st13" cx="263.2" cy="976.7" rx="12.8" ry="12.8"/>
<ellipse transform="matrix(0.9067 -0.4218 0.4218 0.9067 -353.1845 188.3535)" class="st13" cx="249.1" cy="892.4" rx="12.8" ry="12.8"/>
<ellipse transform="matrix(0.9067 -0.4218 0.4218 0.9067 -351.5126 135.4919)" class="st13" cx="130.5" cy="862.2" rx="12.8" ry="12.8"/>
<path class="st13" d="M277,907.6c-2.2-6.7,1.4-13.9,8.1-16.2c6-2,12.5,0.7,15.4,6.3"/>
<path class="st14" d="M200.9,958.8c6.7,2.3,10.2,9.6,7.9,16.3c-2.3,6.7-9.6,10.2-16.3,7.9c-0.6-0.2-1.2-0.5-1.8-0.8"/>
<ellipse transform="matrix(0.9067 -0.4218 0.4218 0.9067 -381.3471 144.8957)" class="st14" cx="136.8" cy="934.3" rx="12.8" ry="12.8"/>
<ellipse transform="matrix(0.9067 -0.4218 0.4218 0.9067 -404.8184 186.8592)" class="st14" cx="219.9" cy="1008.3" rx="12.8" ry="12.8"/>
<ellipse transform="matrix(0.9067 -0.4218 0.4218 0.9067 -342.4341 171.5777)" class="st14" cx="216.6" cy="859.7" rx="12.8" ry="12.8"/>
<ellipse transform="matrix(0.9067 -0.4218 0.4218 0.9067 -369.663 198.119)" class="st14" cx="262.9" cy="934.5" rx="12.8" ry="12.8"/>
<path class="st14" d="M300.5,897.8c3.2,6.3,0.7,14-5.6,17.2c-6.3,3.2-14,0.7-17.2-5.6c-0.3-0.6-0.5-1.2-0.7-1.8"/>
<path class="st0" d="M649.9,816.6c10.1,13.4,7.3,32.5-6.1,42.5c-13.4,10.1-32.5,7.3-42.5-6.1c-5.3-7-7.2-16-5.4-24.6l-5.4-11
	l13.2-3.7c11.6-12.1,30.9-12.4,43-0.8C647.9,814.1,649,815.3,649.9,816.6L649.9,816.6z"/>
<ellipse transform="matrix(0.7994 -0.6008 0.6008 0.7994 -376.261 543.6495)" class="st15" cx="625.9" cy="835.2" rx="17.1" ry="17.1"/>
<path class="st1" d="M610.7,835.7l52.5-16.4c0.8-0.2,1.6,0.2,1.8,0.9l0,0c0.2,0.8-0.2,1.6-0.9,1.8l-52.5,16.4
	c-0.8,0.2-1.6-0.2-1.8-0.9l0,0C609.6,836.8,610,836,610.7,835.7z"/>
<ellipse transform="matrix(0.8 -0.6 0.6 0.8 -376.6465 542.6248)" class="st16" cx="625.6" cy="836.3" rx="26" ry="26"/>
<path class="st17" d="M690.5,879.9h34.3c4.7,0,8.5,3.8,8.5,8.5v74.5c0,4.7-3.8,8.5-8.5,8.5h-34.3c-4.7,0-8.5-3.8-8.5-8.5v-74.5
	C682,883.7,685.8,879.9,690.5,879.9z"/>
<path class="st18" d="M712.1,879.9h12.7c4.7,0,8.5,3.8,8.5,8.5v74.5c0,4.7-3.8,8.5-8.5,8.5h-12.7c-4.7,0-8.5-3.8-8.5-8.5v-74.5
	C703.6,883.7,707.4,879.9,712.1,879.9z"/>
<path class="st7" d="M746.8,891.4v26.9H719c-0.2,0-0.4,0-0.6,0c-3.8-0.5-6.8-6.3-6.8-13.4s3-12.9,6.8-13.4c0.2,0,0.4,0,0.6,0
	L746.8,891.4z"/>
<path class="st7" d="M747.3,932.8v26.9h-27.8c-0.2,0-0.4,0-0.6,0c-3.8-0.5-6.8-6.3-6.8-13.4s3-12.9,6.8-13.4c0.2,0,0.4,0,0.6,0
	L747.3,932.8z"/>
<path class="st7" d="M718.4,918.3c0.2,0,0.4,0,0.6,0H718.4z"/>
<path class="st7" d="M719,891.4c-0.2,0-0.4,0-0.6,0l0,0H719z"/>
<path class="st7" d="M718.4,959.7c0.2,0,0.4,0,0.6,0H718.4z"/>
<path class="st7" d="M719,932.8c-0.2,0-0.4,0-0.6,0l0,0H719z"/>
<ellipse class="st18" cx="746.8" cy="904.9" rx="7.4" ry="13.5"/>
<ellipse class="st18" cx="746.8" cy="946.3" rx="7.4" ry="13.5"/>
<ellipse class="st19" cx="746.8" cy="904.9" rx="4.7" ry="8.5"/>
<ellipse class="st19" cx="746.8" cy="946.3" rx="4.8" ry="8.7"/>
<polyline class="st20" points="689.7,1048.3 691.2,1040.4 699.6,1043.7 "/>
<circle class="st21" cx="702.8" cy="1063.4" r="19.9"/>
<circle class="st20" cx="702.8" cy="1063.4" r="4.5"/>
<rect x="414.1" y="1044.4" class="st21" width="250.5" height="35"/>
<circle class="st0" cx="457.7" cy="1061.9" r="13.8"/>
<circle class="st15" cx="457.7" cy="1061.9" r="9.1"/>
<circle class="st0" cx="511.6" cy="1061.9" r="13.8"/>
<circle class="st13" cx="511.6" cy="1061.9" r="9.1"/>
<circle class="st0" cx="565.6" cy="1061.9" r="13.8"/>
<circle class="st22" cx="565.6" cy="1061.9" r="9.1"/>
<circle class="st0" cx="619.5" cy="1061.9" r="13.8"/>
<circle class="st23" cx="619.5" cy="1061.9" r="9.1"/>
<rect x="0.8" y="1167.7" class="st0" width="768.1" height="1065.1"/>
<rect x="47.2" y="1766" class="st21" width="208.4" height="91.5"/>
<rect x="0.8" y="1128.7" class="st24" width="768.1" height="39"/>
<rect x="0.8" y="1167.7" class="st25" width="768.1" height="341.4"/>
<circle class="st0" cx="27.9" cy="1149.7" r="8.6"/>
<circle class="st0" cx="55.2" cy="1149.7" r="8.6"/>
<circle class="st0" cx="82.6" cy="1149.7" r="8.6"/>
<path class="st24" d="M47.4,2137.4V1911c0-10.3,8.4-18.7,18.7-18.7h170.8c10.3,0,18.7,8.4,18.7,18.7v226.4
	c0,10.3-8.4,18.7-18.7,18.7H66.1C55.8,2156.1,47.4,2147.7,47.4,2137.4z"/>
<path class="st20" d="M60.5,2055.4V1993c0-7.3,5.9-13.2,13.2-13.2h30c7.3,0,13.2,5.9,13.2,13.2v62.4c0,7.3-5.9,13.2-13.2,13.2h-30
	C66.4,2068.6,60.5,2062.7,60.5,2055.4z"/>
<path class="st26" d="M237.4,2156.1v-263.8l0,0h2.9c8.4,0,15.1,6.8,15.1,15.1l0,0v233.5c0,8.4-6.8,15.1-15.1,15.1l0,0h-2.9V2156.1z"
	/>
<path class="st20" d="M237.4,2035.2v-38l0,0h0.1c2.6,0,4.6,2.1,4.6,4.6l0,0v28.7C242.1,2033.2,240,2035.3,237.4,2035.2L237.4,2035.2
	L237.4,2035.2L237.4,2035.2z"/>
<rect x="129" y="1984.1" class="st27" width="16" height="80.4"/>
<rect x="129" y="2064.3" class="st27" width="16" height="16.1"/>
<rect x="129" y="2080.4" class="st27" width="16" height="16.1"/>
<rect x="129" y="2096.6" class="st27" width="16" height="16.1"/>
<rect x="129" y="2112.7" class="st27" width="16" height="16.1"/>
<rect x="129" y="1919.6" class="st27" width="16" height="16.1"/>
<rect x="129" y="1935.7" class="st27" width="16" height="16.1"/>
<rect x="129" y="1951.9" class="st27" width="16" height="16.1"/>
<rect x="129" y="1968" class="st27" width="16" height="16.1"/>
<rect x="145" y="2064.3" class="st27" width="16" height="16.1"/>
<rect x="145" y="2080.4" class="st27" width="16" height="16.1"/>
<rect x="145" y="2096.6" class="st27" width="16" height="32.3"/>
<rect x="161" y="2072.4" class="st27" width="16" height="16.1"/>
<rect x="161" y="2088.5" class="st27" width="16" height="16.1"/>
<rect x="161" y="2104.6" class="st27" width="16" height="24.2"/>
<rect x="177" y="2064.3" class="st27" width="16" height="16.1"/>
<rect x="177" y="2080.4" class="st27" width="16" height="16.1"/>
<rect x="177" y="2096.6" class="st27" width="16" height="16.1"/>
<rect x="177" y="2112.7" class="st27" width="16" height="16.1"/>
<rect x="193" y="2072.5" class="st27" width="16" height="16.1"/>
<rect x="193" y="2088.6" class="st27" width="16" height="16.1"/>
<rect x="193" y="2104.6" class="st27" width="16" height="24.2"/>
<rect x="145" y="2000" class="st27" width="16" height="16.1"/>
<rect x="145" y="2016.2" class="st27" width="16" height="16.1"/>
<rect x="145" y="2032.3" class="st27" width="16" height="16.1"/>
<rect x="145" y="2048.4" class="st27" width="16" height="16.1"/>
<rect x="161" y="2008.2" class="st27" width="16" height="16.1"/>
<rect x="161" y="2024.2" class="st27" width="16" height="16.1"/>
<rect x="161" y="2040.3" class="st27" width="16" height="16.1"/>
<rect x="161" y="2056.5" class="st27" width="16" height="16.1"/>
<rect x="177" y="2000" class="st27" width="16" height="16.1"/>
<rect x="177" y="2016.2" class="st27" width="16" height="16.1"/>
<rect x="177" y="2032.3" class="st27" width="16" height="16.1"/>
<rect x="177" y="2048.4" class="st27" width="16" height="16.1"/>
<rect x="193" y="2008.2" class="st27" width="16" height="16.1"/>
<rect x="193" y="2024.3" class="st27" width="16" height="16.1"/>
<rect x="193" y="2040.5" class="st27" width="16" height="16.1"/>
<rect x="193" y="2056.6" class="st27" width="16" height="16.1"/>
<rect x="145" y="1951.9" class="st27" width="16" height="16.1"/>
<rect x="145" y="1968" class="st27" width="16" height="16.1"/>
<rect x="145" y="1984.1" class="st27" width="16" height="16.1"/>
<rect x="161" y="1943.8" class="st27" width="16" height="16.1"/>
<rect x="161" y="1959.9" class="st27" width="16" height="16.1"/>
<rect x="161" y="1976.1" class="st27" width="16" height="16.1"/>
<rect x="161" y="1992.2" class="st27" width="16" height="16.1"/>
<rect x="177" y="1935.7" class="st27" width="16" height="16.1"/>
<rect x="177" y="1951.9" class="st27" width="16" height="16.1"/>
<rect x="177" y="1968" class="st27" width="16" height="16.1"/>
<rect x="177" y="1984.1" class="st27" width="16" height="16.1"/>
<rect x="193" y="1943.9" class="st27" width="16" height="16.1"/>
<rect x="145" y="1919.6" class="st27" width="16" height="32.3"/>
<rect x="161" y="1919.6" class="st27" width="16" height="24.2"/>
<rect x="177" y="1919.6" class="st27" width="16" height="16.1"/>
<rect x="193" y="1919.6" class="st27" width="16" height="24.3"/>
<rect x="193" y="1960.1" class="st27" width="16" height="16.1"/>
<rect x="193" y="1976.2" class="st27" width="16" height="16.1"/>
<rect x="193" y="1992.3" class="st27" width="16" height="16.1"/>
<rect x="208.5" y="2064.4" class="st27" width="9" height="16.1"/>
<rect x="208.5" y="2080.5" class="st27" width="9" height="16.1"/>
<rect x="208.5" y="2096.7" class="st27" width="9" height="16.1"/>
<rect x="208.5" y="2112.8" class="st27" width="9" height="16.1"/>
<rect x="208.6" y="2000.1" class="st27" width="9" height="16.1"/>
<rect x="208.6" y="2016.3" class="st27" width="9" height="16.1"/>
<rect x="208.6" y="2032.4" class="st27" width="9" height="16.1"/>
<rect x="208.6" y="2048.5" class="st27" width="9" height="16.1"/>
<rect x="208.6" y="1935.9" class="st27" width="9" height="16.1"/>
<rect x="208.5" y="1919.7" class="st27" width="9" height="16.1"/>
<rect x="208.6" y="1952" class="st27" width="9" height="16.1"/>
<rect x="208.6" y="1968.1" class="st27" width="9" height="16.1"/>
<rect x="208.6" y="1984.3" class="st27" width="9" height="16.1"/>
<path class="st28" d="M415.6,1350.3c0,24.6-7.9,48.6-22.7,68.2c-30.2-40.5-30.2-96,0-136.5C407.7,1301.8,415.6,1325.7,415.6,1350.3z
	"/>
<path class="st23" d="M370.2,1350.3c0,24.6,7.9,48.6,22.7,68.2c-37.7,50.5-109.1,60.8-159.6,23.2s-60.8-109.1-23.1-159.6
	s109.2-60.8,159.6-23.1c8.8,6.5,16.5,14.3,23.1,23.1C378.1,1301.8,370.2,1325.7,370.2,1350.3z"/>
<path class="st29" d="M415.6,1350.3c0,24.6-7.9,48.6-22.7,68.2c-30.2-40.5-30.2-96,0-136.5C407.7,1301.8,415.6,1325.7,415.6,1350.3z
	"/>
<path class="st30" d="M598.1,1350.3c-0.1,63-51.2,113.9-114.1,113.9c-35.9,0-69.6-16.9-91.1-45.6c30.2-40.5,30.2-96,0-136.5
	c37.8-50.4,109.2-60.6,159.6-22.9C581.2,1280.7,598.1,1314.5,598.1,1350.3L598.1,1350.3z"/>
<rect x="47.2" y="1558" class="st21" width="506.4" height="171.1"/>
<rect x="335.7" y="1770.2" class="st21" width="377.3" height="386"/>
<ellipse transform="matrix(0.7123 -0.7019 0.7019 0.7123 -1243.7545 598.7696)" class="st31" cx="108.5" cy="1816.5" rx="30" ry="30"/>
<rect x="76.4" y="1777.8" transform="matrix(0.7123 -0.7019 0.7019 0.7123 -1231.8427 570.7528)" class="st32" width="7.8" height="20.2"/>
<path class="st33" d="M103.7,1800.7c0,0-15.5,4.8-12.3,21.8C91.4,1822.5,100.1,1802.7,103.7,1800.7z"/>
<path class="st34" d="M420.6,2000.7c0,0-21.2,11.4-33.5,19.4s-45,2-45,2"/>
<path class="st26" d="M332.4,1925.5h10.3c15.6,0,28.3,12.7,28.3,28.3v22.3c0,15.6-12.7,28.3-28.3,28.3h-10.3
	c-15.6,0-28.3-12.7-28.3-28.3v-22.3C304.1,1938.2,316.8,1925.5,332.4,1925.5z"/>
<path class="st26" d="M623,1805.9h30.9c8.8,0,16,7.2,16,16v26.3c0,8.8-7.2,16-16,16H623c-8.8,0-16-7.2-16-16v-26.3
	C607,1813,614.2,1805.9,623,1805.9z"/>
<path class="st0" d="M631.2,1823.8h14.6c6.1,0,11.1,5,11.1,11.1v0.3c0,6.1-5,11.1-11.1,11.1h-14.6c-6.1,0-11.1-5-11.1-11.1v-0.3
	C620.1,1828.8,625.1,1823.8,631.2,1823.8z"/>
<path class="st24" d="M324.7,2151v-374.8c0-3.2,2.6-5.8,5.8-5.8h14.2c3.2,0,5.8,2.6,5.8,5.8V2151c0,3.2-2.6,5.8-5.8,5.8h-14.2
	C327.3,2156.8,324.7,2154.2,324.7,2151z"/>
<rect x="414.6" y="1848.3" class="st26" width="73.3" height="281.4"/>
<rect x="468.4" y="2000.8" class="st35" width="13.2" height="66.1"/>
<rect x="468.4" y="2066.7" class="st35" width="13.2" height="13.3"/>
<rect x="468.4" y="2080" class="st35" width="13.2" height="13.3"/>
<rect x="468.4" y="2093.3" class="st35" width="13.2" height="13.3"/>
<rect x="468.4" y="2106.6" class="st35" width="13.2" height="13.3"/>
<rect x="468.4" y="1947.8" class="st35" width="13.2" height="13.3"/>
<rect x="468.4" y="1961" class="st35" width="13.2" height="13.3"/>
<rect x="468.4" y="1974.3" class="st35" width="13.2" height="13.3"/>
<rect x="468.4" y="1987.5" class="st35" width="13.2" height="13.3"/>
<rect x="455.3" y="2066.7" class="st35" width="13.2" height="13.3"/>
<rect x="455.3" y="2080" class="st35" width="13.2" height="13.3"/>
<rect x="455.3" y="2093.3" class="st35" width="13.2" height="26.5"/>
<rect x="442.1" y="2073.4" class="st35" width="13.2" height="13.3"/>
<rect x="442.1" y="2086.7" class="st35" width="13.2" height="13.3"/>
<rect x="442.1" y="2099.9" class="st35" width="13.2" height="19.9"/>
<rect x="428.9" y="2066.7" class="st35" width="13.2" height="13.3"/>
<rect x="428.9" y="2080" class="st35" width="13.2" height="13.3"/>
<rect x="428.9" y="2093.3" class="st35" width="13.2" height="13.3"/>
<rect x="428.9" y="2106.6" class="st35" width="13.2" height="13.3"/>
<rect x="455.2" y="2013.9" class="st35" width="13.2" height="13.3"/>
<rect x="455.2" y="2027.2" class="st35" width="13.2" height="13.3"/>
<rect x="455.2" y="2040.4" class="st35" width="13.2" height="13.3"/>
<rect x="455.2" y="2053.7" class="st35" width="13.2" height="13.3"/>
<rect x="442.1" y="2020.6" class="st35" width="13.2" height="13.3"/>
<rect x="442.1" y="2033.8" class="st35" width="13.2" height="13.3"/>
<rect x="442.1" y="2047" class="st35" width="13.2" height="13.3"/>
<rect x="442.1" y="2060.3" class="st35" width="13.2" height="13.3"/>
<rect x="428.9" y="2013.9" class="st35" width="13.2" height="13.3"/>
<rect x="428.9" y="2027.2" class="st35" width="13.2" height="13.3"/>
<rect x="428.9" y="2040.4" class="st35" width="13.2" height="13.3"/>
<rect x="428.9" y="2053.7" class="st35" width="13.2" height="13.3"/>
<rect x="455.2" y="1974.3" class="st35" width="13.2" height="13.3"/>
<rect x="455.2" y="1987.5" class="st35" width="13.2" height="13.3"/>
<rect x="455.2" y="2000.8" class="st35" width="13.2" height="13.3"/>
<rect x="442.1" y="1967.7" class="st35" width="13.2" height="13.3"/>
<rect x="442.1" y="1980.9" class="st35" width="13.2" height="13.3"/>
<rect x="442.1" y="1994.2" class="st35" width="13.2" height="13.3"/>
<rect x="442.1" y="2007.5" class="st35" width="13.2" height="13.3"/>
<rect x="428.9" y="1961" class="st35" width="13.2" height="13.3"/>
<rect x="428.9" y="1974.3" class="st35" width="13.2" height="13.3"/>
<rect x="428.9" y="1987.5" class="st35" width="13.2" height="13.3"/>
<rect x="428.9" y="2000.8" class="st35" width="13.2" height="13.3"/>
<rect x="455.3" y="1947.8" class="st35" width="13.2" height="26.5"/>
<rect x="442.1" y="1947.8" class="st35" width="13.2" height="19.9"/>
<rect x="429" y="1947.8" class="st35" width="13.2" height="13.3"/>
<rect x="421.5" y="2066.8" class="st35" width="7.4" height="13.3"/>
<rect x="421.5" y="2080.1" class="st35" width="7.4" height="13.3"/>
<rect x="421.5" y="2093.4" class="st35" width="7.4" height="13.3"/>
<rect x="421.5" y="2106.7" class="st35" width="7.4" height="13.3"/>
<rect x="421.5" y="2014" class="st35" width="7.4" height="13.3"/>
<rect x="421.5" y="2027.2" class="st35" width="7.4" height="13.3"/>
<rect x="421.5" y="2040.5" class="st35" width="7.4" height="13.3"/>
<rect x="421.5" y="2053.8" class="st35" width="7.4" height="13.3"/>
<rect x="421.5" y="1961.1" class="st35" width="7.4" height="13.3"/>
<rect x="421.5" y="1947.8" class="st35" width="7.4" height="13.3"/>
<rect x="421.5" y="1974.4" class="st35" width="7.4" height="13.3"/>
<rect x="422.7" y="1869.9" class="st35" width="7.4" height="13.3"/>
<rect x="422.7" y="1856.7" class="st35" width="7.4" height="13.3"/>
<rect x="422.7" y="1883.2" class="st35" width="7.4" height="13.3"/>
<rect x="471.7" y="1928.1" class="st35" width="10.7" height="13.3"/>
<rect x="471.7" y="1915.3" class="st35" width="10.7" height="13.3"/>
<rect x="471.7" y="1902.3" class="st35" width="10.7" height="13.3"/>
<rect x="461" y="1915.6" class="st35" width="10.7" height="13.3"/>
<rect x="421.5" y="1987.7" class="st35" width="7.4" height="13.3"/>
<rect x="421.5" y="2000.9" class="st35" width="7.4" height="13.3"/>
<rect x="443.3" y="1883.2" class="st35" width="13.2" height="13.3"/>
<rect x="456.4" y="1883.2" class="st35" width="26.4" height="13.3"/>
<rect x="430.1" y="1883.2" class="st35" width="13.2" height="13.3"/>
<rect x="430.1" y="1869.9" class="st35" width="13.2" height="13.3"/>
<rect x="430.1" y="1856.7" class="st35" width="13.2" height="13.3"/>
<rect x="443.3" y="1869.9" class="st35" width="13.2" height="13.3"/>
<rect x="443.3" y="1856.7" class="st35" width="13.2" height="13.3"/>
<rect x="456.4" y="1869.9" class="st35" width="13.2" height="13.3"/>
<rect x="456.4" y="1856.7" class="st35" width="13.2" height="13.3"/>
<rect x="469.6" y="1856.6" class="st35" width="13.2" height="26.5"/>
<rect x="76.7" y="1589.8" transform="matrix(0.9921 -0.1255 0.1255 0.9921 -205.4398 33.1631)" class="st24" width="167.6" height="114.6"/>
<rect x="117.7" y="1563.3" transform="matrix(8.315904e-02 -0.9965 0.9965 8.315904e-02 -1480.9144 1684.5388)" class="st36" width="114.6" height="167.6"/>
<path class="st5" d="M598.3,1558h106.9c4.3,0,7.8,3.5,7.8,7.8v155.5c0,4.3-3.5,7.8-7.8,7.8H598.3c-4.3,0-7.8-3.5-7.8-7.8v-155.5
	C590.5,1561.5,593.9,1558,598.3,1558z"/>
<path class="st36" d="M604.8,1564.3h93.8c4.5,0,8.1,3.6,8.1,8.1l0,0v69.9l0,0h-110l0,0v-69.9C596.7,1568,600.3,1564.3,604.8,1564.3
	L604.8,1564.3z"/>
<path class="st36" d="M596.7,1644.8h110l0,0v70.9c0,3.9-3.2,7.1-7.1,7.1h-95.8c-3.9,0-7.1-3.2-7.1-7.1V1644.8L596.7,1644.8z"/>
<rect x="614.1" y="1577.8" class="st37" width="75.2" height="47.1"/>
<rect x="614" y="1577.8" class="st37" width="31.9" height="47.1"/>
<line class="st37" x1="614.1" y1="1577.8" x2="645.9" y2="1624.9"/>
<line class="st37" x1="614.1" y1="1624.9" x2="645.9" y2="1577.8"/>
<line class="st37" x1="658.3" y1="1585.8" x2="658.3" y2="1616.9"/>
<line class="st37" x1="667.3" y1="1585.8" x2="667.3" y2="1616.9"/>
<line class="st37" x1="675.4" y1="1585.8" x2="675.4" y2="1616.9"/>
<line class="st37" x1="614" y1="1657.3" x2="614" y2="1710.7"/>
<line class="st37" x1="625" y1="1657.3" x2="625" y2="1710.7"/>
<line class="st37" x1="636" y1="1657.3" x2="636" y2="1710.7"/>
<line class="st37" x1="647.1" y1="1674.8" x2="647.1" y2="1710.7"/>
<rect x="590.5" y="1642.3" class="st38" width="122.5" height="2.5"/>
<path class="st5" d="M416.4,1585.5l81.4-16.3c9.4-1.9,18.6,4.2,20.5,13.7l0,0l19.4,96.8c1.9,9.4-4.2,18.6-13.7,20.5l0,0l-81.4,16.3
	l0,0L416.4,1585.5L416.4,1585.5z"/>
<path class="st15" d="M443.2,1573.1l56.7,8.5c9.5,1.4,16.1,10.3,14.7,19.8l0,0l-11.3,75.8c-1.4,9.5-10.3,16.1-19.8,14.7l0,0
	l-56.7-8.5l0,0L443.2,1573.1L443.2,1573.1z"/>
<rect x="468.1" y="1579.6" transform="matrix(0.148 -0.989 0.989 0.148 -1181.8378 1838.7437)" class="st5" width="16.3" height="51.4"/>
<rect x="229.7" y="1479.1" transform="matrix(6.108500e-03 -1 1 6.108500e-03 -1352.8197 1822.6345)" class="st22" width="21.6" height="225.6"/>
<g class="st39">
	
		<rect x="135.7" y="1584.7" transform="matrix(6.108500e-03 -1 1 6.108500e-03 -1445.6611 1717.3308)" class="st40" width="10.8" height="2.5"/>
	
		<rect x="144.9" y="1582" transform="matrix(6.108500e-03 -1 1 6.108500e-03 -1436.4812 1721.1991)" class="st40" width="5.4" height="2.5"/>
	
		<rect x="152.3" y="1582.1" transform="matrix(6.108500e-03 -1 1 6.108500e-03 -1429.2164 1728.6776)" class="st40" width="5.4" height="2.5"/>
	
		<rect x="159.6" y="1582.1" transform="matrix(6.108500e-03 -1 1 6.108500e-03 -1421.9502 1735.9767)" class="st40" width="5.4" height="2.5"/>
	
		<rect x="172.8" y="1582.1" transform="matrix(6.108500e-03 -1 1 6.108500e-03 -1408.9901 1749.1743)" class="st40" width="5.4" height="2.5"/>
	
		<rect x="180.1" y="1582.2" transform="matrix(6.108500e-03 -1 1 6.108500e-03 -1401.8243 1756.5721)" class="st40" width="5.4" height="2.5"/>
	
		<rect x="187.5" y="1582.2" transform="matrix(6.108500e-03 -1 1 6.108500e-03 -1394.4591 1763.9518)" class="st40" width="5.4" height="2.5"/>
	
		<rect x="200.6" y="1582.3" transform="matrix(6.108500e-03 -1 1 6.108500e-03 -1381.4994 1777.1694)" class="st40" width="5.4" height="2.5"/>
	
		<rect x="207.9" y="1582.4" transform="matrix(6.108500e-03 -1 1 6.108500e-03 -1374.3335 1784.5472)" class="st40" width="5.4" height="2.5"/>
	
		<rect x="215.3" y="1582.5" transform="matrix(6.108500e-03 -1 1 6.108500e-03 -1367.0688 1792.0256)" class="st40" width="5.4" height="2.5"/>
	
		<rect x="228.3" y="1582.5" transform="matrix(6.108500e-03 -1 1 6.108500e-03 -1354.1072 1805.0439)" class="st40" width="5.4" height="2.5"/>
	
		<rect x="235.7" y="1582.6" transform="matrix(6.108500e-03 -1 1 6.108500e-03 -1346.8427 1812.5223)" class="st40" width="5.4" height="2.5"/>
	
		<rect x="243" y="1582.7" transform="matrix(6.108500e-03 -1 1 6.108500e-03 -1339.6769 1819.9202)" class="st40" width="5.4" height="2.5"/>
	
		<rect x="256.1" y="1582.7" transform="matrix(6.108500e-03 -1 1 6.108500e-03 -1326.6167 1833.0588)" class="st40" width="5.4" height="2.5"/>
	
		<rect x="263.4" y="1582.7" transform="matrix(6.108500e-03 -1 1 6.108500e-03 -1319.4506 1840.4365)" class="st40" width="5.4" height="2.5"/>
	
		<rect x="270.8" y="1582.8" transform="matrix(6.108500e-03 -1 1 6.108500e-03 -1312.1859 1847.915)" class="st40" width="5.4" height="2.5"/>
	
		<rect x="283.9" y="1582.9" transform="matrix(6.108500e-03 -1 1 6.108500e-03 -1299.2461 1861.1324)" class="st40" width="5.4" height="2.5"/>
	
		<rect x="291.3" y="1582.9" transform="matrix(6.108500e-03 -1 1 6.108500e-03 -1291.9597 1868.4117)" class="st40" width="5.4" height="2.5"/>
	
		<rect x="298.6" y="1583" transform="matrix(6.108500e-03 -1 1 6.108500e-03 -1284.7151 1875.9099)" class="st40" width="5.4" height="2.5"/>
	
		<rect x="311.8" y="1583.1" transform="matrix(6.108500e-03 -1 1 6.108500e-03 -1271.7551 1889.1075)" class="st40" width="5.4" height="2.5"/>
	
		<rect x="319.1" y="1583.1" transform="matrix(6.108500e-03 -1 1 6.108500e-03 -1264.469 1896.4067)" class="st40" width="5.4" height="2.5"/>
	
		<rect x="326.4" y="1583.2" transform="matrix(6.108500e-03 -1 1 6.108500e-03 -1257.323 1903.7845)" class="st40" width="5.4" height="2.5"/>
	
		<rect x="163.5" y="1584.8" transform="matrix(6.108500e-03 -1 1 6.108500e-03 -1418.1704 1745.3259)" class="st40" width="10.8" height="2.5"/>
	
		<rect x="191.3" y="1585" transform="matrix(6.108500e-03 -1 1 6.108500e-03 -1390.7784 1773.2203)" class="st40" width="10.8" height="2.5"/>
	
		<rect x="219.1" y="1585.2" transform="matrix(6.108500e-03 -1 1 6.108500e-03 -1363.2875 1801.1956)" class="st40" width="10.8" height="2.5"/>
	
		<rect x="246.9" y="1585.3" transform="matrix(6.108500e-03 -1 1 6.108500e-03 -1335.7966 1829.1904)" class="st40" width="10.8" height="2.5"/>
	
		<rect x="274.6" y="1585.5" transform="matrix(6.108500e-03 -1 1 6.108500e-03 -1308.4047 1857.0651)" class="st40" width="10.8" height="2.5"/>
	
		<rect x="302.4" y="1585.7" transform="matrix(6.108500e-03 -1 1 6.108500e-03 -1280.9336 1885.04)" class="st40" width="10.8" height="2.5"/>
	
		<rect x="330.3" y="1585.8" transform="matrix(6.108500e-03 -1 1 6.108500e-03 -1253.4427 1913.0549)" class="st40" width="10.8" height="2.5"/>
</g>
<polyline class="st5" points="389.2,1599.1 391.8,1591.9 396.5,1597.9 "/>
<polyline class="st22" points="396.5,1597.9 404.5,1646.9 397.2,1648 389.2,1599.1 "/>
<rect x="397.6" y="1647.4" transform="matrix(0.9869 -0.1614 0.1614 0.9869 -261.0555 86.3971)" class="st30" width="7.4" height="5.3"/>
<rect x="516.7" y="1854.5" transform="matrix(0.9994 -3.577019e-02 3.577019e-02 0.9994 -66.698 20.3869)" class="st22" width="39.4" height="39.4"/>
<rect x="526.1" y="1860.2" transform="matrix(0.9992 -3.996808e-02 3.996808e-02 0.9992 -74.4516 22.6095)" class="st41" width="4.3" height="26.3"/>
<rect x="532.3" y="1870.1" transform="matrix(0.9994 -3.577019e-02 3.577019e-02 0.9994 -66.8709 20.3202)" class="st41" width="4.3" height="17.8"/>
<rect x="459.3" y="1790.9" transform="matrix(0.9994 -3.577019e-02 3.577019e-02 0.9994 -64.4596 18.2929)" class="st22" width="39.4" height="39.4"/>
<rect x="465.1" y="1798.3" transform="matrix(0.9994 -3.577019e-02 3.577019e-02 0.9994 -64.4975 17.8731)" class="st41" width="4.3" height="26.3"/>
<rect x="474.9" y="1806.4" transform="matrix(0.9994 -3.577019e-02 3.577019e-02 0.9994 -64.6289 18.2261)" class="st41" width="4.3" height="17.8"/>
<rect x="528.2" y="1792.2" transform="matrix(0.9873 -0.1588 0.1588 0.9873 -280.7839 109.9935)" class="st22" width="39.4" height="39.4"/>
<rect x="534.2" y="1801" transform="matrix(0.9873 -0.1588 0.1588 0.9873 -281.2849 108.2015)" class="st41" width="4.3" height="26.3"/>
<rect x="543.8" y="1799.5" transform="matrix(0.9873 -0.1588 0.1588 0.9873 -280.926 109.6918)" class="st41" width="4.3" height="26.3"/>
<rect x="553.7" y="1804" transform="matrix(0.9873 -0.1588 0.1588 0.9873 -281.029 111.2975)" class="st41" width="4.3" height="20.2"/>
<circle class="st36" cx="195.3" cy="1811.7" r="38.2"/>
<path class="st42" d="M195.3,1783.1c-15.5,0-28.1,12.6-28.1,28.1s12.6,28.1,28.1,28.1s28.1-12.6,28.1-28.1
	C223.4,1795.6,210.8,1783.1,195.3,1783.1L195.3,1783.1z M194.8,1819.9c-5,0-9-4-9-9s4-9,9-9s9,4,9,9S199.8,1819.9,194.8,1819.9z"/>
<path class="st30" d="M195.3,1787.3c-13.2,0-23.9,10.7-23.9,23.9s10.7,23.9,23.9,23.9s23.9-10.7,23.9-23.9
	S208.5,1787.3,195.3,1787.3L195.3,1787.3z M194.8,1819.9c-5,0-9-4-9-9s4-9,9-9s9,4,9,9l0,0C203.8,1815.8,199.8,1819.8,194.8,1819.9
	L194.8,1819.9z"/>
<path class="st43" d="M306.1,1621.3l32.6-5.2c3.9-0.6,7.6,2,8.2,5.9l11.6,72.3c0.6,3.9-2,7.6-5.9,8.2l-32.6,5.2
	c-3.9,0.6-7.6-2-8.2-5.9l-11.6-72.3C299.5,1625.5,302.2,1621.9,306.1,1621.3z"/>
<polyline class="st44" points="355.9,1689.9 313,1696.8 302.5,1630.9 "/>
<polyline class="st45" points="302.5,1630.9 345.4,1624.1 355.9,1689.9 "/>
<ellipse transform="matrix(0.9874 -0.158 0.158 0.9874 -264.2202 74.3013)" class="st46" cx="335.2" cy="1698.9" rx="3" ry="3"/>
<g class="st47">
	<path class="st37" d="M234.6,1630.4l-4.3,45.6c-0.4,3.9-3.9,6.8-7.8,6.5l-96.5-9c-3.9-0.4-6.8-3.9-6.5-7.8l4.3-45.6
		c0.4-3.9,3.9-6.8,7.8-6.5l96.5,9C232,1623,234.9,1626.5,234.6,1630.4z"/>
	<polyline class="st37" points="134,1672 139.2,1617 223.6,1624.9 	"/>
	<polyline class="st37" points="223.6,1624.9 218.5,1679.9 134,1672 	"/>
	
		<ellipse transform="matrix(9.324352e-02 -0.9956 0.9956 9.324352e-02 -1518.8877 1619.2603)" class="st37" cx="129.6" cy="1643.5" rx="3.8" ry="3.8"/>
</g>
<line class="st48" x1="223.6" y1="1624.9" x2="134" y2="1672"/>
<path class="st49" d="M571.1,1918.7h86c12.8,0,23.2,10.4,23.2,23.2l0,0v164.3l0,0H547.9l0,0v-164.3
	C547.9,1929.1,558.3,1918.7,571.1,1918.7L571.1,1918.7z"/>
<polyline class="st50" points="562.8,2067.9 562.8,2106.2 664.9,2106.2 664.9,2067.8 "/>
<path class="st51" d="M665.1,2068.7l-0.1-124.8c0.1-4.6-3.6-8.4-8.1-8.5h-85.8c-4.6,0.1-8.2,3.9-8.1,8.5l0.1,125.2"/>
<circle class="st51" cx="613.8" cy="2088.1" r="12.1"/>
<circle class="st50" cx="613.8" cy="2088.1" r="5.3"/>
<rect x="632.2" y="2080.1" class="st51" width="6.4" height="16"/>
<rect x="644.5" y="2080.1" class="st51" width="6.4" height="16"/>
<rect x="577.6" y="2080.1" class="st51" width="6.4" height="16"/>
<rect x="589.9" y="2080.1" class="st51" width="6.4" height="16"/>
<path class="st52" d="M688.1,2080.1l14.2,16.8c2.7,3.1,2.3,7.8-0.9,10.5l-0.1,0.1c-3.1,2.7-7.8,2.3-10.5-0.9l-14.2-16.8
	c-2.7-3.1-2.3-7.8,0.9-10.5l0.1-0.1C680.8,2076.6,685.5,2077,688.1,2080.1z"/>
<path class="st53" d="M769,2009.6v17.7c0-3.8-0.1-7.8-0.1-11.9C768.9,2009.2,768.9,2013.2,769,2009.6z"/>
</svg>
