<svg id="Layer_1" data-name="Layer 1" xmlns="http://www.w3.org/2000/svg" viewBox="0 0 304.82 1067.64"><defs><style>.cls-1{fill:#b13f60;}.cls-2{fill:#f7ddb9;}.cls-3{fill:#babcbe;}.cls-13,.cls-18,.cls-4{fill:#cfd1d2;}.cls-4{stroke:#919396;}.cls-12,.cls-13,.cls-17,.cls-4,.cls-8{stroke-miterlimit:10;}.cls-5{fill:#dedede;}.cls-6{fill:#231f20;opacity:0.08;}.cls-7{fill:#c74564;}.cls-8{fill:#e5e6e7;}.cls-13,.cls-8{stroke:#e5e6e7;}.cls-12,.cls-13,.cls-17,.cls-8{stroke-width:3px;}.cls-9{fill:#ecbe98;}.cls-10{fill:#fad2ab;}.cls-11{fill:#7a56b9;}.cls-12{fill:none;}.cls-12,.cls-17{stroke:#f0f0f1;}.cls-14{fill:#23222d;}.cls-15{fill:#029586;}.cls-16,.cls-17{fill:#f0f0f1;}</style></defs><title>webmocup_v2</title><polygon class="cls-1" points="268.56 377.1 297.8 491.02 276.24 546.95 231 457.31 268.56 377.1"/><rect class="cls-2" x="35.81" y="682.9" width="30.18" height="63.76" rx="15.09" ry="15.09" transform="translate(101.8 1429.56) rotate(180)"/><polyline class="cls-1" points="50.47 387.83 30.25 687.12 66.29 687.12 92.7 472.98"/><path class="cls-3" d="M129.93,698.18,11.47,760A7.84,7.84,0,0,1,0,753.07V639.13a7.84,7.84,0,0,1,3.89-6.77l118.46-69a7.84,7.84,0,0,1,11.79,6.77V691.23A7.84,7.84,0,0,1,129.93,698.18Z"/><line class="cls-4" x1="4.68" y1="639.16" x2="4.68" y2="760.25"/><path class="cls-5" d="M72.91,683.86l.07,0,.11,0c0,.08,0,.15,0,.23a9.19,9.19,0,0,1,0,2.51A13.64,13.64,0,0,1,71.71,691a10.41,10.41,0,0,1-2.89,3.57c-.21.16-.42.27-.63.41l-.1,0c0-.15,0-.28-.05-.42a12.31,12.31,0,0,1,.42-4.43,12.71,12.71,0,0,1,1.87-4.09A7.63,7.63,0,0,1,72,684.33,4.14,4.14,0,0,1,72.91,683.86Z"/><path class="cls-5" d="M75.15,652.46a2,2,0,0,1,1.2-.08,3.21,3.21,0,0,1,1.25.66A9.67,9.67,0,0,1,79,654.53a18.09,18.09,0,0,1,1.89,2.79,23.91,23.91,0,0,1,2.17,5.92,19.54,19.54,0,0,1,.45,2.61c.07.62.13,1.25.15,1.9a19.58,19.58,0,0,1-.51,5.46,14.72,14.72,0,0,1-2.62,5.63A9.23,9.23,0,0,1,78.24,681a5.37,5.37,0,0,1-.93.47,4,4,0,0,1-1.62.27c-.53,0-1.05-.09-1.59-.13a8.39,8.39,0,0,0-.87,0,1.25,1.25,0,0,0-.43.09,2.28,2.28,0,0,0-.61.37c-.39.33-.76.71-1.13,1.08a21.76,21.76,0,0,1-1.65,1.53,6.11,6.11,0,0,1-1.67,1,5.11,5.11,0,0,1-3.38.24,4.51,4.51,0,0,1-2.25-1.63l-.05-.08.08-.17a13.61,13.61,0,0,0,2.23-5.31,11.51,11.51,0,0,0,.21-2.43,10,10,0,0,0-.77-3.87,5.16,5.16,0,0,0-2.44-2.64,4.12,4.12,0,0,0-1.08-.35l-.07,0c0-.12,0-.24.05-.36a34.14,34.14,0,0,1,1.63-6.3c.31-.87.63-1.74,1-2.58a12.85,12.85,0,0,1,1.06-2,5.11,5.11,0,0,1,1.28-1.35,3.43,3.43,0,0,1,.71-.37l.36-.12a3.46,3.46,0,0,1,1.52,0,6.11,6.11,0,0,0,1.24.11,3.75,3.75,0,0,0,1.23-.26,5.77,5.77,0,0,0,.61-.28,7.7,7.7,0,0,0,2-1.64A13.3,13.3,0,0,1,74,653.15a5.11,5.11,0,0,1,.9-.59Z"/><polygon class="cls-6" points="71.5 566.66 76.38 726.13 92.7 717.61 71.5 566.66"/><path class="cls-7" d="M79.89,635.1H244.73l27.73-241.33a37.91,37.91,0,0,0-37.8-37.8H88.12a37.91,37.91,0,0,0-37.8,37.8Z"/><path class="cls-8" d="M200.64,544.12c0,3.57,2.54,6.46,5.67,6.46s5.67-2.89,5.67-6.46a6.63,6.63,0,0,0-2.89-5.63,1.2,1.2,0,0,0-.52-.34c-3.47-1.36-7.83-13.79-7.83-13.79l0,18.42A7.17,7.17,0,0,0,200.64,544.12Z"/><path class="cls-9" d="M196.81,282.7v69.71a35.42,35.42,0,0,1-70.84,0V282.7a35.42,35.42,0,1,1,70.84,0Z"/><path class="cls-10" d="M272.84,140.92l-.38,65.37c-9.56,65.77-28.05,114.43-75.85,133.84,0,0-20.51,5.47-35.22,5.47-14.13,0-34.9-5.66-34.9-5.66-45.66-22.39-64.94-57.87-76.48-114l-.08-84.76c0-43.79,35.71-79.62,79.36-79.62h64.2A79.6,79.6,0,0,1,272.84,140.92Z"/><polygon class="cls-11" points="244.73 635.1 213.94 1028.36 178.82 1028.36 161.39 754.28 138.82 1028.36 105.22 1028.36 79.89 635.1 244.73 635.1"/><rect class="cls-10" x="35.81" y="730.05" width="42.41" height="16.61" rx="8.31" ry="8.31" transform="translate(408.78 1390.03) rotate(156.06)"/><path class="cls-12" d="M209.27,556.13c3.12-13.37-1.5-200.15-1.5-200.15"/><line class="cls-13" x1="200.64" y1="487.33" x2="200.64" y2="524.37"/><rect class="cls-14" x="168.42" y="1026.15" width="71.65" height="41.5" rx="18.57" ry="18.57" transform="translate(408.48 2093.79) rotate(-180)"/><polygon class="cls-1" points="161.39 415.33 179.1 359.02 205.45 341.02 205.45 355.98 161.39 415.33"/><polygon class="cls-1" points="161.39 415.33 143.68 359.02 117.34 341.02 117.34 355.98 161.39 415.33"/><rect class="cls-14" x="76.04" y="1026.15" width="71.65" height="41.5" rx="18.57" ry="18.57" transform="translate(223.72 2093.79) rotate(-180)"/><line class="cls-12" x1="208.24" y1="411.46" x2="204.33" y2="458.81"/><polygon class="cls-15" points="161.39 415.33 164.14 449.48 159.06 449.48 161.39 415.33"/><path class="cls-1" d="M268.45,512.48l-63-63-22,23.54s23.29,37.68,52.49,80.31c12.67,18.49,35.63,39,64.09,28.08,12-4.6-2.2-90.38-2.2-90.38"/><rect class="cls-14" x="142.8" y="378.55" width="48.04" height="81.67" rx="8.56" ry="8.56" transform="matrix(1, -0.06, 0.06, 1, -26.39, 11.48)"/><path class="cls-14" d="M49.54,232.51C38.79,209.1,34.7,183.84,29.46,158.07c-2.41-11.87-4.22-24.26-2.1-36.21,2-11.4,7.46-21.57,12.83-31.44,12.35-22.7,25.12-45.64,42.73-63.2s41-29.32,64.13-25.5c4.44,11.67,49-1.37,62.09-1.7,3.11-.08,6.4-.05,9.06,1.55,6.5,3.89,5.1,13.55,2.87,20.79A105.32,105.32,0,0,1,277.63,19a129.29,129.29,0,0,1,14.17,30c3.21,10,5.21,20.7,2.72,30.86a37.08,37.08,0,0,1-22.35,25.36l6.1-3.6c8.89,3.33,13.62,13.58,13.48,23.07-.2,13.39-3.89,25.53-3.87,39.19,0,6.49-.28,14.14-2.74,20.24-.47,1.17-12.27,23.24-12.68,22.14-5.81-15.77-7.88-41-13.69-56.76,4.88,10.46-7.8,21-18.14,20.69-33.24-1-54.6-47.61-87.78-50.06a17.81,17.81,0,0,1,5,11.53C132.3,141,100.23,120.38,79.65,140,57,161.62,75.46,220.6,49.54,232.51"/><rect class="cls-16" x="152.39" y="461.08" width="5.78" height="6.61" transform="translate(-29.28 10.84) rotate(-3.65)"/><rect class="cls-16" x="153.6" y="462.84" width="3.67" height="8.07" transform="translate(-29.43 10.85) rotate(-3.65)"/><path class="cls-12" d="M155.44,466.87l.55,9.18s.3,21-12.31,21.92-21.85-4.62-26.35-25.38S113.88,356,113.88,356"/><path class="cls-17" d="M210.26,560.2c0,3.57-2.15,6.46-4.81,6.46s-4.81-2.89-4.81-6.46a7,7,0,0,1,2.45-5.63,1,1,0,0,1,.44-.34c2.94-1.36,6.64-13.79,6.64-13.79v18.42A8.42,8.42,0,0,1,210.26,560.2Z"/><polygon class="cls-18" points="207.28 406.57 210.55 406.57 210.55 414.35 206.49 413.83 207.28 406.57"/><rect class="cls-10" x="161.27" y="430.5" width="50.8" height="50.79" rx="12" ry="12" transform="translate(653.43 613.44) rotate(130.92)"/></svg>