<svg id="Layer_1" data-name="Layer 1" xmlns="http://www.w3.org/2000/svg" viewBox="0 0 1165.32 1128.69"><defs><style>.cls-1{fill:#48297a;opacity:0.27;}.cls-2{fill:#fff;}.cls-3{fill:#ced0d1;}.cls-4{fill:#e3e3e2;}.cls-5{fill:#5b4a42;stroke:#988279;}.cls-14,.cls-5{stroke-miterlimit:10;stroke-width:19px;}.cls-6{fill:#00a49a;}.cls-7{fill:#284250;}.cls-8{fill:#00877d;}.cls-9{fill:#414141;}.cls-10{fill:#f0f0f0;}.cls-11{fill:#a5a6a9;}.cls-12{fill:#ffd15d;}.cls-13{fill:#f0ba53;opacity:0.58;}.cls-14{fill:none;stroke:#a67c4f;}.cls-15{fill:#c3556a;}.cls-16{fill:#b44560;}.cls-17,.cls-18{fill:#00a59b;}.cls-18{opacity:0.48;}.cls-19{fill:#59595c;}.cls-20{fill:#6d6f70;}.cls-21{fill:#5e5f5e;}.cls-22{fill:#a5a7aa;}.cls-23{fill:#e4e4e3;}.cls-24{fill:#ffd25e;}.cls-25{fill:#7a56b9;}.cls-26{fill:#f9d1aa;}.cls-27{fill:#e4617b;}.cls-28{fill:#23222d;}.cls-29{fill:#d15472;}.cls-30{fill:#6f2f88;}.cls-31{fill:#632e7c;}.cls-32{fill:#e9ba93;}.cls-33{fill:#344144;}</style></defs><title>webmocup_v2</title><rect class="cls-1" x="238.79" y="28.57" width="764.27" height="1100.12"/><rect class="cls-2" x="44.74" y="199.77" width="1089.71" height="768.13" transform="translate(1173.43 -5.75) rotate(90)"/><rect class="cls-3" x="570.1" y="-364.57" width="38.99" height="768.13" transform="translate(570.1 609.09) rotate(-90)"/><rect class="cls-4" x="251.96" y="521.54" width="200.91" height="200.91" transform="translate(-269.57 974.4) rotate(-90)"/><rect class="cls-4" x="649.87" y="738.57" width="248.06" height="310.23" transform="translate(-119.78 1667.59) rotate(-90)"/><rect class="cls-4" x="489.14" y="521.54" width="200.91" height="200.91" transform="translate(-32.4 1211.58) rotate(-90)"/><rect class="cls-4" x="726.32" y="521.54" width="200.91" height="200.91" transform="translate(204.78 1448.76) rotate(-90)"/><rect class="cls-4" x="376.53" y="-132.02" width="426.12" height="768.13" transform="translate(337.54 841.64) rotate(-90)"/><circle class="cls-2" cx="232.63" cy="20.98" r="8.58"/><circle class="cls-2" cx="259.96" cy="20.98" r="8.58"/><circle class="cls-2" cx="287.3" cy="20.98" r="8.58"/><circle class="cls-5" cx="592.03" cy="625" r="52.87"/><circle class="cls-6" cx="592.03" cy="625" r="36.11"/><circle class="cls-7" cx="592.03" cy="625" r="1.42"/><circle class="cls-7" cx="592.03" cy="618.97" r="1.42"/><circle class="cls-7" cx="592.03" cy="612.94" r="1.42"/><circle class="cls-7" cx="592.03" cy="606.91" r="1.42"/><circle class="cls-7" cx="592.03" cy="600.88" r="1.42"/><circle class="cls-7" cx="592.03" cy="594.86" r="1.42"/><circle class="cls-7" cx="592.03" cy="588.83" r="1.42"/><circle class="cls-7" cx="592.03" cy="625.06" r="1.42" transform="translate(-247.61 434.79) rotate(-33.79)"/><circle class="cls-7" cx="592.03" cy="654.71" r="1.42"/><circle class="cls-7" cx="592.03" cy="648.68" r="1.42"/><circle class="cls-7" cx="592.03" cy="642.65" r="1.42"/><circle class="cls-7" cx="592.03" cy="636.62" r="1.42"/><circle class="cls-7" cx="592.03" cy="630.59" r="1.42"/><circle class="cls-7" cx="592.03" cy="660.8" r="1.42" transform="translate(-267.48 440.83) rotate(-33.79)"/><circle class="cls-7" cx="592" cy="625.17" r="1.42"/><circle class="cls-7" cx="598.03" cy="625.17" r="1.42"/><circle class="cls-7" cx="604.06" cy="625.17" r="1.42"/><circle class="cls-7" cx="610.09" cy="625.17" r="1.42"/><circle class="cls-7" cx="616.12" cy="625.17" r="1.42"/><circle class="cls-7" cx="622.15" cy="625.17" r="1.42"/><circle class="cls-7" cx="628.18" cy="625.17" r="1.42"/><circle class="cls-7" cx="591.94" cy="625.17" r="1.42" transform="translate(-247.66 434.65) rotate(-33.78)"/><circle class="cls-7" cx="562.3" cy="625.16" r="1.42"/><circle class="cls-7" cx="568.32" cy="625.17" r="1.42"/><circle class="cls-7" cx="574.35" cy="625.17" r="1.42"/><circle class="cls-7" cx="580.38" cy="625.17" r="1.42"/><circle class="cls-7" cx="586.41" cy="625.17" r="1.42"/><circle class="cls-7" cx="556.21" cy="625.16" r="1.42" transform="translate(-253.69 414.78) rotate(-33.78)"/><circle class="cls-7" cx="591.85" cy="624.98" r="1.42" transform="translate(-265.52 548.79) rotate(-41.48)"/><circle class="cls-7" cx="591.88" cy="625.03" r="1.42" transform="translate(-163.11 1038.51) rotate(-75.27)"/><circle class="cls-7" cx="591.93" cy="625.13" r="1.42" transform="translate(-265.59 548.78) rotate(-41.47)"/><circle class="cls-7" cx="596.45" cy="621.14" r="1.42" transform="translate(-261.81 550.77) rotate(-41.47)"/><circle class="cls-7" cx="600.97" cy="617.14" r="1.42" transform="translate(-258.03 552.76) rotate(-41.47)"/><circle class="cls-7" cx="605.48" cy="613.15" r="1.42" transform="translate(-254.26 554.75) rotate(-41.47)"/><circle class="cls-7" cx="610" cy="609.16" r="1.42" transform="translate(-250.48 556.74) rotate(-41.47)"/><circle class="cls-7" cx="614.52" cy="605.16" r="1.42" transform="translate(-246.7 558.73) rotate(-41.47)"/><circle class="cls-7" cx="619.04" cy="601.17" r="1.42" transform="translate(-242.92 560.72) rotate(-41.47)"/><circle class="cls-7" cx="569.67" cy="644.8" r="1.42" transform="translate(-284.2 538.97) rotate(-41.47)"/><circle class="cls-7" cx="574.19" cy="640.81" r="1.42" transform="translate(-280.42 540.96) rotate(-41.47)"/><circle class="cls-7" cx="578.71" cy="636.82" r="1.42" transform="translate(-276.64 542.95) rotate(-41.47)"/><circle class="cls-7" cx="583.23" cy="632.82" r="1.42" transform="translate(-272.87 544.94) rotate(-41.47)"/><circle class="cls-7" cx="587.74" cy="628.83" r="1.42" transform="translate(-269.09 546.93) rotate(-41.47)"/><circle class="cls-7" cx="565.11" cy="648.84" r="1.42" transform="translate(-206.15 1030.27) rotate(-75.26)"/><circle class="cls-7" cx="597.27" cy="613.74" r="1.42" transform="translate(-197.91 931.7) rotate(-67.57)"/><circle class="cls-7" cx="599.57" cy="608.16" r="1.42" transform="translate(-191.33 930.38) rotate(-67.57)"/><circle class="cls-7" cx="601.87" cy="602.59" r="1.42" transform="translate(-184.76 929.06) rotate(-67.57)"/><circle class="cls-7" cx="604.17" cy="597.02" r="1.42" transform="translate(-178.18 927.74) rotate(-67.57)"/><circle class="cls-7" cx="606.47" cy="591.44" r="1.42" transform="translate(-171.61 926.42) rotate(-67.57)"/><circle class="cls-7" cx="577.94" cy="658.41" r="1.42" transform="translate(-251.15 941.46) rotate(-67.57)"/><circle class="cls-7" cx="580.24" cy="652.83" r="1.42" transform="translate(-244.58 940.14) rotate(-67.57)"/><circle class="cls-7" cx="582.54" cy="647.26" r="1.42" transform="translate(-238 938.82) rotate(-67.57)"/><circle class="cls-7" cx="584.84" cy="641.69" r="1.42" transform="translate(-231.43 937.5) rotate(-67.57)"/><circle class="cls-7" cx="587.14" cy="636.11" r="1.42" transform="translate(-224.85 936.18) rotate(-67.57)"/><circle class="cls-7" cx="578" cy="591.72" r="1.42" transform="translate(-189.63 283.56) rotate(-23.8)"/><circle class="cls-7" cx="580.44" cy="597.23" r="1.42" transform="translate(-191.64 285.01) rotate(-23.8)"/><circle class="cls-7" cx="582.87" cy="602.75" r="1.42" transform="translate(-193.66 286.46) rotate(-23.8)"/><circle class="cls-7" cx="585.3" cy="608.27" r="1.42" transform="translate(-195.68 287.91) rotate(-23.8)"/><circle class="cls-7" cx="587.73" cy="613.78" r="1.42" transform="translate(-197.7 289.36) rotate(-23.8)"/><circle class="cls-7" cx="602.85" cy="629.83" r="1.42" transform="translate(-185.61 1001.91) rotate(-71.52)"/><circle class="cls-7" cx="608.57" cy="631.74" r="1.42" transform="translate(-183.52 1008.64) rotate(-71.52)"/><circle class="cls-7" cx="614.29" cy="633.65" r="1.42" transform="translate(-181.43 1015.37) rotate(-71.52)"/><circle class="cls-7" cx="620" cy="635.57" r="1.42" transform="translate(-179.34 1022.09) rotate(-71.52)"/><circle class="cls-7" cx="625.72" cy="637.48" r="1.42" transform="translate(-177.24 1028.82) rotate(-71.52)"/><circle class="cls-7" cx="558.5" cy="611.17" r="1.42" transform="translate(-218.21 897.82) rotate(-67.83)"/><circle class="cls-7" cx="564.09" cy="613.45" r="1.42" transform="translate(-216.84 904.41) rotate(-67.83)"/><circle class="cls-7" cx="569.67" cy="615.72" r="1.42" transform="translate(-215.47 911) rotate(-67.83)"/><circle class="cls-7" cx="575.26" cy="618" r="1.42" transform="translate(-214.1 917.59) rotate(-67.83)"/><circle class="cls-7" cx="580.84" cy="620.27" r="1.42" transform="translate(-212.73 924.18) rotate(-67.83)"/><circle class="cls-7" cx="596.53" cy="635.76" r="1.42" transform="matrix(0.95, -0.3, 0.3, 0.95, -163.25, 208.25)"/><circle class="cls-7" cx="598.34" cy="641.51" r="1.42" transform="translate(-164.89 209.05) rotate(-17.46)"/><circle class="cls-7" cx="600.15" cy="647.26" r="1.42" transform="translate(-166.54 209.86) rotate(-17.46)"/><circle class="cls-7" cx="601.95" cy="653.01" r="1.42" transform="translate(-168.18 210.67) rotate(-17.46)"/><circle class="cls-7" cx="603.76" cy="658.76" r="1.42" transform="translate(-169.82 211.48) rotate(-17.46)"/><circle class="cls-7" cx="558.74" cy="639.42" r="1.42" transform="translate(-217.51 295.21) rotate(-24.94)"/><circle class="cls-7" cx="564.21" cy="636.88" r="1.42" transform="translate(-215.93 297.28) rotate(-24.94)"/><circle class="cls-7" cx="569.67" cy="634.34" r="1.42" transform="translate(-214.35 299.35) rotate(-24.94)"/><circle class="cls-7" cx="575.14" cy="631.79" r="1.42" transform="translate(-212.77 301.41) rotate(-24.94)"/><circle class="cls-7" cx="580.61" cy="629.25" r="1.42" transform="translate(-211.19 303.48) rotate(-24.94)"/><circle class="cls-7" cx="603.77" cy="620.4" r="1.42" transform="translate(-165.54 223.42) rotate(-18.48)"/><circle class="cls-7" cx="609.49" cy="618.49" r="1.42" transform="translate(-164.64 225.13) rotate(-18.48)"/><circle class="cls-7" cx="615.21" cy="616.58" r="1.42" transform="translate(-163.74 226.85) rotate(-18.48)"/><circle class="cls-7" cx="620.93" cy="614.67" r="1.42" transform="translate(-162.84 228.56) rotate(-18.48)"/><circle class="cls-7" cx="626.65" cy="612.59" r="1.42" transform="translate(-161.89 230.27) rotate(-18.48)"/><circle class="cls-7" cx="592.05" cy="625.2" r="1.42" transform="translate(-267.45 573.56) rotate(-43.12)"/><circle class="cls-7" cx="592" cy="625.24" r="1.42" transform="translate(-151.08 1060.24) rotate(-76.91)"/><circle class="cls-7" cx="591.9" cy="625.29" r="1.42" transform="translate(-267.54 573.38) rotate(-43.11)"/><circle class="cls-7" cx="596.02" cy="629.69" r="1.42" transform="translate(-269.44 577.39) rotate(-43.11)"/><circle class="cls-7" cx="600.15" cy="634.09" r="1.42" transform="translate(-271.33 581.39) rotate(-43.11)"/><circle class="cls-7" cx="604.27" cy="638.5" r="1.42" transform="translate(-273.23 585.4) rotate(-43.11)"/><circle class="cls-7" cx="608.39" cy="642.9" r="1.42" transform="translate(-275.12 589.4) rotate(-43.11)"/><circle class="cls-7" cx="612.51" cy="647.3" r="1.42" transform="translate(-277.02 593.41) rotate(-43.11)"/><circle class="cls-7" cx="616.63" cy="651.7" r="1.42" transform="translate(-278.91 597.41) rotate(-43.11)"/><circle class="cls-7" cx="571.6" cy="603.61" r="1.42" transform="translate(-258.2 553.65) rotate(-43.11)"/><circle class="cls-7" cx="575.72" cy="608.01" r="1.42" transform="translate(-260.1 557.65) rotate(-43.11)"/><circle class="cls-7" cx="579.84" cy="612.41" r="1.42" transform="translate(-261.99 561.66) rotate(-43.11)"/><circle class="cls-7" cx="583.96" cy="616.81" r="1.42" transform="translate(-263.89 565.66) rotate(-43.11)"/><circle class="cls-7" cx="588.08" cy="621.21" r="1.42" transform="translate(-265.78 569.67) rotate(-43.11)"/><circle class="cls-7" cx="567.44" cy="599.16" r="1.42" transform="translate(-144.73 1016.05) rotate(-76.9)"/><circle class="cls-5" cx="826.77" cy="623.2" r="52.87"/><path class="cls-6" d="M826.77,623s-.89,35.55-49.66,36.18"/><path class="cls-8" d="M777.11,659.17s7.82-43.55,49.66-36.18"/><path class="cls-6" d="M901.43,631.72s-30.28,31.23-74.66-8.65"/><path class="cls-8" d="M826.77,623.08s43.15-32.68,74.66,8.65"/><path class="cls-6" d="M832.72,555.09s29.14,26.77-6,68.11"/><path class="cls-8" d="M826.7,623.2s-30.78-38.43,6-68.11"/><path class="cls-6" d="M841.44,657.38S820.5,652,826.82,623"/><path class="cls-8" d="M826.82,623s24.73,10.61,14.62,34.39"/><path class="cls-6" d="M826.7,623.23s-24.53,12-42.22-21"/><path class="cls-8" d="M784.48,602.21s32.43-10.09,42.22,21"/><circle class="cls-5" cx="351.57" cy="621.42" r="52.87" transform="translate(-322.92 855.55) rotate(-79.64)"/><path class="cls-6" d="M351.48,622.16s-29.21,19.25-63.37,15.66"/><path class="cls-6" d="M351.57,621.42s-12.71-32.59-2.06-65.25"/><path class="cls-6" d="M351.57,621.38s18.85-29.47,51.52-40.1"/><path class="cls-6" d="M351.57,621.86s5.39-34.57,31-57.45"/><path class="cls-6" d="M351.86,621.7s-34.5,5.8-64.3-11.29"/><path class="cls-6" d="M351.82,621.69s-25-24.47-28.75-58.61"/><path class="cls-6" d="M352.3,621.79s-32.74-12.32-49.92-42.06"/><path class="cls-6" d="M351,621.7s-3,34.85-27,59.43"/><path class="cls-6" d="M351.68,621.72s-19,29.38-51.69,39.87"/><path class="cls-6" d="M351.35,622s33.87,8.74,54.14,36.47"/><path class="cls-6" d="M351.38,621.78s12.89,32.52,2.41,65.24"/><path class="cls-6" d="M351,621.49s24.9,24.58,28.49,58.74"/><path class="cls-6" d="M350.42,622.35s34.49-5.85,64.31,11.19"/><path class="cls-6" d="M350.86,622.43S380.15,603.3,414.29,607"/><path class="cls-8" d="M349.51,556.17s12.42,31.24,2.06,65.25"/><path class="cls-8" d="M403.09,581.28s-17.93,28.44-51.52,40.1"/><path class="cls-8" d="M382.57,564.41s-5,33.25-31,57.45"/><path class="cls-8" d="M287.56,610.41s33.11-5.79,64.3,11.29"/><path class="cls-8" d="M323.08,563.08s24.18,23.35,28.75,58.61"/><path class="cls-8" d="M302.38,579.73s31.54,11.63,49.92,42.06"/><path class="cls-8" d="M323.95,681.13s2.67-33.51,27-59.43"/><path class="cls-8" d="M300,661.59s18.05-28.36,51.69-39.87"/><path class="cls-8" d="M405.49,658.46s-32.61-8.18-54.14-36.47"/><path class="cls-8" d="M353.79,687s-12.59-31.17-2.41-65.24"/><path class="cls-8" d="M379.47,680.23S355.39,656.77,351,621.49"/><path class="cls-8" d="M414.73,633.54s-33.11,5.84-64.31-11.19"/><path class="cls-8" d="M288.11,637.83s27.95-18.68,63.37-15.66"/><path class="cls-8" d="M414.29,607s-28,18.57-63.43,15.42"/><circle class="cls-2" cx="725.47" cy="901.93" r="73.06"/><path class="cls-9" d="M929.2,984.51a58.94,58.94,0,1,1,0-117.88"/><circle class="cls-10" cx="870.26" cy="925.57" r="36.69"/><path class="cls-2" d="M822.19,944.73l-6.42,41.19a3.65,3.65,0,1,1-7.2-1.12L815,943.61a3.64,3.64,0,0,1,2.9-3l.61-3.91a1.24,1.24,0,1,1,2.46.38l-.61,3.9a3.67,3.67,0,0,1,1.19,1A3.63,3.63,0,0,1,822.19,944.73Z"/><path class="cls-11" d="M815.41,983.14l-1,6.67a2.87,2.87,0,0,1-3.27,2.39h0a2.87,2.87,0,0,1-2.39-3.27l1-6.67"/><rect class="cls-11" x="806.76" y="982.29" width="10.97" height="5.2" rx="0.83" ry="0.83" transform="translate(161.24 -113.26) rotate(8.85)"/><rect class="cls-4" x="254.37" y="770.45" width="310.23" height="310.23" transform="translate(-516.08 1335.05) rotate(-90)"/><path class="cls-12" d="M367.08,826.88a117.49,117.49,0,1,1-60.48,66.55l110.57,39.73Z"/><polygon class="cls-13" points="417.18 933.16 307.4 974.88 306.61 893.43 417.18 933.16"/><polygon class="cls-13" points="460.39 1042.64 370.68 1040.99 417.52 933.25 460.39 1042.64"/><polygon class="cls-13" points="367.27 826.79 456.91 822.58 417.18 933.16 367.27 826.79"/><polygon class="cls-13" points="526.49 890.05 525.21 979.77 417.27 933.36 526.49 890.05"/><path class="cls-14" d="M367.08,826.88a117.49,117.49,0,1,1-60.48,66.55"/><path class="cls-12" d="M334.67,798a117.12,117.12,0,0,0-60.48,66.55l110.57,39.73Z"/><path class="cls-14" d="M337.36,804.1a110,110,0,0,0-56.82,62.53"/><path class="cls-15" d="M396.23,982.22a12.79,12.79,0,0,1,10.17-23.39"/><circle class="cls-15" cx="357.53" cy="989.11" r="12.79" transform="translate(-383.83 243.08) rotate(-24.95)"/><circle class="cls-15" cx="468.71" cy="976.73" r="12.79" transform="translate(-368.23 288.82) rotate(-24.95)"/><circle class="cls-15" cx="454.58" cy="892.41" r="12.79" transform="translate(-333.99 274.99) rotate(-24.95)"/><circle class="cls-15" cx="335.95" cy="862.2" r="12.79" transform="translate(-332.31 222.14) rotate(-24.95)"/><path class="cls-15" d="M482.47,907.58A12.79,12.79,0,0,1,506,897.76"/><path class="cls-16" d="M406.4,958.83a12.79,12.79,0,1,1-10.17,23.39"/><circle class="cls-16" cx="342.27" cy="934.33" r="12.79" transform="translate(-362.15 231.54) rotate(-24.95)"/><circle class="cls-16" cx="425.38" cy="1008.36" r="12.79" transform="translate(-385.62 273.5) rotate(-24.95)"/><circle class="cls-16" cx="422.04" cy="859.73" r="12.79" transform="translate(-323.24 258.22) rotate(-24.95)"/><circle class="cls-16" cx="468.4" cy="934.54" r="12.79" transform="translate(-350.47 284.76) rotate(-24.95)"/><path class="cls-16" d="M506,897.76a12.79,12.79,0,1,1-23.54,9.82"/><path class="cls-2" d="M855.46,816.63a30.37,30.37,0,1,1-54,11.84l-5.38-10.95,13.2-3.72a30.39,30.39,0,0,1,46.16,2.82Z"/><circle class="cls-17" cx="831.45" cy="835.23" r="17.08" transform="translate(-335.03 667.14) rotate(-36.93)"/><rect class="cls-3" x="814.01" y="827.42" width="57.89" height="2.89" rx="1.43" ry="1.43" transform="translate(-209.21 289.85) rotate(-17.39)"/><circle class="cls-18" cx="831.45" cy="835.23" r="25.98" transform="matrix(0.8, -0.6, 0.6, 0.8, -335.03, 667.14)"/><rect class="cls-19" x="887.52" y="879.88" width="51.21" height="91.38" rx="8.46" ry="8.46"/><rect class="cls-20" x="909.15" y="879.88" width="29.58" height="91.38" rx="8.46" ry="8.46"/><path class="cls-9" d="M952.34,891.41v26.9H924.51a3.62,3.62,0,0,1-.57,0c-3.8-.53-6.81-6.33-6.81-13.41s3-12.88,6.81-13.4a2.73,2.73,0,0,1,.57,0Z"/><path class="cls-9" d="M952.83,932.81v26.91H925a3.62,3.62,0,0,1-.57,0c-3.8-.53-6.81-6.33-6.81-13.41s3-12.89,6.81-13.41a2.73,2.73,0,0,1,.57,0Z"/><path class="cls-9" d="M923.95,918.27a3.62,3.62,0,0,0,.57,0h-.57Z"/><path class="cls-9" d="M924.51,891.41a2.73,2.73,0,0,0-.57,0v0Z"/><path class="cls-9" d="M923.95,959.68a3.62,3.62,0,0,0,.57,0h-.57Z"/><path class="cls-9" d="M924.51,932.81a2.73,2.73,0,0,0-.57,0v0Z"/><ellipse class="cls-20" cx="952.34" cy="904.86" rx="7.39" ry="13.45"/><ellipse class="cls-20" cx="952.34" cy="946.27" rx="7.39" ry="13.45"/><ellipse class="cls-21" cx="952.34" cy="904.86" rx="4.69" ry="8.54"/><ellipse class="cls-21" cx="952.34" cy="946.27" rx="4.77" ry="8.68"/><polyline class="cls-22" points="895.21 1048.32 896.71 1040.44 905.11 1043.7"/><circle class="cls-23" cx="908.27" cy="1063.39" r="19.94"/><circle class="cls-22" cx="908.27" cy="1063.39" r="4.52"/><rect class="cls-23" x="619.59" y="1044.38" width="250.49" height="35.01"/><circle class="cls-2" cx="663.2" cy="1061.89" r="13.85"/><circle class="cls-17" cx="663.2" cy="1061.89" r="9.13"/><circle class="cls-2" cx="717.15" cy="1061.89" r="13.85"/><circle class="cls-15" cx="717.15" cy="1061.89" r="9.13"/><circle class="cls-2" cx="771.11" cy="1061.89" r="13.85"/><circle class="cls-24" cx="771.11" cy="1061.89" r="9.13"/><circle class="cls-2" cx="825.06" cy="1061.89" r="13.85"/><circle class="cls-25" cx="825.06" cy="1061.89" r="9.13"/><path class="cls-26" d="M381.15,852.73c-3.93,1.58-20.5-13.19-20.5-13.19l-11.83-2.17,4.86,7.18a6.76,6.76,0,0,1-11.19,7.57l-13.88-20.51c-.11-.17-.22-.34-.32-.52-2.75-3.43-3.8-8.19-3.35-10.64l5.19-28.33c.76-4.15,11.95-4.64,16.51-3.8l23,8.41a8.5,8.5,0,0,1,6.86,6.23c2.14,3.84,7.08,13.18,7.08,17.5C383.55,826,389.08,849.51,381.15,852.73Z"/><path class="cls-26" d="M369.7,951.69a8.5,8.5,0,0,1-4.7,8l-19.45,14.85c-4.11,2.15-14.94,5-16.9,1.27l-13.37-25.52c-1.16-2.21-1.57-7.07.06-11.17a5.66,5.66,0,0,1,.14-.58l7.17-23.7a6.78,6.78,0,0,1,6.47-4.8,6.6,6.6,0,0,1,1.95.29,6.77,6.77,0,0,1,4.51,8.42l-2.51,8.3,10.66-5.58s11.44-19,15.66-18.68c8.54.71,10.24,24.84,11.88,30.09C372.55,937,370.61,947.39,369.7,951.69Z"/><path class="cls-27" d="M84.05,1011.62S65.51,945.84,58.71,893.08s24.3-110,24.3-110,109-52,135.61-52,112.79,59.11,112.79,59.11l-6.27,34.19L220.51,789.43l-14.23,9.26-.07,194.13,17.62.41L314,944.74l16.78,32.8s-86.63,77.23-112.61,78.17C139.11,1058.54,84.05,1011.62,84.05,1011.62Z"/><rect class="cls-26" x="48.66" y="820.67" width="131.8" height="145.37" rx="65.12" ry="65.12"/><rect class="cls-26" x="151.77" y="881.41" width="36.75" height="27.35" rx="13.51" ry="13.51"/><rect class="cls-26" x="88.43" y="802.26" width="31.43" height="175.03" rx="15.53" ry="15.53"/><path class="cls-28" d="M2.67,891.24c-1.3-17.79-.4-36.62,11.84-51.88,9.29-11.58,24.56-20.1,41.42-24.87s35.24-6,53.22-5c5.7.3,11.58.86,16.51,3s8.6,5.91,12,9.48l8.2,8.62c2.4,2.52,4.89,5.23,5.08,8.33s-3,6.5-7.15,6.17c9.42,9.07,15.52,20.06,17.46,31.47a4.56,4.56,0,0,1-.43,3.59,3.43,3.43,0,0,1-4.1.91,127.29,127.29,0,0,0,13.53,16.3l-15.67,9.18c6.09,1.83,5.48,8.37,3.78,13.12l-8.62,24.1c-1.51,4.21-3.05,8.49-6.13,12.19-5,6-13.6,9.87-22.62,11.85s-18.53,2.28-27.93,2.47c-21.33.42-44.37,0-61.42-9.66-19.46-11-25.51-30.71-28.13-48.88A242,242,0,0,1,1.25,887.3"/><path class="cls-28" d="M3.92,891.24c-1.12-16.16-.43-33.13,8.69-47.13,9.26-14.22,25.4-22.83,41.22-27.7,17.53-5.39,36.15-6.64,54.39-5.75,9.78.48,18.16,2,25.42,9,3,2.86,5.76,6,8.61,9,2,2.08,4.35,4.16,5.91,6.57,2.69,4.16.84,8.58-4.36,8.67a1.26,1.26,0,0,0-.88,2.13,64.67,64.67,0,0,1,11.72,15.3,51.89,51.89,0,0,1,3.58,8.25c.57,1.72,4.1,12-1.14,10.33a1.26,1.26,0,0,0-1.41,1.84,140.51,140.51,0,0,0,13.72,16.55l.25-2L154,905.47a1.27,1.27,0,0,0,.3,2.28c8.63,3.31.88,17.26-1.07,22.71-3,8.38-5.14,19-11.37,25.65C130.21,968.51,109.66,968.68,94,969c-30.17.63-66.87-.25-82-31.38C4.6,922.26,3.27,904.07,2.5,887.3c-.07-1.6-2.57-1.61-2.5,0,.77,16.82,2.2,34.83,9.31,50.35,6.82,14.89,19.42,25,35,29.58,18.31,5.4,38.32,4.85,57.2,4.05,16.15-.68,37.47-3.15,46.05-19.07,2.47-4.58,3.94-9.73,5.68-14.6,2.1-5.86,4.37-11.69,6.3-17.61s1.86-12.16-4.65-14.66l.3,2.28,15.67-9.18a1.26,1.26,0,0,0,.25-2,136.29,136.29,0,0,1-13.33-16l-1.41,1.84c8.78,2.8,5.55-9.4,4.22-13.41-3.15-9.46-8.88-17.69-15.94-24.65l-.88,2.13c4.15-.07,8.52-2.78,8.4-7.42-.07-2.48-1.6-4.77-3.1-6.62-3.23-4-7-7.53-10.54-11.21-5-5.19-10.09-9.58-17.22-11.36-7.82-1.95-16.31-1.86-24.3-1.82-30,.15-67.22,7.15-85.64,33.54C1.22,856,.23,874.1,1.42,891.24c.11,1.6,2.61,1.61,2.5,0Z"/><polygon class="cls-29" points="206.33 798.53 206.33 811.69 188.52 810.96 206.33 798.53"/><path class="cls-29" d="M206.17,983.84l-11.6,1.1c8.57-6.94,8.82-52.68,8.79-94.22a562.68,562.68,0,0,0-6.15-79.31l9.12.28Z"/><polygon class="cls-29" points="183.13 986.74 206.21 983.84 206.21 992.82 183.13 986.74"/><path class="cls-30" d="M1088,805.19s17.17,60.92,23.48,109.79S1089,1016.85,1089,1016.85s-65.39,33.31-90,33.39-96.29-23.42-96.29-23.42l6.68-33.45,65.43,9,.07-179.79L878,856.47l-11.36-25.72S952.92,765.2,977,763.9,1088,805.19,1088,805.19Z"/><path class="cls-26" d="M909.73,992.64,903.8,1025c-.84,4.57-8.49,6.62-15,5.38L865.38,1024c-4.57-.84-7.76-8.39-6.92-13l-1.64-35.9c0-6.19,5.26-7.62,9.82-6.78l36.3,14.48A8.47,8.47,0,0,1,909.73,992.64Z"/><path class="cls-26" d="M872,828.93l10.76,23.59a8.47,8.47,0,0,1-4.18,11.18l-34.27,16.14c-4.22,1.93-9.33.42-11.18-7.44l1.42-25.08c.67-4.73,0-9.26,4.18-11.18l14.51-7.48C857.45,826.73,870.06,824.71,872,828.93Z"/><rect class="cls-26" x="989.47" y="839.72" width="122.07" height="134.64" rx="60.31" ry="60.31" transform="translate(2101 1814.07) rotate(180)"/><rect class="cls-26" x="982" y="895.97" width="34.03" height="25.33" rx="12.51" ry="12.51" transform="translate(1998.03 1817.27) rotate(-180)"/><rect class="cls-26" x="1045.58" y="822.66" width="29.11" height="162.1" rx="14.38" ry="14.38" transform="translate(2120.28 1807.42) rotate(-180)"/><path class="cls-28" d="M1136.91,891.19a85.27,85.27,0,0,1-6.9-16.52c-2-6.61-3.19-13.55-6.58-19.55-7.17-12.67-22.57-18.42-37.09-19.57-19.42-1.54-42.62-3.37-59.86,7.57-12.42,7.89-16.81,23.74-18.29,37.52a115.61,115.61,0,0,0-.12,22.47c1,11.08,3.08,11.48,14.1,11.54L1014,920.9a15.59,15.59,0,0,0-4,3.91c-4.45,7.19,4.51,5.95,8.58,6.59l-2.42,5c-1.19,2.48-2.39,5-3.47,7.5a3.74,3.74,0,0,0-.43,1.78,3.8,3.8,0,0,0,.4,1.21c7,15.31,22.39,24.59,39,26.82,7.41,1,14.78-.64,22.26-.7a155.22,155.22,0,0,0,29.66-3.1,37.47,37.47,0,0,0,10.2-3.24c10-5.31,14.12-17.48,15.67-28.71.91-6.61-2.63-6.89,3.56-10.92,1.12,4.51,7.15,5.78,11.24,7.81,3.14,1.56,6.36-3.15,8.52-5.92,4-5.09,3.09-5.2,4.26-8.38s7-10.16,7-13.55c0-15.11-4.89-19.76-6.08-27a9.59,9.59,0,0,0-1.38-4.1,3.57,3.57,0,0,0-3.78-1.55,4.92,4.92,0,0,0-3.24-7.12,9.4,9.4,0,0,0-3.68.41c-4.09,1-8.46,2.22-11.13,5.48-2.23,2.72-7.28,10.15,1.63,18.85-7.94-5.3-13.42-15.19-18.41-23.11-5.46-8.66-11-17.5-18.78-24.12s-18.39-10.8-28.35-8.44"/><path class="cls-28" d="M1138,890.56c-5.07-9.5-7-19.49-10.58-29.5a35.36,35.36,0,0,0-12.93-17.46c-13.42-9.53-31-10-46.86-10.41s-34.34,1.21-46.45,12.49c-11.07,10.32-14.08,27.07-14.73,41.51a111.29,111.29,0,0,0,.5,17.25c.28,2.5.53,5.3,1.86,7.51,2.7,4.47,8.86,3.92,13.37,4l-.63-2.33c-3.72,2.86-15.34,9-13.89,15.23,1,4.31,7.76,3.44,11,3.85l-1.08-1.88c-2,4.08-4.44,8.23-5.89,12.53-1,2.84-.11,4.32,1.3,6.89a45.94,45.94,0,0,0,13.84,15.31,54.59,54.59,0,0,0,18.75,8.37c8.93,2.14,17.47.83,26.51.47,9.49-.38,18.82-.82,28.2-2.49,7.3-1.3,14.55-2.94,19.94-8.41,4.81-4.88,7.53-11.5,9.14-18.05a40.66,40.66,0,0,0,1.54-9.88c0-3.68-.75-4.94,2.78-7.37l-1.84-.75c1.28,3.59,4.11,5.21,7.48,6.69s6.3,3.39,9.73.95c6.59-4.69,8.29-13,12.36-19.43,2.19-3.45,4-6.28,3.93-10.41a47.63,47.63,0,0,0-2.61-15c-1.11-3.24-2.56-6.34-3.32-9.69-.88-3.86-1.84-7.66-6.53-7.47l1.08,1.88c1.39-3.15.59-7.18-2.91-8.62-4.14-1.71-11.62,1.38-15,3.89-8.06,6-6.89,15.88-.51,22.61l1.51-2c-13-9.21-19-26.23-28.74-38.44-9.13-11.42-22.56-20.43-37.76-17.35-1.58.32-.91,2.73.66,2.41,18.24-3.7,32,11,41.1,24.78,7,10.63,12.79,23.21,23.47,30.76,1.19.84,2.46-1,1.51-2-4.28-4.51-6.25-9.78-2.85-15.37a12.2,12.2,0,0,1,4.75-4.48,22.74,22.74,0,0,1,4.31-1.66l1.38-.38q4.4-1.73,6.88,4.52a1.27,1.27,0,0,0,1.08,1.88c3.44-.14,6.78,13.23,7.79,16.33,2.23,6.92,3.52,14.36-.37,20.78-1.44,2.39-3.24,4.65-4.3,7.24a46.84,46.84,0,0,1-1.81,4.92c-1.89,3.47-5.65,9.13-10.31,8.42-3.31-.5-8.47-3.38-9.61-6.57a1.26,1.26,0,0,0-1.84-.75c-3.36,2.31-4.47,3.69-4.16,7.65.47,5.95-1.26,12.48-3.49,18-3.09,7.62-8.3,13.33-16.26,15.86-8.29,2.63-17.53,3.48-26.17,4-15.81,1-32,3.26-46.8-3.78a47.15,47.15,0,0,1-15.67-11.88c-2.85-3.34-6.72-8.07-5.37-12.78,1.07-3.76,3.54-7.51,5.23-11a1.27,1.27,0,0,0-1.08-1.88c-2.13-.27-8.42.47-8.39-2.9,0-2.44,4.13-5,5.78-6.3l6.79-5.21a1.26,1.26,0,0,0-.63-2.33c-4.84,0-10.52.65-12.07-5-2-7.16-1.51-15.76-1.05-23.09.87-14,4.2-30.46,15.91-39.56,12.26-9.52,29.38-10.5,44.27-10,14.3.45,29.76.92,42.21,8.83,8.25,5.24,12.5,12.88,15.09,22.11,2.46,8.76,5,17.1,9.31,25.16.76,1.42,2.92.16,2.16-1.26Z"/><path class="cls-31" d="M999,836l-15-1c-7.45,17.1-8.88,50.15-9.15,63.47V822.59Z"/><path class="cls-31" d="M982,995.06h-7.09V916.15C975.6,976.47,982,995.06,982,995.06Z"/><polygon class="cls-31" points="1001.1 995.37 987.97 1004.09 974.85 1002.39 974.91 995.06 1001.1 995.37"/><path class="cls-32" d="M869.21,852l2.16,4a7.09,7.09,0,0,1-2.84,9.59l-14,7.6a7.09,7.09,0,0,1-9.59-2.84l-.49-1.3c-1.85-3.42-.1-6.53,2.84-9.59l14-9.17C864.72,848.42,867.36,848.6,869.21,852Z"/><polygon class="cls-33" points="865.79 828.66 874.93 832.28 872.31 838.92 847.86 900.58 840 907.03 838.72 896.96 863.17 835.29 865.79 828.66"/><rect class="cls-26" x="845.26" y="854.33" width="36.84" height="15.05" rx="7.44" ry="7.44" transform="translate(-306.44 516.08) rotate(-28.48)"/></svg>