<?xml version="1.0" encoding="UTF-8" standalone="no"?>
<svg width="1010px" height="404px" viewBox="0 0 1010 404" version="1.1" xmlns="http://www.w3.org/2000/svg" xmlns:xlink="http://www.w3.org/1999/xlink">
    <!-- Generator: Sketch 39.1 (31720) - http://www.bohemiancoding.com/sketch -->
    <title>Group 2</title>
    <desc>Created with Sketch.</desc>
    <defs>
        <rect id="path-1" x="0" y="0" width="1010" height="404"></rect>
    </defs>
    <g id="Page-1" stroke="none" stroke-width="1" fill="none" fill-rule="evenodd">
        <g id="Group-2">
            <mask id="mask-2" fill="white">
                <use xlink:href="#path-1"></use>
            </mask>
            <g id="Mask"></g>
            <g mask="url(#mask-2)">
                <g transform="translate(0.000000, -625.000000)">
                    <g id="About_screen2" transform="translate(132.000000, 0.000000)">
                        <rect id="Rectangle-path" fill="#FFFFFF" x="0" y="27" width="768.1" height="1065.1"></rect>
                        <rect id="Rectangle-path" fill="#E4E4E3" x="46.4" y="625.3" width="208.4" height="91.5"></rect>
                        <path d="M46.6,996.7 L46.6,770.3 C46.6,760 55,751.6 65.3,751.6 L236.1,751.6 C246.4,751.6 254.8,760 254.8,770.3 L254.8,996.7 C254.8,1007 246.4,1015.4 236.1,1015.4 L65.3,1015.4 C55,1015.4 46.6,1007 46.6,996.7 L46.6,996.7 Z" id="Shape" fill="#CFD1D2"></path>
                        <path d="M59.7,914.7 L59.7,852.3 C59.7,845 65.6,839.1 72.9,839.1 L102.9,839.1 C110.2,839.1 116.1,845 116.1,852.3 L116.1,914.7 C116.1,922 110.2,927.9 102.9,927.9 L72.9,927.9 C65.6,927.9 59.7,922 59.7,914.7 L59.7,914.7 Z" id="Shape" fill="#A5A7AA"></path>
                        <path d="M236.6,1015.4 L236.6,751.6 L236.6,751.6 L239.5,751.6 C247.9,751.6 254.6,758.4 254.6,766.7 L254.6,766.7 L254.6,1000.2 C254.6,1008.6 247.8,1015.3 239.5,1015.3 L239.5,1015.3 L236.6,1015.3 L236.6,1015.4 L236.6,1015.4 Z" id="Shape" fill="#BABCBE"></path>
                        <path d="M236.6,894.5 L236.6,856.5 L236.6,856.5 L236.7,856.5 C239.3,856.5 241.3,858.6 241.3,861.1 L241.3,861.1 L241.3,889.8 C241.3,892.5 239.2,894.6 236.6,894.5 L236.6,894.5 L236.6,894.5 L236.6,894.5 L236.6,894.5 Z" id="Shape" fill="#A5A7AA"></path>
                        <rect id="Rectangle-path" stroke="#CFD1D2" stroke-width="3" fill="#58595B" x="128.2" y="843.4" width="16" height="80.4"></rect>
                        <rect id="Rectangle-path" stroke="#CFD1D2" stroke-width="3" fill="#58595B" x="128.2" y="923.6" width="16" height="16.1"></rect>
                        <rect id="Rectangle-path" stroke="#CFD1D2" stroke-width="3" fill="#58595B" x="128.2" y="939.7" width="16" height="16.1"></rect>
                        <rect id="Rectangle-path" stroke="#CFD1D2" stroke-width="3" fill="#58595B" x="128.2" y="955.9" width="16" height="16.1"></rect>
                        <rect id="Rectangle-path" stroke="#CFD1D2" stroke-width="3" fill="#58595B" x="128.2" y="972" width="16" height="16.1"></rect>
                        <rect id="Rectangle-path" stroke="#CFD1D2" stroke-width="3" fill="#58595B" x="128.2" y="778.9" width="16" height="16.1"></rect>
                        <rect id="Rectangle-path" stroke="#CFD1D2" stroke-width="3" fill="#58595B" x="128.2" y="795" width="16" height="16.1"></rect>
                        <rect id="Rectangle-path" stroke="#CFD1D2" stroke-width="3" fill="#58595B" x="128.2" y="811.2" width="16" height="16.1"></rect>
                        <rect id="Rectangle-path" stroke="#CFD1D2" stroke-width="3" fill="#58595B" x="128.2" y="827.3" width="16" height="16.1"></rect>
                        <rect id="Rectangle-path" stroke="#CFD1D2" stroke-width="3" fill="#58595B" x="144.2" y="923.6" width="16" height="16.1"></rect>
                        <rect id="Rectangle-path" stroke="#CFD1D2" stroke-width="3" fill="#58595B" x="144.2" y="939.7" width="16" height="16.1"></rect>
                        <rect id="Rectangle-path" stroke="#CFD1D2" stroke-width="3" fill="#58595B" x="144.2" y="955.9" width="16" height="32.3"></rect>
                        <rect id="Rectangle-path" stroke="#CFD1D2" stroke-width="3" fill="#58595B" x="160.2" y="931.7" width="16" height="16.1"></rect>
                        <rect id="Rectangle-path" stroke="#CFD1D2" stroke-width="3" fill="#58595B" x="160.2" y="947.8" width="16" height="16.1"></rect>
                        <rect id="Rectangle-path" stroke="#CFD1D2" stroke-width="3" fill="#58595B" x="160.2" y="963.9" width="16" height="24.2"></rect>
                        <rect id="Rectangle-path" stroke="#CFD1D2" stroke-width="3" fill="#58595B" x="176.2" y="923.6" width="16" height="16.1"></rect>
                        <rect id="Rectangle-path" stroke="#CFD1D2" stroke-width="3" fill="#58595B" x="176.2" y="939.7" width="16" height="16.1"></rect>
                        <rect id="Rectangle-path" stroke="#CFD1D2" stroke-width="3" fill="#58595B" x="176.2" y="955.9" width="16" height="16.1"></rect>
                        <rect id="Rectangle-path" stroke="#CFD1D2" stroke-width="3" fill="#58595B" x="176.2" y="972" width="16" height="16.1"></rect>
                        <rect id="Rectangle-path" stroke="#CFD1D2" stroke-width="3" fill="#58595B" x="192.2" y="931.8" width="16" height="16.1"></rect>
                        <rect id="Rectangle-path" stroke="#CFD1D2" stroke-width="3" fill="#58595B" x="192.2" y="947.9" width="16" height="16.1"></rect>
                        <rect id="Rectangle-path" stroke="#CFD1D2" stroke-width="3" fill="#58595B" x="192.2" y="963.9" width="16" height="24.2"></rect>
                        <rect id="Rectangle-path" stroke="#CFD1D2" stroke-width="3" fill="#58595B" x="144.2" y="859.3" width="16" height="16.1"></rect>
                        <rect id="Rectangle-path" stroke="#CFD1D2" stroke-width="3" fill="#58595B" x="144.2" y="875.5" width="16" height="16.1"></rect>
                        <rect id="Rectangle-path" stroke="#CFD1D2" stroke-width="3" fill="#58595B" x="144.2" y="891.6" width="16" height="16.1"></rect>
                        <rect id="Rectangle-path" stroke="#CFD1D2" stroke-width="3" fill="#58595B" x="144.2" y="907.7" width="16" height="16.1"></rect>
                        <rect id="Rectangle-path" stroke="#CFD1D2" stroke-width="3" fill="#58595B" x="160.2" y="867.5" width="16" height="16.1"></rect>
                        <rect id="Rectangle-path" stroke="#CFD1D2" stroke-width="3" fill="#58595B" x="160.2" y="883.5" width="16" height="16.1"></rect>
                        <rect id="Rectangle-path" stroke="#CFD1D2" stroke-width="3" fill="#58595B" x="160.2" y="899.6" width="16" height="16.1"></rect>
                        <rect id="Rectangle-path" stroke="#CFD1D2" stroke-width="3" fill="#58595B" x="160.2" y="915.8" width="16" height="16.1"></rect>
                        <rect id="Rectangle-path" stroke="#CFD1D2" stroke-width="3" fill="#58595B" x="176.2" y="859.3" width="16" height="16.1"></rect>
                        <rect id="Rectangle-path" stroke="#CFD1D2" stroke-width="3" fill="#58595B" x="176.2" y="875.5" width="16" height="16.1"></rect>
                        <rect id="Rectangle-path" stroke="#CFD1D2" stroke-width="3" fill="#58595B" x="176.2" y="891.6" width="16" height="16.1"></rect>
                        <rect id="Rectangle-path" stroke="#CFD1D2" stroke-width="3" fill="#58595B" x="176.2" y="907.7" width="16" height="16.1"></rect>
                        <rect id="Rectangle-path" stroke="#CFD1D2" stroke-width="3" fill="#58595B" x="192.2" y="867.5" width="16" height="16.1"></rect>
                        <rect id="Rectangle-path" stroke="#CFD1D2" stroke-width="3" fill="#58595B" x="192.2" y="883.6" width="16" height="16.1"></rect>
                        <rect id="Rectangle-path" stroke="#CFD1D2" stroke-width="3" fill="#58595B" x="192.2" y="899.8" width="16" height="16.1"></rect>
                        <rect id="Rectangle-path" stroke="#CFD1D2" stroke-width="3" fill="#58595B" x="192.2" y="915.9" width="16" height="16.1"></rect>
                        <rect id="Rectangle-path" stroke="#CFD1D2" stroke-width="3" fill="#58595B" x="144.2" y="811.2" width="16" height="16.1"></rect>
                        <rect id="Rectangle-path" stroke="#CFD1D2" stroke-width="3" fill="#58595B" x="144.2" y="827.3" width="16" height="16.1"></rect>
                        <rect id="Rectangle-path" stroke="#CFD1D2" stroke-width="3" fill="#58595B" x="144.2" y="843.4" width="16" height="16.1"></rect>
                        <rect id="Rectangle-path" stroke="#CFD1D2" stroke-width="3" fill="#58595B" x="160.2" y="803.1" width="16" height="16.1"></rect>
                        <rect id="Rectangle-path" stroke="#CFD1D2" stroke-width="3" fill="#58595B" x="160.2" y="819.2" width="16" height="16.1"></rect>
                        <rect id="Rectangle-path" stroke="#CFD1D2" stroke-width="3" fill="#58595B" x="160.2" y="835.4" width="16" height="16.1"></rect>
                        <rect id="Rectangle-path" stroke="#CFD1D2" stroke-width="3" fill="#58595B" x="160.2" y="851.5" width="16" height="16.1"></rect>
                        <rect id="Rectangle-path" stroke="#CFD1D2" stroke-width="3" fill="#58595B" x="176.2" y="795" width="16" height="16.1"></rect>
                        <rect id="Rectangle-path" stroke="#CFD1D2" stroke-width="3" fill="#58595B" x="176.2" y="811.2" width="16" height="16.1"></rect>
                        <rect id="Rectangle-path" stroke="#CFD1D2" stroke-width="3" fill="#58595B" x="176.2" y="827.3" width="16" height="16.1"></rect>
                        <rect id="Rectangle-path" stroke="#CFD1D2" stroke-width="3" fill="#58595B" x="176.2" y="843.4" width="16" height="16.1"></rect>
                        <rect id="Rectangle-path" stroke="#CFD1D2" stroke-width="3" fill="#58595B" x="192.2" y="803.2" width="16" height="16.1"></rect>
                        <rect id="Rectangle-path" stroke="#CFD1D2" stroke-width="3" fill="#58595B" x="144.2" y="778.9" width="16" height="32.3"></rect>
                        <rect id="Rectangle-path" stroke="#CFD1D2" stroke-width="3" fill="#58595B" x="160.2" y="778.9" width="16" height="24.2"></rect>
                        <rect id="Rectangle-path" stroke="#CFD1D2" stroke-width="3" fill="#58595B" x="176.2" y="778.9" width="16" height="16.1"></rect>
                        <rect id="Rectangle-path" stroke="#CFD1D2" stroke-width="3" fill="#58595B" x="192.2" y="778.9" width="16" height="24.3"></rect>
                        <rect id="Rectangle-path" stroke="#CFD1D2" stroke-width="3" fill="#58595B" x="192.2" y="819.4" width="16" height="16.1"></rect>
                        <rect id="Rectangle-path" stroke="#CFD1D2" stroke-width="3" fill="#58595B" x="192.2" y="835.5" width="16" height="16.1"></rect>
                        <rect id="Rectangle-path" stroke="#CFD1D2" stroke-width="3" fill="#58595B" x="192.2" y="851.6" width="16" height="16.1"></rect>
                        <rect id="Rectangle-path" stroke="#CFD1D2" stroke-width="3" fill="#58595B" x="207.7" y="923.7" width="9" height="16.1"></rect>
                        <rect id="Rectangle-path" stroke="#CFD1D2" stroke-width="3" fill="#58595B" x="207.7" y="939.8" width="9" height="16.1"></rect>
                        <rect id="Rectangle-path" stroke="#CFD1D2" stroke-width="3" fill="#58595B" x="207.7" y="956" width="9" height="16.1"></rect>
                        <rect id="Rectangle-path" stroke="#CFD1D2" stroke-width="3" fill="#58595B" x="207.7" y="972.1" width="9" height="16.1"></rect>
                        <rect id="Rectangle-path" stroke="#CFD1D2" stroke-width="3" fill="#58595B" x="207.8" y="859.4" width="9" height="16.1"></rect>
                        <rect id="Rectangle-path" stroke="#CFD1D2" stroke-width="3" fill="#58595B" x="207.8" y="875.6" width="9" height="16.1"></rect>
                        <rect id="Rectangle-path" stroke="#CFD1D2" stroke-width="3" fill="#58595B" x="207.8" y="891.7" width="9" height="16.1"></rect>
                        <rect id="Rectangle-path" stroke="#CFD1D2" stroke-width="3" fill="#58595B" x="207.8" y="907.8" width="9" height="16.1"></rect>
                        <rect id="Rectangle-path" stroke="#CFD1D2" stroke-width="3" fill="#58595B" x="207.8" y="795.2" width="9" height="16.1"></rect>
                        <rect id="Rectangle-path" stroke="#CFD1D2" stroke-width="3" fill="#58595B" x="207.7" y="779" width="9" height="16.1"></rect>
                        <rect id="Rectangle-path" stroke="#CFD1D2" stroke-width="3" fill="#58595B" x="207.8" y="811.3" width="9" height="16.1"></rect>
                        <rect id="Rectangle-path" stroke="#CFD1D2" stroke-width="3" fill="#58595B" x="207.8" y="827.4" width="9" height="16.1"></rect>
                        <rect id="Rectangle-path" stroke="#CFD1D2" stroke-width="3" fill="#58595B" x="207.8" y="843.6" width="9" height="16.1"></rect>
                        <rect id="Rectangle-path" fill="#E4E4E3" x="334.9" y="629.5" width="377.3" height="386"></rect>
                        <circle id="Oval" stroke="#BABCBE" stroke-width="10.0001745" fill="#5A4A42" transform="translate(107.699030, 675.793110) rotate(-44.578656) translate(-107.699030, -675.793110) " cx="107.698507" cy="675.792587" r="30"></circle>
                        <rect id="Rectangle-path" stroke="#BABCBE" stroke-width="1.00001745" fill="#BABCBE" transform="translate(79.480830, 647.255010) rotate(-44.578656) translate(-79.480830, -647.255010) " x="75.5807619" y="637.154834" width="7.8" height="20.2"></rect>
                        <path d="M102.9,660 C102.9,660 87.4,664.8 90.6,681.8 C90.6,681.8 99.3,662 102.9,660 L102.9,660 Z" id="Shape" fill="#716558"></path>
                        <path d="M419.8,860 C419.8,860 398.6,871.4 386.3,879.4 C374,887.4 341.3,881.4 341.3,881.4" id="Shape" stroke="#BABCBE" stroke-width="3"></path>
                        <path d="M331.6,784.8 L341.9,784.8 C357.5,784.8 370.2,797.5 370.2,813.1 L370.2,835.4 C370.2,851 357.5,863.7 341.9,863.7 L331.6,863.7 C316,863.7 303.3,851 303.3,835.4 L303.3,813.1 C303.3,797.5 316,784.8 331.6,784.8 L331.6,784.8 Z" id="Shape" fill="#BABCBE"></path>
                        <path d="M622.2,665.2 L653.1,665.2 C661.9,665.2 669.1,672.4 669.1,681.2 L669.1,707.5 C669.1,716.3 661.9,723.5 653.1,723.5 L622.2,723.5 C613.4,723.5 606.2,716.3 606.2,707.5 L606.2,681.2 C606.2,672.3 613.4,665.2 622.2,665.2 L622.2,665.2 Z" id="Shape" fill="#BABCBE"></path>
                        <path d="M630.4,683.1 L645,683.1 C651.1,683.1 656.1,688.1 656.1,694.2 L656.1,694.5 C656.1,700.6 651.1,705.6 645,705.6 L630.4,705.6 C624.3,705.6 619.3,700.6 619.3,694.5 L619.3,694.2 C619.3,688.1 624.3,683.1 630.4,683.1 L630.4,683.1 Z" id="Shape" fill="#FFFFFF"></path>
                        <path d="M323.9,1010.3 L323.9,635.5 C323.9,632.3 326.5,629.7 329.7,629.7 L343.9,629.7 C347.1,629.7 349.7,632.3 349.7,635.5 L349.7,1010.3 C349.7,1013.5 347.1,1016.1 343.9,1016.1 L329.7,1016.1 C326.5,1016.1 323.9,1013.5 323.9,1010.3 L323.9,1010.3 Z" id="Shape" fill="#CFD1D2"></path>
                        <rect id="Rectangle-path" fill="#BABCBE" x="413.8" y="707.6" width="73.3" height="281.4"></rect>
                        <rect id="Rectangle-path" stroke="#BABCBE" stroke-width="3" fill="#FFFFFF" x="467.6" y="860.1" width="13.2" height="66.1"></rect>
                        <rect id="Rectangle-path" stroke="#BABCBE" stroke-width="3" fill="#FFFFFF" x="467.6" y="926" width="13.2" height="13.3"></rect>
                        <rect id="Rectangle-path" stroke="#BABCBE" stroke-width="3" fill="#FFFFFF" x="467.6" y="939.3" width="13.2" height="13.3"></rect>
                        <rect id="Rectangle-path" stroke="#BABCBE" stroke-width="3" fill="#FFFFFF" x="467.6" y="952.6" width="13.2" height="13.3"></rect>
                        <rect id="Rectangle-path" stroke="#BABCBE" stroke-width="3" fill="#FFFFFF" x="467.6" y="965.9" width="13.2" height="13.3"></rect>
                        <rect id="Rectangle-path" stroke="#BABCBE" stroke-width="3" fill="#FFFFFF" x="467.6" y="807.1" width="13.2" height="13.3"></rect>
                        <rect id="Rectangle-path" stroke="#BABCBE" stroke-width="3" fill="#FFFFFF" x="467.6" y="820.3" width="13.2" height="13.3"></rect>
                        <rect id="Rectangle-path" stroke="#BABCBE" stroke-width="3" fill="#FFFFFF" x="467.6" y="833.6" width="13.2" height="13.3"></rect>
                        <rect id="Rectangle-path" stroke="#BABCBE" stroke-width="3" fill="#FFFFFF" x="467.6" y="846.8" width="13.2" height="13.3"></rect>
                        <rect id="Rectangle-path" stroke="#BABCBE" stroke-width="3" fill="#FFFFFF" x="454.5" y="926" width="13.2" height="13.3"></rect>
                        <rect id="Rectangle-path" stroke="#BABCBE" stroke-width="3" fill="#FFFFFF" x="454.5" y="939.3" width="13.2" height="13.3"></rect>
                        <rect id="Rectangle-path" stroke="#BABCBE" stroke-width="3" fill="#FFFFFF" x="454.5" y="952.6" width="13.2" height="26.5"></rect>
                        <rect id="Rectangle-path" stroke="#BABCBE" stroke-width="3" fill="#FFFFFF" x="441.3" y="932.7" width="13.2" height="13.3"></rect>
                        <rect id="Rectangle-path" stroke="#BABCBE" stroke-width="3" fill="#FFFFFF" x="441.3" y="946" width="13.2" height="13.3"></rect>
                        <rect id="Rectangle-path" stroke="#BABCBE" stroke-width="3" fill="#FFFFFF" x="441.3" y="959.2" width="13.2" height="19.9"></rect>
                        <rect id="Rectangle-path" stroke="#BABCBE" stroke-width="3" fill="#FFFFFF" x="428.1" y="926" width="13.2" height="13.3"></rect>
                        <rect id="Rectangle-path" stroke="#BABCBE" stroke-width="3" fill="#FFFFFF" x="428.1" y="939.3" width="13.2" height="13.3"></rect>
                        <rect id="Rectangle-path" stroke="#BABCBE" stroke-width="3" fill="#FFFFFF" x="428.1" y="952.6" width="13.2" height="13.3"></rect>
                        <rect id="Rectangle-path" stroke="#BABCBE" stroke-width="3" fill="#FFFFFF" x="428.1" y="965.9" width="13.2" height="13.3"></rect>
                        <rect id="Rectangle-path" stroke="#BABCBE" stroke-width="3" fill="#FFFFFF" x="454.4" y="873.2" width="13.2" height="13.3"></rect>
                        <rect id="Rectangle-path" stroke="#BABCBE" stroke-width="3" fill="#FFFFFF" x="454.4" y="886.5" width="13.2" height="13.3"></rect>
                        <rect id="Rectangle-path" stroke="#BABCBE" stroke-width="3" fill="#FFFFFF" x="454.4" y="899.7" width="13.2" height="13.3"></rect>
                        <rect id="Rectangle-path" stroke="#BABCBE" stroke-width="3" fill="#FFFFFF" x="454.4" y="913" width="13.2" height="13.3"></rect>
                        <rect id="Rectangle-path" stroke="#BABCBE" stroke-width="3" fill="#FFFFFF" x="441.3" y="879.9" width="13.2" height="13.3"></rect>
                        <rect id="Rectangle-path" stroke="#BABCBE" stroke-width="3" fill="#FFFFFF" x="441.3" y="893.1" width="13.2" height="13.3"></rect>
                        <rect id="Rectangle-path" stroke="#BABCBE" stroke-width="3" fill="#FFFFFF" x="441.3" y="906.3" width="13.2" height="13.3"></rect>
                        <rect id="Rectangle-path" stroke="#BABCBE" stroke-width="3" fill="#FFFFFF" x="441.3" y="919.6" width="13.2" height="13.3"></rect>
                        <rect id="Rectangle-path" stroke="#BABCBE" stroke-width="3" fill="#FFFFFF" x="428.1" y="873.2" width="13.2" height="13.3"></rect>
                        <rect id="Rectangle-path" stroke="#BABCBE" stroke-width="3" fill="#FFFFFF" x="428.1" y="886.5" width="13.2" height="13.3"></rect>
                        <rect id="Rectangle-path" stroke="#BABCBE" stroke-width="3" fill="#FFFFFF" x="428.1" y="899.7" width="13.2" height="13.3"></rect>
                        <rect id="Rectangle-path" stroke="#BABCBE" stroke-width="3" fill="#FFFFFF" x="428.1" y="913" width="13.2" height="13.3"></rect>
                        <rect id="Rectangle-path" stroke="#BABCBE" stroke-width="3" fill="#FFFFFF" x="454.4" y="833.6" width="13.2" height="13.3"></rect>
                        <rect id="Rectangle-path" stroke="#BABCBE" stroke-width="3" fill="#FFFFFF" x="454.4" y="846.8" width="13.2" height="13.3"></rect>
                        <rect id="Rectangle-path" stroke="#BABCBE" stroke-width="3" fill="#FFFFFF" x="454.4" y="860.1" width="13.2" height="13.3"></rect>
                        <rect id="Rectangle-path" stroke="#BABCBE" stroke-width="3" fill="#FFFFFF" x="441.3" y="827" width="13.2" height="13.3"></rect>
                        <rect id="Rectangle-path" stroke="#BABCBE" stroke-width="3" fill="#FFFFFF" x="441.3" y="840.2" width="13.2" height="13.3"></rect>
                        <rect id="Rectangle-path" stroke="#BABCBE" stroke-width="3" fill="#FFFFFF" x="441.3" y="853.5" width="13.2" height="13.3"></rect>
                        <rect id="Rectangle-path" stroke="#BABCBE" stroke-width="3" fill="#FFFFFF" x="441.3" y="866.8" width="13.2" height="13.3"></rect>
                        <rect id="Rectangle-path" stroke="#BABCBE" stroke-width="3" fill="#FFFFFF" x="428.1" y="820.3" width="13.2" height="13.3"></rect>
                        <rect id="Rectangle-path" stroke="#BABCBE" stroke-width="3" fill="#FFFFFF" x="428.1" y="833.6" width="13.2" height="13.3"></rect>
                        <rect id="Rectangle-path" stroke="#BABCBE" stroke-width="3" fill="#FFFFFF" x="428.1" y="846.8" width="13.2" height="13.3"></rect>
                        <rect id="Rectangle-path" stroke="#BABCBE" stroke-width="3" fill="#FFFFFF" x="428.1" y="860.1" width="13.2" height="13.3"></rect>
                        <rect id="Rectangle-path" stroke="#BABCBE" stroke-width="3" fill="#FFFFFF" x="454.5" y="807.1" width="13.2" height="26.5"></rect>
                        <rect id="Rectangle-path" stroke="#BABCBE" stroke-width="3" fill="#FFFFFF" x="441.3" y="807.1" width="13.2" height="19.9"></rect>
                        <rect id="Rectangle-path" stroke="#BABCBE" stroke-width="3" fill="#FFFFFF" x="428.2" y="807.1" width="13.2" height="13.3"></rect>
                        <rect id="Rectangle-path" stroke="#BABCBE" stroke-width="3" fill="#FFFFFF" x="420.7" y="926.1" width="7.4" height="13.3"></rect>
                        <rect id="Rectangle-path" stroke="#BABCBE" stroke-width="3" fill="#FFFFFF" x="420.7" y="939.4" width="7.4" height="13.3"></rect>
                        <rect id="Rectangle-path" stroke="#BABCBE" stroke-width="3" fill="#FFFFFF" x="420.7" y="952.7" width="7.4" height="13.3"></rect>
                        <rect id="Rectangle-path" stroke="#BABCBE" stroke-width="3" fill="#FFFFFF" x="420.7" y="966" width="7.4" height="13.3"></rect>
                        <rect id="Rectangle-path" stroke="#BABCBE" stroke-width="3" fill="#FFFFFF" x="420.7" y="873.3" width="7.4" height="13.3"></rect>
                        <rect id="Rectangle-path" stroke="#BABCBE" stroke-width="3" fill="#FFFFFF" x="420.7" y="886.5" width="7.4" height="13.3"></rect>
                        <rect id="Rectangle-path" stroke="#BABCBE" stroke-width="3" fill="#FFFFFF" x="420.7" y="899.8" width="7.4" height="13.3"></rect>
                        <rect id="Rectangle-path" stroke="#BABCBE" stroke-width="3" fill="#FFFFFF" x="420.7" y="913.1" width="7.4" height="13.3"></rect>
                        <rect id="Rectangle-path" stroke="#BABCBE" stroke-width="3" fill="#FFFFFF" x="420.7" y="820.4" width="7.4" height="13.3"></rect>
                        <rect id="Rectangle-path" stroke="#BABCBE" stroke-width="3" fill="#FFFFFF" x="420.7" y="807.1" width="7.4" height="13.3"></rect>
                        <rect id="Rectangle-path" stroke="#BABCBE" stroke-width="3" fill="#FFFFFF" x="420.7" y="833.7" width="7.4" height="13.3"></rect>
                        <rect id="Rectangle-path" stroke="#BABCBE" stroke-width="3" fill="#FFFFFF" x="421.9" y="729.2" width="7.4" height="13.3"></rect>
                        <rect id="Rectangle-path" stroke="#BABCBE" stroke-width="3" fill="#FFFFFF" x="421.9" y="716" width="7.4" height="13.3"></rect>
                        <rect id="Rectangle-path" stroke="#BABCBE" stroke-width="3" fill="#FFFFFF" x="421.9" y="742.5" width="7.4" height="13.3"></rect>
                        <rect id="Rectangle-path" stroke="#BABCBE" stroke-width="3" fill="#FFFFFF" x="470.9" y="787.4" width="10.7" height="13.3"></rect>
                        <rect id="Rectangle-path" stroke="#BABCBE" stroke-width="3" fill="#FFFFFF" x="470.9" y="774.6" width="10.7" height="13.3"></rect>
                        <rect id="Rectangle-path" stroke="#BABCBE" stroke-width="3" fill="#FFFFFF" x="470.9" y="761.6" width="10.7" height="13.3"></rect>
                        <rect id="Rectangle-path" stroke="#BABCBE" stroke-width="3" fill="#FFFFFF" x="460.2" y="774.9" width="10.7" height="13.3"></rect>
                        <rect id="Rectangle-path" stroke="#BABCBE" stroke-width="3" fill="#FFFFFF" x="420.7" y="847" width="7.4" height="13.3"></rect>
                        <rect id="Rectangle-path" stroke="#BABCBE" stroke-width="3" fill="#FFFFFF" x="420.7" y="860.2" width="7.4" height="13.3"></rect>
                        <rect id="Rectangle-path" stroke="#BABCBE" stroke-width="3" fill="#FFFFFF" x="442.5" y="742.5" width="13.2" height="13.3"></rect>
                        <rect id="Rectangle-path" stroke="#BABCBE" stroke-width="3" fill="#FFFFFF" x="455.6" y="742.5" width="26.4" height="13.3"></rect>
                        <rect id="Rectangle-path" stroke="#BABCBE" stroke-width="3" fill="#FFFFFF" x="429.3" y="742.5" width="13.2" height="13.3"></rect>
                        <rect id="Rectangle-path" stroke="#BABCBE" stroke-width="3" fill="#FFFFFF" x="429.3" y="729.2" width="13.2" height="13.3"></rect>
                        <rect id="Rectangle-path" stroke="#BABCBE" stroke-width="3" fill="#FFFFFF" x="429.3" y="716" width="13.2" height="13.3"></rect>
                        <rect id="Rectangle-path" stroke="#BABCBE" stroke-width="3" fill="#FFFFFF" x="442.5" y="729.2" width="13.2" height="13.3"></rect>
                        <rect id="Rectangle-path" stroke="#BABCBE" stroke-width="3" fill="#FFFFFF" x="442.5" y="716" width="13.2" height="13.3"></rect>
                        <rect id="Rectangle-path" stroke="#BABCBE" stroke-width="3" fill="#FFFFFF" x="455.6" y="729.2" width="13.2" height="13.3"></rect>
                        <rect id="Rectangle-path" stroke="#BABCBE" stroke-width="3" fill="#FFFFFF" x="455.6" y="716" width="13.2" height="13.3"></rect>
                        <rect id="Rectangle-path" stroke="#BABCBE" stroke-width="3" fill="#FFFFFF" x="468.8" y="715.9" width="13.2" height="26.5"></rect>
                        <rect id="Rectangle-path" fill="#FFD25E" transform="translate(535.622383, 733.531020) rotate(-2.049918) translate(-535.622383, -733.531020) " x="515.921595" y="713.830233" width="39.4" height="39.4"></rect>
                        <rect id="Rectangle-path" fill="#284250" opacity="0.3" transform="translate(527.450641, 732.647037) rotate(-2.290612) translate(-527.450641, -732.647037) " x="525.300643" y="719.49705" width="4.3" height="26.3"></rect>
                        <rect id="Rectangle-path" fill="#284250" opacity="0.3" transform="translate(533.673356, 738.330995) rotate(-2.049918) translate(-533.673356, -738.330995) " x="531.523271" y="729.430639" width="4.3" height="17.8"></rect>
                        <rect id="Rectangle-path" fill="#FFD25E" transform="translate(478.220548, 669.926771) rotate(-2.049918) translate(-478.220548, -669.926771) " x="458.51976" y="650.225984" width="39.4" height="39.4"></rect>
                        <rect id="Rectangle-path" fill="#284250" opacity="0.3" transform="translate(466.468904, 670.777478) rotate(-2.049918) translate(-466.468904, -670.777478) " x="464.318818" y="657.626952" width="4.3" height="26.3"></rect>
                        <rect id="Rectangle-path" fill="#284250" opacity="0.3" transform="translate(476.267944, 674.626306) rotate(-2.049918) translate(-476.267944, -674.626306) " x="474.117858" y="665.72595" width="4.3" height="17.8"></rect>
                        <rect id="Rectangle-path" fill="#FFD25E" transform="translate(547.073490, 671.230280) rotate(-9.137349) translate(-547.073490, -671.230280) " x="527.3737" y="651.53049" width="39.4" height="39.4"></rect>
                        <rect id="Rectangle-path" fill="#284250" opacity="0.3" transform="translate(535.610305, 673.468865) rotate(-9.137349) translate(-535.610305, -673.468865) " x="533.460328" y="660.319005" width="4.3" height="26.3"></rect>
                        <rect id="Rectangle-path" fill="#284250" opacity="0.3" transform="translate(545.114955, 671.968415) rotate(-9.137349) translate(-545.114955, -671.968415) " x="542.964978" y="658.818555" width="4.3" height="26.3"></rect>
                        <rect id="Rectangle-path" fill="#284250" opacity="0.3" transform="translate(555.110415, 673.415500) rotate(-9.137349) translate(-555.110415, -673.415500) " x="552.960438" y="663.315607" width="4.3" height="20.2"></rect>
                        <circle id="Oval" fill="#F0F0F1" cx="194.5" cy="671" r="38.2"></circle>
                        <path d="M194.5,642.4 C179,642.4 166.4,655 166.4,670.5 C166.4,686 179,698.6 194.5,698.6 C210,698.6 222.6,686 222.6,670.5 C222.6,654.9 210,642.4 194.5,642.4 L194.5,642.4 L194.5,642.4 Z M194,679.2 C189,679.2 185,675.2 185,670.2 C185,665.2 189,661.2 194,661.2 C199,661.2 203,665.2 203,670.2 C203,675.2 199,679.2 194,679.2 L194,679.2 Z" id="Shape" fill="#DEAE7E"></path>
                        <path d="M194.5,646.6 C181.3,646.6 170.6,657.3 170.6,670.5 C170.6,683.7 181.3,694.4 194.5,694.4 C207.7,694.4 218.4,683.7 218.4,670.5 C218.4,657.3 207.7,646.6 194.5,646.6 L194.5,646.6 L194.5,646.6 Z M194,679.2 C189,679.2 185,675.2 185,670.2 C185,665.2 189,661.2 194,661.2 C199,661.2 203,665.2 203,670.2 L203,670.2 C203,675.1 199,679.1 194,679.2 L194,679.2 L194,679.2 Z" id="Shape" fill="#C74564"></path>
                        <path d="M570.3,778 L656.3,778 C669.1,778 679.5,788.4 679.5,801.2 L679.5,801.2 L679.5,965.5 L679.5,965.5 L547.1,965.5 L547.1,965.5 L547.1,801.2 C547.1,788.4 557.5,778 570.3,778 L570.3,778 L570.3,778 Z" id="Shape" fill="#273135"></path>
                        <polyline id="Shape" fill="#717B7D" points="562 927.2 562 965.5 664.1 965.5 664.1 927.1"></polyline>
                        <path d="M664.3,928 L664.2,803.2 C664.3,798.6 660.6,794.8 656.1,794.7 L570.3,794.7 C565.7,794.8 562.1,798.6 562.2,803.2 L562.3,928.4" id="Shape" fill="#586366"></path>
                        <circle id="Oval" fill="#586366" cx="613" cy="947.4" r="12.1"></circle>
                        <circle id="Oval" fill="#717B7D" cx="613" cy="947.4" r="5.3"></circle>
                        <rect id="Rectangle-path" fill="#586366" x="631.4" y="939.4" width="6.4" height="16"></rect>
                        <rect id="Rectangle-path" fill="#586366" x="643.7" y="939.4" width="6.4" height="16"></rect>
                        <rect id="Rectangle-path" fill="#586366" x="576.8" y="939.4" width="6.4" height="16"></rect>
                        <rect id="Rectangle-path" fill="#586366" x="589.1" y="939.4" width="6.4" height="16"></rect>
                        <path d="M641.3,942.4 L655.5,959.2 C658.2,962.3 657.8,967 654.6,969.7 L654.5,969.8 C651.4,972.5 646.7,972.1 644,968.9 L629.8,952.1 C627.1,949 627.5,944.3 630.7,941.6 L630.8,941.5 C634,938.9 638.7,939.3 641.3,942.4 L641.3,942.4 Z" id="Shape" fill="#FAD2AB"></path>
                        <path d="M768.2,868.9 L768.2,886.6 C768.2,882.8 768.1,878.8 768.1,874.7 C768.1,868.5 768.1,872.5 768.2,868.9 L768.2,868.9 Z" id="Shape" fill="#0FA6B5"></path>
                    </g>
                    <g id="About_people" transform="translate(0.000000, 742.000000)">
                        <path d="M330.521851,106.02681 C327.120566,107.393558 312.779777,94.6170552 312.779777,94.6170552 L302.541302,92.7399387 L306.747472,98.9508589 C308.566202,101.626221 307.870671,105.268659 305.193959,107.086472 C302.517247,108.904285 298.872972,108.209105 297.054242,105.533742 L285.04156,87.7919632 C284.946358,87.644908 284.851157,87.4978528 284.76461,87.3421472 C282.384576,84.375092 281.475835,80.257546 281.865296,78.1382209 L286.357069,53.6319018 C287.014824,50.0420245 296.6994,49.6181595 300.64593,50.3447853 L320.551671,57.6196933 C323.422549,58.0851032 325.74958,60.1973613 326.488775,63.0088344 C328.340874,66.3305521 332.616281,74.4099387 332.616281,78.1468712 C332.598972,82.8699387 337.385004,103.241411 330.521851,106.02681 L330.521851,106.02681 Z" id="Shape" fill="#F9D1AA"></path>
                        <path d="M320.612254,191.630245 C320.746651,194.538464 319.151609,197.25206 316.544559,198.550491 L299.711225,211.378896 C296.154156,213.238712 286.781148,215.704049 285.084833,212.477485 L273.487575,190.401902 C272.483633,188.490184 272.128792,184.286135 273.539503,180.739509 C273.571038,180.570257 273.611483,180.402785 273.660668,180.237791 L279.866067,159.736564 C280.618361,157.274045 282.889588,155.589904 285.465638,155.584417 C286.037585,155.583116 286.606484,155.667678 287.153299,155.835276 C290.238282,156.775583 291.982878,160.031037 291.056555,163.118834 L288.884233,170.298589 L298.110111,165.471718 C298.110111,165.471718 308.011054,149.036135 311.663325,149.312945 C319.054413,149.927117 320.525707,170.800307 321.945073,175.341718 C323.078835,178.914294 321.391174,187.910613 320.612254,191.630245 L320.612254,191.630245 Z" id="Shape" fill="#F9D1AA"></path>
                        <path d="M73.3916024,243.471534 C73.3916024,243.471534 57.345844,186.569816 51.4606684,140.930798 C45.5754927,95.2917791 72.4915167,45.7774233 72.4915167,45.7774233 C72.4915167,45.7774233 166.827421,0.795828221 189.857498,0.795828221 C212.887575,0.795828221 287.473522,51.9018405 287.473522,51.9018405 L282.047044,81.4772393 L191.493231,51.2703681 L179.151671,59.2805521 L179.151671,227.208957 L194.4012,227.56362 L272.423051,185.618282 L286.945587,213.991288 C286.945587,213.991288 211.97018,280.797607 189.485347,281.610736 C121.044216,284.058773 73.3916024,243.471534 73.3916024,243.471534 L73.3916024,243.471534 Z" id="Shape" fill="#E4617B"></path>
                        <rect id="Rectangle-path" fill="#F9D1AA" x="42.7540703" y="78.2939264" width="114.068552" height="125.749509" rx="57.0342759"></rect>
                        <rect id="Rectangle-path" fill="#F9D1AA" x="132.001028" y="130.83589" width="31.8059126" height="23.658589" rx="11.8292945"></rect>
                        <rect id="Rectangle-path" fill="#F9D1AA" x="77.1823479" y="62.3687117" width="27.2016281" height="151.406319" rx="13.6008141"></rect>
                        <path d="M2.95989717,139.339141 C1.83479006,123.950245 2.59640103,107.670368 13.2070266,94.4613497 C21.2472151,84.4442945 34.4628963,77.0742331 49.0546701,72.9480368 C63.6464439,68.8218405 79.5537275,67.7578528 95.1148243,68.6228834 C100.047986,68.8823926 105.136932,69.3668098 109.403685,71.2179755 C113.670437,73.0691411 116.846701,76.3303067 119.789289,79.4184663 L126.886118,86.8750307 C128.963239,89.054908 131.118252,91.3991411 131.282691,94.0807362 C131.447129,96.7623313 128.68629,99.7034356 125.094602,99.4179755 C133.281919,107.263804 138.52665,116.779141 140.205656,126.649141 C140.515045,127.691325 140.380395,128.814928 139.833505,129.754601 C138.96846,130.794684 137.509149,131.118416 136.28509,130.541779 C139.7896,135.558807 143.706416,140.275135 147.994859,144.641779 L134.432991,152.582761 C139.703685,154.165767 139.17575,159.823067 137.704456,163.931963 L130.24413,184.779202 C128.937275,188.420982 127.604456,192.123313 124.938817,195.323926 C120.611482,200.51411 113.168466,203.861779 105.361954,205.57454 C97.5554413,207.287301 89.32485,207.54681 81.1894602,207.711166 C62.7290488,208.074479 42.7886889,207.711166 28.0324764,199.354969 C11.1904884,189.839632 5.95441302,172.789877 3.68688946,157.07227 C2.67754513,150.062757 2.02472057,143.006568 1.73093402,135.93092" id="Shape" fill="#23222D"></path>
                        <path d="M4.04173093,139.339141 C3.07240788,125.360245 3.66958012,110.723926 11.5539846,98.6134969 C19.5682091,86.3127607 33.5368466,78.8648466 47.2285347,74.6521472 C62.4001714,69.9896319 78.5151671,68.9083436 94.3012853,69.6782209 C102.765553,70.0934356 110.018166,71.4082822 116.301457,77.4634969 C118.897858,79.9374847 121.286547,82.653681 123.753128,85.248773 C125.484062,87.0480368 127.517909,88.8473006 128.868038,90.9320245 C131.196144,94.5305521 129.59503,98.3539877 125.094602,98.4318405 C124.663079,98.4424763 124.278447,98.7065196 124.113624,99.1052649 C123.948801,99.5040103 124.034813,99.9623996 124.332991,100.274356 C128.356508,104.154857 131.775559,108.616043 134.476264,113.509325 C135.713744,115.794055 136.750427,118.181855 137.574636,120.645828 C138.067952,122.133681 141.123051,131.026196 136.588003,129.581595 C136.164703,129.473176 135.717526,129.627788 135.451734,129.974462 C135.185942,130.321136 135.152869,130.792918 135.367695,131.173252 C138.954181,136.241411 142.923866,141.027501 147.241902,145.489509 L147.458269,143.759448 L133.896401,151.700429 C133.537364,151.930122 133.343582,152.346596 133.399193,152.769026 C133.454804,153.191457 133.749778,153.543653 134.156041,153.672699 C141.625021,156.535951 134.917652,168.603129 133.229991,173.317546 C130.63359,180.566503 128.781491,189.753129 123.389632,195.505583 C113.34156,206.240613 95.5648672,206.379018 82.0116538,206.664479 C55.9005141,207.209448 24.1378749,206.448221 11.043359,179.519816 C4.6302485,166.181043 3.46186804,150.446135 2.81276778,135.93092 C2.75218509,134.546871 0.588517566,134.538221 0.649100257,135.93092 C1.31550985,150.515337 2.59640103,166.08589 8.70659811,179.485215 C14.6090831,192.365521 25.5139674,201.110982 38.9979434,205.072822 C54.8446444,209.743988 72.1626392,209.268221 88.5026564,208.576196 C102.479949,207.987975 120.931705,205.85135 128.357412,192.080061 C130.495116,188.118221 131.767352,183.663313 133.273265,179.450613 C135.090746,174.381534 137.055356,169.338405 138.725707,164.217423 C140.396058,159.096442 140.335476,153.69865 134.701285,151.536074 L134.960925,153.508344 L148.522793,145.567362 C148.820664,145.397123 149.020995,145.096684 149.063555,144.756376 C149.106114,144.416069 148.985939,144.075587 148.73916,143.837301 C144.546063,139.524639 140.689249,134.897638 137.202485,129.99681 L135.982177,131.588466 C143.580977,134.010552 140.785518,123.457178 139.634447,119.988405 C136.908226,111.805215 131.9491,104.686012 125.838903,98.6653988 L125.077292,100.507914 C128.66898,100.447362 132.451071,98.1031288 132.347215,94.0893865 C132.286632,91.9441104 130.962468,89.9631902 129.664267,88.3628834 C126.868809,84.9027607 123.605998,81.8492025 120.542245,78.6658896 C116.21491,74.1763804 111.809683,70.3788957 105.638903,68.8391411 C98.8709512,67.1523313 91.5231362,67.230184 84.6080548,67.2647853 C58.6440446,67.3945399 26.4313625,73.4497546 10.4894602,96.2779141 C1.73093402,108.872761 0.865467009,124.512515 1.87806341,139.339141 C1.97326478,140.72319 4.13693231,140.73184 4.04173093,139.339141 L4.04173093,139.339141 Z" id="Shape" fill="#23222D"></path>
                        <polygon id="Shape" fill="#D15472" points="179.212254 59.1421472 179.212254 70.5259509 163.806941 69.8944785"></polygon>
                        <path d="M179.082434,219.440982 L169.043016,220.392515 C176.460069,214.389202 176.676435,174.822699 176.650471,138.889325 C176.509291,115.924748 174.742209,92.9989486 171.362468,70.2837423 L179.255527,70.5259509 L179.082434,219.440982 Z" id="Shape" fill="#D15472"></path>
                        <polygon id="Shape" fill="#D15472" points="159.133419 221.949571 179.117052 219.440982 179.117052 227.208957"></polygon>
                        <path d="M942.311825,64.8773006 C942.311825,64.8773006 957.171894,117.574969 962.632991,159.849018 C968.094087,202.123067 943.151328,247.969693 943.151328,247.969693 C943.151328,247.969693 886.55844,276.783865 865.259297,276.853067 C843.960154,276.92227 781.923479,256.594049 781.923479,256.594049 L787.704799,227.658773 L844.332305,235.444049 L844.392888,79.920184 L760.563753,109.218773 L750.732048,86.970184 C750.732048,86.970184 825.361268,30.2760736 846.17575,29.186135 C866.990231,28.0961963 942.311825,64.8773006 942.311825,64.8773006 L942.311825,64.8773006 Z" id="Shape" fill="#6F2F88"></path>
                        <path d="M787.981748,227.053252 L782.849529,255.019693 C782.122536,258.972883 775.501714,260.746196 769.867524,259.673558 L749.563668,254.146012 C745.608483,253.419387 742.847644,246.888405 743.574636,242.900613 L742.198543,211.932515 C742.198543,206.577975 746.7509,205.340982 750.697429,206.067607 L782.113882,218.593252 C786.056269,219.333574 788.671137,223.103562 787.981748,227.053252 L787.981748,227.053252 Z" id="Shape" fill="#F9D1AA"></path>
                        <path d="M755.327678,85.4390798 L764.640103,105.845153 C766.297598,109.514747 764.682055,113.833568 761.022451,115.516196 L731.362896,129.477791 C727.710626,131.147301 723.288089,129.841104 721.686975,123.041963 L722.915938,101.346994 C723.495801,97.2553988 722.915938,93.3368098 726.53359,91.6759509 L739.108826,85.2055215 C742.743787,83.5360123 753.657326,81.7886503 755.327678,85.4390798 L755.327678,85.4390798 Z" id="Shape" fill="#F9D1AA"></path>
                        <rect id="Rectangle-path" fill="#F9D1AA" transform="translate(909.817866, 152.997975) rotate(180.000000) translate(-909.817866, -152.997975) " x="856.994087" y="94.7641104" width="105.647558" height="116.46773" rx="52.8237789"></rect>
                        <rect id="Rectangle-path" fill="#F9D1AA" transform="translate(865.263625, 154.386350) rotate(180.000000) translate(-865.263625, -154.386350) " x="850.537704" y="143.430736" width="29.4518423" height="21.911227" rx="10.9556135"></rect>
                        <rect id="Rectangle-path" fill="#F9D1AA" transform="translate(918.160968, 150.134724) rotate(180.000000) translate(-918.160968, -150.134724) " x="905.564096" y="80.0239877" width="25.1937446" height="140.221472" rx="12.5968723"></rect>
                        <path d="M984.607198,139.269939 C982.120441,134.729141 980.118837,129.939312 978.635476,124.979632 C976.904542,119.261779 975.874636,113.258466 972.940703,108.068282 C966.735304,97.1083436 953.407112,92.1344172 940.840531,91.1396319 C924.033162,89.8074847 903.954327,88.2244785 889.033676,97.6879141 C878.284576,104.513006 874.485176,118.223742 873.204284,130.143865 C872.538289,136.604204 872.503506,143.114024 873.100428,149.581104 C873.965895,159.165644 875.766067,159.511656 885.303513,159.563558 L878.258612,164.97 C876.91008,165.8796 875.73725,167.025463 874.796744,168.35227 C870.945416,174.57184 878.7,173.499202 882.222451,174.052822 L880.128021,178.377975 C879.098115,180.523252 878.059554,182.703129 877.12485,184.865706 C876.87506,185.340205 876.747177,185.869316 876.752699,186.40546 C876.808321,186.771346 876.925362,187.125217 877.098886,187.452147 C883.157155,200.695767 896.476692,208.723252 910.852099,210.65227 C917.26521,211.517301 923.643702,210.09865 930.117395,210.046748 C938.740256,209.978409 947.336503,209.080401 955.787147,207.365153 C958.848749,206.857917 961.821654,205.914059 964.61491,204.562454 C973.26958,199.969141 976.835304,189.441718 978.176778,179.727423 C978.964353,174.009571 975.9006,173.767362 981.257841,170.281288 C982.227164,174.182577 987.44593,175.281166 990.98569,177.037178 C993.703256,178.386626 996.49006,174.312331 998.359469,171.916196 C1001.82134,167.51319 1001.03376,167.418037 1002.04636,164.667239 C1003.05895,161.916442 1008.10463,155.878528 1008.10463,152.946074 C1008.10463,139.87546 1003.87249,135.853067 1002.84259,129.590245 C1002.71993,128.332547 1002.31142,127.119478 1001.64824,126.04362 C1000.94667,124.955568 999.640641,124.420296 998.376778,124.702822 C999.003908,123.533059 999.049194,122.137852 998.49924,120.929921 C997.949286,119.72199 996.867048,118.839611 995.572665,118.543804 C994.497999,118.449798 993.415359,118.570357 992.387746,118.898466 C988.847986,119.763497 985.065895,120.818834 982.755099,123.638834 C980.825107,125.991718 976.454499,132.418896 984.16581,139.944663 C977.294002,135.36 972.551243,126.804847 968.232562,119.953804 C963.507112,112.462638 958.712425,104.815767 951.979092,99.0892638 C945.245758,93.3627607 936.063153,89.7469325 927.443102,91.7884049" id="Shape" fill="#23222D"></path>
                        <path d="M985.541902,138.75092 C981.153985,130.533129 979.483633,121.891472 976.385261,113.232515 C974.333334,107.149014 970.418308,101.865032 965.194773,98.1290798 C953.580206,89.8853374 938.365296,89.478773 924.638989,89.1241104 C910.912682,88.7694479 894.918852,90.1707975 884.438046,99.9283436 C874.857326,108.85546 872.252271,123.344724 871.689717,135.835767 C871.447326,140.813391 871.592005,145.802312 872.122451,150.757546 C872.364781,152.920123 872.581148,155.342209 873.732219,157.253926 C876.06898,161.120613 881.400257,160.644847 885.303513,160.714049 L884.758269,158.698528 C881.538732,161.172515 871.482005,166.483804 872.736932,171.872945 C873.602399,175.601227 879.452956,174.84865 882.257069,175.203313 L881.322365,173.577055 C879.591431,177.10638 877.479692,180.696258 876.224764,184.41589 C875.359297,186.872577 876.129563,188.152822 877.349871,190.375951 C880.285937,195.641354 884.381975,200.170165 889.327935,203.619571 C894.230199,207.037217 899.736759,209.494106 905.555441,210.859877 C913.284062,212.711043 920.67515,211.577853 928.498972,211.266442 C936.712254,210.93773 944.787061,210.557117 952.905141,209.112515 C959.223051,207.987975 965.497686,206.569325 970.162554,201.837607 C974.32545,197.616258 976.67952,191.889755 978.072922,186.223804 C978.867314,183.440629 979.314971,180.570094 979.405741,177.677301 C979.405741,174.493988 978.756641,173.404049 981.81174,171.302025 L980.21928,170.653252 C981.327078,173.758712 983.77635,175.160061 986.692973,176.440307 C989.609597,177.720552 992.145416,179.372761 995.113967,177.262086 C1000.8174,173.205092 1002.28869,166.016687 1005.81114,160.45454 C1007.70651,157.470184 1009.27301,155.022147 1009.21243,151.449571 C1009.16045,147.031336 1008.39775,142.650221 1006.95356,138.47411 C1005.99289,135.671411 1004.73796,132.989816 1004.08021,130.091963 C1003.31859,126.752945 1002.48775,123.465828 998.428706,123.630184 L999.36341,125.256442 C1000.56641,122.531595 999.874036,119.045521 996.844901,117.799877 C993.261868,116.320675 986.788175,118.99362 983.862896,121.164847 C976.887232,126.355031 977.899829,134.901534 983.421508,140.72319 L984.728363,138.993129 C973.477292,131.026196 968.28449,116.303374 959.854841,105.74135 C951.953128,95.8626994 940.329906,88.068773 927.174807,90.7330675 C925.807369,91.0098773 926.387232,93.0946012 927.746015,92.8177914 C943.532134,89.6171779 955.44096,102.333129 963.31671,114.253252 C969.374979,123.448528 974.386033,134.330613 983.62922,140.861595 C984.659126,141.588221 985.758269,139.996564 984.936075,139.131534 C981.231877,135.230245 979.526907,130.671534 982.469494,125.836012 C983.46209,124.194908 984.883316,122.855143 986.580463,121.960675 C987.771869,121.356732 989.021701,120.875601 990.310626,120.524724 L991.50497,120.196012 C994.043673,119.198344 996.028478,120.501656 997.459383,124.105951 C997.27522,124.441758 997.279301,124.849184 997.470152,125.18124 C997.661004,125.513295 998.011082,125.722057 998.394087,125.732209 C1001.37129,125.611104 1004.26195,137.176564 1005.13608,139.85816 C1007.06607,145.844172 1008.18252,152.28 1004.81585,157.833497 C1003.56958,159.90092 1002.01174,161.85589 1001.09434,164.096319 C1000.65208,165.543086 1000.1291,166.963961 999.527849,168.35227 C997.892117,171.353926 994.637961,176.25 990.604884,175.635828 C987.740189,175.203313 983.274379,172.712025 982.287746,169.952577 C982.196382,169.629427 981.961086,169.366411 981.649965,169.239659 C981.338844,169.112907 980.986635,169.136572 980.695287,169.303804 C977.787318,171.302025 976.82665,172.495767 977.094944,175.921288 C977.501714,181.068221 976.004456,186.716871 974.074464,191.49184 C971.400171,198.083374 966.891088,203.022699 960.001971,205.211227 C952.827249,207.486258 944.830334,208.221534 937.352699,208.67135 C923.669666,209.53638 909.657755,211.49135 896.848843,205.401534 C891.65584,202.96676 887.034732,199.465096 883.286975,195.124969 C880.820394,192.235767 877.471037,188.144172 878.639417,184.069877 C879.565467,180.817362 881.703171,177.573497 883.16581,174.55454 C883.349972,174.218732 883.345892,173.811306 883.15504,173.479251 C882.964189,173.147196 882.614111,172.938434 882.231105,172.928282 C880.387661,172.694724 874.943873,173.334847 874.969837,170.419693 C874.969837,168.309018 878.544216,166.09454 879.972237,164.97 L885.848757,160.46319 C886.257865,160.209328 886.45195,159.71732 886.326261,159.252708 C886.200573,158.788096 885.784871,158.460882 885.303513,158.447669 C881.114653,158.447669 876.1988,159.009939 874.857326,154.122515 C873.126392,147.928896 873.550471,140.489632 873.948586,134.148957 C874.701542,122.038528 877.583548,107.800123 887.718166,99.9283436 C898.328792,91.6932515 913.145587,90.8455215 926.032391,91.2780368 C938.408569,91.6673006 951.788689,92.073865 962.563753,98.9162577 C969.703856,103.449018 973.382091,110.057853 975.62365,118.042086 C977.752699,125.619755 979.950985,132.83411 983.681148,139.806258 C984.338903,141.034601 986.208312,139.944663 985.550557,138.716319 L985.541902,138.75092 Z" id="Shape" fill="#23222D"></path>
                        <path d="M865.267952,91.5202454 L852.285947,90.6552147 C845.838218,105.447239 844.6006,134.036503 844.366924,145.558712 L844.366924,79.9634356 L865.267952,91.5202454 Z" id="Shape" fill="#632E7C"></path>
                        <path d="M850.537704,229.146626 L844.401542,229.146626 L844.401542,160.895706 C844.998715,213.065706 850.537704,229.146626 850.537704,229.146626 L850.537704,229.146626 Z" id="Shape" fill="#632E7C"></path>
                        <polygon id="Shape" fill="#632E7C" points="867.068123 229.414785 855.704542 236.957853 844.34096 235.487301 844.401542 229.146626"></polygon>
                        <path d="M752.956298,105.412638 L754.825707,108.872761 C756.429816,111.842885 755.331348,115.550279 752.367781,117.168405 L740.251243,123.742638 C737.279621,125.345939 733.570356,124.248024 731.951414,121.285951 L731.527335,120.161411 C729.926221,117.203006 731.440788,114.512761 733.985261,111.865767 L746.101799,103.933436 C749.035733,102.298528 751.320566,102.454233 752.956298,105.412638 L752.956298,105.412638 Z" id="Shape" fill="#E9BA93"></path>
                        <polygon id="Shape" fill="#344144" points="749.961782 85.2055215 757.872151 88.3455828 755.604627 94.0807362 734.443959 147.418528 727.641388 153.006626 726.53359 144.287117 747.685604 90.9406748"></polygon>
                        <rect id="Rectangle-path" fill="#F9D1AA" transform="translate(748.113401, 113.880318) rotate(-28.480000) translate(-748.113401, -113.880318) " x="732.171499" y="107.370962" width="31.8838046" height="13.0187117" rx="6.50935583"></rect>
                    </g>
                </g>
            </g>
        </g>
    </g>
</svg>