<svg id="Layer_1" data-name="Layer 1" xmlns="http://www.w3.org/2000/svg" viewBox="0 0 358.7 598.8"><defs><style>.cls-1,.cls-5{fill:#d0dde3;}.cls-2{fill:#8351a0;}.cls-3{fill:#fbfcfa;}.cls-4{fill:#8d5daf;}.cls-5{opacity:0.62;}</style></defs><title>webmocup_v2</title><path class="cls-1" d="M179.36,598.8H328.22a30.44,30.44,0,0,0,26.36-45.65L205.71,295.3a30.15,30.15,0,0,0-26.36-15.22Z"/><path class="cls-2" d="M179.35,410.09V587.15H313.06a27.34,27.34,0,0,0,23.67-41L258.18,410.09Z"/><path class="cls-3" d="M179.35,598.8H30.48A30.44,30.44,0,0,1,4.12,553.14L153,295.3a30.15,30.15,0,0,1,26.36-15.22Z"/><rect class="cls-3" x="126.94" y="148.75" width="52.41" height="215.69"/><rect class="cls-1" x="179.35" y="148.75" width="52.41" height="215.69"/><path class="cls-1" d="M179.35,148.75h42.46c14.72,0,26.65-6.5,26.65-14.52V122.5c0-8-11.93-14.52-26.65-14.52H179.35Z"/><path class="cls-3" d="M179.67,148.75H137.21c-14.72,0-26.65-6.5-26.65-14.52V122.5c0-8,11.93-14.52,26.65-14.52h42.46Z"/><path class="cls-4" d="M180.18,410.09V587.15H46.47a27.34,27.34,0,0,1-23.67-41l78.55-136.06Z"/><circle class="cls-5" cx="115" cy="435.04" r="11.94"/><circle class="cls-5" cx="141.21" cy="393.63" r="11.94"/><circle class="cls-5" cx="213.91" cy="11.94" r="11.94"/><circle class="cls-5" cx="153.15" cy="59.22" r="11.94"/><circle class="cls-5" cx="160.44" cy="482.85" r="8.66" transform="translate(-294.43 254.87) rotate(-45)"/></svg>