<svg id="Layer_1" data-name="Layer 1" xmlns="http://www.w3.org/2000/svg" viewBox="0 0 2236 1080.01"><defs><style>.cls-1{fill:#564f4c;}.cls-2,.cls-26,.cls-29{fill:#96c;}.cls-2{opacity:0.32;}.cls-23,.cls-3{fill:#cfd1d2;}.cls-22,.cls-4{fill:#f0f0f1;}.cls-5{fill:#c3556a;}.cls-6,.cls-62{fill:#e4617b;}.cls-7{fill:#e5e6e7;}.cls-42,.cls-53,.cls-8,.cls-9{fill:#808083;}.cls-10,.cls-9{stroke:#808083;}.cls-10,.cls-22,.cls-23,.cls-29,.cls-32,.cls-33,.cls-39,.cls-42,.cls-43,.cls-52,.cls-53,.cls-54,.cls-60,.cls-64,.cls-66,.cls-9{stroke-miterlimit:10;}.cls-9{stroke-width:2px;}.cls-10,.cls-37{fill:#a5a7aa;}.cls-10{stroke-width:8px;}.cls-11{fill:#7a56b9;}.cls-12{fill:#038c7f;}.cls-13{fill:#069180;}.cls-14{fill:#04998b;}.cls-15{fill:#00a59b;}.cls-16{fill:#aa9787;}.cls-17{fill:#998675;}.cls-18{fill:#716558;}.cls-19{fill:#665a4f;}.cls-20{fill:#23222d;}.cls-21{fill:#31313f;}.cls-22,.cls-23{stroke:#23222d;stroke-width:6px;}.cls-24,.cls-25{fill:#a9a9c9;}.cls-24{opacity:0.65;}.cls-27{fill:#5b3e7c;}.cls-28{fill:#b24f67;}.cls-29,.cls-32,.cls-33,.cls-39{stroke:#fff;}.cls-29{stroke-width:14px;opacity:0.24;}.cls-30{opacity:0.4;}.cls-31{font-size:69px;font-family:SofiaProBold, Sofia Pro;font-weight:700;}.cls-31,.cls-65{fill:#fff;}.cls-32,.cls-33,.cls-39,.cls-43,.cls-52,.cls-54,.cls-64,.cls-66{fill:none;}.cls-32{stroke-width:22px;}.cls-33,.cls-52{stroke-width:10px;}.cls-34{fill:#ffd25e;}.cls-35{fill:#f9e48f;}.cls-36{fill:#929293;}.cls-38{fill:#babcbe;}.cls-40{fill:#ffeeb6;}.cls-40,.cls-41{opacity:0.64;}.cls-41{fill:#fcf3d0;}.cls-42,.cls-53,.cls-64{stroke:#6d6e70;}.cls-43{stroke:#f0f0f1;stroke-width:12px;}.cls-44{fill:#998379;}.cls-45{fill:#404041;}.cls-46{fill:#f7e1d0;}.cls-47{fill:#4e4e4f;}.cls-48{fill:#ebeded;}.cls-49{fill:#fbfcfa;}.cls-50{fill:#f27779;opacity:0.73;}.cls-51{fill:#d0dde3;opacity:0.62;}.cls-52,.cls-54,.cls-60{stroke:#716558;}.cls-53,.cls-64{stroke-width:3px;}.cls-54{stroke-width:7px;}.cls-55,.cls-61{fill:#efc056;}.cls-56{fill:#f7d186;}.cls-57{fill:#e0b153;opacity:0.66;}.cls-58{fill:#ddad4e;}.cls-59{fill:#5a4a42;}.cls-60{fill:#f7f5df;stroke-width:13px;}.cls-61{opacity:0.19;}.cls-62{opacity:0.42;}.cls-63{fill:#efcaa8;}.cls-66{stroke:#58595b;stroke-width:5px;}.cls-67{fill:#eab847;}.cls-68{fill:#ffecc7;}</style></defs><title>projects</title><rect class="cls-1" y="736.25" width="2236" height="343.76"/><rect class="cls-2" x="45.12" y="793.26" width="2146.17" height="283.98"/><rect class="cls-3" x="1618.92" y="70.11" width="552.6" height="639.78"/><rect class="cls-4" x="1599.16" y="709.89" width="592.13" height="26.36"/><rect class="cls-4" x="1599.16" y="499.06" width="592.13" height="26.36"/><rect class="cls-4" x="1599.16" y="267.77" width="592.13" height="26.36"/><rect class="cls-4" x="1599.16" y="42.5" width="592.13" height="40.79"/><rect class="cls-4" x="1599.16" y="56.93" width="39.53" height="666.14"/><rect class="cls-4" x="2151.76" y="70.11" width="39.53" height="666.14"/><rect class="cls-5" x="1638.67" y="99" width="41.27" height="168.77"/><rect class="cls-6" x="1679.94" y="129.6" width="41.27" height="138.17"/><rect class="cls-5" x="1721.21" y="114.92" width="50.81" height="152.85"/><polygon class="cls-5" points="1896.18 258.37 1857.95 267.86 1822.64 143.44 1860.88 133.94 1896.18 258.37"/><rect class="cls-6" x="1772.02" y="114.92" width="50.63" height="152.85"/><rect class="cls-3" x="584.97" y="274.69" width="252.03" height="292.05" transform="translate(-16.83 29.84) rotate(-2.38)"/><rect class="cls-7" x="576.16" y="266.24" width="252.03" height="292.05"/><rect class="cls-8" x="602.89" y="321.11" width="193.49" height="80.92"/><rect class="cls-9" x="602.89" y="297.34" width="193.49" height="11.42"/><line class="cls-10" x1="602.89" y1="420.72" x2="688.28" y2="420.72"/><line class="cls-10" x1="710.99" y1="420.72" x2="796.38" y2="420.72"/><line class="cls-10" x1="602.89" y1="443" x2="688.28" y2="443"/><line class="cls-10" x1="710.99" y1="443" x2="796.38" y2="443"/><line class="cls-10" x1="602.89" y1="465.29" x2="688.28" y2="465.29"/><line class="cls-10" x1="710.99" y1="465.29" x2="796.38" y2="465.29"/><line class="cls-10" x1="602.89" y1="487.57" x2="688.28" y2="487.57"/><line class="cls-10" x1="710.99" y1="487.57" x2="796.38" y2="487.57"/><line class="cls-10" x1="602.89" y1="509.85" x2="688.28" y2="509.85"/><line class="cls-10" x1="710.99" y1="509.85" x2="796.38" y2="509.85"/><line class="cls-10" x1="602.89" y1="532.14" x2="688.28" y2="532.14"/><line class="cls-10" x1="710.99" y1="532.14" x2="796.38" y2="532.14"/><circle class="cls-11" cx="702.18" cy="273.24" r="12.91"/><path class="cls-12" d="M536.67,617.21c-10-54-38.05-48.64-38.05-48.64-1.05,41.77,22.05,48.64,22.05,48.64Z"/><path class="cls-13" d="M565.09,623.06s9.15-53.87-43.25-81.87c0,0-8.34,53.79,16.71,89Z"/><path class="cls-14" d="M601.54,617.21c10-54,38.05-48.64,38.05-48.64,1.05,41.77-22.05,48.64-22.05,48.64Z"/><path class="cls-15" d="M571.87,622.9s-9-53.91,43.51-81.67c0,0,8.17,53.82-17,88.89Z"/><path class="cls-14" d="M553.67,629.45s-10-84.2,14-103.42c0,0,28.73,29.13,22.37,103.42"/><rect class="cls-16" x="503.61" y="614.78" width="130.49" height="121.49"/><rect class="cls-17" x="565.7" y="614.78" width="68.41" height="121.49"/><rect class="cls-18" x="493.76" y="708.06" width="150.21" height="28.21"/><rect class="cls-19" x="565.7" y="708.06" width="78.27" height="28.21"/><rect class="cls-20" x="46" y="606.82" width="196.41" height="129.43" rx="19.33" ry="19.33"/><circle class="cls-21" cx="158.98" cy="676.73" r="54.52"/><path class="cls-22" d="M132.34,706.76A40.13,40.13,0,1,1,185.9,647"/><path class="cls-23" d="M185.9,647a40.13,40.13,0,0,1-53.56,59.79"/><rect class="cls-21" x="72" y="600" width="32.46" height="6.82"/><rect class="cls-24" x="66" y="622.21" width="31.33" height="11.02"/><rect class="cls-25" x="218.67" y="622.21" width="11.02" height="11.02" rx="5.51" ry="5.51"/><rect class="cls-26" x="1638.69" y="557.54" width="166.84" height="152.35"/><rect class="cls-27" x="1700.24" y="571.78" width="43.73" height="14.32" rx="6.8" ry="6.8"/><rect class="cls-6" x="1811.8" y="557.54" width="166.84" height="152.35"/><rect class="cls-28" x="1873.36" y="571.78" width="43.73" height="14.32" rx="6.8" ry="6.8"/><rect class="cls-29" x="1058.38" y="45.53" width="449.25" height="576.95"/><g class="cls-30"><text class="cls-31" transform="translate(1120.59 180.01)">OH CROP!</text></g><g class="cls-30"><polyline class="cls-32" points="1429.12 468.38 1193.62 468.38 1193.62 224.95"/><polyline class="cls-32" points="1136.88 287.23 1368.88 287.23 1368.88 519.23"/><line class="cls-33" x1="1195.31" y1="465.36" x2="1403.66" y2="253.81"/></g><rect class="cls-26" x="1984.86" y="557.54" width="166.84" height="152.35"/><rect class="cls-27" x="2046.42" y="571.78" width="43.73" height="14.32" rx="6.8" ry="6.8"/><polyline class="cls-34" points="1760.2 447.32 1743.42 447.32 1718.27 395.1 1760.38 395.42"/><polyline class="cls-35" points="1760.38 395.42 1802.13 395.74 1777.24 447.32 1760.2 447.32"/><rect class="cls-8" x="1724.57" y="443.09" width="35.75" height="17.18"/><rect class="cls-36" x="1760.39" y="443.09" width="35.75" height="17.18"/><rect class="cls-37" x="1718.47" y="451.68" width="83.46" height="46.31"/><rect class="cls-38" x="1760.33" y="451.68" width="41.9" height="46.26"/><path class="cls-34" d="M1760.33,423.74a45.2,45.2,0,1,1,0-90.4"/><path class="cls-35" d="M1760.33,333.33a45.2,45.2,0,1,1,0,90.4"/><path class="cls-39" d="M1746.25,395.1s2.08-6.1,4.67-5.1,10.08,9.5,20.08,0c0,0,5.38-.55,5.31,2.49"/><path class="cls-40" d="M1760.33,413.05a32,32,0,1,1,0-63.92"/><path class="cls-41" d="M1760.33,349.13a32,32,0,0,1,0,63.92"/><line class="cls-42" x1="1757.5" y1="443.09" x2="1744.33" y2="386.91"/><line class="cls-42" x1="1763.73" y1="443.09" x2="1778.27" y2="387.81"/><path class="cls-4" d="M350.74,636.69h62.65v53.89a45.68,45.68,0,0,1-45.68,45.68H333.77a45.68,45.68,0,0,1-45.68-45.68V636.69h62.65"/><rect class="cls-43" x="369.87" y="653.98" width="74.32" height="51.54" rx="20" ry="20"/><rect class="cls-26" x="1528.13" y="488.35" width="18.95" height="109.96" transform="translate(108.93 -243.01) rotate(9.37)"/><rect class="cls-18" x="1487.21" y="476.4" width="18.95" height="118.7" transform="translate(-20.84 62.24) rotate(-2.37)"/><rect class="cls-44" x="1483.26" y="476.47" width="22.34" height="9.29" transform="translate(-18.59 62.1) rotate(-2.37)"/><rect class="cls-15" x="1456.66" y="501.9" width="20.25" height="138.04" transform="translate(2999.31 929.83) rotate(171.91)"/><rect class="cls-15" x="1448.35" y="488.52" width="21.68" height="57.86" transform="translate(2976.66 824.48) rotate(171.91)"/><rect class="cls-15" x="1469.07" y="515.95" width="3.94" height="43.76" transform="matrix(-0.99, 0.14, -0.14, -0.99, 3003.12, 863.37)"/><rect class="cls-34" x="1445.93" y="526.6" width="20.14" height="96.67" transform="translate(-99.31 397.49) rotate(-15.04)"/><rect class="cls-6" x="1432.3" y="518.09" width="20.14" height="12.22" transform="translate(-86.62 392.21) rotate(-15.04)"/><rect class="cls-45" x="1434.31" y="527.35" width="20.14" height="8.65" transform="translate(-88.49 392.99) rotate(-15.04)"/><rect class="cls-26" x="1473.42" y="502.31" width="11.24" height="138.04" transform="translate(-54.19 167.37) rotate(-6.36)"/><rect class="cls-26" x="1462.02" y="488.62" width="18.95" height="57.86" transform="translate(-48.28 166.2) rotate(-6.36)"/><rect class="cls-26" x="1464.49" y="518.24" width="3.45" height="43.76" transform="translate(-50.81 165.76) rotate(-6.36)"/><rect class="cls-15" x="1502.19" y="493.35" width="11.24" height="160.58" transform="translate(15.47 -39.11) rotate(1.49)"/><rect class="cls-18" x="1529.53" y="527.42" width="14.13" height="138.33" transform="translate(223.73 -400.12) rotate(15.99)"/><rect class="cls-44" x="1546.35" y="529.94" width="16.46" height="7.72" transform="translate(207.13 -407.5) rotate(15.99)"/><rect class="cls-15" x="1498.37" y="482.98" width="18.95" height="61.14" transform="translate(13.9 -39.13) rotate(1.49)"/><rect class="cls-15" x="1497.98" y="513.59" width="3.45" height="43.76" transform="translate(14.47 -38.91) rotate(1.49)"/><rect class="cls-34" x="1479.04" y="506.31" width="17.83" height="100.78"/><rect class="cls-34" x="1510.22" y="509" width="19.87" height="96.67" transform="translate(71.98 -166.73) rotate(6.43)"/><rect class="cls-6" x="1516.1" y="499.02" width="19.87" height="12.22" transform="translate(66.17 -167.72) rotate(6.43)"/><rect class="cls-45" x="1515.24" y="508.49" width="19.87" height="8.65" transform="translate(67.02 -167.58) rotate(6.43)"/><rect class="cls-45" x="1444.39" y="585.65" width="104.96" height="150.6"/><path class="cls-45" d="M1548.85,528.14s-10.76-19.22,19.4-42.22c0,0,11.37,37.42-5.81,46.11Z"/><polygon class="cls-46" points="1479.04 506.31 1487.95 482.5 1496.87 506.31 1479.04 506.31"/><polygon class="cls-45" points="1487.95 482.5 1490.39 489.01 1485.52 489.01 1487.95 482.5"/><path class="cls-45" d="M1484.77,476.85s-10.1-20.18,6.9-48.51c0,0,22.33,23,12,47.73Z"/><rect class="cls-47" x="1444.81" y="585.65" width="36.98" height="150.6"/><path class="cls-48" d="M1320.25,736.68h56.84a11.62,11.62,0,0,0,10.06-17.43l-56.84-98.46a11.51,11.51,0,0,0-10.07-5.81Z"/><path class="cls-6" d="M1320.25,664.62v67.61h51.06a10.44,10.44,0,0,0,9-15.66l-30-52Z"/><path class="cls-49" d="M1320.25,736.68h-56.84a11.62,11.62,0,0,1-10.06-17.43l56.84-98.46a11.51,11.51,0,0,1,10.07-5.81Z"/><rect class="cls-49" x="1300.24" y="564.83" width="20.01" height="82.36"/><rect class="cls-48" x="1320.25" y="564.83" width="20.01" height="82.36"/><path class="cls-48" d="M1320.25,564.83h16.21c5.62,0,10.17-2.48,10.17-5.54v-4.48c0-3.06-4.56-5.54-10.17-5.54h-16.21Z"/><path class="cls-49" d="M1320.37,564.83h-16.21c-5.62,0-10.17-2.48-10.17-5.54v-4.48c0-3.06,4.56-5.54,10.17-5.54h16.21Z"/><path class="cls-50" d="M1320.57,664.62v67.61h-51.06a10.44,10.44,0,0,1-9-15.66l30-52Z"/><circle class="cls-51" cx="1295.68" cy="674.15" r="4.56"/><circle class="cls-51" cx="1305.69" cy="658.34" r="4.56"/><circle class="cls-51" cx="1313.03" cy="692.41" r="3.31" transform="translate(-105.03 1131.25) rotate(-45)"/><line class="cls-52" x1="2021.65" y1="489.05" x2="2021.65" y2="469.55"/><line class="cls-53" x1="1979.44" y1="315.41" x2="2063.86" y2="454.74"/><circle class="cls-15" cx="2021.65" cy="385.07" r="71.04"/><path class="cls-54" d="M1980.89,311.83c-39.23,24.13-53.44,77.69-29.31,116.92s77.12,49.93,116.35,25.81"/><rect class="cls-18" x="1997.54" y="488.17" width="48.22" height="10.87"/><path class="cls-4" d="M2030.95,314.51s-18.12,19.3-17,23.83,1.65,10.19,8.47,7.36c0,0-8.57,9.63-8.52,14.73,0,0-.57,10.65,8.52,2.49,0,0,2.86,14.87,10.79,3.08,0,0,5.1-11.23,9.63-5.57s-4.53,5.67-4.53,14.73,3.4,21,14.16,18.12,7.43,26.14,17,18.17,14.69-30,9-45.63-23.22-9.36-21.52-15.59S2073,336,2073,336,2058.42,317.91,2030.95,314.51Z"/><path class="cls-4" d="M1979.44,349.86c-9.09,5.66-10.22,13.29-5.69,13.82s7.55,10.72,14,5.82,2.64-14.73,2.64-14.73,5.66-5.66,3-7.93S1979.44,349.86,1979.44,349.86Z"/><path class="cls-4" d="M1954.29,407.69s10.83-13.66,25.15-14,17.73,13.37,18.1,20.47-1.89,27.51,4.15,31.65-5.64,5.58-5.64,5.58S1965,441.74,1954.29,407.69Z"/><path class="cls-55" d="M1037,607l-26.29,104.3s-4.32,19,8,22.88,21.58,2,25.9-10.47S1037,607,1037,607Z"/><path class="cls-55" d="M1172,607l26.29,104.3s4.32,19-8,22.88-21.58,2-25.9-10.47S1172,607,1172,607Z"/><path class="cls-55" d="M1089.23,508.34h30.46a52.19,52.19,0,0,1,52.19,52.19V736.14a0,0,0,0,1,0,0H1037a0,0,0,0,1,0,0V560.53a52.19,52.19,0,0,1,52.19-52.19Z"/><path class="cls-56" d="M1096,609.46h17.17a29.26,29.26,0,0,1,29.26,29.26v97.42a0,0,0,0,1,0,0h-76a0,0,0,0,1,0,0V639A29.57,29.57,0,0,1,1096,609.46Z"/><circle class="cls-55" cx="1051.87" cy="519.89" r="21.62"/><path class="cls-56" d="M1048.43,533.44a12.79,12.79,0,1,1,15.94-15"/><circle class="cls-55" cx="1155.12" cy="519.89" r="21.62"/><path class="cls-57" d="M1026.75,722.55c-5.51-7.73,10.73-75.76,13.67-82l2,71.82S1038.59,739.16,1026.75,722.55Z"/><path class="cls-57" d="M1183,722.7c6.94-4.24-11.38-75.91-14.34-82.1l-.93,50.39S1166.76,732.65,1183,722.7Z"/><rect class="cls-58" x="1030.25" y="679.41" width="56.73" height="56.73" rx="20" ry="20"/><rect class="cls-58" x="1124.02" y="678.93" width="57.21" height="57.21" rx="20" ry="20"/><circle class="cls-59" cx="1066.46" cy="572" r="3.84"/><circle class="cls-59" cx="1144.83" cy="571.92" r="3.84"/><path class="cls-59" d="M1098.9,595l-9.41-8.16a8.49,8.49,0,0,1,5.56-14.9h18.83a8.49,8.49,0,0,1,5.56,14.9L1110,595A8.49,8.49,0,0,1,1098.9,595Z"/><rect class="cls-55" x="1037.85" y="703.54" width="41.54" height="28.03" rx="10.85" ry="10.85"/><rect class="cls-55" x="1131.86" y="703.54" width="41.54" height="28.03" rx="10.85" ry="10.85"/><circle class="cls-55" cx="1042.4" cy="695.59" r="5.37"/><circle class="cls-55" cx="1059.19" cy="692.83" r="5.37"/><circle class="cls-55" cx="1075.66" cy="695.79" r="5.37"/><circle class="cls-55" cx="1135.99" cy="695.59" r="5.37"/><circle class="cls-55" cx="1152.78" cy="692.83" r="5.37"/><circle class="cls-55" cx="1169.26" cy="695.79" r="5.37"/><path class="cls-56" d="M1158.42,533.44a12.79,12.79,0,1,0-15.94-15"/><rect class="cls-60" x="236.8" y="282.79" width="195" height="243.72"/><polygon class="cls-61" points="242.58 351.66 261.58 351.66 324.08 293.14 376.76 355.75 379.58 519.95 242.58 520 242.58 351.66"/><path class="cls-55" d="M259.24,363.53s-3,39.43,4,47.47,14.36-20.67,14.36-20.67l-11.87-29.86"/><ellipse class="cls-55" cx="273.13" cy="417.27" rx="13.89" ry="12.32"/><polyline class="cls-62" points="425.08 321.13 406.16 321.13 394.4 356.82 394.4 519.96 425.08 519.96"/><rect class="cls-63" x="355.08" y="303.8" width="50.3" height="102.02" rx="20" ry="20"/><rect class="cls-63" x="262.27" y="342.48" width="50.3" height="74.78" rx="17.69" ry="17.69"/><path class="cls-11" d="M358.19,417.51h44.09a11.66,11.66,0,0,1,11.66,11.66V520.3a0,0,0,0,1,0,0h-67.4a0,0,0,0,1,0,0V429.16a11.66,11.66,0,0,1,11.66-11.66Z"/><path class="cls-11" d="M272.87,426.57H302a11.66,11.66,0,0,1,11.66,11.66V520.3a0,0,0,0,1,0,0H261.21a0,0,0,0,1,0,0V438.23A11.66,11.66,0,0,1,272.87,426.57Z"/><circle class="cls-64" cx="359.61" cy="354.81" r="16.1"/><circle class="cls-64" cx="400.85" cy="354.81" r="16.1"/><line class="cls-64" x1="375.7" y1="354.81" x2="384.76" y2="354.81"/><rect class="cls-63" x="374.31" y="396.3" width="11.83" height="27.5"/><rect class="cls-63" x="282.63" y="410.05" width="9.57" height="18.65"/><ellipse class="cls-63" cx="380.2" cy="426.57" rx="9.19" ry="5.86"/><rect class="cls-7" x="371.01" y="426.57" width="18.38" height="93.72"/><polygon class="cls-65" points="283.54 434.05 273.09 426.45 282.63 425.38 287.35 428.81 283.54 434.05"/><polygon class="cls-65" points="301.85 426.67 290.66 434.31 287.42 428.7 292.2 425.93 301.85 426.67"/><path class="cls-55" d="M286.45,341.13c-39.82.19-24.18,41.54-24.18,41.54,3-26.8,24.18-32.35,24.18-32.35s27.18-.57,26.12,46.63C312.57,396.95,326.07,340.94,286.45,341.13Z"/><path class="cls-11" d="M347.25,426.57S327,483.35,327,490.63s-1.91,21.06,0,23.74,13.24,5.93,13.24,5.93H356"/><rect class="cls-63" x="326.53" y="502.11" width="27.5" height="18.23" rx="5.14" ry="5.14"/><line class="cls-66" x1="338.69" y1="502.11" x2="338.69" y2="386.44"/><path class="cls-66" d="M360.06,386.44v42.37c0,7.13-5,13-11.21,13h-20.3c-6.17,0-11.21-5.83-11.21-13V386.44"/><rect class="cls-67" x="1948.08" y="144" width="154.42" height="123.77"/><rect class="cls-34" x="1944.43" y="144" width="154.42" height="123.77"/><rect class="cls-37" x="1952.46" y="139.51" width="4.39" height="8.83"/><rect class="cls-37" x="1964.6" y="139.51" width="4.39" height="8.83"/><rect class="cls-37" x="1976.74" y="139.51" width="4.39" height="8.83"/><rect class="cls-37" x="1988.88" y="139.51" width="4.39" height="8.83"/><rect class="cls-37" x="2001.02" y="139.51" width="4.39" height="8.83"/><rect class="cls-37" x="2013.15" y="139.51" width="4.39" height="8.83"/><rect class="cls-37" x="2025.29" y="139.51" width="4.39" height="8.83"/><rect class="cls-37" x="2037.43" y="139.51" width="4.39" height="8.83"/><rect class="cls-37" x="2049.57" y="139.51" width="4.39" height="8.83"/><rect class="cls-37" x="2061.71" y="139.51" width="4.39" height="8.83"/><rect class="cls-37" x="2073.85" y="139.51" width="4.39" height="8.83"/><rect class="cls-37" x="2085.99" y="139.51" width="4.39" height="8.83"/><rect class="cls-68" x="1952.46" y="155.33" width="136.43" height="22.21"/><rect class="cls-68" x="1952.46" y="183.67" width="15.14" height="15.14"/><rect class="cls-68" x="1972.67" y="183.67" width="15.14" height="15.14"/><rect class="cls-68" x="1992.89" y="183.67" width="15.14" height="15.14"/><rect class="cls-68" x="2013.1" y="183.67" width="15.14" height="15.14"/><rect class="cls-68" x="2033.32" y="183.67" width="15.14" height="15.14"/><rect class="cls-68" x="2053.53" y="183.67" width="15.14" height="15.14"/><rect class="cls-68" x="2073.75" y="183.67" width="15.14" height="15.14"/><rect class="cls-68" x="1952.46" y="203.34" width="15.14" height="15.14"/><rect class="cls-68" x="1972.67" y="203.34" width="15.14" height="15.14"/><rect class="cls-68" x="1992.89" y="203.34" width="15.14" height="15.14"/><rect class="cls-68" x="2013.1" y="203.34" width="15.14" height="15.14"/><rect class="cls-68" x="2033.32" y="203.34" width="15.14" height="15.14"/><rect class="cls-68" x="2053.53" y="203.34" width="15.14" height="15.14"/><rect class="cls-68" x="2073.75" y="203.34" width="15.14" height="15.14"/><rect class="cls-68" x="1952.46" y="223" width="15.14" height="15.14"/><rect class="cls-68" x="1972.67" y="223" width="15.14" height="15.14"/><rect class="cls-68" x="1992.89" y="223" width="15.14" height="15.14"/><rect class="cls-68" x="2013.1" y="223" width="15.14" height="15.14"/><rect class="cls-68" x="2033.32" y="223" width="15.14" height="15.14"/><rect class="cls-68" x="2053.53" y="223" width="15.14" height="15.14"/><rect class="cls-68" x="2073.75" y="223" width="15.14" height="15.14"/><rect class="cls-68" x="1952.46" y="242.67" width="15.14" height="15.14"/><rect class="cls-68" x="1972.67" y="242.67" width="15.14" height="15.14"/><rect class="cls-68" x="1992.89" y="242.67" width="15.14" height="15.14"/><rect class="cls-68" x="2013.1" y="242.67" width="15.14" height="15.14"/><rect class="cls-68" x="2033.32" y="242.67" width="15.14" height="15.14"/><rect class="cls-68" x="2053.53" y="242.67" width="15.14" height="15.14"/><rect class="cls-68" x="2073.75" y="242.67" width="15.14" height="15.14"/><rect class="cls-45" x="782.79" y="561.24" width="136.77" height="214.61" rx="15.66" ry="15.66" transform="translate(1519.98 -182.42) rotate(90.02)"/><rect class="cls-7" x="789.24" y="588.91" width="123.73" height="160.57" transform="translate(1520.57 -181.7) rotate(90.02)"/><polygon class="cls-3" points="931.38 731.09 770.84 607.31 770.8 731.04 931.38 731.09"/></svg>