<svg xmlns="http://www.w3.org/2000/svg" viewBox="0 0 506.98 87.78"><defs><style>.cls-2{fill:#9251f2;stroke:#9251f2;stroke-miterlimit:10;stroke-width:0.25px;}</style></defs><title>Asset 3</title><g id="Layer_2" data-name="Layer 2"><g id="Layer_1-2" data-name="Layer 1"><rect class="cls-2" x="373.29" y="18.92" width="9.36" height="28.98"/><rect class="cls-2" x="373.29" y="47.9" width="9.75" height="9.75"/><rect class="cls-2" x="402.56" y="58.4" width="9.75" height="9.75"/><rect class="cls-2" x="412.31" y="48.65" width="9.75" height="9.75"/><rect class="cls-2" x="431.81" y="77.91" width="9.75" height="9.75"/><rect class="cls-2" x="392.79" y="38.14" width="9.75" height="9.75"/><rect class="cls-2" x="383.04" y="47.9" width="9.75" height="9.75"/><rect class="cls-2" x="382.65" y="28.39" width="10.14" height="9.75"/><rect class="cls-2" x="363.54" y="19.16" width="9.75" height="18.85"/><rect class="cls-2" x="392.79" y="28.39" width="9.75" height="9.75"/><rect class="cls-2" x="382.66" y="19.17" width="39.77" height="9.22"/><rect class="cls-2" x="373.29" y="9.81" width="9.36" height="9.36"/><rect class="cls-2" x="382.66" y="9.81" width="19.89" height="9.36"/><rect class="cls-2" x="402.56" y="9.81" width="19.5" height="9.11"/><rect class="cls-2" x="422.06" y="9.81" width="19.5" height="9.11"/><rect class="cls-2" x="412.31" y="18.92" width="29.25" height="9.75"/><rect class="cls-2" x="402.56" y="28.39" width="9.75" height="9.75"/><rect class="cls-2" x="422.04" y="28.74" width="8.63" height="9.4"/><rect class="cls-2" x="296.22" y="77.91" width="9.75" height="9.75"/><rect class="cls-2" x="246.68" y="48.73" width="9.75" height="9.75"/><rect class="cls-2" x="256.78" y="29.45" width="9.75" height="9.5"/><rect class="cls-2" x="236.78" y="38.98" width="9.75" height="9.75"/><rect class="cls-2" x="207.43" y="28.06" width="9.75" height="9.75"/><rect class="cls-2" x="198.43" y="18.49" width="9.75" height="9.75"/><rect class="cls-2" x="186.44" y="18.49" width="11.99" height="9.75"/><rect class="cls-2" x="177.19" y="28.06" width="30.24" height="9.75"/><rect class="cls-2" x="89.29" y="28.58" width="29.25" height="9.75"/><rect class="cls-2" x="207.43" y="37.81" width="9.75" height="9.75"/><rect class="cls-2" x="197.68" y="48.07" width="9.75" height="9.75"/><rect class="cls-2" x="187.93" y="68.1" width="9.75" height="9.75"/><rect class="cls-2" x="314.78" y="48.42" width="9.75" height="9.75"/><rect class="cls-2" x="344.04" y="47.64" width="9.75" height="9.75"/><rect class="cls-2" x="333.13" y="68.16" width="9.75" height="9.75"/><rect class="cls-2" x="334.29" y="38.14" width="9.75" height="9.5"/><rect class="cls-2" x="305.03" y="38.67" width="9.75" height="9.75"/><rect class="cls-2" x="285.54" y="27.87" width="9.75" height="9.75"/><rect class="cls-2" x="295.28" y="18.58" width="9.75" height="9.3"/><rect class="cls-2" x="305.03" y="9.81" width="9.75" height="18.07"/><rect class="cls-2" x="314.78" y="19.4" width="9.75" height="19.25"/><rect class="cls-2" x="353.78" y="28.39" width="9.75" height="19.25"/><rect class="cls-2" x="324.53" y="19.15" width="9.75" height="9.75"/><rect class="cls-2" x="314.78" y="9.8" width="9.75" height="9.62"/><rect class="cls-2" x="334.28" y="9.81" width="45.26" height="9.36"/><rect class="cls-2" x="324.54" y="9.96" width="29.3" height="28.71"/><rect class="cls-2" x="276.59" y="19.15" width="8.94" height="8.94"/><rect class="cls-2" x="236.77" y="9.99" width="19.82" height="28.98"/><rect class="cls-2" x="167.29" y="18.49" width="9.75" height="9.75"/><rect class="cls-2" x="138.04" y="18.49" width="29.25" height="9.75"/><rect class="cls-2" x="157.54" y="28.06" width="9.75" height="10.13"/><rect class="cls-2" x="147.79" y="28.06" width="9.75" height="10.13"/><rect class="cls-2" x="138.04" y="28.06" width="9.75" height="10.13"/><rect class="cls-2" x="0.13" y="18.82" width="137.92" height="9.75"/><rect class="cls-2" x="118.54" y="28.58" width="9.75" height="9.75"/><rect class="cls-2" x="118.54" y="38.33" width="9.75" height="9.75"/><rect class="cls-2" x="128.3" y="38.33" width="9.75" height="9.75"/><rect class="cls-2" x="167.45" y="48.07" width="9.75" height="9.75"/><rect class="cls-2" x="157.54" y="38.33" width="9.75" height="9.75"/><rect class="cls-2" x="147.79" y="48.07" width="9.75" height="9.75"/><rect class="cls-2" x="147.79" y="57.82" width="9.75" height="9.75"/><rect class="cls-2" x="138.04" y="57.82" width="9.75" height="9.75"/><rect class="cls-2" x="118.54" y="57.82" width="9.75" height="9.75"/><rect class="cls-2" x="30.78" y="48.07" width="19.5" height="9.75"/><rect class="cls-2" x="50.28" y="57.82" width="9.75" height="9.75"/><rect class="cls-2" x="11.27" y="48.07" width="9.75" height="9.75"/><rect class="cls-2" x="11.27" y="67.58" width="9.75" height="9.75"/><rect class="cls-2" x="21.03" y="67.58" width="9.75" height="9.75"/><rect class="cls-2" x="40.53" y="77.33" width="9.75" height="9.75"/><rect class="cls-2" x="99.04" y="57.82" width="9.75" height="9.75"/><rect class="cls-2" x="99.04" y="67.58" width="9.75" height="9.75"/><rect class="cls-2" x="79.52" y="67.58" width="9.75" height="9.75"/><rect class="cls-2" x="1.53" y="48.07" width="9.75" height="9.75"/><rect class="cls-2" x="79.54" y="48.07" width="19.5" height="9.75"/><rect class="cls-2" x="108.79" y="38.33" width="9.75" height="9.75"/><rect class="cls-2" x="99.04" y="38.33" width="9.75" height="9.75"/><rect class="cls-2" x="79.52" y="38.33" width="9.75" height="9.75"/><rect class="cls-2" x="69.78" y="48.07" width="9.75" height="9.75"/><rect class="cls-2" x="60.04" y="47.55" width="9.75" height="29.77"/><rect class="cls-2" x="69.78" y="38.33" width="9.75" height="9.75"/><rect class="cls-2" x="60.04" y="38.33" width="9.75" height="9.75"/><rect class="cls-2" x="50.28" y="38.33" width="9.75" height="9.75"/><rect class="cls-2" x="40.53" y="38.33" width="9.75" height="9.75"/><rect class="cls-2" x="30.78" y="38.33" width="9.75" height="9.75"/><rect class="cls-2" x="21.01" y="28.58" width="58.51" height="19.5"/><rect class="cls-2" x="11.27" y="38.33" width="9.75" height="9.75"/><rect class="cls-2" x="1.53" y="25.91" width="9.75" height="22.16"/><rect class="cls-2" x="217.26" y="17.57" width="20.44" height="10.66"/><rect class="cls-2" x="267.16" y="9.81" width="28.13" height="9.11"/><rect class="cls-2" x="275.79" y="37.63" width="9.75" height="9.75"/><rect class="cls-2" x="459.94" y="68.23" width="9.75" height="9.75"/><rect class="cls-2" x="459.94" y="38.22" width="9.75" height="9.75"/><rect class="cls-2" x="479.44" y="18.71" width="27.41" height="19.51"/><rect class="cls-2" x="450.19" y="47.72" width="9.75" height="9.75"/><rect class="cls-2" x="450.19" y="28.75" width="9.75" height="9.75"/><rect class="cls-2" x="459.94" y="28.47" width="9.75" height="9.75"/><rect class="cls-2" x="469.69" y="28.47" width="9.75" height="9.75"/><rect class="cls-2" x="480.56" y="0.13" width="9.75" height="9.75"/><rect class="cls-2" x="470.82" y="0.13" width="9.75" height="9.75"/><rect class="cls-2" x="461.07" y="0.13" width="9.75" height="9.75"/><rect class="cls-2" x="451.31" y="0.13" width="9.75" height="9.75"/><rect class="cls-2" x="441.56" y="0.13" width="9.75" height="9.75"/><rect class="cls-2" x="431.81" y="0.13" width="9.75" height="9.75"/><rect class="cls-2" x="422.04" y="0.13" width="9.75" height="9.75"/><rect class="cls-2" x="412.31" y="0.13" width="9.75" height="9.75"/><rect class="cls-2" x="402.56" y="0.13" width="9.75" height="9.75"/><rect class="cls-2" x="392.79" y="0.13" width="9.75" height="9.75"/><rect class="cls-2" x="383.04" y="0.13" width="9.75" height="9.75"/><rect class="cls-2" x="373.29" y="0.13" width="9.75" height="9.75"/><rect class="cls-2" x="363.54" y="0.13" width="9.75" height="9.75"/><rect class="cls-2" x="353.78" y="0.13" width="9.75" height="9.75"/><rect class="cls-2" x="344.04" y="0.13" width="9.75" height="9.75"/><rect class="cls-2" x="334.29" y="0.13" width="9.75" height="9.75"/><rect class="cls-2" x="324.53" y="0.13" width="9.75" height="9.75"/><rect class="cls-2" x="314.78" y="0.13" width="9.75" height="9.75"/><rect class="cls-2" x="305.03" y="0.13" width="9.75" height="9.75"/><rect class="cls-2" x="295.28" y="0.13" width="9.75" height="9.75"/><rect class="cls-2" x="285.54" y="0.13" width="9.75" height="9.75"/><rect class="cls-2" x="275.79" y="0.13" width="9.75" height="9.75"/><rect class="cls-2" x="266.03" y="0.13" width="9.75" height="9.75"/><rect class="cls-2" x="256.28" y="0.13" width="9.75" height="9.75"/><rect class="cls-2" x="246.53" y="0.13" width="9.75" height="9.75"/><rect class="cls-2" x="480.56" y="38.22" width="9.75" height="9.75"/><rect class="cls-2" x="440.44" y="28.75" width="9.75" height="9.75"/><rect class="cls-2" x="430.69" y="38.22" width="9.75" height="9.75"/><rect class="cls-2" x="450.18" y="19" width="33.41" height="9.75"/><rect class="cls-2" x="451.31" y="9.75" width="39.01" height="9.75"/><rect class="cls-2" x="441.56" y="9.75" width="10.19" height="9.75"/></g></g></svg>
