<svg xmlns="http://www.w3.org/2000/svg" viewBox="0 0 512.38 180.79"><defs><style>.cls-1{fill:#1bedc5;}.cls-2{fill:#9251f2;stroke:#9251f2;stroke-miterlimit:10;stroke-width:0.25px;}</style></defs><title>Asset 1</title><g id="Layer_2" data-name="Layer 2"><g id="Layer_1-2" data-name="Layer 1"><rect class="cls-1" x="456.29" y="67.98" width="56.09" height="46.75"/><rect class="cls-1" x="474.97" y="58.63" width="37.4" height="9.35"/><rect class="cls-1" x="484.32" y="49.27" width="28.05" height="9.35"/><rect class="cls-1" x="493.67" y="39.92" width="18.7" height="9.35"/><rect class="cls-1" x="493.67" y="142.77" width="9.35" height="9.35"/><rect class="cls-1" x="456.29" y="77.33" width="9.35" height="9.35"/><rect class="cls-1" x="409.54" y="102.97" width="9.35" height="11.75"/><rect class="cls-1" x="400.19" y="86.66" width="9.35" height="9.35"/><rect class="cls-1" x="428.23" y="74.91" width="9.35" height="11.75"/><rect class="cls-1" x="446.94" y="77.33" width="9.35" height="9.35"/><rect class="cls-1" x="437.59" y="67.98" width="9.35" height="9.35"/><rect class="cls-1" x="484.32" y="30.58" width="9.35" height="9.35"/><rect class="cls-1" x="493.67" y="30.58" width="9.35" height="9.35"/><rect class="cls-1" x="493.67" y="21.23" width="9.35" height="9.35"/><rect class="cls-1" x="484.32" y="2.53" width="9.35" height="9.35"/><rect class="cls-1" x="446.94" y="30.58" width="9.35" height="9.35"/><rect class="cls-1" x="456.29" y="49.27" width="9.35" height="9.35"/><rect class="cls-1" x="465.63" y="46.87" width="9.35" height="21.1"/><rect class="cls-1" x="474.97" y="30.58" width="9.35" height="18.7"/><rect class="cls-1" x="381.48" y="105.36" width="9.35" height="9.35"/><rect class="cls-1" x="372.13" y="105.36" width="9.35" height="9.35"/><rect class="cls-1" x="381.48" y="96.02" width="9.35" height="9.35"/><rect class="cls-1" x="362.79" y="86.66" width="9.35" height="9.35"/><rect class="cls-1" x="353.44" y="96.02" width="18.7" height="9.35"/><rect class="cls-1" x="390.84" y="105.36" width="18.7" height="9.35"/><rect class="cls-1" x="353.44" y="133.41" width="37.4" height="9.35"/><rect class="cls-1" x="344.1" y="142.77" width="9.35" height="9.35"/><rect class="cls-1" x="334.75" y="142.77" width="9.35" height="9.35"/><rect class="cls-1" x="316.04" y="114.72" width="9.35" height="9.35"/><rect class="cls-1" x="400.19" y="114.72" width="9.35" height="9.35"/><rect class="cls-1" x="390.84" y="114.72" width="116.86" height="56.09"/><rect class="cls-1" x="381.48" y="114.72" width="9.35" height="9.35"/><rect class="cls-1" x="437.59" y="86.66" width="18.7" height="9.35"/><rect class="cls-1" x="418.88" y="96.02" width="9.35" height="9.35"/><rect class="cls-1" x="437.59" y="96.02" width="9.35" height="9.35"/><rect class="cls-1" x="428.23" y="105.36" width="28.05" height="9.35"/><rect class="cls-1" x="362.79" y="124.07" width="28.05" height="9.35"/><rect class="cls-1" x="484.32" y="152.11" width="9.35" height="9.35"/><rect class="cls-1" x="474.97" y="152.11" width="9.35" height="9.35"/><rect class="cls-1" x="465.63" y="152.11" width="9.35" height="9.35"/><rect class="cls-1" x="456.29" y="142.77" width="9.35" height="18.7"/><rect class="cls-1" x="446.94" y="142.77" width="9.35" height="18.7"/><rect class="cls-1" x="437.59" y="152.11" width="9.35" height="9.35"/><rect class="cls-1" x="428.23" y="152.11" width="9.35" height="9.35"/><rect class="cls-1" x="418.88" y="161.47" width="9.35" height="9.35"/><rect class="cls-1" x="409.54" y="161.47" width="9.35" height="9.35"/><rect class="cls-1" x="400.19" y="161.47" width="9.35" height="9.35"/><rect class="cls-1" x="381.48" y="152.11" width="9.35" height="9.35"/><rect class="cls-1" x="372.13" y="152.11" width="9.35" height="9.35"/><rect class="cls-1" x="362.79" y="152.11" width="9.35" height="9.35"/><rect class="cls-1" x="353.44" y="152.11" width="9.35" height="9.35"/><rect class="cls-1" x="344.1" y="152.11" width="9.35" height="9.35"/><rect class="cls-1" x="334.75" y="152.11" width="9.35" height="9.35"/><rect class="cls-1" x="325.39" y="152.11" width="65.44" height="18.7"/><rect class="cls-1" x="325.39" y="133.41" width="9.35" height="9.35"/><rect class="cls-1" x="344.1" y="124.07" width="9.35" height="9.35"/><rect class="cls-1" x="353.44" y="142.77" width="74.79" height="9.35"/><rect class="cls-1" x="199.03" y="142.3" width="9.75" height="9.75"/><rect class="cls-1" x="228.27" y="131.8" width="9.75" height="9.75"/><rect class="cls-1" x="238.03" y="141.55" width="9.75" height="9.75"/><rect class="cls-1" x="257.54" y="112.28" width="9.75" height="9.75"/><rect class="cls-1" x="218.53" y="152.05" width="9.75" height="9.75"/><rect class="cls-1" x="208.78" y="142.3" width="9.75" height="9.75"/><rect class="cls-1" x="208.39" y="161.8" width="10.14" height="9.75"/><rect class="cls-1" x="189.28" y="161.92" width="9.75" height="18.85"/><rect class="cls-1" x="218.53" y="161.8" width="9.75" height="9.75"/><rect class="cls-1" x="208.39" y="171.57" width="39.77" height="9.22"/><rect class="cls-1" x="228.27" y="161.8" width="9.75" height="9.75"/><rect class="cls-1" x="247.78" y="159.4" width="8.63" height="11.8"/><rect class="cls-1" x="121.95" y="112.28" width="9.75" height="9.75"/><rect class="cls-1" x="71.43" y="141.48" width="10.74" height="9.75"/><rect class="cls-1" x="80.32" y="160.99" width="11.94" height="9.5"/><rect class="cls-1" x="62.5" y="148.8" width="9.75" height="12.16"/><rect class="cls-1" x="33.18" y="161.21" width="9.75" height="9.75"/><rect class="cls-1" x="2.93" y="161.21" width="30.24" height="9.75"/><rect class="cls-1" x="33.18" y="151.54" width="9.75" height="9.75"/><rect class="cls-1" x="140.53" y="141.77" width="9.75" height="9.75"/><rect class="cls-1" x="169.78" y="142.56" width="9.75" height="9.75"/><rect class="cls-1" x="158.86" y="122.05" width="9.75" height="9.75"/><rect class="cls-1" x="160.01" y="149.89" width="9.75" height="11.91"/><rect class="cls-1" x="130.76" y="149.11" width="9.75" height="12.16"/><rect class="cls-1" x="111.27" y="162.32" width="9.75" height="9.75"/><rect class="cls-1" x="140.53" y="161.29" width="9.75" height="19.25"/><rect class="cls-1" x="179.53" y="152.3" width="9.75" height="19.25"/><rect class="cls-1" x="150.28" y="171.02" width="9.75" height="9.75"/><rect class="cls-1" x="102.32" y="169.72" width="8.94" height="11.07"/><rect class="cls-1" x="52.75" y="170.77" width="9.75" height="9.75"/><rect class="cls-1" x="40.21" y="170.77" width="12.55" height="9.75"/><rect class="cls-1" x="101.5" y="152.57" width="9.75" height="9.75"/><rect class="cls-1" x="285.66" y="121.97" width="9.75" height="9.75"/><rect class="cls-1" x="306.29" y="82.97" width="9.75" height="9.75"/><rect class="cls-1" x="285.66" y="151.97" width="9.75" height="9.75"/><rect class="cls-1" x="275.92" y="142.47" width="9.75" height="9.75"/><rect class="cls-1" x="275.92" y="161.44" width="9.75" height="9.75"/><rect class="cls-1" x="285.66" y="161.74" width="9.75" height="9.75"/><rect class="cls-1" x="295.41" y="161.74" width="9.75" height="9.75"/><rect class="cls-1" x="306.29" y="151.97" width="9.75" height="9.75"/><rect class="cls-1" x="266.17" y="161.44" width="9.75" height="9.75"/><rect class="cls-1" x="256.41" y="151.97" width="9.75" height="9.75"/><rect class="cls-2" x="500.22" y="131.02" width="9.35" height="9.35"/><rect class="cls-2" x="500.22" y="121.66" width="9.35" height="9.35"/><rect class="cls-2" x="500.22" y="112.32" width="9.35" height="9.35"/><rect class="cls-2" x="500.22" y="102.97" width="9.35" height="9.35"/><rect class="cls-2" x="500.22" y="93.62" width="9.35" height="9.35"/><rect class="cls-2" x="500.22" y="84.27" width="9.35" height="9.35"/><rect class="cls-2" x="500.22" y="74.91" width="9.35" height="9.35"/><rect class="cls-2" x="453.48" y="65.56" width="56.09" height="46.75"/><rect class="cls-2" x="472.17" y="56.22" width="37.4" height="9.35"/><rect class="cls-2" x="481.53" y="46.87" width="28.05" height="9.35"/><rect class="cls-2" x="490.88" y="37.52" width="18.7" height="9.35"/><rect class="cls-2" x="490.88" y="140.35" width="9.35" height="9.35"/><rect class="cls-2" x="453.48" y="74.91" width="9.35" height="9.35"/><rect class="cls-2" x="406.73" y="102.97" width="9.35" height="9.35"/><rect class="cls-2" x="397.38" y="84.27" width="9.35" height="9.35"/><rect class="cls-2" x="425.44" y="74.91" width="9.35" height="9.35"/><rect class="cls-2" x="444.13" y="74.91" width="9.35" height="9.35"/><rect class="cls-2" x="434.79" y="65.56" width="9.35" height="9.35"/><rect class="cls-2" x="481.53" y="28.17" width="9.35" height="9.35"/><rect class="cls-2" x="490.88" y="28.17" width="9.35" height="9.35"/><rect class="cls-2" x="490.88" y="18.83" width="9.35" height="9.35"/><rect class="cls-2" x="481.53" y="0.13" width="9.35" height="9.35"/><rect class="cls-2" x="444.13" y="28.17" width="9.35" height="9.35"/><rect class="cls-2" x="500.22" y="28.17" width="9.35" height="9.35"/><rect class="cls-2" x="500.22" y="18.83" width="9.35" height="9.35"/><rect class="cls-2" x="500.22" y="9.48" width="9.35" height="9.35"/><rect class="cls-2" x="453.48" y="46.87" width="9.35" height="9.35"/><rect class="cls-2" x="462.84" y="46.87" width="9.35" height="18.7"/><rect class="cls-2" x="472.17" y="28.17" width="9.35" height="18.7"/><rect class="cls-2" x="378.69" y="102.97" width="9.35" height="9.35"/><rect class="cls-2" x="369.34" y="102.97" width="9.35" height="9.35"/><rect class="cls-2" x="378.69" y="93.62" width="9.35" height="9.35"/><rect class="cls-2" x="360" y="84.27" width="9.35" height="9.35"/><rect class="cls-2" x="350.64" y="93.62" width="18.7" height="9.35"/><rect class="cls-2" x="388.04" y="102.97" width="18.7" height="9.35"/><rect class="cls-2" x="350.64" y="131.02" width="37.4" height="9.35"/><rect class="cls-2" x="341.29" y="140.35" width="9.35" height="9.35"/><rect class="cls-2" x="331.94" y="140.35" width="9.35" height="9.35"/><rect class="cls-2" x="313.25" y="112.32" width="9.35" height="9.35"/><rect class="cls-2" x="397.38" y="112.32" width="9.35" height="9.35"/><rect class="cls-2" x="388.04" y="112.32" width="116.86" height="56.09"/><rect class="cls-2" x="378.69" y="112.32" width="9.35" height="9.35"/><rect class="cls-2" x="434.79" y="84.27" width="18.7" height="9.35"/><rect class="cls-2" x="416.09" y="93.62" width="9.35" height="9.35"/><rect class="cls-2" x="434.79" y="93.62" width="9.35" height="9.35"/><rect class="cls-2" x="425.44" y="102.97" width="28.05" height="9.35"/><rect class="cls-2" x="360" y="121.66" width="28.05" height="9.35"/><rect class="cls-2" x="481.53" y="149.71" width="9.35" height="9.35"/><rect class="cls-2" x="472.17" y="149.71" width="9.35" height="9.35"/><rect class="cls-2" x="462.84" y="149.71" width="9.35" height="9.35"/><rect class="cls-2" x="453.48" y="140.35" width="9.35" height="18.7"/><rect class="cls-2" x="444.13" y="140.35" width="9.35" height="18.7"/><rect class="cls-2" x="434.79" y="149.71" width="9.35" height="9.35"/><rect class="cls-2" x="425.44" y="149.71" width="9.35" height="9.35"/><rect class="cls-2" x="416.09" y="159.05" width="9.35" height="9.35"/><rect class="cls-2" x="406.73" y="159.05" width="9.35" height="9.35"/><rect class="cls-2" x="397.38" y="159.05" width="9.35" height="9.35"/><rect class="cls-2" x="378.69" y="149.71" width="9.35" height="9.35"/><rect class="cls-2" x="369.34" y="149.71" width="9.35" height="9.35"/><rect class="cls-2" x="360" y="149.71" width="9.35" height="9.35"/><rect class="cls-2" x="350.64" y="149.71" width="9.35" height="9.35"/><rect class="cls-2" x="341.29" y="149.71" width="9.35" height="9.35"/><rect class="cls-2" x="331.94" y="149.71" width="9.35" height="9.35"/><rect class="cls-2" x="322.6" y="149.71" width="65.44" height="18.7"/><rect class="cls-2" x="322.6" y="131.02" width="9.35" height="9.35"/><rect class="cls-2" x="341.29" y="121.66" width="9.35" height="9.35"/><rect class="cls-2" x="350.64" y="140.35" width="74.79" height="9.35"/><rect class="cls-2" x="196.23" y="149.66" width="9.36" height="28.98"/><rect class="cls-2" x="196.24" y="139.9" width="9.75" height="9.75"/><rect class="cls-2" x="225.48" y="129.4" width="9.75" height="9.75"/><rect class="cls-2" x="235.23" y="139.13" width="9.75" height="9.75"/><rect class="cls-2" x="254.73" y="109.9" width="9.75" height="9.75"/><rect class="cls-2" x="215.73" y="149.65" width="9.75" height="9.75"/><rect class="cls-2" x="205.99" y="139.9" width="9.75" height="9.75"/><rect class="cls-2" x="205.59" y="159.39" width="10.14" height="9.75"/><rect class="cls-2" x="186.48" y="159.52" width="9.75" height="18.85"/><rect class="cls-2" x="215.73" y="159.39" width="9.75" height="9.75"/><rect class="cls-2" x="205.6" y="169.16" width="39.77" height="9.22"/><rect class="cls-2" x="235.23" y="168.88" width="29.25" height="9.75"/><rect class="cls-2" x="225.48" y="159.39" width="9.75" height="9.75"/><rect class="cls-2" x="244.98" y="159.39" width="8.63" height="9.4"/><rect class="cls-2" x="119.15" y="109.9" width="9.75" height="9.75"/><rect class="cls-2" x="69.61" y="139.07" width="9.75" height="9.75"/><rect class="cls-2" x="79.72" y="158.58" width="9.75" height="9.5"/><rect class="cls-2" x="59.71" y="148.82" width="9.75" height="9.75"/><rect class="cls-2" x="30.37" y="158.8" width="9.75" height="9.75"/><rect class="cls-2" x="0.13" y="158.8" width="30.24" height="9.75"/><rect class="cls-2" x="30.37" y="149.13" width="9.75" height="9.75"/><rect class="cls-2" x="137.72" y="139.36" width="9.75" height="9.75"/><rect class="cls-2" x="166.98" y="140.15" width="9.75" height="9.75"/><rect class="cls-2" x="156.07" y="119.65" width="9.75" height="9.75"/><rect class="cls-2" x="157.21" y="149.89" width="9.75" height="9.5"/><rect class="cls-2" x="127.97" y="149.13" width="9.75" height="9.75"/><rect class="cls-2" x="108.46" y="159.91" width="9.75" height="9.75"/><rect class="cls-2" x="118.21" y="169.67" width="9.75" height="9.3"/><rect class="cls-2" x="137.72" y="158.88" width="9.75" height="19.25"/><rect class="cls-2" x="176.73" y="149.89" width="9.75" height="19.25"/><rect class="cls-2" x="147.47" y="168.63" width="9.75" height="9.75"/><rect class="cls-2" x="99.52" y="169.44" width="8.94" height="8.94"/><rect class="cls-2" x="49.95" y="168.37" width="9.75" height="9.75"/><rect class="cls-2" x="40.2" y="168.37" width="9.75" height="9.75"/><rect class="cls-2" x="98.71" y="150.16" width="9.75" height="9.75"/><rect class="cls-2" x="282.86" y="119.57" width="9.75" height="9.75"/><rect class="cls-2" x="303.5" y="80.56" width="9.75" height="9.75"/><rect class="cls-2" x="282.86" y="149.56" width="9.75" height="9.75"/><rect class="cls-2" x="302.36" y="159.32" width="27.41" height="19.51"/><rect class="cls-2" x="273.13" y="140.07" width="9.75" height="9.75"/><rect class="cls-2" x="273.13" y="159.05" width="9.75" height="9.75"/><rect class="cls-2" x="282.86" y="159.33" width="9.75" height="9.75"/><rect class="cls-2" x="292.63" y="159.33" width="9.75" height="9.75"/><rect class="cls-2" x="303.5" y="149.56" width="9.75" height="9.75"/><rect class="cls-2" x="263.38" y="159.05" width="9.75" height="9.75"/><rect class="cls-2" x="253.61" y="149.56" width="9.75" height="9.75"/><rect class="cls-2" x="273.12" y="168.81" width="33.41" height="9.75"/></g></g></svg>