<svg xmlns="http://www.w3.org/2000/svg" viewBox="0 0 506.73 87.52"><defs><style>.cls-1{fill:#41efcd;}</style></defs><title>Asset 4</title><g id="Layer_2" data-name="Layer 2"><g id="Layer_1-2" data-name="Layer 1"><rect class="cls-1" x="373.19" y="18.78" width="9.36" height="28.98"/><rect class="cls-1" x="373.18" y="47.76" width="9.75" height="9.75"/><rect class="cls-1" x="402.43" y="58.28" width="9.75" height="9.75"/><rect class="cls-1" x="412.18" y="48.53" width="9.75" height="9.75"/><rect class="cls-1" x="431.69" y="77.77" width="9.75" height="9.75"/><rect class="cls-1" x="392.69" y="38.02" width="9.75" height="9.75"/><rect class="cls-1" x="382.94" y="47.76" width="9.75" height="9.75"/><rect class="cls-1" x="382.54" y="28.27" width="10.14" height="9.75"/><rect class="cls-1" x="363.43" y="19.04" width="9.75" height="18.85"/><rect class="cls-1" x="392.69" y="28.27" width="9.75" height="9.75"/><rect class="cls-1" x="382.54" y="19.04" width="39.77" height="9.22"/><rect class="cls-1" x="373.19" y="9.68" width="9.36" height="9.36"/><rect class="cls-1" x="382.54" y="9.68" width="19.89" height="9.36"/><rect class="cls-1" x="402.43" y="9.68" width="19.5" height="9.11"/><rect class="cls-1" x="421.94" y="9.68" width="19.5" height="9.11"/><rect class="cls-1" x="412.19" y="18.79" width="29.25" height="9.75"/><rect class="cls-1" x="402.43" y="28.27" width="9.75" height="9.75"/><rect class="cls-1" x="421.94" y="28.61" width="8.63" height="9.4"/><rect class="cls-1" x="296.11" y="77.77" width="9.75" height="9.75"/><rect class="cls-1" x="246.57" y="48.6" width="9.75" height="9.75"/><rect class="cls-1" x="256.67" y="29.33" width="9.75" height="9.5"/><rect class="cls-1" x="236.66" y="38.85" width="9.75" height="9.75"/><rect class="cls-1" x="207.33" y="27.93" width="9.75" height="9.75"/><rect class="cls-1" x="198.33" y="18.37" width="9.75" height="9.75"/><rect class="cls-1" x="186.33" y="18.37" width="11.99" height="9.75"/><rect class="cls-1" x="177.09" y="27.93" width="30.24" height="9.75"/><rect class="cls-1" x="89.17" y="28.45" width="29.25" height="9.75"/><rect class="cls-1" x="207.33" y="37.69" width="9.75" height="9.75"/><rect class="cls-1" x="197.57" y="47.95" width="9.75" height="9.75"/><rect class="cls-1" x="187.82" y="67.97" width="9.75" height="9.75"/><rect class="cls-1" x="314.67" y="48.3" width="9.75" height="9.75"/><rect class="cls-1" x="343.92" y="47.52" width="9.75" height="9.75"/><rect class="cls-1" x="333.02" y="68.03" width="9.75" height="9.75"/><rect class="cls-1" x="334.18" y="38.02" width="9.75" height="9.5"/><rect class="cls-1" x="304.92" y="38.54" width="9.75" height="9.75"/><rect class="cls-1" x="285.42" y="27.75" width="9.75" height="9.75"/><rect class="cls-1" x="295.17" y="18.44" width="9.75" height="9.3"/><rect class="cls-1" x="304.92" y="9.68" width="9.75" height="18.07"/><rect class="cls-1" x="314.67" y="19.29" width="9.75" height="19.25"/><rect class="cls-1" x="353.68" y="28.27" width="9.75" height="19.25"/><rect class="cls-1" x="324.43" y="19.04" width="9.75" height="9.75"/><rect class="cls-1" x="314.67" y="9.67" width="9.75" height="9.62"/><rect class="cls-1" x="334.18" y="9.68" width="45.26" height="9.36"/><rect class="cls-1" x="324.42" y="9.83" width="29.3" height="28.71"/><rect class="cls-1" x="276.48" y="19.03" width="8.94" height="8.94"/><rect class="cls-1" x="236.66" y="9.87" width="19.82" height="28.98"/><rect class="cls-1" x="167.19" y="18.37" width="9.75" height="9.75"/><rect class="cls-1" x="137.93" y="18.37" width="29.25" height="9.75"/><rect class="cls-1" x="157.43" y="27.93" width="9.75" height="10.13"/><rect class="cls-1" x="147.68" y="27.93" width="9.75" height="10.13"/><rect class="cls-1" x="137.93" y="27.93" width="9.75" height="10.13"/><rect class="cls-1" y="18.7" width="137.92" height="9.75"/><rect class="cls-1" x="118.43" y="28.45" width="9.75" height="9.75"/><rect class="cls-1" x="118.43" y="38.19" width="9.75" height="9.75"/><rect class="cls-1" x="128.17" y="38.19" width="9.75" height="9.75"/><rect class="cls-1" x="167.34" y="47.95" width="9.75" height="9.75"/><rect class="cls-1" x="157.43" y="38.19" width="9.75" height="9.75"/><rect class="cls-1" x="147.68" y="47.95" width="9.75" height="9.75"/><rect class="cls-1" x="147.68" y="57.7" width="9.75" height="9.75"/><rect class="cls-1" x="137.93" y="57.7" width="9.75" height="9.75"/><rect class="cls-1" x="118.43" y="57.7" width="9.75" height="9.75"/><rect class="cls-1" x="30.66" y="47.95" width="19.5" height="9.75"/><rect class="cls-1" x="50.17" y="57.7" width="9.75" height="9.75"/><rect class="cls-1" x="11.16" y="47.95" width="9.75" height="9.75"/><rect class="cls-1" x="11.16" y="67.45" width="9.75" height="9.75"/><rect class="cls-1" x="20.91" y="67.45" width="9.75" height="9.75"/><rect class="cls-1" x="40.42" y="77.21" width="9.75" height="9.75"/><rect class="cls-1" x="98.92" y="57.7" width="9.75" height="9.75"/><rect class="cls-1" x="98.92" y="67.45" width="9.75" height="9.75"/><rect class="cls-1" x="79.42" y="67.45" width="9.75" height="9.75"/><rect class="cls-1" x="1.4" y="47.95" width="9.75" height="9.75"/><rect class="cls-1" x="79.42" y="47.95" width="19.5" height="9.75"/><rect class="cls-1" x="108.68" y="38.19" width="9.75" height="9.75"/><rect class="cls-1" x="98.92" y="38.19" width="9.75" height="9.75"/><rect class="cls-1" x="79.42" y="38.19" width="9.75" height="9.75"/><rect class="cls-1" x="69.67" y="47.95" width="9.75" height="9.75"/><rect class="cls-1" x="59.91" y="47.44" width="9.75" height="29.77"/><rect class="cls-1" x="69.67" y="38.19" width="9.75" height="9.75"/><rect class="cls-1" x="59.91" y="38.19" width="9.75" height="9.75"/><rect class="cls-1" x="50.17" y="38.19" width="9.75" height="9.75"/><rect class="cls-1" x="40.42" y="38.19" width="9.75" height="9.75"/><rect class="cls-1" x="30.66" y="38.19" width="9.75" height="9.75"/><rect class="cls-1" x="20.91" y="28.45" width="58.51" height="19.5"/><rect class="cls-1" x="11.16" y="38.19" width="9.75" height="9.75"/><rect class="cls-1" x="1.4" y="25.79" width="9.75" height="22.16"/><rect class="cls-1" x="217.15" y="17.46" width="20.44" height="10.66"/><rect class="cls-1" x="267.04" y="9.68" width="28.13" height="9.11"/><rect class="cls-1" x="275.66" y="37.5" width="9.75" height="9.75"/><rect class="cls-1" x="459.83" y="68.11" width="9.75" height="9.75"/><rect class="cls-1" x="459.83" y="38.1" width="9.75" height="9.75"/><rect class="cls-1" x="479.32" y="18.58" width="27.41" height="19.51"/><rect class="cls-1" x="450.08" y="47.6" width="9.75" height="9.75"/><rect class="cls-1" x="450.08" y="28.62" width="9.75" height="9.75"/><rect class="cls-1" x="459.83" y="28.34" width="9.75" height="9.75"/><rect class="cls-1" x="469.57" y="28.34" width="9.75" height="9.75"/><rect class="cls-1" x="480.45" width="9.75" height="9.75"/><rect class="cls-1" x="470.69" width="9.75" height="9.75"/><rect class="cls-1" x="460.95" width="9.75" height="9.75"/><rect class="cls-1" x="451.2" width="9.75" height="9.75"/><rect class="cls-1" x="441.44" width="9.75" height="9.75"/><rect class="cls-1" x="431.69" width="9.75" height="9.75"/><rect class="cls-1" x="421.94" width="9.75" height="9.75"/><rect class="cls-1" x="412.18" width="9.75" height="9.75"/><rect class="cls-1" x="402.43" width="9.75" height="9.75"/><rect class="cls-1" x="392.69" width="9.75" height="9.75"/><rect class="cls-1" x="382.94" width="9.75" height="9.75"/><rect class="cls-1" x="373.18" width="9.75" height="9.75"/><rect class="cls-1" x="363.43" width="9.75" height="9.75"/><rect class="cls-1" x="353.68" width="9.75" height="9.75"/><rect class="cls-1" x="343.92" width="9.75" height="9.75"/><rect class="cls-1" x="334.18" width="9.75" height="9.75"/><rect class="cls-1" x="324.43" width="9.75" height="9.75"/><rect class="cls-1" x="314.67" width="9.75" height="9.75"/><rect class="cls-1" x="304.92" width="9.75" height="9.75"/><rect class="cls-1" x="295.17" width="9.75" height="9.75"/><rect class="cls-1" x="285.42" width="9.75" height="9.75"/><rect class="cls-1" x="275.66" width="9.75" height="9.75"/><rect class="cls-1" x="265.92" width="9.75" height="9.75"/><rect class="cls-1" x="256.17" width="9.75" height="9.75"/><rect class="cls-1" x="246.41" width="9.75" height="9.75"/><rect class="cls-1" x="480.45" y="38.1" width="9.75" height="9.75"/><rect class="cls-1" x="440.32" y="28.62" width="9.75" height="9.75"/><rect class="cls-1" x="430.57" y="38.1" width="9.75" height="9.75"/><rect class="cls-1" x="450.08" y="18.86" width="33.41" height="9.75"/><rect class="cls-1" x="451.19" y="9.61" width="39.01" height="9.75"/><rect class="cls-1" x="441.44" y="9.61" width="10.19" height="9.75"/></g></g></svg>