<svg id="Layer_1" data-name="Layer 1" xmlns="http://www.w3.org/2000/svg" viewBox="0 0 47.74 95.23"><defs><style>.cls-1{fill:#1bedc5;}.cls-2{fill:#9251f2;stroke:#9251f2;stroke-miterlimit:10;stroke-width:0.25px;}</style></defs><title>pixels_forweb</title><rect class="cls-1" x="3.34" y="18.97" width="14.8" height="14.8"/><rect class="cls-1" x="3.34" y="33.77" width="14.8" height="29.6"/><rect class="cls-1" x="18.14" y="33.77" width="14.8" height="14.8"/><rect class="cls-1" x="3.34" y="80.43" width="14.8" height="14.8"/><rect class="cls-1" x="32.94" y="33.77" width="14.8" height="14.8"/><rect class="cls-1" x="32.94" y="18.97" width="14.8" height="14.8"/><rect class="cls-1" x="32.94" y="4.17" width="14.8" height="14.8"/><rect class="cls-1" x="3.34" y="4.17" width="29.6" height="14.8"/><rect class="cls-2" x="0.13" y="77.08" width="14.8" height="14.8"/><rect class="cls-2" x="0.13" y="44.52" width="14.8" height="14.8"/><rect class="cls-2" x="0.13" y="29.72" width="14.8" height="14.8"/><rect class="cls-2" x="0.13" y="14.92" width="14.8" height="14.8"/><rect class="cls-2" x="0.13" y="0.13" width="14.8" height="14.8"/><rect class="cls-2" x="29.72" y="29.72" width="14.8" height="14.8"/><rect class="cls-2" x="14.92" y="29.72" width="14.8" height="14.8"/><rect class="cls-2" x="29.72" y="14.92" width="14.8" height="14.8"/><rect class="cls-2" x="29.72" y="0.13" width="14.8" height="14.8"/><rect class="cls-2" x="14.92" y="0.13" width="14.8" height="14.8"/></svg>