<svg id="Layer_1" data-name="Layer 1" xmlns="http://www.w3.org/2000/svg" viewBox="0 0 499.66 929.25"><defs><style>.cls-1{fill:#1bedc5;}.cls-2{fill:#41efcd;}.cls-3{fill:#9251f2;stroke:#9251f2;stroke-miterlimit:10;stroke-width:0.25px;}</style></defs><title>pixels_forweb</title><rect class="cls-1" x="452.92" y="96.15" width="56.09" height="46.75"/><rect class="cls-1" x="471.61" y="86.8" width="37.4" height="9.35"/><rect class="cls-1" x="480.96" y="77.45" width="28.05" height="9.35"/><rect class="cls-1" x="490.31" y="68.1" width="18.7" height="9.35"/><rect class="cls-1" x="490.31" y="170.94" width="9.35" height="9.35"/><rect class="cls-1" x="452.92" y="105.5" width="9.35" height="9.35"/><rect class="cls-1" x="406.17" y="131.14" width="9.35" height="11.75"/><rect class="cls-1" x="396.82" y="114.84" width="9.35" height="9.35"/><rect class="cls-1" x="424.87" y="103.09" width="9.35" height="11.75"/><rect class="cls-1" x="443.57" y="105.5" width="9.35" height="9.35"/><rect class="cls-1" x="434.22" y="96.15" width="9.35" height="9.35"/><rect class="cls-1" x="480.96" y="58.75" width="9.35" height="9.35"/><rect class="cls-1" x="490.31" y="58.75" width="9.35" height="9.35"/><rect class="cls-1" x="490.31" y="49.4" width="9.35" height="9.35"/><rect class="cls-1" x="480.96" y="30.7" width="9.35" height="9.35"/><rect class="cls-1" x="443.57" y="58.75" width="9.35" height="9.35"/><rect class="cls-1" x="452.92" y="77.45" width="9.35" height="9.35"/><rect class="cls-1" x="462.26" y="75.04" width="9.35" height="21.1"/><rect class="cls-1" x="471.61" y="58.75" width="9.35" height="18.7"/><rect class="cls-1" x="378.12" y="133.54" width="9.35" height="9.35"/><rect class="cls-1" x="368.77" y="133.54" width="9.35" height="9.35"/><rect class="cls-1" x="378.12" y="124.19" width="9.35" height="9.35"/><rect class="cls-1" x="359.43" y="114.84" width="9.35" height="9.35"/><rect class="cls-1" x="350.08" y="124.19" width="18.7" height="9.35"/><rect class="cls-1" x="387.47" y="133.54" width="18.7" height="9.35"/><rect class="cls-1" x="350.08" y="161.59" width="37.4" height="9.35"/><rect class="cls-1" x="340.73" y="170.94" width="9.35" height="9.35"/><rect class="cls-1" x="331.38" y="170.94" width="9.35" height="9.35"/><rect class="cls-1" x="312.68" y="142.89" width="9.35" height="9.35"/><rect class="cls-1" x="396.82" y="142.89" width="9.35" height="9.35"/><rect class="cls-1" x="387.47" y="142.89" width="116.86" height="56.09"/><rect class="cls-1" x="378.12" y="142.89" width="9.35" height="9.35"/><rect class="cls-1" x="434.22" y="114.84" width="18.7" height="9.35"/><rect class="cls-1" x="415.52" y="124.19" width="9.35" height="9.35"/><rect class="cls-1" x="434.22" y="124.19" width="9.35" height="9.35"/><rect class="cls-1" x="424.87" y="133.54" width="28.05" height="9.35"/><rect class="cls-1" x="359.43" y="152.24" width="28.05" height="9.35"/><rect class="cls-1" x="480.96" y="180.29" width="9.35" height="9.35"/><rect class="cls-1" x="471.61" y="180.29" width="9.35" height="9.35"/><rect class="cls-1" x="462.26" y="180.29" width="9.35" height="9.35"/><rect class="cls-1" x="452.92" y="170.94" width="9.35" height="18.7"/><rect class="cls-1" x="443.57" y="170.94" width="9.35" height="18.7"/><rect class="cls-1" x="434.22" y="180.29" width="9.35" height="9.35"/><rect class="cls-1" x="424.87" y="180.29" width="9.35" height="9.35"/><rect class="cls-1" x="415.52" y="189.64" width="9.35" height="9.35"/><rect class="cls-1" x="406.17" y="189.64" width="9.35" height="9.35"/><rect class="cls-1" x="396.82" y="189.64" width="9.35" height="9.35"/><rect class="cls-1" x="378.12" y="180.29" width="9.35" height="9.35"/><rect class="cls-1" x="368.77" y="180.29" width="9.35" height="9.35"/><rect class="cls-1" x="359.43" y="180.29" width="9.35" height="9.35"/><rect class="cls-1" x="350.08" y="180.29" width="9.35" height="9.35"/><rect class="cls-1" x="340.73" y="180.29" width="9.35" height="9.35"/><rect class="cls-1" x="331.38" y="180.29" width="9.35" height="9.35"/><rect class="cls-1" x="322.03" y="180.29" width="65.44" height="18.7"/><rect class="cls-1" x="322.03" y="161.59" width="9.35" height="9.35"/><rect class="cls-1" x="340.73" y="152.24" width="9.35" height="9.35"/><rect class="cls-1" x="350.08" y="170.94" width="74.79" height="9.35"/><rect class="cls-1" x="195.66" y="180.23" width="9.36" height="28.98" transform="translate(400.69 389.44) rotate(-180)"/><rect class="cls-1" x="195.66" y="170.48" width="9.75" height="9.75" transform="translate(401.07 350.71) rotate(-180)"/><rect class="cls-1" x="224.92" y="159.97" width="9.75" height="9.75" transform="translate(459.58 329.69) rotate(-180)"/><rect class="cls-1" x="234.67" y="169.72" width="9.75" height="9.75" transform="translate(479.09 349.19) rotate(-180)"/><rect class="cls-1" x="254.17" y="140.47" width="9.75" height="9.75" transform="translate(518.09 290.68) rotate(-180)"/><rect class="cls-1" x="215.16" y="180.23" width="9.75" height="9.75" transform="translate(440.08 370.21) rotate(-180)"/><rect class="cls-1" x="205.41" y="170.48" width="9.75" height="9.75" transform="translate(420.58 350.71) rotate(-180)"/><rect class="cls-1" x="205.03" y="189.98" width="10.14" height="9.75" transform="translate(420.19 389.71) rotate(-180)"/><rect class="cls-1" x="185.91" y="190.11" width="9.75" height="18.85" transform="translate(381.57 399.06) rotate(-180)"/><rect class="cls-1" x="215.16" y="189.98" width="9.75" height="9.75" transform="translate(440.08 389.71) rotate(-180)"/><rect class="cls-1" x="205.03" y="199.73" width="39.77" height="9.22" transform="translate(449.83 408.69) rotate(-180)"/><rect class="cls-1" x="195.66" y="208.96" width="9.36" height="9.36" transform="translate(400.69 427.28) rotate(-180)"/><rect class="cls-1" x="205.03" y="208.96" width="19.89" height="9.36" transform="translate(429.94 427.28) rotate(-180)"/><rect class="cls-1" x="224.92" y="209.21" width="19.5" height="9.11" transform="translate(469.34 427.53) rotate(-180)"/><rect class="cls-1" x="244.42" y="209.21" width="19.5" height="9.11" transform="translate(508.34 427.53) rotate(-180)"/><rect class="cls-1" x="234.67" y="197.05" width="29.25" height="12.16" transform="translate(498.59 406.26) rotate(-180)"/><rect class="cls-1" x="224.92" y="189.98" width="9.75" height="9.75" transform="translate(459.58 389.71) rotate(-180)"/><rect class="cls-1" x="244.42" y="187.58" width="8.63" height="11.8" transform="translate(497.47 386.95) rotate(-180)"/><rect class="cls-1" x="118.58" y="140.47" width="9.75" height="9.75" transform="translate(246.92 290.68) rotate(-180)"/><rect class="cls-1" x="68.06" y="169.64" width="10.74" height="9.75" transform="translate(146.86 349.04) rotate(-180)"/><rect class="cls-1" x="76.96" y="189.17" width="11.94" height="9.5" transform="translate(165.85 387.84) rotate(-180)"/><rect class="cls-1" x="59.14" y="176.99" width="9.75" height="12.16" transform="translate(128.03 366.13) rotate(-180)"/><rect class="cls-1" x="29.8" y="189.37" width="9.75" height="9.75" transform="translate(69.36 388.5) rotate(-180)"/><rect class="cls-1" x="-0.43" y="189.37" width="30.24" height="9.75" transform="translate(29.37 388.5) rotate(-180)"/><rect class="cls-1" x="29.8" y="179.7" width="9.75" height="9.75" transform="translate(69.36 369.16) rotate(-180)"/><rect class="cls-1" x="137.15" y="169.95" width="9.75" height="9.75" transform="translate(284.06 349.65) rotate(-180)"/><rect class="cls-1" x="166.41" y="170.72" width="9.75" height="9.75" transform="translate(342.57 351.2) rotate(-180)"/><rect class="cls-1" x="155.49" y="150.22" width="9.75" height="9.75" transform="translate(320.74 310.19) rotate(-180)"/><rect class="cls-1" x="156.66" y="178.08" width="9.75" height="11.91" transform="translate(323.06 368.06) rotate(-180)"/><rect class="cls-1" x="127.4" y="177.3" width="9.75" height="12.16" transform="translate(264.55 366.75) rotate(-180)"/><rect class="cls-1" x="107.9" y="190.49" width="9.75" height="9.75" transform="translate(225.55 390.74) rotate(-180)"/><rect class="cls-1" x="117.65" y="200.25" width="9.75" height="9.3" transform="translate(245.05 409.79) rotate(-180)"/><rect class="cls-1" x="127.4" y="200.25" width="9.75" height="18.07" transform="translate(264.55 418.57) rotate(-180)"/><rect class="cls-1" x="137.15" y="189.45" width="9.75" height="19.25" transform="translate(284.06 398.16) rotate(-180)"/><rect class="cls-1" x="176.16" y="180.48" width="9.75" height="19.25" transform="translate(362.07 380.21) rotate(-180)"/><rect class="cls-1" x="146.9" y="199.21" width="9.75" height="9.75" transform="translate(303.56 408.16) rotate(-180)"/><rect class="cls-1" x="137.15" y="208.71" width="9.75" height="9.62" transform="translate(284.06 427.03) rotate(-180)"/><rect class="cls-1" x="156.66" y="208.96" width="45.26" height="9.36" transform="translate(358.57 427.28) rotate(-180)"/><rect class="cls-1" x="146.9" y="189.46" width="29.3" height="28.71" transform="translate(323.1 407.63) rotate(-180)"/><rect class="cls-1" x="98.96" y="197.89" width="8.94" height="11.07" transform="translate(206.86 406.85) rotate(-180)"/><rect class="cls-1" x="59.14" y="189.15" width="19.82" height="28.98" transform="translate(138.1 407.27) rotate(-180)"/><rect class="cls-1" x="39.64" y="227.8" width="9.75" height="9.75" transform="translate(89.03 465.35) rotate(-180)"/><rect class="cls-1" x="29.8" y="237.26" width="9.75" height="9.75" transform="translate(69.36 484.28) rotate(-180)"/><rect class="cls-1" x="20.05" y="237.26" width="9.75" height="9.75" transform="translate(49.86 484.28) rotate(-180)"/><rect class="cls-1" x="-0.59" y="198.99" width="20.64" height="48.03" transform="translate(19.47 446) rotate(-180)"/><rect class="cls-1" x="20.05" y="225.29" width="9.75" height="12.16" transform="translate(49.86 462.73) rotate(-180)"/><rect class="cls-1" x="29.8" y="218.25" width="9.75" height="9.65" transform="translate(69.36 446.14) rotate(-180)"/><rect class="cls-1" x="49.39" y="198.94" width="9.75" height="9.75" transform="translate(108.53 407.63) rotate(-180)"/><rect class="cls-1" x="36.84" y="198.94" width="12.55" height="9.75" transform="translate(86.23 407.63) rotate(-180)"/><rect class="cls-1" x="20.05" y="206.48" width="19.5" height="12.16" transform="translate(59.61 425.12) rotate(-180)"/><rect class="cls-1" x="38.41" y="215.84" width="20.73" height="11.96" transform="translate(97.55 443.64) rotate(-180)"/><rect class="cls-1" x="89.52" y="206.88" width="28.13" height="11.44" transform="translate(207.16 425.2) rotate(-180)"/><rect class="cls-1" x="98.15" y="180.74" width="9.75" height="9.75" transform="translate(206.04 371.24) rotate(-180)"/><rect class="cls-1" x="282.31" y="150.14" width="9.75" height="9.75" transform="translate(574.36 310.03) rotate(-180)"/><rect class="cls-1" x="302.93" y="111.13" width="9.75" height="9.75" transform="translate(615.61 232.02) rotate(-180)"/><rect class="cls-1" x="282.31" y="180.15" width="9.75" height="9.75" transform="translate(574.36 370.05) rotate(-180)"/><rect class="cls-1" x="301.81" y="189.9" width="27.41" height="19.51" transform="translate(631.02 399.31) rotate(-180)"/><rect class="cls-1" x="272.55" y="170.65" width="9.75" height="9.75" transform="translate(554.86 351.04) rotate(-180)"/><rect class="cls-1" x="272.55" y="189.63" width="9.75" height="9.75" transform="translate(554.86 389) rotate(-180)"/><rect class="cls-1" x="282.31" y="189.9" width="9.75" height="9.75" transform="translate(574.36 389.56) rotate(-180)"/><rect class="cls-1" x="292.06" y="189.9" width="9.75" height="9.75" transform="translate(593.86 389.56) rotate(-180)"/><rect class="cls-1" x="302.93" y="218.24" width="9.75" height="9.75" transform="translate(615.61 446.24) rotate(-180)"/><rect class="cls-1" x="293.18" y="218.24" width="9.75" height="9.75" transform="translate(596.11 446.24) rotate(-180)"/><rect class="cls-1" x="283.43" y="218.24" width="9.75" height="9.75" transform="translate(576.6 446.24) rotate(-180)"/><rect class="cls-1" x="273.67" y="218.24" width="9.75" height="9.75" transform="translate(557.1 446.24) rotate(-180)"/><rect class="cls-1" x="263.92" y="218.24" width="9.75" height="9.75" transform="translate(537.6 446.24) rotate(-180)"/><rect class="cls-1" x="254.17" y="218.24" width="9.75" height="9.75" transform="translate(518.09 446.24) rotate(-180)"/><rect class="cls-1" x="244.42" y="218.24" width="9.75" height="9.75" transform="translate(498.59 446.24) rotate(-180)"/><rect class="cls-1" x="234.67" y="218.24" width="9.75" height="9.75" transform="translate(479.09 446.24) rotate(-180)"/><rect class="cls-1" x="224.92" y="218.24" width="9.75" height="9.75" transform="translate(459.58 446.24) rotate(-180)"/><rect class="cls-1" x="215.16" y="218.24" width="9.75" height="9.75" transform="translate(440.08 446.24) rotate(-180)"/><rect class="cls-1" x="205.41" y="218.24" width="9.75" height="9.75" transform="translate(420.58 446.24) rotate(-180)"/><rect class="cls-1" x="195.66" y="218.24" width="9.75" height="9.75" transform="translate(401.07 446.24) rotate(-180)"/><rect class="cls-1" x="185.91" y="218.24" width="9.75" height="9.75" transform="translate(381.57 446.24) rotate(-180)"/><rect class="cls-1" x="176.16" y="218.24" width="9.75" height="9.75" transform="translate(362.07 446.24) rotate(-180)"/><rect class="cls-1" x="166.41" y="218.24" width="9.75" height="9.75" transform="translate(342.57 446.24) rotate(-180)"/><rect class="cls-1" x="156.66" y="218.24" width="9.75" height="9.75" transform="translate(323.06 446.24) rotate(-180)"/><rect class="cls-1" x="146.9" y="218.24" width="9.75" height="9.75" transform="translate(303.56 446.24) rotate(-180)"/><rect class="cls-1" x="137.15" y="218.24" width="9.75" height="9.75" transform="translate(284.06 446.24) rotate(-180)"/><rect class="cls-1" x="127.4" y="218.24" width="9.75" height="9.75" transform="translate(264.55 446.24) rotate(-180)"/><rect class="cls-1" x="117.65" y="218.24" width="9.75" height="9.75" transform="translate(245.05 446.24) rotate(-180)"/><rect class="cls-1" x="107.9" y="218.24" width="9.75" height="9.75" transform="translate(225.55 446.24) rotate(-180)"/><rect class="cls-1" x="98.15" y="218.24" width="9.75" height="9.75" transform="translate(206.04 446.24) rotate(-180)"/><rect class="cls-1" x="88.39" y="218.24" width="9.75" height="9.75" transform="translate(186.54 446.24) rotate(-180)"/><rect class="cls-1" x="78.64" y="218.24" width="9.75" height="9.75" transform="translate(167.04 446.24) rotate(-180)"/><rect class="cls-1" x="68.89" y="218.24" width="9.75" height="9.75" transform="translate(147.53 446.24) rotate(-180)"/><rect class="cls-1" x="49.39" y="227.8" width="9.75" height="9.56" transform="translate(108.53 465.16) rotate(-180)"/><rect class="cls-1" x="59.14" y="227.69" width="9.75" height="9.75" transform="translate(128.03 465.14) rotate(-180)"/><rect class="cls-1" x="302.93" y="227.8" width="9.75" height="9.75" transform="translate(615.61 465.35) rotate(-180)"/><rect class="cls-1" x="293.18" y="227.8" width="9.75" height="9.75" transform="translate(596.11 465.35) rotate(-180)"/><rect class="cls-1" x="283.43" y="227.8" width="9.75" height="9.75" transform="translate(576.6 465.35) rotate(-180)"/><rect class="cls-1" x="273.67" y="227.8" width="9.75" height="9.75" transform="translate(557.1 465.35) rotate(-180)"/><rect class="cls-1" x="263.92" y="227.8" width="9.75" height="9.75" transform="translate(537.6 465.35) rotate(-180)"/><rect class="cls-1" x="254.17" y="227.8" width="9.75" height="9.75" transform="translate(518.09 465.35) rotate(-180)"/><rect class="cls-1" x="244.42" y="227.8" width="9.75" height="9.75" transform="translate(498.59 465.35) rotate(-180)"/><rect class="cls-1" x="234.67" y="227.8" width="9.75" height="9.75" transform="translate(479.09 465.35) rotate(-180)"/><rect class="cls-1" x="224.92" y="227.8" width="9.75" height="9.75" transform="translate(459.58 465.35) rotate(-180)"/><rect class="cls-1" x="215.16" y="227.8" width="9.75" height="9.75" transform="translate(440.08 465.35) rotate(-180)"/><rect class="cls-1" x="205.41" y="227.8" width="9.75" height="9.75" transform="translate(420.58 465.35) rotate(-180)"/><rect class="cls-1" x="195.66" y="227.8" width="9.75" height="9.75" transform="translate(401.07 465.35) rotate(-180)"/><rect class="cls-1" x="185.91" y="227.8" width="9.75" height="9.75" transform="translate(381.57 465.35) rotate(-180)"/><rect class="cls-1" x="176.16" y="227.8" width="9.75" height="9.75" transform="translate(362.07 465.35) rotate(-180)"/><rect class="cls-1" x="166.41" y="227.8" width="9.75" height="9.75" transform="translate(342.57 465.35) rotate(-180)"/><rect class="cls-1" x="156.66" y="227.8" width="9.75" height="9.75" transform="translate(323.06 465.35) rotate(-180)"/><rect class="cls-1" x="146.9" y="227.8" width="9.75" height="9.75" transform="translate(303.56 465.35) rotate(-180)"/><rect class="cls-1" x="137.15" y="227.8" width="9.75" height="9.75" transform="translate(284.06 465.35) rotate(-180)"/><rect class="cls-1" x="127.4" y="227.8" width="9.75" height="9.75" transform="translate(264.55 465.35) rotate(-180)"/><rect class="cls-1" x="117.65" y="227.8" width="9.75" height="9.75" transform="translate(245.05 465.35) rotate(-180)"/><rect class="cls-1" x="107.9" y="227.8" width="9.75" height="9.75" transform="translate(225.55 465.35) rotate(-180)"/><rect class="cls-1" x="98.15" y="227.8" width="9.75" height="9.75" transform="translate(206.04 465.35) rotate(-180)"/><rect class="cls-1" x="88.39" y="227.8" width="9.75" height="9.75" transform="translate(186.54 465.35) rotate(-180)"/><rect class="cls-1" x="78.64" y="227.8" width="9.75" height="9.75" transform="translate(167.04 465.35) rotate(-180)"/><rect class="cls-1" x="68.89" y="227.8" width="9.75" height="9.75" transform="translate(147.53 465.35) rotate(-180)"/><rect class="cls-1" x="49.39" y="237.36" width="9.75" height="9.56" transform="translate(108.53 484.28) rotate(-180)"/><rect class="cls-1" x="39.64" y="237.36" width="9.75" height="9.56" transform="translate(89.03 484.28) rotate(-180)"/><rect class="cls-1" x="302.93" y="237.36" width="9.75" height="9.75" transform="translate(615.61 484.47) rotate(-180)"/><rect class="cls-1" x="293.18" y="237.36" width="9.75" height="9.75" transform="translate(596.11 484.47) rotate(-180)"/><rect class="cls-1" x="283.43" y="237.36" width="9.75" height="9.75" transform="translate(576.6 484.47) rotate(-180)"/><rect class="cls-1" x="273.67" y="237.36" width="9.75" height="9.75" transform="translate(557.1 484.47) rotate(-180)"/><rect class="cls-1" x="263.92" y="237.36" width="9.75" height="9.75" transform="translate(537.6 484.47) rotate(-180)"/><rect class="cls-1" x="254.17" y="237.36" width="9.75" height="9.75" transform="translate(518.09 484.47) rotate(-180)"/><rect class="cls-1" x="244.42" y="237.36" width="9.75" height="9.75" transform="translate(498.59 484.47) rotate(-180)"/><rect class="cls-1" x="234.67" y="237.36" width="9.75" height="9.75" transform="translate(479.09 484.47) rotate(-180)"/><rect class="cls-1" x="224.92" y="237.36" width="9.75" height="9.75" transform="translate(459.58 484.47) rotate(-180)"/><rect class="cls-1" x="215.16" y="237.36" width="9.75" height="9.75" transform="translate(440.08 484.47) rotate(-180)"/><rect class="cls-1" x="205.41" y="237.36" width="9.75" height="9.75" transform="translate(420.58 484.47) rotate(-180)"/><rect class="cls-1" x="195.66" y="237.36" width="9.75" height="9.75" transform="translate(401.07 484.47) rotate(-180)"/><rect class="cls-1" x="185.91" y="237.36" width="9.75" height="9.75" transform="translate(381.57 484.47) rotate(-180)"/><rect class="cls-1" x="176.16" y="237.36" width="9.75" height="9.75" transform="translate(362.07 484.47) rotate(-180)"/><rect class="cls-1" x="166.41" y="237.36" width="9.75" height="9.75" transform="translate(342.57 484.47) rotate(-180)"/><rect class="cls-1" x="156.66" y="237.36" width="9.75" height="9.75" transform="translate(323.06 484.47) rotate(-180)"/><rect class="cls-1" x="146.9" y="237.36" width="9.75" height="9.75" transform="translate(303.56 484.47) rotate(-180)"/><rect class="cls-1" x="137.15" y="237.36" width="9.75" height="9.75" transform="translate(284.06 484.47) rotate(-180)"/><rect class="cls-1" x="127.4" y="237.36" width="9.75" height="9.75" transform="translate(264.55 484.47) rotate(-180)"/><rect class="cls-1" x="117.65" y="237.36" width="9.75" height="9.75" transform="translate(245.05 484.47) rotate(-180)"/><rect class="cls-1" x="107.9" y="237.36" width="9.75" height="9.75" transform="translate(225.55 484.47) rotate(-180)"/><rect class="cls-1" x="98.15" y="237.36" width="9.75" height="9.75" transform="translate(206.04 484.47) rotate(-180)"/><rect class="cls-1" x="88.39" y="237.36" width="9.75" height="9.75" transform="translate(186.54 484.47) rotate(-180)"/><rect class="cls-1" x="78.64" y="237.36" width="9.75" height="9.75" transform="translate(167.04 484.47) rotate(-180)"/><rect class="cls-1" x="68.89" y="237.36" width="9.75" height="9.75" transform="translate(147.53 484.47) rotate(-180)"/><rect class="cls-1" x="59.14" y="237.26" width="9.75" height="9.75" transform="translate(128.03 484.28) rotate(-180)"/><rect class="cls-1" x="302.93" y="180.15" width="9.75" height="9.75" transform="translate(615.61 370.05) rotate(-180)"/><rect class="cls-1" x="262.8" y="189.63" width="9.75" height="9.75" transform="translate(535.36 389) rotate(-180)"/><rect class="cls-1" x="253.05" y="180.15" width="9.75" height="9.75" transform="translate(515.85 370.05) rotate(-180)"/><rect class="cls-1" x="272.55" y="199.38" width="33.41" height="9.75" transform="translate(578.52 408.51) rotate(-180)"/><rect class="cls-1" x="273.67" y="208.63" width="39.01" height="9.75" transform="translate(586.35 427.01) rotate(-180)"/><rect class="cls-1" x="263.92" y="208.63" width="10.19" height="9.75" transform="translate(538.03 427.01) rotate(-180)"/><rect class="cls-1" x="68.89" y="218.24" width="243.79" height="28.87" transform="translate(381.57 465.35) rotate(-180)"/><rect class="cls-2" y="386.85" width="500" height="413.63" transform="translate(500 1187.32) rotate(180)"/><rect class="cls-3" x="301.12" y="195.84" width="201.28" height="197.01"/><rect class="cls-3" y="244.71" width="501.54" height="154.74"/><rect class="cls-3" x="496.86" y="159.19" width="9.35" height="9.35"/><rect class="cls-3" x="496.86" y="149.84" width="9.35" height="9.35"/><rect class="cls-3" x="496.86" y="140.49" width="9.35" height="9.35"/><rect class="cls-3" x="496.86" y="131.14" width="9.35" height="9.35"/><rect class="cls-3" x="496.86" y="121.79" width="9.35" height="9.35"/><rect class="cls-3" x="496.86" y="112.44" width="9.35" height="9.35"/><rect class="cls-3" x="496.86" y="103.09" width="9.35" height="9.35"/><rect class="cls-3" x="450.12" y="93.74" width="56.09" height="46.75"/><rect class="cls-3" x="468.81" y="84.39" width="37.4" height="9.35"/><rect class="cls-3" x="478.16" y="75.04" width="28.05" height="9.35"/><rect class="cls-3" x="487.51" y="65.7" width="18.7" height="9.35"/><rect class="cls-3" x="487.51" y="168.53" width="9.35" height="9.35"/><rect class="cls-3" x="450.12" y="103.09" width="9.35" height="9.35"/><rect class="cls-3" x="403.37" y="131.14" width="9.35" height="9.35"/><rect class="cls-3" x="394.02" y="112.44" width="9.35" height="9.35"/><rect class="cls-3" x="422.07" y="103.09" width="9.35" height="9.35"/><rect class="cls-3" x="440.77" y="103.09" width="9.35" height="9.35"/><rect class="cls-3" x="431.42" y="93.74" width="9.35" height="9.35"/><rect class="cls-3" x="478.16" y="56.35" width="9.35" height="9.35"/><rect class="cls-3" x="487.51" y="56.35" width="9.35" height="9.35"/><rect class="cls-3" x="487.51" y="47" width="9.35" height="9.35"/><rect class="cls-3" x="478.16" y="28.3" width="9.35" height="9.35"/><rect class="cls-3" x="440.77" y="56.35" width="9.35" height="9.35"/><rect class="cls-3" x="496.86" y="56.35" width="9.35" height="9.35"/><rect class="cls-3" x="496.86" y="47" width="9.35" height="9.35"/><rect class="cls-3" x="496.86" y="37.65" width="9.35" height="9.35"/><rect class="cls-3" x="450.12" y="75.04" width="9.35" height="9.35"/><rect class="cls-3" x="459.47" y="75.04" width="9.35" height="18.7"/><rect class="cls-3" x="468.81" y="56.35" width="9.35" height="18.7"/><rect class="cls-3" x="375.32" y="131.14" width="9.35" height="9.35"/><rect class="cls-3" x="365.97" y="131.14" width="9.35" height="9.35"/><rect class="cls-3" x="375.32" y="121.79" width="9.35" height="9.35"/><rect class="cls-3" x="356.63" y="112.44" width="9.35" height="9.35"/><rect class="cls-3" x="347.28" y="121.79" width="18.7" height="9.35"/><rect class="cls-3" x="384.67" y="131.14" width="18.7" height="9.35"/><rect class="cls-3" x="347.28" y="159.19" width="37.4" height="9.35"/><rect class="cls-3" x="337.93" y="168.53" width="9.35" height="9.35"/><rect class="cls-3" x="328.58" y="168.53" width="9.35" height="9.35"/><rect class="cls-3" x="309.88" y="140.49" width="9.35" height="9.35"/><rect class="cls-3" x="394.02" y="140.49" width="9.35" height="9.35"/><rect class="cls-3" x="384.67" y="140.49" width="116.86" height="56.09"/><rect class="cls-3" x="375.32" y="140.49" width="9.35" height="9.35"/><rect class="cls-3" x="431.42" y="112.44" width="18.7" height="9.35"/><rect class="cls-3" x="412.72" y="121.79" width="9.35" height="9.35"/><rect class="cls-3" x="431.42" y="121.79" width="9.35" height="9.35"/><rect class="cls-3" x="422.07" y="131.14" width="28.05" height="9.35"/><rect class="cls-3" x="356.63" y="149.84" width="28.05" height="9.35"/><rect class="cls-3" x="478.16" y="177.88" width="9.35" height="9.35"/><rect class="cls-3" x="468.81" y="177.88" width="9.35" height="9.35"/><rect class="cls-3" x="459.47" y="177.88" width="9.35" height="9.35"/><rect class="cls-3" x="450.12" y="168.53" width="9.35" height="18.7"/><rect class="cls-3" x="440.77" y="168.53" width="9.35" height="18.7"/><rect class="cls-3" x="431.42" y="177.88" width="9.35" height="9.35"/><rect class="cls-3" x="422.07" y="177.88" width="9.35" height="9.35"/><rect class="cls-3" x="412.72" y="187.23" width="9.35" height="9.35"/><rect class="cls-3" x="403.37" y="187.23" width="9.35" height="9.35"/><rect class="cls-3" x="394.02" y="187.23" width="9.35" height="9.35"/><rect class="cls-3" x="375.32" y="177.88" width="9.35" height="9.35"/><rect class="cls-3" x="365.97" y="177.88" width="9.35" height="9.35"/><rect class="cls-3" x="356.63" y="177.88" width="9.35" height="9.35"/><rect class="cls-3" x="347.28" y="177.88" width="9.35" height="9.35"/><rect class="cls-3" x="337.93" y="177.88" width="9.35" height="9.35"/><rect class="cls-3" x="328.58" y="177.88" width="9.35" height="9.35"/><rect class="cls-3" x="319.23" y="177.88" width="65.44" height="18.7"/><rect class="cls-3" x="319.23" y="159.19" width="9.35" height="9.35"/><rect class="cls-3" x="337.93" y="149.84" width="9.35" height="9.35"/><rect class="cls-3" x="347.28" y="168.53" width="74.79" height="9.35"/><rect class="cls-3" x="192.86" y="177.82" width="9.36" height="28.98" transform="translate(395.09 384.63) rotate(-180)"/><rect class="cls-3" x="192.86" y="168.07" width="9.75" height="9.75" transform="translate(395.48 345.9) rotate(-180)"/><rect class="cls-3" x="222.12" y="157.56" width="9.75" height="9.75" transform="translate(453.99 324.88) rotate(-180)"/><rect class="cls-3" x="231.87" y="167.32" width="9.75" height="9.75" transform="translate(473.49 344.38) rotate(-180)"/><rect class="cls-3" x="251.37" y="138.06" width="9.75" height="9.75" transform="translate(512.49 285.88) rotate(-180)"/><rect class="cls-3" x="212.37" y="177.82" width="9.75" height="9.75" transform="translate(434.48 365.4) rotate(-180)"/><rect class="cls-3" x="202.61" y="168.07" width="9.75" height="9.75" transform="translate(414.98 345.9) rotate(-180)"/><rect class="cls-3" x="202.23" y="187.58" width="10.14" height="9.75" transform="translate(414.59 384.9) rotate(-180)"/><rect class="cls-3" x="183.11" y="187.7" width="9.75" height="18.85" transform="translate(375.97 394.25) rotate(-180)"/><rect class="cls-3" x="212.37" y="187.58" width="9.75" height="9.75" transform="translate(434.48 384.9) rotate(-180)"/><rect class="cls-3" x="202.23" y="197.33" width="39.77" height="9.22" transform="translate(444.23 403.88) rotate(-180)"/><rect class="cls-3" x="192.86" y="206.55" width="9.36" height="9.36" transform="translate(395.09 422.47) rotate(-180)"/><rect class="cls-3" x="202.23" y="206.55" width="19.89" height="9.36" transform="translate(424.34 422.47) rotate(-180)"/><rect class="cls-3" x="222.12" y="206.8" width="19.5" height="9.11" transform="translate(463.74 422.72) rotate(-180)"/><rect class="cls-3" x="241.62" y="206.8" width="19.5" height="9.11" transform="translate(502.74 422.72) rotate(-180)"/><rect class="cls-3" x="231.87" y="197.05" width="29.25" height="9.75" transform="translate(492.99 403.85) rotate(-180)"/><rect class="cls-3" x="222.12" y="187.58" width="9.75" height="9.75" transform="translate(453.99 384.9) rotate(-180)"/><rect class="cls-3" x="241.62" y="187.58" width="8.63" height="9.4" transform="translate(491.87 384.55) rotate(-180)"/><rect class="cls-3" x="115.79" y="138.06" width="9.75" height="9.75" transform="translate(241.32 285.88) rotate(-180)"/><rect class="cls-3" x="66.25" y="167.24" width="9.75" height="9.75" transform="translate(142.25 344.23) rotate(-180)"/><rect class="cls-3" x="76.34" y="186.77" width="9.75" height="9.5" transform="translate(162.44 383.03) rotate(-180)"/><rect class="cls-3" x="56.34" y="176.99" width="9.75" height="9.75" transform="translate(122.43 363.73) rotate(-180)"/><rect class="cls-3" x="27" y="186.97" width="9.75" height="9.75" transform="translate(63.76 383.69) rotate(-180)"/><rect class="cls-3" x="-3.23" y="186.97" width="30.24" height="9.75" transform="translate(23.77 383.69) rotate(-180)"/><rect class="cls-3" x="27" y="177.3" width="9.75" height="9.75" transform="translate(63.76 364.35) rotate(-180)"/><rect class="cls-3" x="134.35" y="167.55" width="9.75" height="9.75" transform="translate(278.46 344.84) rotate(-180)"/><rect class="cls-3" x="163.61" y="168.32" width="9.75" height="9.75" transform="translate(336.97 346.39) rotate(-180)"/><rect class="cls-3" x="152.69" y="147.81" width="9.75" height="9.75" transform="translate(315.14 305.38) rotate(-180)"/><rect class="cls-3" x="153.86" y="178.08" width="9.75" height="9.5" transform="translate(317.46 365.65) rotate(-180)"/><rect class="cls-3" x="124.6" y="177.3" width="9.75" height="9.75" transform="translate(258.95 364.35) rotate(-180)"/><rect class="cls-3" x="105.1" y="188.09" width="9.75" height="9.75" transform="translate(219.95 385.93) rotate(-180)"/><rect class="cls-3" x="114.85" y="197.84" width="9.75" height="9.3" transform="translate(239.45 404.99) rotate(-180)"/><rect class="cls-3" x="124.6" y="197.84" width="9.75" height="18.07" transform="translate(258.95 413.76) rotate(-180)"/><rect class="cls-3" x="134.35" y="187.05" width="9.75" height="19.25" transform="translate(278.46 393.35) rotate(-180)"/><rect class="cls-3" x="173.36" y="178.08" width="9.75" height="19.25" transform="translate(356.47 375.4) rotate(-180)"/><rect class="cls-3" x="144.1" y="196.8" width="9.75" height="9.75" transform="translate(297.96 403.35) rotate(-180)"/><rect class="cls-3" x="134.35" y="206.3" width="9.75" height="9.62" transform="translate(278.46 422.22) rotate(-180)"/><rect class="cls-3" x="153.86" y="206.55" width="45.26" height="9.36" transform="translate(352.97 422.47) rotate(-180)"/><rect class="cls-3" x="144.1" y="187.05" width="29.3" height="28.71" transform="translate(317.51 402.82) rotate(-180)"/><rect class="cls-3" x="96.16" y="197.62" width="8.94" height="8.94" transform="translate(201.26 404.17) rotate(-180)"/><rect class="cls-3" x="56.34" y="186.74" width="19.82" height="28.98" transform="translate(132.5 402.46) rotate(-180)"/><rect class="cls-3" x="36.84" y="225.4" width="9.75" height="9.75" transform="translate(83.43 460.54) rotate(-180)"/><rect class="cls-3" x="27" y="234.86" width="9.75" height="9.75" transform="translate(63.76 479.47) rotate(-180)"/><rect class="cls-3" x="17.25" y="234.86" width="9.75" height="9.75" transform="translate(44.26 479.47) rotate(-180)"/><rect class="cls-3" x="-3.38" y="196.58" width="20.64" height="48.03" transform="translate(13.87 441.19) rotate(-180)"/><rect class="cls-3" x="17.25" y="225.29" width="9.75" height="9.75" transform="translate(44.26 460.33) rotate(-180)"/><rect class="cls-3" x="27" y="215.84" width="9.75" height="9.65" transform="translate(63.76 441.33) rotate(-180)"/><rect class="cls-3" x="46.59" y="196.53" width="9.75" height="9.75" transform="translate(102.93 402.82) rotate(-180)"/><rect class="cls-3" x="36.84" y="196.53" width="9.75" height="9.75" transform="translate(83.43 402.82) rotate(-180)"/><rect class="cls-3" x="17.25" y="206.48" width="19.5" height="9.75" transform="translate(54.01 422.72) rotate(-180)"/><rect class="cls-3" x="35.61" y="215.84" width="20.73" height="9.56" transform="translate(91.95 441.23) rotate(-180)"/><rect class="cls-3" x="86.72" y="206.8" width="28.13" height="9.11" transform="translate(201.57 422.72) rotate(-180)"/><rect class="cls-3" x="95.35" y="178.34" width="9.75" height="9.75" transform="translate(200.45 366.43) rotate(-180)"/><rect class="cls-3" x="279.51" y="147.73" width="9.75" height="9.75" transform="translate(568.76 305.22) rotate(-180)"/><rect class="cls-3" x="300.13" y="108.73" width="9.75" height="9.75" transform="translate(610.01 227.21) rotate(-180)"/><rect class="cls-3" x="279.51" y="177.75" width="9.75" height="9.75" transform="translate(568.76 365.24) rotate(-180)"/><rect class="cls-3" x="299.01" y="187.5" width="27.41" height="19.51" transform="translate(625.42 394.5) rotate(-180)"/><rect class="cls-3" x="269.75" y="168.24" width="9.75" height="9.75" transform="translate(549.26 346.23) rotate(-180)"/><rect class="cls-3" x="269.75" y="187.22" width="9.75" height="9.75" transform="translate(549.26 384.19) rotate(-180)"/><rect class="cls-3" x="279.51" y="187.5" width="9.75" height="9.75" transform="translate(568.76 384.75) rotate(-180)"/><rect class="cls-3" x="289.26" y="187.5" width="9.75" height="9.75" transform="translate(588.27 384.75) rotate(-180)"/><rect class="cls-3" x="300.13" y="215.84" width="9.75" height="9.75" transform="translate(610.01 441.43) rotate(-180)"/><rect class="cls-3" x="290.38" y="215.84" width="9.75" height="9.75" transform="translate(590.51 441.43) rotate(-180)"/><rect class="cls-3" x="280.63" y="215.84" width="9.75" height="9.75" transform="translate(571 441.43) rotate(-180)"/><rect class="cls-3" x="270.87" y="215.84" width="9.75" height="9.75" transform="translate(551.5 441.43) rotate(-180)"/><rect class="cls-3" x="261.12" y="215.84" width="9.75" height="9.75" transform="translate(532 441.43) rotate(-180)"/><rect class="cls-3" x="251.37" y="215.84" width="9.75" height="9.75" transform="translate(512.49 441.43) rotate(-180)"/><rect class="cls-3" x="241.62" y="215.84" width="9.75" height="9.75" transform="translate(492.99 441.43) rotate(-180)"/><rect class="cls-3" x="231.87" y="215.84" width="9.75" height="9.75" transform="translate(473.49 441.43) rotate(-180)"/><rect class="cls-3" x="222.12" y="215.84" width="9.75" height="9.75" transform="translate(453.99 441.43) rotate(-180)"/><rect class="cls-3" x="212.37" y="215.84" width="9.75" height="9.75" transform="translate(434.48 441.43) rotate(-180)"/><rect class="cls-3" x="202.61" y="215.84" width="9.75" height="9.75" transform="translate(414.98 441.43) rotate(-180)"/><rect class="cls-3" x="192.86" y="215.84" width="9.75" height="9.75" transform="translate(395.48 441.43) rotate(-180)"/><rect class="cls-3" x="183.11" y="215.84" width="9.75" height="9.75" transform="translate(375.97 441.43) rotate(-180)"/><rect class="cls-3" x="173.36" y="215.84" width="9.75" height="9.75" transform="translate(356.47 441.43) rotate(-180)"/><rect class="cls-3" x="163.61" y="215.84" width="9.75" height="9.75" transform="translate(336.97 441.43) rotate(-180)"/><rect class="cls-3" x="153.86" y="215.84" width="9.75" height="9.75" transform="translate(317.46 441.43) rotate(-180)"/><rect class="cls-3" x="144.1" y="215.84" width="9.75" height="9.75" transform="translate(297.96 441.43) rotate(-180)"/><rect class="cls-3" x="134.35" y="215.84" width="9.75" height="9.75" transform="translate(278.46 441.43) rotate(-180)"/><rect class="cls-3" x="124.6" y="215.84" width="9.75" height="9.75" transform="translate(258.95 441.43) rotate(-180)"/><rect class="cls-3" x="114.85" y="215.84" width="9.75" height="9.75" transform="translate(239.45 441.43) rotate(-180)"/><rect class="cls-3" x="105.1" y="215.84" width="9.75" height="9.75" transform="translate(219.95 441.43) rotate(-180)"/><rect class="cls-3" x="95.35" y="215.84" width="9.75" height="9.75" transform="translate(200.45 441.43) rotate(-180)"/><rect class="cls-3" x="85.6" y="215.84" width="9.75" height="9.75" transform="translate(180.94 441.43) rotate(-180)"/><rect class="cls-3" x="75.84" y="215.84" width="9.75" height="9.75" transform="translate(161.44 441.43) rotate(-180)"/><rect class="cls-3" x="66.09" y="215.84" width="9.75" height="9.75" transform="translate(141.94 441.43) rotate(-180)"/><rect class="cls-3" x="46.59" y="225.4" width="9.75" height="9.56" transform="translate(102.93 460.35) rotate(-180)"/><rect class="cls-3" x="56.34" y="225.29" width="9.75" height="9.75" transform="translate(122.43 460.33) rotate(-180)"/><rect class="cls-3" x="300.13" y="225.4" width="9.75" height="9.75" transform="translate(610.01 460.54) rotate(-180)"/><rect class="cls-3" x="290.38" y="225.4" width="9.75" height="9.75" transform="translate(590.51 460.54) rotate(-180)"/><rect class="cls-3" x="280.63" y="225.4" width="9.75" height="9.75" transform="translate(571 460.54) rotate(-180)"/><rect class="cls-3" x="270.87" y="225.4" width="9.75" height="9.75" transform="translate(551.5 460.54) rotate(-180)"/><rect class="cls-3" x="261.12" y="225.4" width="9.75" height="9.75" transform="translate(532 460.54) rotate(-180)"/><rect class="cls-3" x="251.37" y="225.4" width="9.75" height="9.75" transform="translate(512.49 460.54) rotate(-180)"/><rect class="cls-3" x="241.62" y="225.4" width="9.75" height="9.75" transform="translate(492.99 460.54) rotate(-180)"/><rect class="cls-3" x="231.87" y="225.4" width="9.75" height="9.75" transform="translate(473.49 460.54) rotate(-180)"/><rect class="cls-3" x="222.12" y="225.4" width="9.75" height="9.75" transform="translate(453.99 460.54) rotate(-180)"/><rect class="cls-3" x="212.37" y="225.4" width="9.75" height="9.75" transform="translate(434.48 460.54) rotate(-180)"/><rect class="cls-3" x="202.61" y="225.4" width="9.75" height="9.75" transform="translate(414.98 460.54) rotate(-180)"/><rect class="cls-3" x="192.86" y="225.4" width="9.75" height="9.75" transform="translate(395.48 460.54) rotate(-180)"/><rect class="cls-3" x="183.11" y="225.4" width="9.75" height="9.75" transform="translate(375.97 460.54) rotate(-180)"/><rect class="cls-3" x="173.36" y="225.4" width="9.75" height="9.75" transform="translate(356.47 460.54) rotate(-180)"/><rect class="cls-3" x="163.61" y="225.4" width="9.75" height="9.75" transform="translate(336.97 460.54) rotate(-180)"/><rect class="cls-3" x="153.86" y="225.4" width="9.75" height="9.75" transform="translate(317.46 460.54) rotate(-180)"/><rect class="cls-3" x="144.1" y="225.4" width="9.75" height="9.75" transform="translate(297.96 460.54) rotate(-180)"/><rect class="cls-3" x="134.35" y="225.4" width="9.75" height="9.75" transform="translate(278.46 460.54) rotate(-180)"/><rect class="cls-3" x="124.6" y="225.4" width="9.75" height="9.75" transform="translate(258.95 460.54) rotate(-180)"/><rect class="cls-3" x="114.85" y="225.4" width="9.75" height="9.75" transform="translate(239.45 460.54) rotate(-180)"/><rect class="cls-3" x="105.1" y="225.4" width="9.75" height="9.75" transform="translate(219.95 460.54) rotate(-180)"/><rect class="cls-3" x="95.35" y="225.4" width="9.75" height="9.75" transform="translate(200.45 460.54) rotate(-180)"/><rect class="cls-3" x="85.6" y="225.4" width="9.75" height="9.75" transform="translate(180.94 460.54) rotate(-180)"/><rect class="cls-3" x="75.84" y="225.4" width="9.75" height="9.75" transform="translate(161.44 460.54) rotate(-180)"/><rect class="cls-3" x="66.09" y="225.4" width="9.75" height="9.75" transform="translate(141.94 460.54) rotate(-180)"/><rect class="cls-3" x="46.59" y="234.95" width="9.75" height="9.56" transform="translate(102.93 479.47) rotate(-180)"/><rect class="cls-3" x="36.84" y="234.95" width="9.75" height="9.56" transform="translate(83.43 479.47) rotate(-180)"/><rect class="cls-3" x="300.13" y="234.95" width="9.75" height="9.75" transform="translate(610.01 479.66) rotate(-180)"/><rect class="cls-3" x="290.38" y="234.95" width="9.75" height="9.75" transform="translate(590.51 479.66) rotate(-180)"/><rect class="cls-3" x="280.63" y="234.95" width="9.75" height="9.75" transform="translate(571 479.66) rotate(-180)"/><rect class="cls-3" x="270.87" y="234.95" width="9.75" height="9.75" transform="translate(551.5 479.66) rotate(-180)"/><rect class="cls-3" x="261.12" y="234.95" width="9.75" height="9.75" transform="translate(532 479.66) rotate(-180)"/><rect class="cls-3" x="251.37" y="234.95" width="9.75" height="9.75" transform="translate(512.49 479.66) rotate(-180)"/><rect class="cls-3" x="241.62" y="234.95" width="9.75" height="9.75" transform="translate(492.99 479.66) rotate(-180)"/><rect class="cls-3" x="231.87" y="234.95" width="9.75" height="9.75" transform="translate(473.49 479.66) rotate(-180)"/><rect class="cls-3" x="222.12" y="234.95" width="9.75" height="9.75" transform="translate(453.99 479.66) rotate(-180)"/><rect class="cls-3" x="212.37" y="234.95" width="9.75" height="9.75" transform="translate(434.48 479.66) rotate(-180)"/><rect class="cls-3" x="202.61" y="234.95" width="9.75" height="9.75" transform="translate(414.98 479.66) rotate(-180)"/><rect class="cls-3" x="192.86" y="234.95" width="9.75" height="9.75" transform="translate(395.48 479.66) rotate(-180)"/><rect class="cls-3" x="183.11" y="234.95" width="9.75" height="9.75" transform="translate(375.97 479.66) rotate(-180)"/><rect class="cls-3" x="173.36" y="234.95" width="9.75" height="9.75" transform="translate(356.47 479.66) rotate(-180)"/><rect class="cls-3" x="163.61" y="234.95" width="9.75" height="9.75" transform="translate(336.97 479.66) rotate(-180)"/><rect class="cls-3" x="153.86" y="234.95" width="9.75" height="9.75" transform="translate(317.46 479.66) rotate(-180)"/><rect class="cls-3" x="144.1" y="234.95" width="9.75" height="9.75" transform="translate(297.96 479.66) rotate(-180)"/><rect class="cls-3" x="134.35" y="234.95" width="9.75" height="9.75" transform="translate(278.46 479.66) rotate(-180)"/><rect class="cls-3" x="124.6" y="234.95" width="9.75" height="9.75" transform="translate(258.95 479.66) rotate(-180)"/><rect class="cls-3" x="114.85" y="234.95" width="9.75" height="9.75" transform="translate(239.45 479.66) rotate(-180)"/><rect class="cls-3" x="105.1" y="234.95" width="9.75" height="9.75" transform="translate(219.95 479.66) rotate(-180)"/><rect class="cls-3" x="95.35" y="234.95" width="9.75" height="9.75" transform="translate(200.45 479.66) rotate(-180)"/><rect class="cls-3" x="85.6" y="234.95" width="9.75" height="9.75" transform="translate(180.94 479.66) rotate(-180)"/><rect class="cls-3" x="75.84" y="234.95" width="9.75" height="9.75" transform="translate(161.44 479.66) rotate(-180)"/><rect class="cls-3" x="66.09" y="234.95" width="9.75" height="9.75" transform="translate(141.94 479.66) rotate(-180)"/><rect class="cls-3" x="56.34" y="234.86" width="9.75" height="9.75" transform="translate(122.43 479.47) rotate(-180)"/><rect class="cls-3" x="300.13" y="177.75" width="9.75" height="9.75" transform="translate(610.01 365.24) rotate(-180)"/><rect class="cls-3" x="260" y="187.22" width="9.75" height="9.75" transform="translate(529.76 384.19) rotate(-180)"/><rect class="cls-3" x="250.25" y="177.75" width="9.75" height="9.75" transform="translate(510.25 365.24) rotate(-180)"/><rect class="cls-3" x="269.75" y="196.97" width="33.41" height="9.75" transform="translate(572.92 403.7) rotate(-180)"/><rect class="cls-3" x="270.87" y="206.22" width="39.01" height="9.75" transform="translate(580.75 422.2) rotate(-180)"/><rect class="cls-3" x="261.12" y="206.22" width="10.19" height="9.75" transform="translate(532.44 422.2) rotate(-180)"/><rect class="cls-3" x="66.09" y="215.84" width="243.79" height="28.87" transform="translate(375.97 460.54) rotate(-180)"/><rect class="cls-3" x="368.84" y="398.86" width="9.36" height="28.98" transform="translate(747.04 826.71) rotate(180)"/><rect class="cls-3" x="368.84" y="427.84" width="9.75" height="9.75" transform="translate(747.43 865.44) rotate(180)"/><rect class="cls-3" x="398.09" y="438.35" width="9.75" height="9.75" transform="translate(805.94 886.45) rotate(180)"/><rect class="cls-3" x="407.84" y="428.6" width="9.75" height="9.75" transform="translate(825.44 866.95) rotate(180)"/><rect class="cls-3" x="427.35" y="457.85" width="9.75" height="9.75" transform="translate(864.45 925.46) rotate(180)"/><rect class="cls-3" x="388.34" y="418.09" width="9.75" height="9.75" transform="translate(786.43 845.93) rotate(180)"/><rect class="cls-3" x="378.59" y="427.84" width="9.75" height="9.75" transform="translate(766.93 865.44) rotate(180)"/><rect class="cls-3" x="378.2" y="408.34" width="10.14" height="9.75" transform="translate(766.54 826.43) rotate(180)"/><rect class="cls-3" x="359.09" y="399.12" width="9.75" height="18.85" transform="translate(727.93 817.08) rotate(180)"/><rect class="cls-3" x="388.34" y="408.34" width="9.75" height="9.75" transform="translate(786.43 826.43) rotate(180)"/><rect class="cls-3" x="378.2" y="399.12" width="39.77" height="9.22" transform="translate(796.18 807.46) rotate(180)"/><rect class="cls-3" x="368.84" y="389.75" width="9.36" height="9.36" transform="translate(747.04 788.87) rotate(180)"/><rect class="cls-3" x="378.2" y="389.75" width="19.89" height="9.36" transform="translate(776.3 788.87) rotate(180)"/><rect class="cls-3" x="398.09" y="389.75" width="19.5" height="9.11" transform="translate(815.69 788.62) rotate(180)"/><rect class="cls-3" x="417.6" y="389.75" width="19.5" height="9.11" transform="translate(854.7 788.62) rotate(180)"/><rect class="cls-3" x="407.84" y="398.86" width="29.25" height="9.75" transform="translate(844.94 807.48) rotate(180)"/><rect class="cls-3" x="398.09" y="408.34" width="9.75" height="9.75" transform="translate(805.94 826.43) rotate(180)"/><rect class="cls-3" x="417.6" y="408.69" width="8.63" height="9.4" transform="translate(843.82 826.79) rotate(180)"/><rect class="cls-3" x="291.76" y="457.85" width="9.75" height="9.75" transform="translate(593.27 925.46) rotate(180)"/><rect class="cls-3" x="242.23" y="428.68" width="9.75" height="9.75" transform="translate(494.21 867.11) rotate(180)"/><rect class="cls-3" x="252.32" y="409.4" width="9.75" height="9.5" transform="translate(514.39 828.3) rotate(180)"/><rect class="cls-3" x="232.32" y="418.93" width="9.75" height="9.75" transform="translate(474.39 847.61) rotate(180)"/><rect class="cls-3" x="202.98" y="408.01" width="9.75" height="9.75" transform="translate(415.71 825.77) rotate(180)"/><rect class="cls-3" x="193.98" y="398.44" width="9.75" height="9.75" transform="translate(397.71 806.63) rotate(180)"/><rect class="cls-3" x="181.99" y="398.44" width="11.99" height="9.75" transform="translate(375.97 806.63) rotate(180)"/><rect class="cls-3" x="172.74" y="408.01" width="30.24" height="9.75" transform="translate(375.72 825.77) rotate(180)"/><rect class="cls-3" x="84.83" y="408.52" width="29.25" height="9.75" transform="translate(198.91 826.8) rotate(180)"/><rect class="cls-3" x="202.98" y="417.76" width="9.75" height="9.75" transform="translate(415.71 845.27) rotate(180)"/><rect class="cls-3" x="193.23" y="428.03" width="9.75" height="9.75" transform="translate(396.21 865.8) rotate(180)"/><rect class="cls-3" x="183.48" y="448.04" width="9.75" height="9.75" transform="translate(376.71 905.84) rotate(180)"/><rect class="cls-3" x="310.33" y="428.37" width="9.75" height="9.75" transform="translate(630.41 866.49) rotate(180)"/><rect class="cls-3" x="339.58" y="427.6" width="9.75" height="9.75" transform="translate(688.92 864.94) rotate(180)"/><rect class="cls-3" x="328.67" y="448.1" width="9.75" height="9.75" transform="translate(667.09 905.96) rotate(180)"/><rect class="cls-3" x="329.83" y="418.09" width="9.75" height="9.5" transform="translate(669.42 845.68) rotate(180)"/><rect class="cls-3" x="300.58" y="418.62" width="9.75" height="9.75" transform="translate(610.91 846.99) rotate(180)"/><rect class="cls-3" x="281.07" y="407.83" width="9.75" height="9.75" transform="translate(571.9 825.4) rotate(180)"/><rect class="cls-3" x="290.83" y="398.52" width="9.75" height="9.3" transform="translate(591.4 806.35) rotate(180)"/><rect class="cls-3" x="300.58" y="389.75" width="9.75" height="18.07" transform="translate(610.91 797.58) rotate(180)"/><rect class="cls-3" x="310.33" y="399.37" width="9.75" height="19.25" transform="translate(630.41 817.98) rotate(180)"/><rect class="cls-3" x="349.34" y="408.34" width="9.75" height="19.25" transform="translate(708.42 835.93) rotate(180)"/><rect class="cls-3" x="320.08" y="399.12" width="9.75" height="9.75" transform="translate(649.91 807.98) rotate(180)"/><rect class="cls-3" x="310.33" y="389.75" width="9.75" height="9.62" transform="translate(630.41 789.12) rotate(180)"/><rect class="cls-3" x="329.83" y="389.75" width="45.26" height="9.36" transform="translate(704.92 788.87) rotate(180)"/><rect class="cls-3" x="320.08" y="389.9" width="29.3" height="28.71" transform="translate(669.46 808.52) rotate(180)"/><rect class="cls-3" x="272.14" y="399.12" width="8.94" height="8.94" transform="translate(553.21 807.17) rotate(180)"/><rect class="cls-3" x="232.32" y="389.94" width="19.82" height="28.98" transform="translate(484.46 808.87) rotate(180)"/><rect class="cls-3" x="162.84" y="398.44" width="9.75" height="9.75" transform="translate(335.43 806.63) rotate(180)"/><rect class="cls-3" x="133.59" y="398.44" width="29.25" height="9.75" transform="translate(296.43 806.63) rotate(180)"/><rect class="cls-3" x="153.09" y="408.01" width="9.75" height="10.13" transform="translate(315.93 826.16) rotate(180)"/><rect class="cls-3" x="143.34" y="408.01" width="9.75" height="10.13" transform="translate(296.43 826.16) rotate(180)"/><rect class="cls-3" x="133.59" y="408.01" width="9.75" height="10.13" transform="translate(276.92 826.16) rotate(180)"/><rect class="cls-3" x="-4.34" y="398.77" width="137.92" height="9.75" transform="translate(129.25 807.29) rotate(180)"/><rect class="cls-3" x="114.08" y="408.52" width="9.75" height="9.75" transform="translate(237.92 826.8) rotate(180)"/><rect class="cls-3" x="114.08" y="418.27" width="9.75" height="9.75" transform="translate(237.92 846.3) rotate(180)"/><rect class="cls-3" x="123.83" y="418.27" width="9.75" height="9.75" transform="translate(257.42 846.3) rotate(180)"/><rect class="cls-3" x="162.99" y="428.03" width="9.75" height="9.75" transform="translate(335.73 865.8) rotate(180)"/><rect class="cls-3" x="153.09" y="418.27" width="9.75" height="9.75" transform="translate(315.93 846.3) rotate(180)"/><rect class="cls-3" x="143.34" y="428.03" width="9.75" height="9.75" transform="translate(296.43 865.8) rotate(180)"/><rect class="cls-3" x="143.34" y="437.78" width="9.75" height="9.75" transform="translate(296.43 885.3) rotate(180)"/><rect class="cls-3" x="133.59" y="437.78" width="9.75" height="9.75" transform="translate(276.92 885.3) rotate(180)"/><rect class="cls-3" x="114.08" y="437.78" width="9.75" height="9.75" transform="translate(237.92 885.3) rotate(180)"/><rect class="cls-3" x="26.32" y="428.03" width="19.5" height="9.75" transform="translate(72.14 865.8) rotate(180)"/><rect class="cls-3" x="45.82" y="437.78" width="9.75" height="9.75" transform="translate(101.39 885.3) rotate(180)"/><rect class="cls-3" x="6.82" y="428.03" width="9.75" height="9.75" transform="translate(23.38 865.8) rotate(180)"/><rect class="cls-3" x="6.82" y="447.53" width="9.75" height="9.75" transform="translate(23.38 904.81) rotate(180)"/><rect class="cls-3" x="16.57" y="447.53" width="9.75" height="9.75" transform="translate(42.89 904.81) rotate(180)"/><rect class="cls-3" x="36.07" y="457.28" width="9.75" height="9.75" transform="translate(81.89 924.31) rotate(180)"/><rect class="cls-3" x="94.58" y="437.78" width="9.75" height="9.75" transform="translate(198.91 885.3) rotate(180)"/><rect class="cls-3" x="94.58" y="447.53" width="9.75" height="9.75" transform="translate(198.91 904.81) rotate(180)"/><rect class="cls-3" x="75.08" y="447.53" width="9.75" height="9.75" transform="translate(159.9 904.81) rotate(180)"/><rect class="cls-3" x="-2.94" y="428.03" width="9.75" height="9.75" transform="translate(3.88 865.8) rotate(180)"/><rect class="cls-3" x="75.08" y="428.03" width="19.5" height="9.75" transform="translate(169.66 865.8) rotate(180)"/><rect class="cls-3" x="104.33" y="418.27" width="9.75" height="9.75" transform="translate(218.41 846.3) rotate(180)"/><rect class="cls-3" x="94.58" y="418.27" width="9.75" height="9.75" transform="translate(198.91 846.3) rotate(180)"/><rect class="cls-3" x="75.08" y="418.27" width="9.75" height="9.75" transform="translate(159.9 846.3) rotate(180)"/><rect class="cls-3" x="65.32" y="428.03" width="9.75" height="9.75" transform="translate(140.4 865.8) rotate(180)"/><rect class="cls-3" x="55.57" y="427.51" width="9.75" height="29.77" transform="translate(120.9 884.79) rotate(180)"/><rect class="cls-3" x="65.32" y="418.27" width="9.75" height="9.75" transform="translate(140.4 846.3) rotate(180)"/><rect class="cls-3" x="55.57" y="418.27" width="9.75" height="9.75" transform="translate(120.9 846.3) rotate(180)"/><rect class="cls-3" x="45.82" y="418.27" width="9.75" height="9.75" transform="translate(101.39 846.3) rotate(180)"/><rect class="cls-3" x="36.07" y="418.27" width="9.75" height="9.75" transform="translate(81.89 846.3) rotate(180)"/><rect class="cls-3" x="26.32" y="418.27" width="9.75" height="9.75" transform="translate(62.39 846.3) rotate(180)"/><rect class="cls-3" x="16.57" y="408.52" width="58.51" height="19.5" transform="translate(91.64 836.55) rotate(180)"/><rect class="cls-3" x="6.82" y="418.27" width="9.75" height="9.75" transform="translate(23.38 846.3) rotate(180)"/><rect class="cls-3" x="-2.94" y="405.87" width="9.75" height="22.16" transform="translate(3.88 833.89) rotate(180)"/><rect class="cls-3" x="212.81" y="397.53" width="20.44" height="10.66" transform="translate(446.06 805.72) rotate(180)"/><rect class="cls-3" x="262.69" y="389.75" width="28.13" height="9.11" transform="translate(553.52 788.62) rotate(180)"/><rect class="cls-3" x="271.32" y="417.58" width="9.75" height="9.75" transform="translate(552.4 844.91) rotate(180)"/><rect class="cls-3" x="455.48" y="448.18" width="9.75" height="9.75" transform="translate(920.72 906.11) rotate(180)"/><rect class="cls-3" x="455.48" y="418.17" width="9.75" height="9.75" transform="translate(920.72 846.09) rotate(180)"/><rect class="cls-3" x="474.98" y="398.66" width="27.41" height="19.51" transform="translate(977.38 816.83) rotate(180)"/><rect class="cls-3" x="445.73" y="427.67" width="9.75" height="9.75" transform="translate(901.21 865.1) rotate(180)"/><rect class="cls-3" x="445.73" y="408.69" width="9.75" height="9.75" transform="translate(901.21 827.14) rotate(180)"/><rect class="cls-3" x="455.48" y="408.42" width="9.75" height="9.75" transform="translate(920.72 826.59) rotate(180)"/><rect class="cls-3" x="465.23" y="408.42" width="9.75" height="9.75" transform="translate(940.22 826.59) rotate(180)"/><rect class="cls-3" x="476.11" y="380.08" width="9.75" height="9.75" transform="translate(961.96 769.91) rotate(180)"/><rect class="cls-3" x="466.35" y="380.08" width="9.75" height="9.75" transform="translate(942.46 769.91) rotate(180)"/><rect class="cls-3" x="456.6" y="380.08" width="9.75" height="9.75" transform="translate(922.96 769.91) rotate(180)"/><rect class="cls-3" x="446.85" y="380.08" width="9.75" height="9.75" transform="translate(903.45 769.91) rotate(180)"/><rect class="cls-3" x="437.1" y="380.08" width="9.75" height="9.75" transform="translate(883.95 769.91) rotate(180)"/><rect class="cls-3" x="427.35" y="380.08" width="9.75" height="9.75" transform="translate(864.45 769.91) rotate(180)"/><rect class="cls-3" x="417.6" y="380.08" width="9.75" height="9.75" transform="translate(844.94 769.91) rotate(180)"/><rect class="cls-3" x="407.84" y="380.08" width="9.75" height="9.75" transform="translate(825.44 769.91) rotate(180)"/><rect class="cls-3" x="398.09" y="380.08" width="9.75" height="9.75" transform="translate(805.94 769.91) rotate(180)"/><rect class="cls-3" x="388.34" y="380.08" width="9.75" height="9.75" transform="translate(786.43 769.91) rotate(180)"/><rect class="cls-3" x="378.59" y="380.08" width="9.75" height="9.75" transform="translate(766.93 769.91) rotate(180)"/><rect class="cls-3" x="368.84" y="380.08" width="9.75" height="9.75" transform="translate(747.43 769.91) rotate(180)"/><rect class="cls-3" x="359.09" y="380.08" width="9.75" height="9.75" transform="translate(727.93 769.91) rotate(180)"/><rect class="cls-3" x="349.34" y="380.08" width="9.75" height="9.75" transform="translate(708.42 769.91) rotate(180)"/><rect class="cls-3" x="339.58" y="380.08" width="9.75" height="9.75" transform="translate(688.92 769.91) rotate(180)"/><rect class="cls-3" x="329.83" y="380.08" width="9.75" height="9.75" transform="translate(669.42 769.91) rotate(180)"/><rect class="cls-3" x="320.08" y="380.08" width="9.75" height="9.75" transform="translate(649.91 769.91) rotate(180)"/><rect class="cls-3" x="310.33" y="380.08" width="9.75" height="9.75" transform="translate(630.41 769.91) rotate(180)"/><rect class="cls-3" x="300.58" y="380.08" width="9.75" height="9.75" transform="translate(610.91 769.91) rotate(180)"/><rect class="cls-3" x="290.83" y="380.08" width="9.75" height="9.75" transform="translate(591.4 769.91) rotate(180)"/><rect class="cls-3" x="281.07" y="380.08" width="9.75" height="9.75" transform="translate(571.9 769.91) rotate(180)"/><rect class="cls-3" x="271.32" y="380.08" width="9.75" height="9.75" transform="translate(552.4 769.91) rotate(180)"/><rect class="cls-3" x="261.57" y="380.08" width="9.75" height="9.75" transform="translate(532.89 769.91) rotate(180)"/><rect class="cls-3" x="251.82" y="380.08" width="9.75" height="9.75" transform="translate(513.39 769.91) rotate(180)"/><rect class="cls-3" x="242.07" y="380.08" width="9.75" height="9.75" transform="translate(493.89 769.91) rotate(180)"/><rect class="cls-3" x="476.11" y="418.17" width="9.75" height="9.75" transform="translate(961.96 846.09) rotate(180)"/><rect class="cls-3" x="435.98" y="408.69" width="9.75" height="9.75" transform="translate(881.71 827.14) rotate(180)"/><rect class="cls-3" x="426.23" y="418.17" width="9.75" height="9.75" transform="translate(862.21 846.09) rotate(180)"/><rect class="cls-3" x="445.73" y="398.94" width="33.41" height="9.75" transform="translate(924.87 807.64) rotate(180)"/><rect class="cls-3" x="446.85" y="389.69" width="39.01" height="9.75" transform="translate(932.71 789.14) rotate(180)"/><rect class="cls-3" x="437.1" y="389.69" width="10.19" height="9.75" transform="translate(884.39 789.14) rotate(180)"/><rect class="cls-2" x="369.81" y="800.43" width="9.36" height="28.98" transform="translate(748.99 1629.83) rotate(180)"/><rect class="cls-2" x="369.81" y="829.41" width="9.75" height="9.75" transform="translate(749.37 1668.56) rotate(180)"/><rect class="cls-2" x="399.07" y="839.91" width="9.75" height="9.75" transform="translate(807.88 1689.58) rotate(180)"/><rect class="cls-2" x="408.82" y="830.16" width="9.75" height="9.75" transform="translate(827.38 1670.08) rotate(180)"/><rect class="cls-2" x="428.32" y="859.42" width="9.75" height="9.75" transform="translate(866.39 1728.58) rotate(180)"/><rect class="cls-2" x="389.31" y="819.65" width="9.75" height="9.75" transform="translate(788.38 1649.06) rotate(180)"/><rect class="cls-2" x="379.56" y="829.41" width="9.75" height="9.75" transform="translate(768.88 1668.56) rotate(180)"/><rect class="cls-2" x="379.18" y="809.9" width="10.14" height="9.75" transform="translate(768.49 1629.56) rotate(180)"/><rect class="cls-2" x="360.06" y="800.68" width="9.75" height="18.85" transform="translate(729.87 1620.21) rotate(180)"/><rect class="cls-2" x="389.31" y="809.9" width="9.75" height="9.75" transform="translate(788.38 1629.56) rotate(180)"/><rect class="cls-2" x="379.18" y="800.68" width="39.77" height="9.22" transform="translate(798.12 1610.58) rotate(180)"/><rect class="cls-2" x="369.81" y="791.31" width="9.36" height="9.36" transform="translate(748.99 1591.99) rotate(180)"/><rect class="cls-2" x="379.18" y="791.31" width="19.89" height="9.36" transform="translate(778.24 1591.99) rotate(180)"/><rect class="cls-2" x="399.07" y="791.31" width="19.5" height="9.11" transform="translate(817.63 1591.74) rotate(180)"/><rect class="cls-2" x="418.57" y="791.31" width="19.5" height="9.11" transform="translate(856.64 1591.74) rotate(180)"/><rect class="cls-2" x="408.82" y="800.43" width="29.25" height="9.75" transform="translate(846.89 1610.61) rotate(180)"/><rect class="cls-2" x="399.07" y="809.9" width="9.75" height="9.75" transform="translate(807.88 1629.56) rotate(180)"/><rect class="cls-2" x="418.57" y="810.26" width="8.63" height="9.4" transform="translate(845.77 1629.91) rotate(180)"/><rect class="cls-2" x="292.73" y="859.42" width="9.75" height="9.75" transform="translate(595.22 1728.58) rotate(180)"/><rect class="cls-2" x="243.2" y="830.24" width="9.75" height="9.75" transform="translate(496.15 1670.23) rotate(180)"/><rect class="cls-2" x="253.29" y="810.96" width="9.75" height="9.5" transform="translate(516.34 1631.43) rotate(180)"/><rect class="cls-2" x="233.29" y="820.49" width="9.75" height="9.75" transform="translate(476.33 1650.73) rotate(180)"/><rect class="cls-2" x="203.95" y="809.57" width="9.75" height="9.75" transform="translate(417.66 1628.89) rotate(180)"/><rect class="cls-2" x="194.95" y="800" width="9.75" height="9.75" transform="translate(399.66 1609.76) rotate(180)"/><rect class="cls-2" x="182.96" y="800" width="11.99" height="9.75" transform="translate(377.91 1609.76) rotate(180)"/><rect class="cls-2" x="173.71" y="809.57" width="30.24" height="9.75" transform="translate(377.67 1628.89) rotate(180)"/><rect class="cls-2" x="85.8" y="810.08" width="29.25" height="9.75" transform="translate(200.85 1629.92) rotate(180)"/><rect class="cls-2" x="203.95" y="819.32" width="9.75" height="9.75" transform="translate(417.66 1648.4) rotate(180)"/><rect class="cls-2" x="194.2" y="829.59" width="9.75" height="9.75" transform="translate(398.15 1668.93) rotate(180)"/><rect class="cls-2" x="184.45" y="849.6" width="9.75" height="9.75" transform="translate(378.65 1708.96) rotate(180)"/><rect class="cls-2" x="311.3" y="829.93" width="9.75" height="9.75" transform="translate(632.35 1669.62) rotate(180)"/><rect class="cls-2" x="340.56" y="829.16" width="9.75" height="9.75" transform="translate(690.86 1668.07) rotate(180)"/><rect class="cls-2" x="329.64" y="849.66" width="9.75" height="9.75" transform="translate(669.04 1709.08) rotate(180)"/><rect class="cls-2" x="330.8" y="819.65" width="9.75" height="9.5" transform="translate(671.36 1648.81) rotate(180)"/><rect class="cls-2" x="301.55" y="820.18" width="9.75" height="9.75" transform="translate(612.85 1650.11) rotate(180)"/><rect class="cls-2" x="282.05" y="809.39" width="9.75" height="9.75" transform="translate(573.85 1628.53) rotate(180)"/><rect class="cls-2" x="291.8" y="800.09" width="9.75" height="9.3" transform="translate(593.35 1609.47) rotate(180)"/><rect class="cls-2" x="301.55" y="791.31" width="9.75" height="18.07" transform="translate(612.85 1600.7) rotate(180)"/><rect class="cls-2" x="311.3" y="800.93" width="9.75" height="19.25" transform="translate(632.35 1621.11) rotate(180)"/><rect class="cls-2" x="350.31" y="809.9" width="9.75" height="19.25" transform="translate(710.37 1639.06) rotate(180)"/><rect class="cls-2" x="321.05" y="800.68" width="9.75" height="9.75" transform="translate(651.86 1611.11) rotate(180)"/><rect class="cls-2" x="311.3" y="791.31" width="9.75" height="9.62" transform="translate(632.35 1592.24) rotate(180)"/><rect class="cls-2" x="330.8" y="791.31" width="45.26" height="9.36" transform="translate(706.87 1591.99) rotate(180)"/><rect class="cls-2" x="321.05" y="791.46" width="29.3" height="28.71" transform="translate(671.4 1611.64) rotate(180)"/><rect class="cls-2" x="273.11" y="800.68" width="8.94" height="8.94" transform="translate(555.16 1610.29) rotate(180)"/><rect class="cls-2" x="233.29" y="791.51" width="19.82" height="28.98" transform="translate(486.4 1612) rotate(180)"/><rect class="cls-2" x="163.81" y="800" width="9.75" height="9.75" transform="translate(337.38 1609.76) rotate(180)"/><rect class="cls-2" x="134.56" y="800" width="29.25" height="9.75" transform="translate(298.37 1609.76) rotate(180)"/><rect class="cls-2" x="154.06" y="809.58" width="9.75" height="10.13" transform="translate(317.87 1629.28) rotate(180)"/><rect class="cls-2" x="144.31" y="809.58" width="9.75" height="10.13" transform="translate(298.37 1629.28) rotate(180)"/><rect class="cls-2" x="134.56" y="809.58" width="9.75" height="10.13" transform="translate(278.87 1629.28) rotate(180)"/><rect class="cls-2" x="-3.36" y="800.33" width="137.92" height="9.75" transform="translate(131.19 1610.42) rotate(180)"/><rect class="cls-2" x="115.05" y="810.08" width="9.75" height="9.75" transform="translate(239.86 1629.92) rotate(180)"/><rect class="cls-2" x="115.05" y="819.84" width="9.75" height="9.75" transform="translate(239.86 1649.42) rotate(180)"/><rect class="cls-2" x="124.81" y="819.84" width="9.75" height="9.75" transform="translate(259.36 1649.42) rotate(180)"/><rect class="cls-2" x="163.96" y="829.59" width="9.75" height="9.75" transform="translate(337.68 1668.93) rotate(180)"/><rect class="cls-2" x="154.06" y="819.84" width="9.75" height="9.75" transform="translate(317.87 1649.42) rotate(180)"/><rect class="cls-2" x="144.31" y="829.59" width="9.75" height="9.75" transform="translate(298.37 1668.93) rotate(180)"/><rect class="cls-2" x="144.31" y="839.34" width="9.75" height="9.75" transform="translate(298.37 1688.43) rotate(180)"/><rect class="cls-2" x="134.56" y="839.34" width="9.75" height="9.75" transform="translate(278.87 1688.43) rotate(180)"/><rect class="cls-2" x="115.05" y="839.34" width="9.75" height="9.75" transform="translate(239.86 1688.43) rotate(180)"/><rect class="cls-2" x="27.29" y="829.59" width="19.5" height="9.75" transform="translate(74.08 1668.93) rotate(180)"/><rect class="cls-2" x="46.79" y="839.34" width="9.75" height="9.75" transform="translate(103.34 1688.43) rotate(180)"/><rect class="cls-2" x="7.79" y="829.59" width="9.75" height="9.75" transform="translate(25.33 1668.93) rotate(180)"/><rect class="cls-2" x="7.79" y="849.09" width="9.75" height="9.75" transform="translate(25.33 1707.93) rotate(180)"/><rect class="cls-2" x="17.54" y="849.09" width="9.75" height="9.75" transform="translate(44.83 1707.93) rotate(180)"/><rect class="cls-2" x="37.04" y="858.84" width="9.75" height="9.75" transform="translate(83.84 1727.44) rotate(180)"/><rect class="cls-2" x="95.55" y="839.34" width="9.75" height="9.75" transform="translate(200.85 1688.43) rotate(180)"/><rect class="cls-2" x="95.55" y="849.09" width="9.75" height="9.75" transform="translate(200.85 1707.93) rotate(180)"/><rect class="cls-2" x="76.05" y="849.09" width="9.75" height="9.75" transform="translate(161.85 1707.93) rotate(180)"/><rect class="cls-2" x="-1.96" y="829.59" width="9.75" height="9.75" transform="translate(5.82 1668.93) rotate(180)"/><rect class="cls-2" x="76.05" y="829.59" width="19.5" height="9.75" transform="translate(171.6 1668.93) rotate(180)"/><rect class="cls-2" x="105.3" y="819.84" width="9.75" height="9.75" transform="translate(220.36 1649.42) rotate(180)"/><rect class="cls-2" x="95.55" y="819.84" width="9.75" height="9.75" transform="translate(200.85 1649.42) rotate(180)"/><rect class="cls-2" x="76.05" y="819.84" width="9.75" height="9.75" transform="translate(161.85 1649.42) rotate(180)"/><rect class="cls-2" x="66.3" y="829.59" width="9.75" height="9.75" transform="translate(142.35 1668.93) rotate(180)"/><rect class="cls-2" x="56.55" y="829.07" width="9.75" height="29.77" transform="translate(122.84 1687.92) rotate(180)"/><rect class="cls-2" x="66.3" y="819.84" width="9.75" height="9.75" transform="translate(142.35 1649.42) rotate(180)"/><rect class="cls-2" x="56.55" y="819.84" width="9.75" height="9.75" transform="translate(122.84 1649.42) rotate(180)"/><rect class="cls-2" x="46.79" y="819.84" width="9.75" height="9.75" transform="translate(103.34 1649.42) rotate(180)"/><rect class="cls-2" x="37.04" y="819.84" width="9.75" height="9.75" transform="translate(83.84 1649.42) rotate(180)"/><rect class="cls-2" x="27.29" y="819.84" width="9.75" height="9.75" transform="translate(64.33 1649.42) rotate(180)"/><rect class="cls-2" x="17.54" y="810.08" width="58.51" height="19.5" transform="translate(93.59 1639.67) rotate(180)"/><rect class="cls-2" x="7.79" y="819.84" width="9.75" height="9.75" transform="translate(25.33 1649.42) rotate(180)"/><rect class="cls-2" x="-1.96" y="807.43" width="9.75" height="22.16" transform="translate(5.82 1637.02) rotate(180)"/><rect class="cls-2" x="213.79" y="799.09" width="20.44" height="10.66" transform="translate(448.01 1608.85) rotate(180)"/><rect class="cls-2" x="263.66" y="791.31" width="28.13" height="9.11" transform="translate(555.46 1591.74) rotate(180)"/><rect class="cls-2" x="272.3" y="819.14" width="9.75" height="9.75" transform="translate(554.34 1648.03) rotate(180)"/><rect class="cls-2" x="456.45" y="849.74" width="9.75" height="9.75" transform="translate(922.66 1709.24) rotate(180)"/><rect class="cls-2" x="456.45" y="819.73" width="9.75" height="9.75" transform="translate(922.66 1649.22) rotate(180)"/><rect class="cls-2" x="475.96" y="800.23" width="27.41" height="19.51" transform="translate(979.32 1619.96) rotate(180)"/><rect class="cls-2" x="446.7" y="829.24" width="9.75" height="9.75" transform="translate(903.16 1668.23) rotate(180)"/><rect class="cls-2" x="446.7" y="810.26" width="9.75" height="9.75" transform="translate(903.16 1630.27) rotate(180)"/><rect class="cls-2" x="456.45" y="809.98" width="9.75" height="9.75" transform="translate(922.66 1629.71) rotate(180)"/><rect class="cls-2" x="466.21" y="809.98" width="9.75" height="9.75" transform="translate(942.16 1629.71) rotate(180)"/><rect class="cls-2" x="477.08" y="781.64" width="9.75" height="9.75" transform="translate(963.91 1573.03) rotate(180)"/><rect class="cls-2" x="467.33" y="781.64" width="9.75" height="9.75" transform="translate(944.4 1573.03) rotate(180)"/><rect class="cls-2" x="457.57" y="781.64" width="9.75" height="9.75" transform="translate(924.9 1573.03) rotate(180)"/><rect class="cls-2" x="447.82" y="781.64" width="9.75" height="9.75" transform="translate(905.4 1573.03) rotate(180)"/><rect class="cls-2" x="438.07" y="781.64" width="9.75" height="9.75" transform="translate(885.89 1573.03) rotate(180)"/><rect class="cls-2" x="428.32" y="781.64" width="9.75" height="9.75" transform="translate(866.39 1573.03) rotate(180)"/><rect class="cls-2" x="418.57" y="781.64" width="9.75" height="9.75" transform="translate(846.89 1573.03) rotate(180)"/><rect class="cls-2" x="408.82" y="781.64" width="9.75" height="9.75" transform="translate(827.38 1573.03) rotate(180)"/><rect class="cls-2" x="399.07" y="781.64" width="9.75" height="9.75" transform="translate(807.88 1573.03) rotate(180)"/><rect class="cls-2" x="389.31" y="781.64" width="9.75" height="9.75" transform="translate(788.38 1573.03) rotate(180)"/><rect class="cls-2" x="379.56" y="781.64" width="9.75" height="9.75" transform="translate(768.88 1573.03) rotate(180)"/><rect class="cls-2" x="369.81" y="781.64" width="9.75" height="9.75" transform="translate(749.37 1573.03) rotate(180)"/><rect class="cls-2" x="360.06" y="781.64" width="9.75" height="9.75" transform="translate(729.87 1573.03) rotate(180)"/><rect class="cls-2" x="350.31" y="781.64" width="9.75" height="9.75" transform="translate(710.37 1573.03) rotate(180)"/><rect class="cls-2" x="340.56" y="781.64" width="9.75" height="9.75" transform="translate(690.86 1573.03) rotate(180)"/><rect class="cls-2" x="330.8" y="781.64" width="9.75" height="9.75" transform="translate(671.36 1573.03) rotate(180)"/><rect class="cls-2" x="321.05" y="781.64" width="9.75" height="9.75" transform="translate(651.86 1573.03) rotate(180)"/><rect class="cls-2" x="311.3" y="781.64" width="9.75" height="9.75" transform="translate(632.35 1573.03) rotate(180)"/><rect class="cls-2" x="301.55" y="781.64" width="9.75" height="9.75" transform="translate(612.85 1573.03) rotate(180)"/><rect class="cls-2" x="291.8" y="781.64" width="9.75" height="9.75" transform="translate(593.35 1573.03) rotate(180)"/><rect class="cls-2" x="282.05" y="781.64" width="9.75" height="9.75" transform="translate(573.85 1573.03) rotate(180)"/><rect class="cls-2" x="272.3" y="781.64" width="9.75" height="9.75" transform="translate(554.34 1573.03) rotate(180)"/><rect class="cls-2" x="262.54" y="781.64" width="9.75" height="9.75" transform="translate(534.84 1573.03) rotate(180)"/><rect class="cls-2" x="252.79" y="781.64" width="9.75" height="9.75" transform="translate(515.34 1573.03) rotate(180)"/><rect class="cls-2" x="243.04" y="781.64" width="9.75" height="9.75" transform="translate(495.83 1573.03) rotate(180)"/><rect class="cls-2" x="477.08" y="819.73" width="9.75" height="9.75" transform="translate(963.91 1649.22) rotate(180)"/><rect class="cls-2" x="436.95" y="810.26" width="9.75" height="9.75" transform="translate(883.65 1630.27) rotate(180)"/><rect class="cls-2" x="427.2" y="819.73" width="9.75" height="9.75" transform="translate(864.15 1649.22) rotate(180)"/><rect class="cls-2" x="446.7" y="800.51" width="33.41" height="9.75" transform="translate(926.82 1610.76) rotate(180)"/><rect class="cls-2" x="447.82" y="791.26" width="39.01" height="9.75" transform="translate(934.65 1592.26) rotate(180)"/><rect class="cls-2" x="438.07" y="791.26" width="10.19" height="9.75" transform="translate(886.33 1592.26) rotate(180)"/></svg>