<svg id="Layer_1" data-name="Layer 1" xmlns="http://www.w3.org/2000/svg" viewBox="0 0 1162.84 347.29"><defs><style>.cls-1{fill:#f9d1aa;}.cls-2{fill:#e4617b;}.cls-3{fill:#23222d;}.cls-4{fill:#d15472;}.cls-5{fill:#6f2f88;}.cls-6{fill:#632e7c;}.cls-7{fill:#e9ba93;}.cls-8{fill:#344144;}</style></defs><title>webmocup_v2</title><path class="cls-1" d="M379.9,134.57c-3.93,1.58-20.5-13.19-20.5-13.19l-11.83-2.17,4.86,7.18A6.76,6.76,0,0,1,341.23,134l-13.88-20.51c-.11-.17-.22-.34-.32-.52-2.75-3.43-3.8-8.19-3.35-10.64L328.87,74c.76-4.15,11.95-4.64,16.51-3.8l23,8.41a8.5,8.5,0,0,1,6.86,6.23c2.14,3.84,7.08,13.18,7.08,17.5C382.3,107.8,387.83,131.35,379.9,134.57Z"/><path class="cls-1" d="M368.45,233.53a8.5,8.5,0,0,1-4.7,8L344.3,256.36c-4.11,2.15-14.94,5-16.9,1.27L314,232.11c-1.16-2.21-1.57-7.07.06-11.17a5.66,5.66,0,0,1,.14-.58l7.17-23.7a6.78,6.78,0,0,1,6.47-4.8,6.6,6.6,0,0,1,1.95.29,6.77,6.77,0,0,1,4.51,8.42l-2.51,8.3,10.66-5.58s11.44-19,15.66-18.68c8.54.71,10.24,24.84,11.88,30.09C371.3,218.83,369.35,229.23,368.45,233.53Z"/><path class="cls-2" d="M82.8,293.46S64.26,227.68,57.46,174.92s24.3-110,24.3-110,109-52,135.61-52S330.16,72,330.16,72l-6.27,34.19L219.26,71.27,205,80.53,205,274.66l17.62.41,90.15-48.49,16.78,32.8s-86.63,77.23-112.61,78.17C137.86,340.38,82.8,293.46,82.8,293.46Z"/><rect class="cls-1" x="47.4" y="102.51" width="131.8" height="145.37" rx="65.12" ry="65.12"/><rect class="cls-1" x="150.52" y="163.25" width="36.75" height="27.35" rx="13.51" ry="13.51"/><rect class="cls-1" x="87.18" y="84.1" width="31.43" height="175.03" rx="15.53" ry="15.53"/><path class="cls-3" d="M1.42,173.08C.12,155.29,1,136.47,13.26,121.2c9.29-11.58,24.56-20.1,41.42-24.87s35.24-6,53.22-5c5.7.3,11.58.86,16.51,3s8.6,5.91,12,9.48l8.2,8.62c2.4,2.52,4.89,5.23,5.08,8.33s-3,6.5-7.15,6.17C152,136,158.06,147,160,158.41a4.56,4.56,0,0,1-.43,3.59,3.43,3.43,0,0,1-4.1.91A127.29,127.29,0,0,0,169,179.21l-15.67,9.18c6.09,1.83,5.48,8.37,3.78,13.12l-8.62,24.1c-1.51,4.21-3.05,8.49-6.13,12.19-5,6-13.6,9.87-22.62,11.85s-18.53,2.28-27.93,2.47c-21.33.42-44.37,0-61.42-9.66-19.46-11-25.51-30.71-28.13-48.88A242,242,0,0,1,0,169.14"/><path class="cls-3" d="M2.67,173.08C1.55,156.92,2.24,140,11.35,126c9.26-14.22,25.4-22.83,41.22-27.7,17.53-5.39,36.15-6.64,54.39-5.75,9.78.48,18.16,2,25.42,9,3,2.86,5.76,6,8.61,9,2,2.08,4.35,4.16,5.91,6.57,2.69,4.16.84,8.58-4.36,8.67a1.26,1.26,0,0,0-.88,2.13,64.67,64.67,0,0,1,11.72,15.3,51.89,51.89,0,0,1,3.58,8.25c.57,1.72,4.1,12-1.14,10.33a1.26,1.26,0,0,0-1.41,1.84,140.51,140.51,0,0,0,13.72,16.55l.25-2-15.67,9.18a1.27,1.27,0,0,0,.3,2.28c8.63,3.31.88,17.26-1.07,22.71-3,8.38-5.14,19-11.37,25.65-11.61,12.41-32.15,12.57-47.81,12.9-30.17.63-66.87-.25-82-31.38C3.35,204.11,2,185.92,1.25,169.14c-.07-1.6-2.57-1.61-2.5,0C-.48,186,1,204,8.06,219.49c6.82,14.89,19.42,25,35,29.58,18.31,5.4,38.32,4.85,57.2,4.05,16.15-.68,37.47-3.15,46.05-19.07,2.47-4.58,3.94-9.73,5.68-14.6,2.1-5.86,4.37-11.69,6.3-17.61s1.86-12.16-4.65-14.66l.3,2.28,15.67-9.18a1.26,1.26,0,0,0,.25-2,136.29,136.29,0,0,1-13.33-16l-1.41,1.84c8.78,2.8,5.55-9.4,4.22-13.41-3.15-9.46-8.88-17.69-15.94-24.65l-.88,2.13c4.15-.07,8.52-2.78,8.4-7.42-.07-2.48-1.6-4.77-3.1-6.62-3.23-4-7-7.53-10.54-11.21-5-5.19-10.09-9.58-17.22-11.36-7.82-1.95-16.31-1.86-24.3-1.82-30,.15-67.22,7.15-85.64,33.54C0,137.86-1,155.94.17,173.08c.11,1.6,2.61,1.61,2.5,0Z"/><polygon class="cls-4" points="205.07 80.37 205.07 93.53 187.27 92.8 205.07 80.37"/><path class="cls-4" d="M204.92,265.68l-11.6,1.1c8.57-6.94,8.82-52.68,8.79-94.22A562.68,562.68,0,0,0,196,93.25l9.12.28Z"/><polygon class="cls-4" points="181.87 268.58 204.96 265.68 204.96 274.66 181.87 268.58"/><path class="cls-5" d="M1086.79,87s17.17,60.92,23.48,109.79-22.51,101.87-22.51,101.87-65.39,33.31-90,33.39-96.29-23.42-96.29-23.42l6.68-33.45,65.43,9,.07-179.79-96.86,33.87-11.36-25.72S951.66,47,975.71,45.74,1086.79,87,1086.79,87Z"/><path class="cls-1" d="M908.47,274.48l-5.93,32.33c-.84,4.57-8.49,6.62-15,5.38l-23.46-6.39c-4.57-.84-7.76-8.39-6.92-13L855.57,257c0-6.19,5.26-7.62,9.82-6.78l36.3,14.48A8.47,8.47,0,0,1,908.47,274.48Z"/><path class="cls-1" d="M870.74,110.77l10.76,23.59a8.47,8.47,0,0,1-4.18,11.18l-34.27,16.14c-4.22,1.93-9.33.42-11.18-7.44l1.42-25.08c.67-4.73,0-9.26,4.18-11.18L852,110.5C856.2,108.57,868.81,106.55,870.74,110.77Z"/><rect class="cls-1" x="988.22" y="121.56" width="122.07" height="134.64" rx="60.31" ry="60.31" transform="translate(2098.5 377.75) rotate(180)"/><rect class="cls-1" x="980.75" y="177.81" width="34.03" height="25.33" rx="12.51" ry="12.51" transform="translate(1995.53 380.95) rotate(-180)"/><rect class="cls-1" x="1044.33" y="104.5" width="29.11" height="162.1" rx="14.38" ry="14.38" transform="translate(2117.77 371.11) rotate(-180)"/><path class="cls-3" d="M1135.66,173a85.27,85.27,0,0,1-6.9-16.52c-2-6.61-3.19-13.55-6.58-19.55-7.17-12.67-22.57-18.42-37.09-19.57-19.42-1.54-42.62-3.37-59.86,7.57-12.42,7.89-16.81,23.74-18.29,37.52a115.61,115.61,0,0,0-.12,22.47c1,11.08,3.08,11.48,14.1,11.54l-8.14,6.25a15.59,15.59,0,0,0-4,3.91c-4.45,7.19,4.51,5.95,8.58,6.59l-2.42,5c-1.19,2.48-2.39,5-3.47,7.5a3.74,3.74,0,0,0-.43,1.78,3.8,3.8,0,0,0,.4,1.21c7,15.31,22.39,24.59,39,26.82,7.41,1,14.78-.64,22.26-.7a155.22,155.22,0,0,0,29.66-3.1,37.47,37.47,0,0,0,10.2-3.24c10-5.31,14.12-17.48,15.67-28.71.91-6.61-2.63-6.89,3.56-10.92,1.12,4.51,7.15,5.78,11.24,7.81,3.14,1.56,6.36-3.15,8.52-5.92,4-5.09,3.09-5.2,4.26-8.38s7-10.16,7-13.55c0-15.11-4.89-19.76-6.08-27a9.59,9.59,0,0,0-1.38-4.1,3.57,3.57,0,0,0-3.78-1.55,4.92,4.92,0,0,0-3.24-7.12,9.4,9.4,0,0,0-3.68.41c-4.09,1-8.46,2.22-11.13,5.48-2.23,2.72-7.28,10.15,1.63,18.85-7.94-5.3-13.42-15.19-18.41-23.11-5.46-8.66-11-17.5-18.78-24.12s-18.39-10.8-28.35-8.44"/><path class="cls-3" d="M1136.74,172.4c-5.07-9.5-7-19.49-10.58-29.5a35.36,35.36,0,0,0-12.93-17.46c-13.42-9.53-31-10-46.86-10.41s-34.34,1.21-46.45,12.49c-11.07,10.32-14.08,27.07-14.73,41.51a111.29,111.29,0,0,0,.5,17.25c.28,2.5.53,5.3,1.86,7.51,2.7,4.47,8.86,3.92,13.37,4l-.63-2.33c-3.72,2.86-15.34,9-13.89,15.23,1,4.31,7.76,3.44,11,3.85l-1.08-1.88c-2,4.08-4.44,8.23-5.89,12.53-1,2.84-.11,4.32,1.3,6.89a45.94,45.94,0,0,0,13.84,15.31,54.59,54.59,0,0,0,18.75,8.37c8.93,2.14,17.47.83,26.51.47,9.49-.38,18.82-.82,28.2-2.49,7.3-1.3,14.55-2.94,19.94-8.41,4.81-4.88,7.53-11.5,9.14-18.05a40.66,40.66,0,0,0,1.54-9.88c0-3.68-.75-4.94,2.78-7.37l-1.84-.75c1.28,3.59,4.11,5.21,7.48,6.69s6.3,3.39,9.73.95c6.59-4.69,8.29-13,12.36-19.43,2.19-3.45,4-6.28,3.93-10.41a47.63,47.63,0,0,0-2.61-15c-1.11-3.24-2.56-6.34-3.32-9.69-.88-3.86-1.84-7.66-6.53-7.47l1.08,1.88c1.39-3.15.59-7.18-2.91-8.62-4.14-1.71-11.62,1.38-15,3.89-8.06,6-6.89,15.88-.51,22.61l1.51-2c-13-9.21-19-26.23-28.74-38.44-9.13-11.42-22.56-20.43-37.76-17.35-1.58.32-.91,2.73.66,2.41,18.24-3.7,32,11,41.1,24.78,7,10.63,12.79,23.21,23.47,30.76,1.19.84,2.46-1,1.51-2-4.28-4.51-6.25-9.78-2.85-15.37a12.2,12.2,0,0,1,4.75-4.48,22.74,22.74,0,0,1,4.31-1.66l1.38-.38q4.4-1.73,6.88,4.52a1.27,1.27,0,0,0,1.08,1.88c3.44-.14,6.78,13.23,7.79,16.33,2.23,6.92,3.52,14.36-.37,20.78-1.44,2.39-3.24,4.65-4.3,7.24a46.84,46.84,0,0,1-1.81,4.92c-1.89,3.47-5.65,9.13-10.31,8.42-3.31-.5-8.47-3.38-9.61-6.57a1.26,1.26,0,0,0-1.84-.75c-3.36,2.31-4.47,3.69-4.16,7.65.47,5.95-1.26,12.48-3.49,18-3.09,7.62-8.3,13.33-16.26,15.86-8.29,2.63-17.53,3.48-26.17,4-15.81,1-32,3.26-46.8-3.78a47.15,47.15,0,0,1-15.67-11.88c-2.85-3.34-6.72-8.07-5.37-12.78,1.07-3.76,3.54-7.51,5.23-11a1.27,1.27,0,0,0-1.08-1.88c-2.13-.27-8.42.47-8.39-2.9,0-2.44,4.13-5,5.78-6.3l6.79-5.21a1.26,1.26,0,0,0-.63-2.33c-4.84,0-10.52.65-12.07-5-2-7.16-1.51-15.76-1.05-23.09.87-14,4.2-30.46,15.91-39.56,12.26-9.52,29.38-10.5,44.27-10,14.3.45,29.76.92,42.21,8.83,8.25,5.24,12.5,12.88,15.09,22.11,2.46,8.76,5,17.1,9.31,25.16.76,1.42,2.92.16,2.16-1.26Z"/><path class="cls-6" d="M997.77,117.8l-15-1c-7.45,17.1-8.88,50.15-9.15,63.47V104.44Z"/><path class="cls-6" d="M980.75,276.9h-7.09V198C974.35,258.31,980.75,276.9,980.75,276.9Z"/><polygon class="cls-6" points="999.85 277.21 986.72 285.93 973.59 284.23 973.66 276.9 999.85 277.21"/><path class="cls-7" d="M868,133.86l2.16,4a7.09,7.09,0,0,1-2.84,9.59l-14,7.6a7.09,7.09,0,0,1-9.59-2.84l-.49-1.3c-1.85-3.42-.1-6.53,2.84-9.59l14-9.17C863.47,130.26,866.11,130.44,868,133.86Z"/><polygon class="cls-8" points="864.54 110.5 873.68 114.13 871.06 120.76 846.61 182.42 838.75 188.88 837.47 178.8 861.91 117.13 864.54 110.5"/><rect class="cls-1" x="844" y="136.17" width="36.84" height="15.05" rx="7.44" ry="7.44" transform="translate(35.83 428.59) rotate(-28.48)"/></svg>