<svg id="Layer_1" data-name="Layer 1" xmlns="http://www.w3.org/2000/svg" viewBox="0 0 828.59 559.5"><defs><style>.cls-1{fill:#353535;}.cls-2{fill:#080808;}.cls-3{fill:#b9b9bf;}.cls-4{fill:#898794;}.cls-5{fill:#e3637e;}.cls-6{fill:#7a56b9;}.cls-7{fill:#ffd25e;}.cls-8{fill:#00a59b;}</style></defs><title>webmocup_v2</title><rect class="cls-1" x="7.88" width="812.84" height="546.57" rx="28.79" ry="28.79"/><rect class="cls-2" x="50.71" y="43.58" width="727.17" height="442.17" rx="9.43" ry="9.43"/><path class="cls-3" d="M0,485.75c0,40.73,17.43,73.75,38.94,73.75H789.65c21.51,0,38.94-33,38.94-73.75Z"/><path class="cls-4" d="M337.48,485.75c0,10.71,3.23,19.4,7.22,19.4H483.89c4,0,7.22-8.69,7.22-19.4Z"/><rect class="cls-5" x="244.66" y="188.56" width="103.52" height="19.74" rx="1.74" ry="1.74"/><rect class="cls-3" x="573.47" y="240.58" width="126.9" height="19.74" rx="1.74" ry="1.74"/><rect class="cls-3" x="136.53" y="240.58" width="210.4" height="19.74" rx="1.74" ry="1.74"/><rect class="cls-3" x="355.33" y="240.58" width="210.4" height="19.74" rx="1.74" ry="1.74"/><rect class="cls-6" x="97.31" y="185.83" width="130.42" height="19.74" rx="1.74" ry="1.74"/><circle class="cls-5" cx="83.34" cy="79.4" r="12.3"/><circle class="cls-7" cx="116.78" cy="79.4" r="12.3"/><circle class="cls-8" cx="150.22" cy="79.4" r="12.3"/></svg>