<?xml version="1.0" encoding="UTF-8" standalone="no"?>
<svg width="266px" height="161px" viewBox="0 0 266 161" version="1.1" xmlns="http://www.w3.org/2000/svg" xmlns:xlink="http://www.w3.org/1999/xlink">
    <!-- Generator: Sketch 3.6.1 (26313) - http://www.bohemiancoding.com/sketch -->
    <title>Page 1</title>
    <desc>Created with Sketch.</desc>
    <defs>
        <path id="path-1" d="M0.458319644,0 L265.379431,0 L265.379431,160.167406 L0.458319644,160.167406 L0.458319644,0 L0.458319644,0 Z"></path>
        <path id="path-3" d="M8.73234452,8.4241853 L8.73234452,0.614196377 L0.163642324,0.614196377 L0.163642324,8.4243732 L8.73234452,8.4243732 L0.16382965,8.4241853 L0.16382965,0.614177587 L8.73253185,0.614177587 L8.73253185,8.4241853 L8.73234452,8.4241853 Z"></path>
        <path id="path-5" d="M0,0 L279.116719,0 L279.116719,177.250925 L0,177.250925 L0,0"></path>
        <path id="path-7" d="M0.509625088,76.2388422 L54.6894244,76.2388422 L54.6894244,0.342514929 L0.509625088,0.342514929 L0.509625088,76.2388422 L0.509625088,76.2388422 Z"></path>
    </defs>
    <g id="Page-1" stroke="none" stroke-width="1" fill="none" fill-rule="evenodd">
        <g id="Desktop-HD-Copy-3" transform="translate(-276.000000, -1815.000000)">
            <g id="Group-2-Copy" transform="translate(251.000000, 1351.000000)">
                <g id="Page-1" transform="translate(11.000000, 464.000000)">
                    <g id="Group-10" transform="translate(34.343220, 71.655847)">
                        <path d="M167.089571,39.0749978 L162.527043,36.8279822 L161.540643,38.8521501 L166.103733,41.0992284 L167.089571,39.0749978 Z" id="Fill-1" fill="#FF1F37"></path>
                        <path d="M167.089571,39.0749978 L164.808931,37.95149 L163.822532,39.9750316 L166.103109,41.0992284 L167.089571,39.0749978 Z" id="Fill-3" fill="#FF4A64"></path>
                        <path d="M165.935389,41.4703906 L163.57857,40.3092404 L149.65639,68.8816073 L152.013834,70.0434088 L165.935389,41.4703906 Z" id="Fill-4" fill="#F6ECEC"></path>
                        <path d="M163.731429,40.3848383 L161.374047,39.2236881 L147.451805,67.7960675 L149.808625,68.957869 L163.731429,40.3848383 Z" id="Fill-5" fill="#DACDCD"></path>
                        <path d="M166.109728,41.1136966 L161.547262,38.8660546 L161.199521,39.5815721 L165.761363,41.8285878 L166.109728,41.1136966 Z" id="Fill-6" fill="#666666"></path>
                        <path d="M147.451681,67.7960049 L146.901689,74.1968928 L152.014209,70.0436593 L147.451681,67.7960049 Z" id="Fill-7" fill="#EDB996"></path>
                        <path d="M146.901752,74.1970807 L146.991669,73.1564173 L147.737728,73.5179529 L146.901752,74.1970807 Z" id="Fill-8" fill="#666666"></path>
                        <path d="M95.567629,68.0632655 L0.155630987,68.0632655 L0.155630987,0.00851806566 L95.567629,0.00851806566 L95.567629,68.0632655 Z" id="Fill-9" fill="#FFFFFF"></path>
                    </g>
                    <g id="Group-103" transform="translate(13.737288, 0.254415)">
                        <mask id="mask-2" fill="white">
                            <use xlink:href="#path-1"></use>
                        </mask>
                        <g id="Clip-12"></g>
                        <path d="M80.9274887,45.0697744 C78.0743788,51.3049358 70.7349204,54.0333474 64.5330343,51.1649514 C58.3317102,48.2965554 55.6171596,40.9165284 58.4702695,34.6819307 C61.3240038,28.4480219 68.6640867,25.718984 74.8647863,28.58738 C81.0667349,31.4557759 83.7805986,38.8345503 80.9274887,45.0697744" id="Fill-11" fill="#603813" mask="url(#mask-2)"></path>
                        <path d="M80.9274887,45.0697744 C78.0743753,51.3049606 70.7349438,54.0334037 64.5330118,51.1649921 C58.3317042,48.2965805 55.6171884,40.9165403 58.4703018,34.6819818 C61.3240396,28.4480509 68.6640954,25.7189801 74.8647787,28.5873917 C81.0667107,31.4558033 83.7806022,38.8345882 80.9274887,45.0697744 L80.9274887,45.0697744 Z" id="Stroke-13" stroke="#FFFFFF" stroke-width="6" mask="url(#mask-2)"></path>
                        <path d="M74.8647863,28.5875052 L78.2585209,21.1722785 L74.8647863,28.5875052 Z M77.1341239,29.6369184 L80.5272965,22.221128 C81.1041378,20.9613938 80.5553955,19.4707323 79.3017431,18.8907522 C78.0500264,18.3114611 76.5672734,18.8625048 75.9904322,20.1228654 L72.5966352,27.5380294 C72.5529256,27.6347345 72.5273243,27.7345086 72.4954788,27.8330301 L76.976832,29.9056132 C77.0305323,29.8171131 77.0898524,29.7329972 77.1341239,29.6369184 L77.1341239,29.6369184 Z" id="Fill-14" fill="#FFFFFF" mask="url(#mask-2)"></path>
                        <path d="M252.588142,127.140698 C251.403176,131.126345 247.22779,133.390322 243.264021,132.19902 L241.768779,131.748984 C237.80501,130.557056 235.552469,126.359886 236.737435,122.374239 L240.496457,109.740683 C241.681984,105.755668 245.857433,103.490427 249.820578,104.682956 L251.316444,105.133035 C255.280151,106.324312 257.532692,110.52209 256.347102,114.50654 L252.588142,127.140698 Z" id="Fill-15" fill="#F6ECEC" mask="url(#mask-2)"></path>
                        <path d="M247.533882,113.740415 L241.477424,111.919554 L241.991823,110.190324 C242.928956,107.04008 246.240329,105.244397 249.373742,106.186457 L249.747708,106.29882 L247.533882,113.740415 Z" id="Fill-16" fill="#DACDCD" mask="url(#mask-2)"></path>
                        <path d="M254.337274,115.78581 L248.132203,113.919796 L250.34603,106.478201 L250.868609,106.635785 C254.002022,107.577908 255.788806,110.907658 254.851735,114.057212 L254.337274,115.78581 Z" id="Fill-17" fill="#DACDCD" mask="url(#mask-2)"></path>
                        <path d="M236.888857,47.9408009 C236.888857,47.9408009 235.032773,54.1797531 233.982053,57.7122303 C233.139229,60.5442375 236.702188,61.7110597 236.702188,61.7110597 L244.54107,64.0685551 C247.220624,64.874472 246.38342,67.5018617 246.38342,67.5018617 L242.492697,80.5810655 L244.964979,72.2676931 C244.964979,72.2676931 243.109519,78.5066453 242.058174,82.0391224 C241.215975,84.8711297 244.778309,86.0385795 244.778309,86.0385795 L252.617192,88.3954472 C255.296121,89.2007365 254.459541,91.8287539 254.459541,91.8287539 L250.568818,104.907958" id="Stroke-18" stroke="#DACDCD" stroke-width="2" mask="url(#mask-2)"></path>
                        <path d="M220.544482,111.615972 L99.4619628,75.2065654 L110.779553,37.1653226 L231.862071,73.5746669 L220.544482,111.615972 Z" id="Fill-19" fill="#AD9E9E" mask="url(#mask-2)"></path>
                        <path d="M117.058992,49.7104291 L110.932598,47.8675832 L112.764965,41.7090217 L118.891359,43.5511786 L117.058992,49.7104291 Z" id="Fill-20" fill="#F6F6F6" mask="url(#mask-2)"></path>
                        <path d="M125.707302,52.310506 L119.580908,50.4689753 L121.413275,44.3097249 L127.539669,46.1512556 L125.707302,52.310506 Z" id="Fill-21" fill="#F6F6F6" mask="url(#mask-2)"></path>
                        <path d="M133.995944,54.8034181 L127.869551,52.9605722 L129.701918,46.8019481 L135.828311,48.6435414 L133.995944,54.8034181 Z" id="Fill-22" fill="#F6F6F6" mask="url(#mask-2)"></path>
                        <path d="M142.283962,57.295015 L136.158818,55.4534843 L137.99056,49.2942339 L144.116329,51.1357645 L142.283962,57.295015 Z" id="Fill-23" fill="#F6F6F6" mask="url(#mask-2)"></path>
                        <path d="M150.572605,59.7879271 L144.446212,57.9450812 L146.278579,51.786457 L152.404972,53.6286766 L150.572605,59.7879271 Z" id="Fill-24" fill="#F6F6F6" mask="url(#mask-2)"></path>
                        <path d="M158.860623,62.2801502 L152.734854,60.4386196 L154.567221,54.2787428 L160.69299,56.1208998 L158.860623,62.2801502 Z" id="Fill-25" fill="#F6F6F6" mask="url(#mask-2)"></path>
                        <path d="M167.149828,64.772436 L161.024059,62.9308428 L162.856426,56.7715923 L168.982195,58.6131856 L167.149828,64.772436 Z" id="Fill-26" fill="#F6F6F6" mask="url(#mask-2)"></path>
                        <path d="M175.43847,67.2646592 L169.312077,65.4225023 L171.144444,59.2638781 L177.270837,61.1054088 L175.43847,67.2646592 Z" id="Fill-27" fill="#F6F6F6" mask="url(#mask-2)"></path>
                        <path d="M183.726489,69.756945 L177.601344,67.9153517 L179.434335,61.7561013 L185.558856,63.5976946 L183.726489,69.756945 Z" id="Fill-28" fill="#F6F6F6" mask="url(#mask-2)"></path>
                        <path d="M192.015069,72.2491682 L185.888675,70.4076375 L187.721667,64.2483871 L193.847436,66.0899177 L192.015069,72.2491682 Z" id="Fill-29" fill="#F6F6F6" mask="url(#mask-2)"></path>
                        <path d="M200.303711,74.7413914 L194.177318,72.8998607 L196.010247,66.7406103 L202.136016,68.5822035 L200.303711,74.7413914 Z" id="Fill-30" fill="#F6F6F6" mask="url(#mask-2)"></path>
                        <path d="M208.592292,77.2343035 L202.467209,75.3921465 L204.300138,69.2335224 L210.424658,71.075053 L208.592292,77.2343035 Z" id="Fill-31" fill="#F6F6F6" mask="url(#mask-2)"></path>
                        <path d="M216.881496,79.7265266 L210.756352,77.884996 L212.588094,71.7257456 L218.714487,73.5673388 L216.881496,79.7265266 Z" id="Fill-32" fill="#F6F6F6" mask="url(#mask-2)"></path>
                        <path d="M225.170139,82.2188124 L219.04437,80.3772818 L220.876737,74.2180314 L227.002506,76.059562 L225.170139,82.2188124 Z" id="Fill-33" fill="#F6F6F6" mask="url(#mask-2)"></path>
                        <path d="M114.580036,58.0434147 L108.453642,56.2006314 L110.285385,50.04326 L116.412403,51.8854796 L114.580036,58.0434147 Z" id="Fill-34" fill="#F6F6F6" mask="url(#mask-2)"></path>
                        <path d="M123.228346,60.6436169 L117.101952,58.8013973 L118.933695,52.6440258 L125.060713,54.4856191 L123.228346,60.6436169 Z" id="Fill-35" fill="#F6F6F6" mask="url(#mask-2)"></path>
                        <path d="M131.516988,63.1364664 L125.390595,61.2936831 L127.222337,55.1363116 L133.349355,56.9778423 L131.516988,63.1364664 Z" id="Fill-36" fill="#F6F6F6" mask="url(#mask-2)"></path>
                        <path d="M139.805006,65.6287522 L133.679862,63.7859063 L135.51098,57.6285348 L141.637373,59.4701281 L139.805006,65.6287522 Z" id="Fill-37" fill="#F6F6F6" mask="url(#mask-2)"></path>
                        <path d="M148.093649,68.1209753 L141.967256,66.2781921 L143.798998,60.1208206 L149.925391,61.9629776 L148.093649,68.1209753 Z" id="Fill-38" fill="#F6F6F6" mask="url(#mask-2)"></path>
                        <path d="M156.381667,70.6132611 L150.255274,68.7704152 L152.087641,62.6130438 L158.212785,64.4552634 L156.381667,70.6132611 Z" id="Fill-39" fill="#F6F6F6" mask="url(#mask-2)"></path>
                        <path d="M164.670872,73.1054843 L158.544478,71.2633273 L160.376845,65.1059559 L166.502614,66.9474865 L164.670872,73.1054843 Z" id="Fill-40" fill="#F6F6F6" mask="url(#mask-2)"></path>
                        <path d="M172.959514,75.5977701 L166.833121,73.7555505 L168.664863,67.5975527 L174.791257,69.4397723 L172.959514,75.5977701 Z" id="Fill-41" fill="#F6F6F6" mask="url(#mask-2)"></path>
                        <path d="M181.247533,78.0899933 L175.122388,76.2484626 L176.954755,70.0904649 L183.079213,71.9319955 L181.247533,78.0899933 Z" id="Fill-42" fill="#F6F6F6" mask="url(#mask-2)"></path>
                        <path d="M189.536113,80.5822164 L183.409719,78.7400595 L185.242024,72.582688 L191.367793,74.4249076 L189.536113,80.5822164 Z" id="Fill-43" fill="#F6F6F6" mask="url(#mask-2)"></path>
                        <path d="M197.824068,83.0745022 L191.698924,81.2323453 L193.530666,75.0749738 L199.656435,76.9165045 L197.824068,83.0745022 Z" id="Fill-44" fill="#F6F6F6" mask="url(#mask-2)"></path>
                        <path d="M206.112711,85.5667254 L199.988191,83.7251948 L201.820558,77.5678233 L207.945078,79.4087903 L206.112711,85.5667254 Z" id="Fill-45" fill="#F6F6F6" mask="url(#mask-2)"></path>
                        <path d="M214.40254,88.0596375 L208.277395,86.2174806 L210.109138,80.0601091 L216.234907,81.9016398 L214.40254,88.0596375 Z" id="Fill-46" fill="#F6F6F6" mask="url(#mask-2)"></path>
                        <path d="M222.691183,90.5518607 L216.565414,88.7097037 L218.397781,82.5523323 L224.52355,84.3939256 L222.691183,90.5518607 Z" id="Fill-47" fill="#F6F6F6" mask="url(#mask-2)"></path>
                        <path d="M112.208418,66.0142573 L106.082024,64.1714114 L107.915016,58.0127873 L114.041409,59.8550068 L112.208418,66.0142573 Z" id="Fill-48" fill="#F6F6F6" mask="url(#mask-2)"></path>
                        <path d="M120.856728,68.6143968 L114.730334,66.7721772 L116.563326,60.6136158 L122.689719,62.4551464 L120.856728,68.6143968 Z" id="Fill-49" fill="#F6F6F6" mask="url(#mask-2)"></path>
                        <path d="M129.14537,71.10662 L123.018977,69.2650894 L124.851968,63.1058389 L130.977737,64.9473696 L129.14537,71.10662 Z" id="Fill-50" fill="#F6F6F6" mask="url(#mask-2)"></path>
                        <path d="M137.433388,73.5989058 L131.307619,71.7573125 L133.140611,65.5981247 L139.266317,67.4396554 L137.433388,73.5989058 Z" id="Fill-51" fill="#F6F6F6" mask="url(#mask-2)"></path>
                        <path d="M145.721969,76.091129 L139.595575,74.248972 L141.428504,68.0903479 L147.554898,69.9318785 L145.721969,76.091129 Z" id="Fill-52" fill="#F6F6F6" mask="url(#mask-2)"></path>
                        <path d="M154.009924,78.5834148 L147.88478,76.7411952 L149.716522,70.5825711 L155.842916,72.4241643 L154.009924,78.5834148 Z" id="Fill-53" fill="#F6F6F6" mask="url(#mask-2)"></path>
                        <path d="M162.299191,81.0762643 L156.173422,79.2341073 L158.005789,73.0748569 L164.132183,74.9170138 L162.299191,81.0762643 Z" id="Fill-54" fill="#F6F6F6" mask="url(#mask-2)"></path>
                        <path d="M170.587772,83.5685501 L164.461378,81.7263305 L166.293745,75.56708 L172.420763,77.4092996 L170.587772,83.5685501 Z" id="Fill-55" fill="#F6F6F6" mask="url(#mask-2)"></path>
                        <path d="M178.87579,86.0607732 L172.75127,84.2186163 L174.583636,78.0599922 L180.708781,79.9015228 L178.87579,86.0607732 Z" id="Fill-56" fill="#F6F6F6" mask="url(#mask-2)"></path>
                        <path d="M187.164432,88.553059 L181.038663,86.7114658 L182.87103,80.5522153 L188.996799,82.3938086 L187.164432,88.553059 Z" id="Fill-57" fill="#F6F6F6" mask="url(#mask-2)"></path>
                        <path d="M195.453075,91.0452822 L189.327306,89.2037516 L191.159673,83.0445011 L197.285442,84.8860318 L195.453075,91.0452822 Z" id="Fill-58" fill="#F6F6F6" mask="url(#mask-2)"></path>
                        <path d="M203.741655,93.537568 L197.617135,91.6959747 L199.449502,85.5373506 L205.574022,87.3783176 L203.741655,93.537568 Z" id="Fill-59" fill="#F6F6F6" mask="url(#mask-2)"></path>
                        <path d="M212.031484,96.0304175 L205.905715,94.1882605 L207.738082,88.0296364 L213.863851,89.8711671 L212.031484,96.0304175 Z" id="Fill-60" fill="#F6F6F6" mask="url(#mask-2)"></path>
                        <path d="M220.320127,98.5227033 L214.194358,96.6804837 L216.026725,90.5218596 L222.152494,92.3634529 L220.320127,98.5227033 Z" id="Fill-61" fill="#F6F6F6" mask="url(#mask-2)"></path>
                        <path d="M109.783724,74.1658582 L103.656706,72.3237013 L105.489698,66.1650772 L111.616029,68.0066078 L109.783724,74.1658582 Z" id="Fill-62" fill="#F6F6F6" mask="url(#mask-2)"></path>
                        <path d="M118.431971,76.7666241 L112.30564,74.9244671 L114.137945,68.765843 L120.264338,70.6073737 L118.431971,76.7666241 Z" id="Fill-63" fill="#F6F6F6" mask="url(#mask-2)"></path>
                        <path d="M168.162516,91.7207773 L120.594158,77.4170035 L122.426525,71.257753 L169.994883,85.5615269 L168.162516,91.7207773 Z" id="Fill-64" fill="#F6F6F6" mask="url(#mask-2)"></path>
                        <path d="M176.450534,94.2130631 L170.326014,92.3708435 L172.158381,86.2122194 L178.283525,88.0531864 L176.450534,94.2130631 Z" id="Fill-65" fill="#F6F6F6" mask="url(#mask-2)"></path>
                        <path d="M184.739114,96.7052863 L178.613345,94.8631293 L180.445712,88.7045052 L186.572105,90.5460359 L184.739114,96.7052863 Z" id="Fill-66" fill="#F6F6F6" mask="url(#mask-2)"></path>
                        <path d="M193.027757,99.1975721 L186.901988,97.3553525 L188.734355,91.1967284 L194.860124,93.0383217 L193.027757,99.1975721 Z" id="Fill-67" fill="#F6F6F6" mask="url(#mask-2)"></path>
                        <path d="M209.606853,104.182707 L195.192691,99.8487031 L197.025058,93.6894526 L211.43922,98.023457 L209.606853,104.182707 Z" id="Fill-68" fill="#F6F6F6" mask="url(#mask-2)"></path>
                        <path d="M205.242079,40.9476569 C204.617157,43.0477985 202.417068,44.241643 200.327439,43.6133104 L162.145084,32.1321479 C160.055518,31.503878 158.868054,29.291373 159.492976,27.1912314 C160.117897,25.0904008 162.318611,23.8972453 164.407553,24.5255153 L202.590595,36.0066778 C204.679537,36.6350104 205.867001,38.846889 205.242079,40.9476569" id="Fill-69" fill="#F4F4F4" mask="url(#mask-2)"></path>
                        <path d="M259.001957,43.8689777 L112.966279,-0.0440935164 C108.047268,-1.52285477 102.86675,1.28779374 101.395861,6.23315718 L265.244493,55.5013984 C266.715382,50.5560976 263.920906,45.3477389 259.001957,43.8689777" id="Fill-70" fill="#F4F4F4" mask="url(#mask-2)"></path>
                        <path d="M264.731156,57.227622 L100.882523,7.95875444 L101.395736,6.23328245 L265.244369,55.5015237 L264.731156,57.227622 Z" id="Fill-71" fill="#AD9E9E" mask="url(#mask-2)"></path>
                        <path d="M104.747759,103.425664 L92.552416,91.1649307 L109.211602,86.6758979 L104.747759,103.425664 L104.747759,103.425664 Z" id="Stroke-72" stroke="#AD9E9E" mask="url(#mask-2)"></path>
                        <path d="M110.932911,104.251353 L98.4466374,131.471763" id="Stroke-73" stroke="#AD9E9E" mask="url(#mask-2)"></path>
                        <path d="M66.7694024,121.329937 C66.7694024,125.951406 63.0422498,129.698543 58.4454283,129.698543 C53.8486068,129.698543 50.1214542,125.951406 50.1214542,121.329937 C50.1214542,116.708468 53.8486068,112.96133 58.4454283,112.96133 C63.0422498,112.96133 66.7694024,116.708468 66.7694024,121.329937 L66.7694024,121.329937 Z" id="Stroke-74" stroke="#AD9E9E" mask="url(#mask-2)"></path>
                        <path d="M43.7759482,70.0946613 L50.9118262,64.1908902 L93.9501882,116.764391 L86.8142914,122.668175 L43.7759482,70.0946613 Z" id="Fill-75" fill="#FE7C52" mask="url(#mask-2)"></path>
                        <path d="M43.7759482,70.0946613 L45.4085312,68.7451742 L88.4468432,121.316822 L86.8142914,122.668175 L43.7759482,70.0946613 Z" id="Fill-76" fill="#EF7554" mask="url(#mask-2)"></path>
                        <path d="M48.8161405,65.9241913 L50.4487547,64.5740779 L93.4876786,117.146326 L91.8538155,118.497054 L48.8161405,65.9241913 Z" id="Fill-77" fill="#FF9376" mask="url(#mask-2)"></path>
                        <path d="M87.2096131,117.619768 C86.8144787,117.138353 86.8837271,116.425961 87.3632209,116.028023 C87.8427147,115.631971 88.551309,115.701011 88.9458814,116.183685 C89.3422646,116.6651 89.2730162,117.378751 88.7935224,117.775429 C88.314653,118.172115 87.6048099,118.103068 87.2096131,117.619768" id="Fill-78" fill="#30A2DC" mask="url(#mask-2)"></path>
                        <path d="M88.4424098,117.347616 C88.6877453,117.145512 88.7220885,116.781465 88.5204626,116.535425 C88.3193986,116.29001 87.9572962,116.256113 87.713834,116.456964 C87.4697473,116.658448 87.4347797,117.021862 87.6364056,117.267903 C87.8374696,117.514576 88.1983231,117.547841 88.4424098,117.347616 M87.0133572,115.60021 C87.7263224,115.00895 88.7851551,115.113772 89.3732359,115.831187 C89.9601304,116.548603 89.8571007,117.61249 89.1441354,118.203118 C88.4305458,118.794378 87.3698398,118.691441 86.7842567,117.973393 C86.1948646,117.255978 86.2991431,116.190211 87.0133572,115.60021" id="Fill-79" fill="#E2684B" mask="url(#mask-2)"></path>
                        <path d="M82.0553825,116.853587 L83.6866855,115.50286 L83.8702656,115.727561 L82.2389002,117.077662 L82.0553825,116.853587 Z" id="Fill-80" fill="#FF9376" mask="url(#mask-2)"></path>
                        <path d="M79.5837322,113.836056 L81.2156596,112.485316 L81.4004885,112.709416 L79.7684987,114.060093 L79.5837322,113.836056 Z" id="Fill-81" fill="#FF9376" mask="url(#mask-2)"></path>
                        <path d="M77.1133307,110.817842 L78.7446336,109.468418 L78.9287757,109.691829 L77.2980972,111.041316 L77.1133307,110.817842 Z" id="Fill-82" fill="#FF9376" mask="url(#mask-2)"></path>
                        <path d="M74.6422423,107.799691 L76.2742321,106.449578 L76.4583742,106.673052 L74.8258224,108.024418 L74.6422423,107.799691 Z" id="Fill-83" fill="#FF9376" mask="url(#mask-2)"></path>
                        <path d="M72.1699675,104.779724 L73.8038306,103.42961 L73.9867239,103.654337 L72.354172,105.005014 L72.1699675,104.779724 Z" id="Fill-84" fill="#FF9376" mask="url(#mask-2)"></path>
                        <path d="M69.699566,101.76151 L71.3321802,100.411459 L71.5163223,100.63487 L69.8831461,101.986236 L69.699566,101.76151 Z" id="Fill-85" fill="#FF9376" mask="url(#mask-2)"></path>
                        <path d="M67.2291645,98.7427324 L68.8610919,97.3932454 L69.044672,97.617972 L67.4127446,98.9680854 L67.2291645,98.7427324 Z" id="Fill-86" fill="#FF9376" mask="url(#mask-2)"></path>
                        <path d="M64.7581385,95.7263977 L66.3906904,94.3744053 L66.5748949,94.5991319 L64.9422806,95.9491827 L64.7581385,95.7263977 Z" id="Fill-87" fill="#FF9376" mask="url(#mask-2)"></path>
                        <path d="M62.2876746,92.7082466 L63.9202264,91.3568805 L64.1038065,91.5821709 L62.4711923,92.9322843 L62.2876746,92.7082466 Z" id="Fill-88" fill="#FF9376" mask="url(#mask-2)"></path>
                        <path d="M59.8178975,89.6888429 L61.4498249,88.3387295 L61.6321562,88.5634561 L60.0020396,89.9135695 L59.8178975,89.6888429 Z" id="Fill-89" fill="#FF9376" mask="url(#mask-2)"></path>
                        <path d="M57.3456227,86.6713181 L58.9781745,85.3205784 L59.1617546,85.545305 L57.5297648,86.8960447 L57.3456227,86.6713181 Z" id="Fill-90" fill="#FF9376" mask="url(#mask-2)"></path>
                        <path d="M54.8757832,83.6519144 L56.507773,82.301801 L56.6919151,82.5258386 L55.0593633,83.8765783 L54.8757832,83.6519144 Z" id="Fill-91" fill="#FF9376" mask="url(#mask-2)"></path>
                        <path d="M52.4035084,80.6331369 L54.0348738,79.2817709 L54.2196403,79.5083765 L52.5877129,80.8578636 L52.4035084,80.6331369 Z" id="Fill-92" fill="#FF9376" mask="url(#mask-2)"></path>
                        <path d="M49.9331069,77.6143595 L51.5644723,76.2642461 L51.7498632,76.4889727 L50.116687,77.8397125 L49.9331069,77.6143595 Z" id="Fill-93" fill="#FF9376" mask="url(#mask-2)"></path>
                        <path d="M47.4626492,74.5968348 L49.0940083,73.2467214 L49.2781504,73.4713853 L47.6468225,74.8202461 L47.4626492,74.5968348 Z" id="Fill-94" fill="#FF9376" mask="url(#mask-2)"></path>
                        <path d="M44.991617,71.5798111 L46.6229449,70.229134 L46.8071183,70.4525453 L45.1745352,71.803285 L44.991617,71.5798111 Z" id="Fill-95" fill="#FF9376" mask="url(#mask-2)"></path>
                        <path d="M36.6115777,72.5139798 L32.2120363,69.0587142 L16.2121294,77.0105164 L22.0894158,78.1372184 L36.6115777,72.5139798 Z" id="Fill-96" fill="#D8A387" mask="url(#mask-2)"></path>
                        <path d="M42.8547131,73.380693 L38.4557962,69.924801 L22.1512211,78.080661 L28.2894786,79.2380532 L42.8547131,73.380693 Z" id="Fill-97" fill="#E2B08F" mask="url(#mask-2)"></path>
                        <path d="M9.4298366,101.869364 L35.3282403,106.434984 L39.7215312,81.2463124 L16.2123791,77.0108295 L12.4927149,84.3105613 L9.4298366,101.869364 Z" id="Fill-98" fill="#EDB996" mask="url(#mask-2)"></path>
                        <path d="M9.45511945,101.725934 C9.11112527,103.699933 10.4246785,105.582301 12.3887673,105.928786 L31.1856049,109.242188 C33.1496937,109.588046 35.0220111,108.268686 35.3672541,106.29406 C35.7112546,104.318809 34.3970707,102.437694 32.4323575,102.091898 L13.636775,98.7778068 C11.6714311,98.4320109 9.79973806,99.751309 9.45511945,101.725934" id="Fill-99" fill="#EDB996" mask="url(#mask-2)"></path>
                        <path d="M9.74623757,128.213999 L26.1138668,131.099983 L30.6669848,104.991172 L14.3006044,102.106429 L9.74623757,128.213999 Z" id="Fill-100" fill="#EDB996" mask="url(#mask-2)"></path>
                        <path d="M21.3942466,114.216049 L34.667152,116.555949 L27.4594529,160.167093 L13.8806306,160.167093 L21.3942466,114.216049 Z" id="Fill-101" fill="#808080" mask="url(#mask-2)"></path>
                        <path d="M8.12177202,111.875773 L21.3940592,114.216362 L13.8810676,160.167406 L0.458319644,160.167406 L8.12177202,111.875773 Z" id="Fill-102" fill="#AD9E9E" mask="url(#mask-2)"></path>
                    </g>
                    <g id="Group-124" transform="translate(0.000000, 0.254415)">
                        <g id="Group-106" transform="translate(34.967643, 107.102149)">
                            <mask id="mask-4" fill="white">
                                <use xlink:href="#path-3"></use>
                            </mask>
                            <g id="Clip-105"></g>
                            <path d="M1.29820496,0.614177587 L8.73253185,1.92476968 L7.59939914,8.4241853 L0.16382965,7.11364959 L1.29820496,0.614177587 Z" id="Fill-104" fill="#E6E6E6" mask="url(#mask-4)"></path>
                        </g>
                        <mask id="mask-6" fill="white">
                            <use xlink:href="#path-5"></use>
                        </mask>
                        <g id="Clip-108"></g>
                        <path d="M47.3029032,83.3374975 C47.8529193,83.0651073 51.4264937,81.6264937 55.3028567,80.0962483 L56.9348091,84.8407482 L62.5636067,82.8824073 L58.9082705,72.2542414 C58.9082705,72.2542414 37.7715044,78.8038823 37.149686,79.9612745 L48.4872261,82.1461584 C48.0651854,82.9307599 47.4265139,83.2759921 47.3029032,83.3374975" id="Fill-107" fill="#EDB996" mask="url(#mask-6)"></path>
                        <path d="M56.5822603,83.3871654 C56.2863404,85.083701 57.4144715,86.6999413 59.1026156,86.9974473 C60.7901353,87.2955796 62.3977415,86.1614242 62.6930495,84.4648259 C62.9895876,82.7682903 61.8620809,81.1507973 60.1739368,80.8539177 C58.4864171,80.5564117 56.8781865,81.6905671 56.5822603,83.3871654" id="Fill-109" fill="#EDB996" mask="url(#mask-6)"></path>
                        <path d="M56.7181783,84.9973303 L55.3028567,80.0959351 L59.1973217,82.3724508 L56.7181783,84.9973303 Z" id="Fill-110" fill="#EDB996" mask="url(#mask-6)"></path>
                        <path d="M28.5487699,81.3674443 L30.0246479,75.7153319 L32.504422,76.3706593 L31.0279196,82.022709 L28.5487699,81.3674443 Z" id="Fill-111" fill="#FF1F37" mask="url(#mask-6)"></path>
                        <path d="M28.5490821,81.3680706 L29.287018,78.5423276 L31.7674165,79.1963397 L31.0294806,82.0220827 L28.5490821,81.3680706 Z" id="Fill-112" fill="#FF4A64" mask="url(#mask-6)"></path>
                        <path d="M31.4749247,82.1544885 L32.2365886,79.233982 L67.2568264,88.4781502 L66.4945318,91.399283 L31.4749247,82.1544885 Z" id="Fill-113" fill="#FC9F3A" mask="url(#mask-6)"></path>
                        <path d="M32.1879524,79.4231332 L32.9502407,76.5026267 L67.9704785,85.7474838 L67.2081839,88.6679903 L32.1879524,79.4231332 Z" id="Fill-114" fill="#F98410" mask="url(#mask-6)"></path>
                        <path d="M31.0369112,82.0392441 L32.5115342,76.3865054 L33.3880731,76.618748 L31.9128195,82.270234 L31.0369112,82.0392441 Z" id="Fill-115" fill="#666666" mask="url(#mask-6)"></path>
                        <path d="M67.9704785,85.747609 L73.8946216,90.055245 L66.4945942,91.3996588 L67.9704785,85.747609 Z" id="Fill-116" fill="#EDB996" mask="url(#mask-6)"></path>
                        <path d="M73.8947465,90.0554329 L72.9313879,89.3549472 L72.6848036,90.2744599 L73.8947465,90.0554329 Z" id="Fill-117" fill="#666666" mask="url(#mask-6)"></path>
                        <path d="M49.0489813,106.612423 L51.9045951,90.2367549 L55.5899161,86.9477794 L55.5924138,86.9502848 C56.3509556,86.4004937 57.3192658,86.1443881 58.3119223,86.3195095 C60.2691487,86.6647417 61.5770821,88.538904 61.2343368,90.5060135 C61.1338235,91.0790413 60.8947073,91.586242 60.5725617,92.0230434 L60.5794303,92.0318746 L60.3621688,92.2891703 C60.3278319,92.3281279 60.296617,92.3714072 60.2604068,92.4096759 L49.0489813,106.612423 Z" id="Fill-118" fill="#DDA885" mask="url(#mask-6)"></path>
                        <path d="M166.476076,111.43202 L157.20503,102.111252 L161.550884,97.7427366 L170.821305,107.062878 L166.476076,111.43202 Z" id="Fill-119" fill="#FF9376" mask="url(#mask-6)"></path>
                        <path d="M162.130285,115.80056 L152.859239,106.480393 L157.205093,102.111252 L166.476139,111.43202 L162.130285,115.80056 Z" id="Fill-120" fill="#F48873" mask="url(#mask-6)"></path>
                        <path d="M157.784432,120.169645 L148.51401,110.849534 L152.859239,106.48033 L162.130285,115.800497 L157.784432,120.169645 Z" id="Fill-121" fill="#E87E70" mask="url(#mask-6)"></path>
                        <path d="M153.543481,124.433907 L144.272435,115.113146 L148.618289,110.743998 L157.889335,120.06476 L153.543481,124.433907 Z" id="Fill-122" fill="#DD7168" mask="url(#mask-6)"></path>
                        <path d="M149.19769,128.802429 L139.927268,119.482293 L144.272497,115.113146 L153.543543,124.433907 L149.19769,128.802429 Z" id="Fill-123" fill="#D36B66" mask="url(#mask-6)"></path>
                    </g>
                    <g id="Group-136" transform="translate(81.174885, 84.182414)">
                        <mask id="mask-8" fill="white">
                            <use xlink:href="#path-7"></use>
                        </mask>
                        <g id="Clip-126"></g>
                        <path d="M40.2335199,42.7799868 L15.6099928,52.0486569 L6.69105843,28.0983428 L31.31521,18.8309379 L40.2335199,42.7799868 Z" id="Fill-125" fill="#EDB996" mask="url(#mask-8)"></path>
                        <path d="M14.3519694,0.520165701 C12.917859,1.05993548 12.18997,2.6679709 12.7268482,4.11034248 L20.1005874,23.9111498 L25.2974035,21.9547505 L17.9242888,2.15456955 C17.3867237,0.712197975 15.7885151,-0.0196667104 14.3519694,0.520165701" id="Fill-127" fill="#EDB996" mask="url(#mask-8)"></path>
                        <path d="M6.98703455,0.991540423 C5.55236212,1.53068387 4.82441073,3.13934563 5.36135137,4.58109087 L13.5891753,26.674761 L18.5593261,24.1138923 L10.5574806,2.62594427 C10.0206024,1.1835727 8.42233139,0.451081683 6.98703455,0.991540423" id="Fill-128" fill="#EDB996" mask="url(#mask-8)"></path>
                        <path d="M2.41076919,8.80047712 C1.00419577,9.33022564 0.289981665,10.9069446 0.816244688,12.3223215 L8.35233367,32.5587151 L13.4498667,30.6399832 L5.91377768,10.4035645 C5.38745222,8.98881406 3.81859147,8.27072859 2.41076919,8.80047712" id="Fill-129" fill="#EDB996" mask="url(#mask-8)"></path>
                        <path d="M22.7881005,3.40340566 C21.4408472,3.91054373 20.7566054,5.42199933 21.2610136,6.77649703 L26.5913936,21.0909185 L31.5958877,19.5839098 L26.142559,4.93928806 C25.6380883,3.58479035 24.1359783,2.89564126 22.7881005,3.40340566" id="Fill-130" fill="#EDB996" mask="url(#mask-8)"></path>
                        <path d="M15.6585104,52.2193815 L9.86050058,36.6496226 L5.63765819,34.0969275 L5.6351605,34.099439 C4.78919332,33.6989897 3.79092956,33.6268054 2.84636611,33.9814388 C0.986524619,34.6825319 0.041898729,36.7657376 0.739253432,38.6367997 C0.942190644,39.1816051 1.27057427,39.6347787 1.66701992,40.005728 L1.6607757,40.015768 L1.92172173,40.227918 C1.9629336,40.2605559 2.00102335,40.2975907 2.04410848,40.3283434 L15.6585104,52.2193815 Z" id="Fill-131" fill="#DDA885" mask="url(#mask-8)"></path>
                        <path d="M40.1829417,42.6439107 C40.8821697,44.5212485 39.9350461,46.6138679 38.0658383,47.3174727 L20.1948752,54.0434939 C18.3269162,54.7470987 16.2448428,53.7949355 15.5456149,51.9169776 C14.8463869,50.0390135 15.7953213,47.9476467 17.6632803,47.244042 L35.5343058,40.5173944 C37.4028268,39.814416 39.4837137,40.7665791 40.1829417,42.6439107" id="Fill-132" fill="#EDB996" mask="url(#mask-8)"></path>
                        <path d="M44.7336057,68.7359672 L29.1719432,74.5933023 L19.9283718,49.7693102 L35.4894099,43.9126014 L44.7336057,68.7359672 Z" id="Fill-133" fill="#EDB996" mask="url(#mask-8)"></path>
                        <path d="M30.7280033,57.1260629 L18.1081186,61.8755734 L29.8882804,93.5109426 L42.5081651,88.760804 L30.7280033,57.1260629 Z" id="Fill-134" fill="#808080" mask="url(#mask-8)"></path>
                        <path d="M43.3472012,52.3757318 L30.7279409,57.125875 L42.5081026,88.7612431 L55.1279873,84.0111074 L43.3472012,52.3757318 Z" id="Fill-135" fill="#AD9E9E" mask="url(#mask-8)"></path>
                    </g>
                </g>
            </g>
        </g>
    </g>
</svg>