<?xml version="1.0" encoding="UTF-8" standalone="no"?>
<svg width="275px" height="151px" viewBox="0 0 275 151" version="1.1" xmlns="http://www.w3.org/2000/svg" xmlns:xlink="http://www.w3.org/1999/xlink">
    <!-- Generator: Sketch 3.6.1 (26313) - http://www.bohemiancoding.com/sketch -->
    <title>Page 1</title>
    <desc>Created with Sketch.</desc>
    <defs>
        <path id="path-1" d="M0,0 L280,0 L280,150.572082 L0,150.572082 L0,0"></path>
        <path id="path-3" d="M0.454471396,3.90352037 L0.454471396,0.526015561 L8.97919634,0.526015561 L8.97919634,7.28108924 L0.454471396,7.28108924 L0.454471396,3.90352037 L0.454471396,0.525759268 L8.97922197,0.525759268 L8.97922197,7.28102517 L0.454471396,7.28102517 L0.454471396,3.90352037 L0.454471396,3.90352037 Z"></path>
        <path id="path-5" d="M0.586782609,3.90352037 L0.586782609,0.526015561 L8.33251808,0.526015561 L8.33251808,7.28108924 L0.586782609,7.28108924 L0.586782609,3.90352037 L0.586782609,0.525759268 L8.33253089,0.525759268 L8.33253089,7.28102517 L0.586782609,7.28102517 L0.586782609,3.90352037 L0.586782609,3.90352037 Z"></path>
        <path id="path-7" d="M0,0 L280,0 L280,150.572082 L0,150.572082 L0,0 L0,0 Z"></path>
    </defs>
    <g id="Page-1" stroke="none" stroke-width="1" fill="none" fill-rule="evenodd">
        <g id="Desktop-HD-Copy-3" transform="translate(-893.000000, -1825.000000)">
            <g id="Group-2-Copy" transform="translate(251.000000, 1351.000000)">
                <g id="Page-1" transform="translate(637.000000, 474.000000)">
                    <g id="Group-63" transform="translate(89.702517, 27.771771)">
                        <path d="M165.456998,79.0517016 C165.456998,83.3095661 162.01492,86.7617291 157.769556,86.7617291 L156.167982,86.7617291 C151.922618,86.7617291 148.48054,83.3095661 148.48054,79.0517016 L148.48054,65.5527414 C148.48054,61.2948833 151.922618,57.842746 156.167982,57.842746 L157.769556,57.842746 C162.01492,57.842746 165.456998,61.2948833 165.456998,65.5527414 L165.456998,79.0517016 Z" id="Fill-1" fill="#F6ECEC"></path>
                        <path d="M156.568375,67.4000622 L150.082114,67.4000622 L150.082114,65.5528696 C150.082114,62.1874426 152.812403,59.4491002 156.167982,59.4491002 L156.568375,59.4491002 L156.568375,67.4000622 Z" id="Fill-3" fill="#DACDCD"></path>
                        <path d="M163.855423,67.4000622 L157.208979,67.4000622 L157.208979,59.4491002 L157.769556,59.4491002 C161.125071,59.4491002 163.855423,62.1874426 163.855423,65.5528696 L163.855423,67.4000622 Z" id="Fill-4" fill="#DACDCD"></path>
                        <path d="M126.859606,6.00853089 L126.859606,16.4491879 C126.859606,19.4753721 130.703325,19.5685349 130.703325,19.5685349 L139.098648,19.5685349 C141.968625,19.5685349 141.914172,22.3923311 141.914172,22.3923311 L141.914172,36.3667489 L141.914172,27.4848017 L141.914172,37.9254587 C141.914172,40.9516429 145.757891,41.0448057 145.757891,41.0448057 L154.153214,41.0448057 C157.02319,41.0448057 156.968738,43.8686019 156.968738,43.8686019 L156.968738,57.8430197" id="Stroke-5" stroke="#DACDCD" stroke-width="2"></path>
                        <path d="M124.884165,45.6655011 L5.05749199,45.6655011 L5.05749199,8.99280549 L124.884165,8.99280549 L124.884165,45.6655011 Z M4.73718993,8.67154233 L4.73718993,45.9867643 L124.884165,45.9867643 L125.204467,45.9867643 L125.204467,8.67154233 L124.884165,8.67154233 L4.73718993,8.67154233 Z" id="Fill-6" fill="#F6ECEC"></path>
                        <path d="M125.524641,46.3079634 L124.884037,46.3079634 L4.41675973,46.3079634 L4.41675973,8.3502151 L124.884037,8.3502151 L125.524641,8.3502151 L125.524641,46.3079634 Z M76.4422426,60.0947533 L76.4422426,62.9860128 L76.4422426,65.5560156 L64.0302334,65.5560156 L63.3896293,65.5560156 L50.9776201,65.5560156 L50.9776201,62.9860128 L50.9776201,60.0947533 L50.9776201,48.6903341 L76.4422426,48.6903341 L76.4422426,60.0947533 Z M0.567240275,68.0990371 L129.331808,68.0990371 L129.331808,0.342086957 L0.567240275,0.342086957 L0.567240275,68.0990371 Z" id="Fill-7" fill="#F6ECEC"></path>
                        <path d="M7.48029291,36.3665538 L13.6078078,36.3665538 L13.6078078,42.5114966 L7.48029291,42.5114966 L7.48029291,36.3665538 Z M7.48029291,28.2325217 L13.6078078,28.2325217 L13.6078078,34.3780412 L7.48029291,34.3780412 L7.48029291,28.2325217 Z M7.48029291,20.2802654 L13.6078078,20.2802654 L13.6078078,26.4251442 L7.48029291,26.4251442 L7.48029291,20.2802654 Z M7.48029291,11.9649703 L13.6078078,11.9649703 L13.6078078,18.1105538 L7.48029291,18.1105538 L7.48029291,11.9649703 Z M16.1312677,36.3665538 L22.2581419,36.3665538 L22.2581419,42.5114966 L16.1312677,42.5114966 L16.1312677,36.3665538 Z M16.1312677,28.2325217 L22.2581419,28.2325217 L22.2581419,34.3780412 L16.1312677,34.3780412 L16.1312677,28.2325217 Z M16.1312677,20.2802654 L22.2581419,20.2802654 L22.2581419,26.4251442 L16.1312677,26.4251442 L16.1312677,20.2802654 Z M16.1312677,11.9649703 L22.2581419,11.9649703 L22.2581419,18.1105538 L16.1312677,18.1105538 L16.1312677,11.9649703 Z M24.4215103,36.3665538 L72.0003661,36.3665538 L72.0003661,42.5114966 L24.4215103,42.5114966 L24.4215103,36.3665538 Z M24.4215103,28.2325217 L30.5483844,28.2325217 L30.5483844,34.3780412 L24.4215103,34.3780412 L24.4215103,28.2325217 Z M24.4215103,20.2802654 L30.5483844,20.2802654 L30.5483844,26.4251442 L24.4215103,26.4251442 L24.4215103,20.2802654 Z M24.4215103,11.9649703 L30.5483844,11.9649703 L30.5483844,18.1105538 L24.4215103,18.1105538 L24.4215103,11.9649703 Z M32.7117529,28.2325217 L38.838627,28.2325217 L38.838627,34.3780412 L32.7117529,34.3780412 L32.7117529,28.2325217 Z M32.7117529,20.2802654 L38.838627,20.2802654 L38.838627,26.4251442 L32.7117529,26.4251442 L32.7117529,20.2802654 Z M32.7117529,11.9649703 L38.838627,11.9649703 L38.838627,18.1105538 L32.7117529,18.1105538 L32.7117529,11.9649703 Z M41.0013547,28.2325217 L47.1289336,28.2325217 L47.1289336,34.3780412 L41.0013547,34.3780412 L41.0013547,28.2325217 Z M41.0013547,20.2802654 L47.1289336,20.2802654 L47.1289336,26.4251442 L41.0013547,26.4251442 L41.0013547,20.2802654 Z M41.0013547,11.9649703 L47.1289336,11.9649703 L47.1289336,18.1105538 L41.0013547,18.1105538 L41.0013547,11.9649703 Z M49.2923021,28.2325217 L55.4191762,28.2325217 L55.4191762,34.3780412 L49.2923021,34.3780412 L49.2923021,28.2325217 Z M49.2923021,20.2802654 L55.4191762,20.2802654 L55.4191762,26.4251442 L49.2923021,26.4251442 L49.2923021,20.2802654 Z M49.2923021,11.9649703 L55.4191762,11.9649703 L55.4191762,18.1105538 L49.2923021,18.1105538 L49.2923021,11.9649703 Z M57.5825446,28.2325217 L63.7094188,28.2325217 L63.7094188,34.3780412 L57.5825446,34.3780412 L57.5825446,28.2325217 Z M57.5825446,20.2802654 L63.7094188,20.2802654 L63.7094188,26.4251442 L57.5825446,26.4251442 L57.5825446,20.2802654 Z M57.5825446,11.9649703 L63.7094188,11.9649703 L63.7094188,18.1105538 L57.5825446,18.1105538 L57.5825446,11.9649703 Z M65.8721465,28.2325217 L71.9997254,28.2325217 L71.9997254,34.3780412 L65.8721465,34.3780412 L65.8721465,28.2325217 Z M65.8721465,20.2802654 L71.9997254,20.2802654 L71.9997254,26.4251442 L65.8721465,26.4251442 L65.8721465,20.2802654 Z M65.8721465,11.9649703 L71.9997254,11.9649703 L71.9997254,18.1105538 L65.8721465,18.1105538 L65.8721465,11.9649703 Z M74.1637346,36.3665538 L80.289968,36.3665538 L80.289968,42.5114966 L74.1637346,42.5114966 L74.1637346,36.3665538 Z M74.1637346,28.2325217 L80.289968,28.2325217 L80.289968,34.3780412 L74.1637346,34.3780412 L74.1637346,28.2325217 Z M74.1637346,20.2802654 L80.289968,20.2802654 L80.289968,26.4251442 L74.1637346,26.4251442 L74.1637346,20.2802654 Z M74.1637346,11.9649703 L80.289968,11.9649703 L80.289968,18.1105538 L74.1637346,18.1105538 L74.1637346,11.9649703 Z M82.4526957,36.3665538 L88.5795698,36.3665538 L88.5795698,42.5114966 L82.4526957,42.5114966 L82.4526957,36.3665538 Z M82.4526957,28.2325217 L88.5795698,28.2325217 L88.5795698,34.3780412 L82.4526957,34.3780412 L82.4526957,28.2325217 Z M82.4526957,20.2802654 L88.5795698,20.2802654 L88.5795698,26.4251442 L82.4526957,26.4251442 L82.4526957,20.2802654 Z M82.4526957,11.9649703 L88.5795698,11.9649703 L88.5795698,18.1105538 L82.4526957,18.1105538 L82.4526957,11.9649703 Z M90.7442197,36.3665538 L96.8704531,36.3665538 L96.8704531,42.5114966 L90.7442197,42.5114966 L90.7442197,36.3665538 Z M90.7442197,28.2325217 L96.8704531,28.2325217 L96.8704531,34.3780412 L90.7442197,34.3780412 L90.7442197,28.2325217 Z M90.7442197,20.2802654 L96.8704531,20.2802654 L96.8704531,26.4251442 L90.7442197,26.4251442 L90.7442197,20.2802654 Z M90.7442197,11.9649703 L96.8704531,11.9649703 L96.8704531,18.1105538 L90.7442197,18.1105538 L90.7442197,11.9649703 Z M99.0344622,28.2325217 L105.16076,28.2325217 L105.16076,34.3780412 L99.0344622,34.3780412 L99.0344622,28.2325217 Z M99.0344622,20.2802654 L105.16076,20.2802654 L105.16076,26.4251442 L99.0344622,26.4251442 L99.0344622,20.2802654 Z M99.0344622,11.9649703 L105.16076,11.9649703 L105.16076,18.1105538 L99.0344622,18.1105538 L99.0344622,11.9649703 Z M107.324769,28.2325217 L113.451643,28.2325217 L113.451643,34.3780412 L107.324769,34.3780412 L107.324769,28.2325217 Z M107.324769,20.2802654 L113.451643,20.2802654 L113.451643,26.4251442 L107.324769,26.4251442 L107.324769,20.2802654 Z M107.324769,11.9649703 L113.451643,11.9649703 L113.451643,18.1105538 L107.324769,18.1105538 L107.324769,11.9649703 Z M113.452924,42.5121373 L99.035103,42.5121373 L99.035103,36.3671945 L113.452924,36.3671945 L113.452924,42.5121373 Z M115.615652,28.2325217 L121.741886,28.2325217 L121.741886,34.3780412 L115.615652,34.3780412 L115.615652,28.2325217 Z M115.615652,20.2802654 L121.741886,20.2802654 L121.741886,26.4251442 L115.615652,26.4251442 L115.615652,20.2802654 Z M115.615652,11.9649703 L121.741886,11.9649703 L121.741886,18.1105538 L115.615652,18.1105538 L115.615652,11.9649703 Z M5.05749199,45.6655011 L124.884165,45.6655011 L124.884165,8.99280549 L5.05749199,8.99280549 L5.05749199,45.6655011 Z" id="Fill-8" fill="#DFD3D2"></path>
                        <path d="M13.6084485,11.9649703 L7.48093364,11.9649703 L7.48093364,18.1105538 L13.6084485,18.1105538 L13.6084485,11.9649703 Z" id="Fill-9" fill="#AD9E9E"></path>
                        <path d="M22.2581419,11.9649703 L16.1312677,11.9649703 L16.1312677,18.1105538 L22.2581419,18.1105538 L22.2581419,11.9649703 Z" id="Fill-10" fill="#AD9E9E"></path>
                        <path d="M30.5490252,11.9649703 L24.422151,11.9649703 L24.422151,18.1105538 L30.5490252,18.1105538 L30.5490252,11.9649703 Z" id="Fill-11" fill="#AD9E9E"></path>
                        <path d="M38.838627,11.9649703 L32.7117529,11.9649703 L32.7117529,18.1105538 L38.838627,18.1105538 L38.838627,11.9649703 Z" id="Fill-12" fill="#AD9E9E"></path>
                        <path d="M47.1295744,11.9649703 L41.0019954,11.9649703 L41.0019954,18.1105538 L47.1295744,18.1105538 L47.1295744,11.9649703 Z" id="Fill-13" fill="#AD9E9E"></path>
                        <path d="M55.4191762,11.9649703 L49.2923021,11.9649703 L49.2923021,18.1105538 L55.4191762,18.1105538 L55.4191762,11.9649703 Z" id="Fill-14" fill="#AD9E9E"></path>
                        <path d="M63.7100595,11.9649703 L57.5831854,11.9649703 L57.5831854,18.1105538 L63.7100595,18.1105538 L63.7100595,11.9649703 Z" id="Fill-15" fill="#AD9E9E"></path>
                        <path d="M72.0003661,11.9649703 L65.8727872,11.9649703 L65.8727872,18.1105538 L72.0003661,18.1105538 L72.0003661,11.9649703 Z" id="Fill-16" fill="#AD9E9E"></path>
                        <path d="M80.2893272,11.9649703 L74.1630938,11.9649703 L74.1630938,18.1105538 L80.2893272,18.1105538 L80.2893272,11.9649703 Z" id="Fill-17" fill="#AD9E9E"></path>
                        <path d="M88.5802105,11.9649703 L82.4533364,11.9649703 L82.4533364,18.1105538 L88.5802105,18.1105538 L88.5802105,11.9649703 Z" id="Fill-18" fill="#AD9E9E"></path>
                        <path d="M96.8704531,11.9649703 L90.7442197,11.9649703 L90.7442197,18.1105538 L96.8704531,18.1105538 L96.8704531,11.9649703 Z" id="Fill-19" fill="#AD9E9E"></path>
                        <path d="M105.1614,11.9649703 L99.035103,11.9649703 L99.035103,18.1105538 L105.1614,18.1105538 L105.1614,11.9649703 Z" id="Fill-20" fill="#AD9E9E"></path>
                        <path d="M113.451643,11.9649703 L107.324769,11.9649703 L107.324769,18.1105538 L113.451643,18.1105538 L113.451643,11.9649703 Z" id="Fill-21" fill="#AD9E9E"></path>
                        <path d="M121.741886,11.9649703 L115.615652,11.9649703 L115.615652,18.1105538 L121.741886,18.1105538 L121.741886,11.9649703 Z" id="Fill-22" fill="#AD9E9E"></path>
                        <path d="M13.6084485,20.2802654 L7.48093364,20.2802654 L7.48093364,26.4251442 L13.6084485,26.4251442 L13.6084485,20.2802654 Z" id="Fill-23" fill="#AD9E9E"></path>
                        <path d="M22.2581419,20.2802654 L16.1312677,20.2802654 L16.1312677,26.4251442 L22.2581419,26.4251442 L22.2581419,20.2802654 Z" id="Fill-24" fill="#AD9E9E"></path>
                        <path d="M30.5490252,20.2802654 L24.422151,20.2802654 L24.422151,26.4251442 L30.5490252,26.4251442 L30.5490252,20.2802654 Z" id="Fill-25" fill="#AD9E9E"></path>
                        <path d="M38.838627,20.2802654 L32.7117529,20.2802654 L32.7117529,26.4251442 L38.838627,26.4251442 L38.838627,20.2802654 Z" id="Fill-26" fill="#AD9E9E"></path>
                        <path d="M47.1295744,20.2802654 L41.0019954,20.2802654 L41.0019954,26.4251442 L47.1295744,26.4251442 L47.1295744,20.2802654 Z" id="Fill-27" fill="#AD9E9E"></path>
                        <path d="M55.4191762,20.2802654 L49.2923021,20.2802654 L49.2923021,26.4251442 L55.4191762,26.4251442 L55.4191762,20.2802654 Z" id="Fill-28" fill="#AD9E9E"></path>
                        <path d="M63.7100595,20.2802654 L57.5831854,20.2802654 L57.5831854,26.4251442 L63.7100595,26.4251442 L63.7100595,20.2802654 Z" id="Fill-29" fill="#AD9E9E"></path>
                        <path d="M72.0003661,20.2802654 L65.8727872,20.2802654 L65.8727872,26.4251442 L72.0003661,26.4251442 L72.0003661,20.2802654 Z" id="Fill-30" fill="#AD9E9E"></path>
                        <path d="M80.2893272,20.2802654 L74.1630938,20.2802654 L74.1630938,26.4251442 L80.2893272,26.4251442 L80.2893272,20.2802654 Z" id="Fill-31" fill="#AD9E9E"></path>
                        <path d="M88.5802105,20.2802654 L82.4533364,20.2802654 L82.4533364,26.4251442 L88.5802105,26.4251442 L88.5802105,20.2802654 Z" id="Fill-32" fill="#AD9E9E"></path>
                        <path d="M96.8704531,20.2802654 L90.7442197,20.2802654 L90.7442197,26.4251442 L96.8704531,26.4251442 L96.8704531,20.2802654 Z" id="Fill-33" fill="#AD9E9E"></path>
                        <path d="M105.1614,20.2802654 L99.035103,20.2802654 L99.035103,26.4251442 L105.1614,26.4251442 L105.1614,20.2802654 Z" id="Fill-34" fill="#AD9E9E"></path>
                        <path d="M113.451643,20.2802654 L107.324769,20.2802654 L107.324769,26.4251442 L113.451643,26.4251442 L113.451643,20.2802654 Z" id="Fill-35" fill="#AD9E9E"></path>
                        <path d="M121.741886,20.2802654 L115.615652,20.2802654 L115.615652,26.4251442 L121.741886,26.4251442 L121.741886,20.2802654 Z" id="Fill-36" fill="#AD9E9E"></path>
                        <path d="M13.6084485,28.2325217 L7.48093364,28.2325217 L7.48093364,34.3780412 L13.6084485,34.3780412 L13.6084485,28.2325217 Z" id="Fill-37" fill="#AD9E9E"></path>
                        <path d="M22.2581419,28.2325217 L16.1312677,28.2325217 L16.1312677,34.3780412 L22.2581419,34.3780412 L22.2581419,28.2325217 Z" id="Fill-38" fill="#AD9E9E"></path>
                        <path d="M30.5490252,28.2325217 L24.422151,28.2325217 L24.422151,34.3780412 L30.5490252,34.3780412 L30.5490252,28.2325217 Z" id="Fill-39" fill="#AD9E9E"></path>
                        <path d="M38.838627,28.2325217 L32.7117529,28.2325217 L32.7117529,34.3780412 L38.838627,34.3780412 L38.838627,28.2325217 Z" id="Fill-40" fill="#AD9E9E"></path>
                        <path d="M47.1295744,28.2325217 L41.0019954,28.2325217 L41.0019954,34.3780412 L47.1295744,34.3780412 L47.1295744,28.2325217 Z" id="Fill-41" fill="#AD9E9E"></path>
                        <path d="M55.4191762,28.2325217 L49.2923021,28.2325217 L49.2923021,34.3780412 L55.4191762,34.3780412 L55.4191762,28.2325217 Z" id="Fill-42" fill="#AD9E9E"></path>
                        <path d="M63.7100595,28.2325217 L57.5831854,28.2325217 L57.5831854,34.3780412 L63.7100595,34.3780412 L63.7100595,28.2325217 Z" id="Fill-43" fill="#AD9E9E"></path>
                        <path d="M72.0003661,28.2325217 L65.8727872,28.2325217 L65.8727872,34.3780412 L72.0003661,34.3780412 L72.0003661,28.2325217 Z" id="Fill-44" fill="#AD9E9E"></path>
                        <path d="M80.2893272,28.2325217 L74.1630938,28.2325217 L74.1630938,34.3780412 L80.2893272,34.3780412 L80.2893272,28.2325217 Z" id="Fill-45" fill="#AD9E9E"></path>
                        <path d="M88.5802105,28.2325217 L82.4533364,28.2325217 L82.4533364,34.3780412 L88.5802105,34.3780412 L88.5802105,28.2325217 Z" id="Fill-46" fill="#AD9E9E"></path>
                        <path d="M96.8704531,28.2325217 L90.7442197,28.2325217 L90.7442197,34.3780412 L96.8704531,34.3780412 L96.8704531,28.2325217 Z" id="Fill-47" fill="#AD9E9E"></path>
                        <path d="M105.1614,28.2325217 L99.035103,28.2325217 L99.035103,34.3780412 L105.1614,34.3780412 L105.1614,28.2325217 Z" id="Fill-48" fill="#AD9E9E"></path>
                        <path d="M113.451643,28.2325217 L107.324769,28.2325217 L107.324769,34.3780412 L113.451643,34.3780412 L113.451643,28.2325217 Z" id="Fill-49" fill="#AD9E9E"></path>
                        <path d="M121.741886,28.2325217 L115.615652,28.2325217 L115.615652,34.3780412 L121.741886,34.3780412 L121.741886,28.2325217 Z" id="Fill-50" fill="#AD9E9E"></path>
                        <path d="M13.6084485,36.3665538 L7.48093364,36.3665538 L7.48093364,42.5114966 L13.6084485,42.5114966 L13.6084485,36.3665538 Z" id="Fill-51" fill="#AD9E9E"></path>
                        <path d="M22.2581419,36.3665538 L16.1312677,36.3665538 L16.1312677,42.5114966 L22.2581419,42.5114966 L22.2581419,36.3665538 Z" id="Fill-52" fill="#AD9E9E"></path>
                        <path d="M72.0003661,36.3665538 L24.4215103,36.3665538 L24.4215103,42.5114966 L72.0003661,42.5114966 L72.0003661,36.3665538 Z" id="Fill-53" fill="#AD9E9E"></path>
                        <path d="M80.2893272,36.3665538 L74.1630938,36.3665538 L74.1630938,42.5114966 L80.2893272,42.5114966 L80.2893272,36.3665538 Z" id="Fill-54" fill="#AD9E9E"></path>
                        <path d="M88.5802105,36.3665538 L82.4533364,36.3665538 L82.4533364,42.5114966 L88.5802105,42.5114966 L88.5802105,36.3665538 Z" id="Fill-55" fill="#AD9E9E"></path>
                        <path d="M96.8704531,36.3665538 L90.7442197,36.3665538 L90.7442197,42.5114966 L96.8704531,42.5114966 L96.8704531,36.3665538 Z" id="Fill-56" fill="#AD9E9E"></path>
                        <path d="M99.035103,42.5121373 L113.452892,42.5121373 L113.452892,36.3672496 L99.035103,36.3672496 L99.035103,42.5121373 Z" id="Fill-57" fill="#AD9E9E"></path>
                        <path d="M63.3895011,60.0947533 L64.0301053,60.0947533 L75.8015103,60.0947533 L75.8015103,49.3328604 L51.6180961,49.3328604 L51.6180961,60.0947533 L63.3895011,60.0947533 Z" id="Fill-58" fill="#DFD3D2"></path>
                        <path d="M51.6180961,62.3435057 L51.6180961,60.737254 L63.3895011,60.737254 L63.3895011,64.9135149 L51.6180961,64.9135149 L51.6180961,62.3435057 Z M64.0301053,64.9135149 L64.0301053,60.737254 L75.8015103,60.737254 L75.8015103,62.3435057 L75.8015103,64.9135149 L64.0301053,64.9135149 Z M75.8015103,49.3328604 L75.8015103,60.0947533 L64.0301053,60.0947533 L63.3895011,60.0947533 L51.6180961,60.0947533 L51.6180961,49.3328604 L75.8015103,49.3328604 Z M50.977492,60.0947533 L50.977492,62.9860128 L50.977492,65.5560156 L63.3895011,65.5560156 L64.0301053,65.5560156 L76.4421144,65.5560156 L76.4421144,62.9860128 L76.4421144,60.0947533 L76.4421144,48.6903341 L50.977492,48.6903341 L50.977492,60.0947533 Z" id="Fill-59" fill="#AD9E9E"></path>
                        <path d="M63.3895011,60.737254 L51.6180961,60.737254 L51.6180961,62.3435057 L51.6180961,64.9135149 L63.3895011,64.9135149 L63.3895011,60.737254 Z" id="Fill-60" fill="#DFD3D2"></path>
                        <path d="M75.8015103,62.3435057 L75.8015103,60.737254 L64.0301053,60.737254 L64.0301053,64.9135149 L75.8015103,64.9135149 L75.8015103,62.3435057 Z" id="Fill-61" fill="#DFD3D2"></path>
                        <path d="M125.204339,8.67141419 L125.204339,45.9866362 L124.884037,45.9866362 L4.73706178,45.9866362 L4.73706178,8.67141419 L124.884037,8.67141419 L125.204339,8.67141419 Z M4.41675973,8.35015103 L4.41675973,46.3078993 L124.884037,46.3078993 L125.524641,46.3078993 L125.524641,8.35015103 L124.884037,8.35015103 L4.41675973,8.35015103 Z" id="Fill-62" fill="#B3B3B3"></path>
                    </g>
                    <path d="M115.574389,34.4586453 L94.119405,34.4586453 L94.119405,30.0279176 L115.574389,30.0279176 L115.574389,34.4586453 Z" id="Fill-64" fill="#E6E6E6"></path>
                    <g id="Group-140" transform="translate(0.000000, 0.220284)">
                        <path d="M215.227286,34.2383616 L193.772943,34.2383616 L193.772943,29.8076339 L215.227286,29.8076339 L215.227286,34.2383616 L215.227286,34.2383616 Z" id="Fill-66" fill="#E6E6E6"></path>
                        <mask id="mask-2" fill="white">
                            <use xlink:href="#path-1"></use>
                        </mask>
                        <g id="Clip-69"></g>
                        <path d="M217.660082,18.6977849 L91.6181785,18.6977849 C87.3721098,18.6977849 83.9307368,22.1499222 83.9307368,26.4077803 L225.347524,26.4077803 C225.347524,22.1499222 221.906151,18.6977849 217.660082,18.6977849" id="Fill-68" fill="#F4F4F4" mask="url(#mask-2)"></path>
                        <path d="M225.34778,27.8936384 L83.9309931,27.8936384 L83.9309931,26.407524 L225.34778,26.407524 L225.34778,27.8936384 Z" id="Fill-70" fill="#AD9E9E" mask="url(#mask-2)"></path>
                        <path d="M54.1493858,125.760603 L46.4850105,131.362577 L5.55132229,75.0376293 L13.2144174,69.4363478 L54.1493858,125.760603 Z" id="Fill-71" fill="#2FA3DD" mask="url(#mask-2)"></path>
                        <path d="M54.1493858,125.760603 L52.3960092,127.041754 L11.4610407,70.7181327 L13.2144174,69.4363478 L54.1493858,125.760603 Z" id="Fill-72" fill="#258CB0" mask="url(#mask-2)"></path>
                        <path d="M48.7360183,129.717907 L46.9826416,130.999698 L6.04767451,74.6747826 L7.80104989,73.3936384 L48.7360183,129.717907 Z" id="Fill-73" fill="#39B2E2" mask="url(#mask-2)"></path>
                        <path d="M12.5065941,74.5700229 C12.8826398,75.0859405 12.7686087,75.8107368 12.2535497,76.1878719 C11.7384906,76.5643661 11.0165135,76.4499954 10.6411085,75.9334371 C10.2650691,75.4181602 10.3784595,74.6921465 10.8935121,74.3162288 C11.4092119,73.9397346 12.1305547,74.0541053 12.5065941,74.5700229" id="Fill-74" fill="#FE7C52" mask="url(#mask-2)"></path>
                        <path d="M11.2272119,74.7745446 C10.9645629,74.9666362 10.9069034,75.3360824 11.0990911,75.5995515 C11.2899973,75.8623158 11.6596293,75.9201098 11.9203625,75.728659 C12.1823771,75.5372082 12.2406773,75.167762 12.0484897,74.9049977 C11.8569428,74.6408879 11.4892265,74.5843753 11.2272119,74.7745446 M12.5872494,76.6461876 C11.8204275,77.2070847 10.742908,77.036778 10.1830041,76.2677071 C9.62502243,75.4992769 9.79415011,74.4179771 10.5603314,73.8570801 C11.3265126,73.2968238 12.4059542,73.4664256 12.9639359,74.2354966 C13.5238334,75.0039268 13.3534307,76.086508 12.5872494,76.6461876" id="Fill-75" fill="#258CB0" mask="url(#mask-2)"></path>
                        <path d="M17.7413574,75.6652265 L15.9879808,76.9470114 L15.8137336,76.7060961 L17.5664696,75.4249519 L17.7413574,75.6652265 Z" id="Fill-76" fill="#39B2E2" mask="url(#mask-2)"></path>
                        <path d="M20.0914737,78.8984256 L18.338097,80.1802105 L18.162562,79.9399359 L19.9159387,78.658151 L20.0914737,78.8984256 Z" id="Fill-77" fill="#39B2E2" mask="url(#mask-2)"></path>
                        <path d="M22.4411991,82.1319451 L20.6884632,83.4130892 L20.5135753,83.1728146 L22.2656705,81.8916705 L22.4411991,82.1319451 Z" id="Fill-78" fill="#39B2E2" mask="url(#mask-2)"></path>
                        <path d="M24.7916357,85.3651442 L23.038259,86.6469547 L22.8633712,86.4066545 L24.6167478,85.1242288 L24.7916357,85.3651442 Z" id="Fill-79" fill="#39B2E2" mask="url(#mask-2)"></path>
                        <path d="M27.1423222,88.6009318 L25.3889455,89.8820824 L25.2140577,89.6411414 L26.9674343,88.3593501 L27.1423222,88.6009318 Z" id="Fill-80" fill="#39B2E2" mask="url(#mask-2)"></path>
                        <path d="M29.4924384,91.8341309 L27.7390618,93.1159222 L27.5635332,92.8756284 L29.3181913,91.5938371 L29.4924384,91.8341309 Z" id="Fill-81" fill="#39B2E2" mask="url(#mask-2)"></path>
                        <path d="M31.8424906,95.0682911 L30.089114,96.3494416 L29.9148604,96.1085007 L31.6675963,94.8260686 L31.8424906,95.0682911 Z" id="Fill-82" fill="#39B2E2" mask="url(#mask-2)"></path>
                        <path d="M34.1922801,98.3002664 L32.4395442,99.5827048 L32.2633748,99.3417638 L34.0173922,98.0606133 L34.1922801,98.3002664 Z" id="Fill-83" fill="#39B2E2" mask="url(#mask-2)"></path>
                        <path d="M36.542076,101.533786 L34.78934,102.816224 L34.6144522,102.575283 L36.3678288,101.293492 L36.542076,101.533786 Z" id="Fill-84" fill="#39B2E2" mask="url(#mask-2)"></path>
                        <path d="M38.8918078,104.767952 L37.1384311,106.049744 L36.9648183,105.808162 L38.7169135,104.527652 L38.8918078,104.767952 Z" id="Fill-85" fill="#39B2E2" mask="url(#mask-2)"></path>
                        <path d="M41.242238,108.001472 L39.4888613,109.283263 L39.3146142,109.042963 L41.0679908,107.760531 L41.242238,108.001472 Z" id="Fill-86" fill="#39B2E2" mask="url(#mask-2)"></path>
                        <path d="M43.5917135,111.235632 L41.8396183,112.516776 L41.6647304,112.276482 L43.4168256,110.995332 L43.5917135,111.235632 Z" id="Fill-87" fill="#39B2E2" mask="url(#mask-2)"></path>
                        <path d="M45.9433611,114.469792 L44.1906252,115.752224 L44.0150966,115.510643 L45.7684732,114.228851 L45.9433611,114.469792 Z" id="Fill-88" fill="#39B2E2" mask="url(#mask-2)"></path>
                        <path d="M48.2930929,117.704209 L46.540357,118.985359 L46.3641876,118.745065 L48.1188458,117.463274 L48.2930929,117.704209 Z" id="Fill-89" fill="#39B2E2" mask="url(#mask-2)"></path>
                        <path d="M50.6428888,120.937792 L48.8901529,122.218943 L48.7152586,121.978002 L50.4679945,120.696858 L50.6428888,120.937792 Z" id="Fill-90" fill="#39B2E2" mask="url(#mask-2)"></path>
                        <path d="M52.9932549,124.170351 L51.240519,125.451501 L51.0649904,125.211848 L52.8190078,123.930697 L52.9932549,124.170351 Z" id="Fill-91" fill="#39B2E2" mask="url(#mask-2)"></path>
                        <path d="M219.034517,80.8984073 L221.847479,80.8984073 C226.092866,80.8984073 229.534917,84.3499279 229.534917,88.6084309 L229.534917,121.754465 C229.534917,126.012968 226.092866,129.464489 221.847479,129.464489 L203.634017,129.464489" id="Stroke-92" stroke="#DACDCD" stroke-width="2" mask="url(#mask-2)"></path>
                        <path d="M161.489519,112.752771 L161.42032,112.752771 L160.565776,112.752771 L160.565776,112.802882 C156.722664,113.230148 153.732879,116.494698 153.732879,120.462792 L153.732879,138.466337 C153.732879,142.43443 156.722664,145.698981 160.565776,146.126245 L160.565776,146.17636 L161.42032,146.17636 L161.489519,146.17636 L203.594279,146.17636 L203.594279,112.752771 L161.489519,112.752771 Z" id="Fill-93" fill="#666666" mask="url(#mask-2)"></path>
                        <path d="M163.711195,143.374346 L200.226526,143.374346 L200.226526,115.555302 L163.711195,115.555302 L163.711195,143.374346 Z" id="Fill-94" fill="#AD9E9E" mask="url(#mask-2)"></path>
                        <path d="M162.590105,141.098606 L156.9853,141.098606 L156.9853,137.51087 L162.590105,137.51087 L162.590105,141.098606 Z" id="Fill-95" fill="#AD9E9E" mask="url(#mask-2)"></path>
                        <path d="M162.590105,136.211735 L156.9853,136.211735 L156.9853,132.624005 L162.590105,132.624005 L162.590105,136.211735 Z" id="Fill-96" fill="#AD9E9E" mask="url(#mask-2)"></path>
                        <path d="M162.590105,124.913337 L156.9853,124.913337 L156.9853,121.397569 L162.590105,121.397569 L162.590105,124.913337 Z" id="Fill-97" fill="#AD9E9E" mask="url(#mask-2)"></path>
                        <path d="M162.590105,120.703669 L156.9853,120.703669 L156.9853,117.187894 L162.590105,117.187894 L162.590105,120.703669 Z" id="Fill-98" fill="#AD9E9E" mask="url(#mask-2)"></path>
                        <path d="M162.589913,128.929492 C162.589913,130.481775 161.334975,131.739795 159.787222,131.739795 C158.24011,131.739795 156.985108,130.481775 156.985108,128.929492 C156.985108,127.377203 158.24011,126.118542 159.787222,126.118542 C161.334975,126.118542 162.589913,127.377203 162.589913,128.929492" id="Fill-99" fill="#AD9E9E" mask="url(#mask-2)"></path>
                        <path d="M161.629007,128.929492 C161.629007,129.949141 160.804513,130.776038 159.787222,130.776038 C158.770572,130.776038 157.946078,129.949141 157.946078,128.929492 C157.946078,127.909837 158.770572,127.082299 159.787222,127.082299 C160.804513,127.082299 161.629007,127.909837 161.629007,128.929492" id="Fill-100" fill="#666666" mask="url(#mask-2)"></path>
                        <path d="M76.7856751,84.5921648 C77.1187918,86.0712311 76.1854371,87.5547442 74.7113684,87.8888476 L54.8342069,92.3972833 C53.3594975,92.7320275 51.8796686,91.7952577 51.5465455,90.3168641 L40.6156467,41.840714 C40.2831643,40.3617117 41.216551,38.8781602 42.691254,38.5434416 L62.5684092,34.0349931 C64.0424778,33.7008513 65.5223066,34.6376659 65.8554233,36.1160275 L76.7856751,84.5921648 Z" id="Fill-101" fill="#F2F2F2" mask="url(#mask-2)"></path>
                        <path d="M44.2222773,46.9201831 L52.6714087,84.3902059 L73.2282654,79.7275973 L64.779762,42.2575103 L44.2222773,46.9201831 Z M51.704076,85.9270664 L42.6899085,45.9499863 L65.7470755,40.7212906 L74.7612815,80.6977941 L51.704076,85.9270664 Z" id="Fill-102" fill="#F2F2F2" mask="url(#mask-2)"></path>
                        <path d="M66.2949016,85.7281831 C66.5940595,87.0543002 65.7637986,88.3727158 64.4415835,88.673405 C63.1180613,88.9728128 61.8035094,88.1407707 61.5043387,86.8146471 C61.2058087,85.4872677 62.035416,84.168833 63.3576503,83.868778 C64.6805126,83.5687231 65.995103,84.400778 66.2949016,85.7281831" id="Fill-103" fill="#CCCCCC" mask="url(#mask-2)"></path>
                        <path d="M64.3148467,85.3309931 C64.2943432,85.3309931 64.2731991,85.3335561 64.2526957,85.3380412 L63.179687,85.5815835 C63.0297812,85.6156064 62.9356128,85.7659863 62.9689245,85.9169428 L63.2117172,86.9924952 C63.2443881,87.1389858 63.3949346,87.2347176 63.5467625,87.2038792 L64.6184897,86.9610096 C64.6915332,86.9443057 64.7536842,86.8999735 64.7934096,86.8370087 C64.833135,86.7740439 64.8459497,86.6982261 64.8292906,86.6256247 L64.5865172,85.5500595 C64.5583249,85.4228741 64.4436339,85.3309931 64.3148467,85.3309931 M63.4839835,87.5321968 C63.2065913,87.5321968 62.960595,87.3349474 62.8990975,87.063168 L62.6563048,85.9876156 C62.5845556,85.6637895 62.7876293,85.3412449 63.10986,85.2680092 L64.1829199,85.0245309 C64.5000183,84.9486682 64.8273684,85.159405 64.8991304,85.4793867 L65.1419039,86.5543048 C65.1771442,86.7110792 65.1495927,86.8723451 65.0643753,87.0085584 C64.9785172,87.1441245 64.8453089,87.2385684 64.6889703,87.2739112 L63.6172302,87.5174151 C63.5736668,87.5276989 63.5281876,87.5321968 63.4839835,87.5321968" id="Fill-104" fill="#F2F2F2" mask="url(#mask-2)"></path>
                        <path d="M56.0787396,40.5321465 C56.1325483,40.7698581 55.983924,41.0056476 55.7468979,41.0596613 L51.8378352,41.9463066 C51.6014435,42.0002563 51.3663396,41.851222 51.3131652,41.6135103 L51.2426975,41.3024989 C51.1888888,41.0647872 51.337513,40.828357 51.5738984,40.7750481 L55.4823204,39.8883387 C55.7193529,39.8350297 55.9550975,39.9834874 56.0089126,40.2218398 L56.0787396,40.5321465 Z" id="Fill-105" fill="#CCCCCC" mask="url(#mask-2)"></path>
                        <path d="M53.8628952,38.9246773 C53.9384888,39.2606773 53.7277263,39.59546 53.392681,39.6718993 C53.0557199,39.7476979 52.7232375,39.5369611 52.6470032,39.2003204 C52.5707689,38.8629748 52.7808906,38.528897 53.1172174,38.4524577 C53.4529034,38.3759542 53.7866673,38.5880366 53.8628952,38.9246773" id="Fill-106" fill="#CCCCCC" mask="url(#mask-2)"></path>
                        <path d="M73.991762,80.1991121 L52.1844073,85.1451167 L43.455968,46.4350206 L65.2633227,41.4896568 L73.991762,80.1991121 Z" id="Fill-107" fill="#AD9E9E" mask="url(#mask-2)"></path>
                        <path d="M43.8394398,46.6776659 L52.4256686,84.7606773 L73.6090526,79.9567231 L65.0215103,41.8737117 L43.8394398,46.6776659 Z M51.9426398,85.5297483 L43.0732586,46.1925675 L65.5045584,41.1052815 L74.3745995,80.4418215 L51.9426398,85.5297483 Z" id="Fill-108" fill="#CCCCCC" mask="url(#mask-2)"></path>
                        <path d="M52.4258609,84.7609336 L65.0217025,41.873968 L73.6086041,79.9569794 L52.4258609,84.7609336 Z" id="Fill-109" fill="#666666" mask="url(#mask-2)"></path>
                        <path d="M95.8894279,105.883717 L122.869132,105.883717 L122.869132,79.7056201 L95.8894279,79.7056201 L95.8894279,105.883717 Z" id="Fill-110" fill="#EDB996" mask="url(#mask-2)"></path>
                        <path d="M105.637977,56.0315881 C107.209437,56.0315881 108.484238,57.3101693 108.484238,58.8868833 L108.484238,80.528897 L102.790435,80.528897 L102.790435,58.8868833 C102.790435,57.3101693 104.064595,56.0315881 105.637977,56.0315881" id="Fill-111" fill="#EDB996" mask="url(#mask-2)"></path>
                        <path d="M112.884339,53.8252265 C114.455799,53.8252265 115.7306,55.1038078 115.7306,56.6804577 L115.7306,80.8295286 L110.038078,80.1684211 L110.038078,56.6804577 C110.038078,55.1038078 111.311661,53.8252265 112.884339,53.8252265" id="Fill-112" fill="#EDB996" mask="url(#mask-2)"></path>
                        <path d="M120.076943,59.6603753 C121.617584,59.6603753 122.868741,60.9151854 122.868741,62.4610801 L122.868741,84.5798627 L117.283799,84.5798627 L117.283799,62.4610801 C117.283799,60.9151854 118.534316,59.6603753 120.076943,59.6603753" id="Fill-113" fill="#EDB996" mask="url(#mask-2)"></path>
                        <path d="M98.5629474,61.8395057 C100.039579,61.8395057 101.237556,63.0416476 101.237556,64.5219314 L101.237556,80.1681648 L95.8890435,80.5292174 L95.8890435,64.5219314 C95.8890435,63.0416476 97.0857391,61.8395057 98.5629474,61.8395057" id="Fill-114" fill="#EDB996" mask="url(#mask-2)"></path>
                        <path d="M122.868998,106.06548 L122.868998,89.0468943 L126.013135,85.0755973 L126.016339,85.0775195 C126.686416,84.3887323 127.619835,83.9582883 128.654426,83.9582883 C130.692851,83.9582883 132.345684,85.6159268 132.345684,87.6603753 C132.345684,88.2553336 132.192549,88.8098105 131.944009,89.3071085 L131.95362,89.3148165 L131.778124,89.6129364 C131.750572,89.6585565 131.726865,89.7080275 131.696751,89.7523597 L122.868998,106.06548 Z" id="Fill-115" fill="#DDA885" mask="url(#mask-2)"></path>
                        <path d="M95.8891716,105.734529 C95.8891716,107.786679 97.5483478,109.450763 99.5958078,109.450763 L119.17697,109.450763 C121.223725,109.450763 122.883606,107.786679 122.883606,105.734529 C122.883606,103.682379 121.223725,102.018942 119.17697,102.018942 L99.5958078,102.018942 C97.5483478,102.018942 95.8891716,103.682379 95.8891716,105.734529" id="Fill-116" fill="#EDB996" mask="url(#mask-2)"></path>
                        <path d="M100.853565,132.390132 L117.903662,132.390132 L117.903662,105.25728 L100.853565,105.25728 L100.853565,132.390132 Z" id="Fill-117" fill="#EDB996" mask="url(#mask-2)"></path>
                        <path d="M198.802435,105.883717 L171.822737,105.883717 L171.822737,79.7056201 L198.802435,79.7056201 L198.802435,105.883717 Z" id="Fill-118" fill="#EDB996" mask="url(#mask-2)"></path>
                        <path d="M189.053693,56.0315881 C187.482233,56.0315881 186.207368,57.3101693 186.207368,58.8868833 L186.207368,80.528897 L191.901236,80.528897 L191.901236,58.8868833 C191.901236,57.3101693 190.627011,56.0315881 189.053693,56.0315881" id="Fill-119" fill="#EDB996" mask="url(#mask-2)"></path>
                        <path d="M181.807268,53.8252265 C180.235872,53.8252265 178.961007,55.1038078 178.961007,56.6804577 L178.961007,80.8295286 L184.653593,80.1684211 L184.653593,56.6804577 C184.653593,55.1038078 183.380009,53.8252265 181.807268,53.8252265" id="Fill-120" fill="#EDB996" mask="url(#mask-2)"></path>
                        <path d="M174.614664,59.6603753 C173.073959,59.6603753 171.822865,60.9151854 171.822865,62.4610801 L171.822865,84.5798627 L177.407808,84.5798627 L177.407808,62.4610801 C177.407808,60.9151854 176.157291,59.6603753 174.614664,59.6603753" id="Fill-121" fill="#EDB996" mask="url(#mask-2)"></path>
                        <path d="M196.128659,61.8395057 C194.652027,61.8395057 193.454114,63.0416476 193.454114,64.5219314 L193.454114,80.1681648 L198.802627,80.5292174 L198.802627,64.5219314 C198.802627,63.0416476 197.605931,61.8395057 196.128659,61.8395057" id="Fill-122" fill="#EDB996" mask="url(#mask-2)"></path>
                        <path d="M171.808256,106.06548 L171.808256,89.0468943 L168.664055,85.0755973 L168.660851,85.0775195 C167.990773,84.3887323 167.057419,83.9582883 166.022828,83.9582883 C163.984339,83.9582883 162.33157,85.6159268 162.33157,87.6603753 C162.33157,88.2553336 162.484641,88.8098105 162.733245,89.3071085 L162.723634,89.3148165 L162.89913,89.6129364 C162.926682,89.6585565 162.950389,89.7080275 162.980503,89.7523597 L171.808256,106.06548 Z" id="Fill-123" fill="#DDA885" mask="url(#mask-2)"></path>
                        <path d="M198.802499,105.734529 C198.802499,107.786679 197.143259,109.450763 195.095863,109.450763 L175.5147,109.450763 C173.467881,109.450763 171.808064,107.786679 171.808064,105.734529 C171.808064,103.682379 173.467881,102.018942 175.5147,102.018942 L195.095863,102.018942 C197.143259,102.018942 198.802499,103.682379 198.802499,105.734529" id="Fill-124" fill="#EDB996" mask="url(#mask-2)"></path>
                        <path d="M193.838297,132.390132 L176.788156,132.390132 L176.788156,105.25728 L193.838297,105.25728 L193.838297,132.390132 Z" id="Fill-125" fill="#EDB996" mask="url(#mask-2)"></path>
                        <path d="M109.378957,116.20551 L123.206087,116.20551 L123.206087,150.784319 L109.378957,150.784319 L109.378957,116.20551 Z" id="Fill-126" fill="#258CB0" mask="url(#mask-2)"></path>
                        <path d="M95.5518261,116.20551 L109.378957,116.20551 L109.378957,150.784319 L95.5518261,150.784319 L95.5518261,116.20551 Z" id="Fill-127" fill="#2FA3DD" mask="url(#mask-2)"></path>
                        <path d="M121.867469,122.237832 C121.867469,123.603789 120.76368,124.71018 119.402316,124.71018 C118.041016,124.71018 116.937867,123.603789 116.937867,122.237832 C116.937867,120.872514 118.041016,119.765483 119.402316,119.765483 C120.76368,119.765483 121.867469,120.872514 121.867469,122.237832" id="Fill-128" fill="#666666" mask="url(#mask-2)"></path>
                        <path d="M184.533904,116.20551 L170.706773,116.20551 L170.706773,150.784319 L184.533904,150.784319 L184.533904,116.20551 Z" id="Fill-129" fill="#258CB0" mask="url(#mask-2)"></path>
                        <path d="M198.361034,116.20551 L184.533904,116.20551 L184.533904,150.784319 L198.361034,150.784319 L198.361034,116.20551 Z" id="Fill-130" fill="#2FA3DD" mask="url(#mask-2)"></path>
                        <path d="M172.045327,122.237832 C172.045327,123.603789 173.149117,124.71018 174.510416,124.71018 C175.87178,124.71018 176.974929,123.603789 176.974929,122.237832 C176.974929,120.872514 175.87178,119.765483 174.510416,119.765483 C173.149117,119.765483 172.045327,120.872514 172.045327,122.237832" id="Fill-131" fill="#666666" mask="url(#mask-2)"></path>
                        <path d="M176.257565,60.7226453 L172.613721,60.7226453 L172.613721,63.453254 L172.634224,63.453254 C172.629098,63.487341 172.613721,63.5181602 172.613721,63.5535286 C172.613721,63.9415561 172.927616,64.2564119 173.314554,64.2564119 L175.556732,64.2564119 C175.944311,64.2564119 176.257565,63.9415561 176.257565,63.5535286 C176.257565,63.5181602 176.242828,63.487341 176.237703,63.453254 L176.257565,63.453254 L176.257565,60.7226453 Z" id="Fill-132" fill="#EFD6C5" mask="url(#mask-2)"></path>
                        <path d="M183.508924,54.8805767 L179.865721,54.8805767 L179.865721,57.6111854 L179.885584,57.6111854 C179.880458,57.6452723 179.865721,57.6754508 179.865721,57.71146 C179.865721,58.0994874 180.178975,58.4143432 180.565913,58.4143432 L182.808092,58.4143432 C183.19567,58.4143432 183.508924,58.0994874 183.508924,57.71146 C183.508924,57.6754508 183.494188,57.6452723 183.489062,57.6111854 L183.508924,57.6111854 L183.508924,54.8805767 Z" id="Fill-133" fill="#EFD6C5" mask="url(#mask-2)"></path>
                        <path d="M190.600165,57.0900778 L187.268357,57.0900778 L187.268357,59.5868192 L187.286874,59.5868192 C187.281748,59.6183432 187.268357,59.6459588 187.268357,59.6787002 C187.268357,60.0333455 187.5547,60.3212265 187.908961,60.3212265 L189.95892,60.3212265 C190.313181,60.3212265 190.600165,60.0333455 190.600165,59.6787002 C190.600165,59.6459588 190.586709,59.6183432 190.581584,59.5868192 L190.600165,59.5868192 L190.600165,57.0900778 Z" id="Fill-134" fill="#EFD6C5" mask="url(#mask-2)"></path>
                        <path d="M197.612595,63.1537117 L194.404384,63.1537117 L194.404384,65.5572906 L194.422966,65.5572906 C194.418481,65.5874691 194.404384,65.6144439 194.404384,65.6453272 C194.404384,65.9870938 194.680476,66.2640183 195.021281,66.2640183 L196.995698,66.2640183 C197.336503,66.2640183 197.612595,65.9870938 197.612595,65.6453272 C197.612595,65.6144439 197.59914,65.5874691 197.594654,65.5572906 L197.612595,65.5572906 L197.612595,63.1537117 Z" id="Fill-135" fill="#EFD6C5" mask="url(#mask-2)"></path>
                        <path d="M118.235158,61.4492357 L121.878362,61.4492357 L121.878362,64.1799085 L121.858499,64.1799085 C121.863625,64.2139314 121.878362,64.2447506 121.878362,64.280119 C121.878362,64.6682105 121.565043,64.9830023 121.178169,64.9830023 L118.935991,64.9830023 C118.548412,64.9830023 118.235158,64.6682105 118.235158,64.280119 C118.235158,64.2447506 118.249895,64.2139314 118.255021,64.1799085 L118.235158,64.1799085 L118.235158,61.4492357 Z" id="Fill-136" fill="#EFD6C5" mask="url(#mask-2)"></path>
                        <path d="M110.983735,55.607103 L114.626938,55.607103 L114.626938,58.3377757 L114.60714,58.3377757 C114.612265,58.3717986 114.626938,58.4026178 114.626938,58.4379863 C114.626938,58.8260778 114.313684,59.1408696 113.926746,59.1408696 L111.684632,59.1408696 C111.297053,59.1408696 110.983735,58.8260778 110.983735,58.4379863 C110.983735,58.4026178 110.998471,58.3717986 111.003597,58.3377757 L110.983735,58.3377757 L110.983735,55.607103 Z" id="Fill-137" fill="#EFD6C5" mask="url(#mask-2)"></path>
                        <path d="M103.892558,57.8166682 L107.22443,57.8166682 L107.22443,60.3134096 L107.205849,60.3134096 C107.210975,60.3449336 107.22443,60.3725492 107.22443,60.4052906 C107.22443,60.76 106.938087,61.0478169 106.583826,61.0478169 L104.533803,61.0478169 C104.179542,61.0478169 103.892558,60.76 103.892558,60.4052906 C103.892558,60.3725492 103.906014,60.3449336 103.91114,60.3134096 L103.892558,60.3134096 L103.892558,57.8166682 Z" id="Fill-138" fill="#EFD6C5" mask="url(#mask-2)"></path>
                        <path d="M96.8801281,63.8803021 L100.088339,63.8803021 L100.088339,66.283881 L100.069757,66.283881 C100.074243,66.3140595 100.088339,66.3410984 100.088339,66.3719176 C100.088339,66.7137483 99.8122471,66.9906087 99.4714416,66.9906087 L97.4970252,66.9906087 C97.1562197,66.9906087 96.8801281,66.7137483 96.8801281,66.3719176 C96.8801281,66.3410984 96.8942243,66.3140595 96.8980686,66.283881 L96.8801281,66.283881 L96.8801281,63.8803021 Z" id="Fill-139" fill="#EFD6C5" mask="url(#mask-2)"></path>
                    </g>
                    <g id="Group-143" transform="translate(108.924485, 109.144769)">
                        <mask id="mask-4" fill="white">
                            <use xlink:href="#path-3"></use>
                        </mask>
                        <g id="Clip-142"></g>
                        <path d="M8.97922197,0.525759268 L0.454471396,0.525759268 L0.454471396,7.28102517 L8.97922197,7.28102517 L8.97922197,0.525759268 Z" id="Fill-141" fill="#E6E6E6" mask="url(#mask-4)"></path>
                    </g>
                    <g id="Group-166" transform="translate(0.000000, 0.220284)">
                        <g id="Group-146" transform="translate(176.201373, 108.924485)">
                            <mask id="mask-6" fill="white">
                                <use xlink:href="#path-5"></use>
                            </mask>
                            <g id="Clip-145"></g>
                            <path d="M8.33253089,0.525759268 L0.586782609,0.525759268 L0.586782609,7.28102517 L8.33253089,7.28102517 L8.33253089,0.525759268 Z" id="Fill-144" fill="#E6E6E6" mask="url(#mask-6)"></path>
                        </g>
                        <mask id="mask-8" fill="white">
                            <use xlink:href="#path-7"></use>
                        </mask>
                        <g id="Clip-148"></g>
                        <path d="M275.994654,64.2564119 L253.785016,64.2564119 L253.785016,36.5440366 L280.198435,36.5440366 L280.198435,59.6560824 L275.994654,64.2564119 Z" id="Fill-147" fill="#F6ECEC" mask="url(#mask-8)"></path>
                        <path d="M270.108568,41.2210618 L255.534471,41.2210618 L255.534471,38.9722838 L270.108568,38.9722838 L270.108568,41.2210618 Z" id="Fill-149" fill="#DFD3D2" mask="url(#mask-8)"></path>
                        <path d="M270.108568,48.3155698 L255.534471,48.3155698 L255.534471,46.0667918 L270.108568,46.0667918 L270.108568,48.3155698 Z" id="Fill-150" fill="#DFD3D2" mask="url(#mask-8)"></path>
                        <path d="M277.895259,44.8383158 L269.788201,44.8383158 L269.788201,42.5896018 L277.895259,42.5896018 L277.895259,44.8383158 Z" id="Fill-151" fill="#DFD3D2" mask="url(#mask-8)"></path>
                        <path d="M277.876037,41.2210618 L271.870261,41.2210618 L271.870261,38.9722838 L277.876037,38.9722838 L277.876037,41.2210618 Z" id="Fill-152" fill="#DFD3D2" mask="url(#mask-8)"></path>
                        <path d="M261.540247,51.9559542 L255.534471,51.9559542 L255.534471,49.7072403 L261.540247,49.7072403 L261.540247,51.9559542 Z" id="Fill-153" fill="#DFD3D2" mask="url(#mask-8)"></path>
                        <path d="M275.74022,48.3155698 L270.989382,48.3155698 L270.989382,46.0667918 L275.74022,46.0667918 L275.74022,48.3155698 Z" id="Fill-154" fill="#DFD3D2" mask="url(#mask-8)"></path>
                        <path d="M278.970215,48.3155698 L276.434645,48.3155698 L276.434645,46.0667918 L278.970215,46.0667918 L278.970215,48.3155698 Z" id="Fill-155" fill="#DFD3D2" mask="url(#mask-8)"></path>
                        <path d="M268.827295,44.8383158 L262.821519,44.8383158 L262.821519,42.5896018 L268.827295,42.5896018 L268.827295,44.8383158 Z" id="Fill-156" fill="#DFD3D2" mask="url(#mask-8)"></path>
                        <path d="M261.300037,44.8383158 L255.294197,44.8383158 L255.294197,42.5896018 L261.300037,42.5896018 L261.300037,44.8383158 Z" id="Fill-157" fill="#DFD3D2" mask="url(#mask-8)"></path>
                        <path d="M275.994654,64.2564119 L276.134334,59.9336476 L280.198435,59.6560824 L275.994654,64.2564119 Z" id="Fill-158" fill="#E8E2E2" mask="url(#mask-8)"></path>
                        <path d="M257.028787,1.87132265 L252.347149,-0.428842105 L251.334984,1.64258124 L256.017263,3.94338673 L257.028787,1.87132265 Z" id="Fill-159" fill="#FF1F37" mask="url(#mask-8)"></path>
                        <path d="M257.028787,1.87157895 L254.688641,0.721528604 L253.676476,2.79295195 L256.016622,3.94300229 L257.028787,1.87157895 Z" id="Fill-160" fill="#FF4A64" mask="url(#mask-8)"></path>
                        <path d="M255.844586,4.32398169 L253.426206,3.13535927 L239.140375,32.3833135 L241.559396,33.5725767 L255.844586,4.32398169 Z" id="Fill-161" fill="#FC9F3A" mask="url(#mask-8)"></path>
                        <path d="M253.582993,3.21250343 L251.163973,2.02324027 L236.878206,31.2718352 L239.296522,32.4604577 L253.582993,3.21250343 Z" id="Fill-162" fill="#F98410" mask="url(#mask-8)"></path>
                        <path d="M256.023478,3.95818764 L251.34184,1.65738215 L250.985016,2.38986728 L255.666014,4.68996796 L256.023478,3.95818764 Z" id="Fill-163" fill="#666666" mask="url(#mask-8)"></path>
                        <path d="M236.878078,31.2717071 L236.313657,37.8239634 L241.559716,33.5725126 L236.878078,31.2717071 Z" id="Fill-164" fill="#EDB996" mask="url(#mask-8)"></path>
                        <path d="M236.313785,37.8241556 L236.40541,36.7588741 L237.171597,37.1289611 L236.313785,37.8241556 Z" id="Fill-165" fill="#666666" mask="url(#mask-8)"></path>
                    </g>
                </g>
            </g>
        </g>
    </g>
</svg>