<?xml version="1.0" encoding="UTF-8" standalone="no"?>
<svg width="781px" height="53px" viewBox="0 0 781 53" version="1.1" xmlns="http://www.w3.org/2000/svg" xmlns:xlink="http://www.w3.org/1999/xlink">
    <!-- Generator: Sketch 3.6.1 (26313) - http://www.bohemiancoding.com/sketch -->
    <title>Group</title>
    <desc>Created with Sketch.</desc>
    <defs></defs>
    <g id="Page-1" stroke="none" stroke-width="1" fill="none" fill-rule="evenodd">
        <g id="Artboard-14" transform="translate(-616.000000, -1019.000000)">
            <g id="Group" transform="translate(616.000000, 1019.000000)">
                <path d="M26.952,44.296 C29.8800146,44.296 32.3999894,43.8040049 34.512,42.82 C36.6240106,41.8359951 38.8319885,40.2640108 41.136,38.104 L46.608,43.72 C41.2799734,49.6240295 34.812038,52.576 27.204,52.576 C19.595962,52.576 13.2840251,50.1280245 8.268,45.232 C3.25197492,40.3359755 0.744,34.1440374 0.744,26.656 C0.744,19.1679626 3.29997444,12.928025 8.412,7.936 C13.5240256,2.94397504 19.979961,0.448 27.78,0.448 C35.580039,0.448 42.0959738,3.3279712 47.328,9.088 L41.928,14.992 C39.527988,12.6879885 37.2600107,11.0800046 35.124,10.168 C32.9879893,9.25599544 30.4800144,8.8 27.6,8.8 C22.5119746,8.8 18.2400173,10.4439836 14.784,13.732 C11.3279827,17.0200164 9.6,21.2199744 9.6,26.332 C9.6,31.4440256 11.3159828,35.7159828 14.748,39.148 C18.1800172,42.5800172 22.2479765,44.296 26.952,44.296 L26.952,44.296 Z M118.152,18.016 C118.152,26.3200415 114.528036,31.5519892 107.28,33.712 L120.456,52 L109.656,52 L97.632,35.08 L86.472,35.08 L86.472,52 L77.976,52 L77.976,1.672 L96.696,1.672 C104.376038,1.672 109.871983,2.96798704 113.184,5.56 C116.496017,8.15201296 118.152,12.3039714 118.152,18.016 L118.152,18.016 Z M106.848,25.144 C108.576009,23.6559926 109.44,21.2680164 109.44,17.98 C109.44,14.6919836 108.552009,12.4360061 106.776,11.212 C104.999991,9.98799388 101.832023,9.376 97.272,9.376 L86.472,9.376 L86.472,27.376 L97.056,27.376 C101.856024,27.376 105.119991,26.6320074 106.848,25.144 L106.848,25.144 Z M186.744,1.672 L186.744,9.664 L159.888,9.664 L159.888,22.984 L184.008,22.984 L184.008,30.544 L159.888,30.544 L159.888,44.008 L187.608,44.008 L187.608,52 L151.392,52 L151.392,1.672 L186.744,1.672 Z M232.944,1.672 L242.448,1.672 L262.68,52 L253.176,52 L237.696,14.416 L222.216,52 L212.712,52 L232.944,1.672 Z M309.888,9.448 L309.888,52 L301.392,52 L301.392,9.448 L286.128,9.448 L286.128,1.672 L325.152,1.672 L325.152,9.448 L309.888,9.448 Z M355.368,1.672 L363.864,1.672 L363.864,52 L355.368,52 L355.368,1.672 Z M421.8,52 L412.296,52 L392.064,1.672 L401.568,1.672 L417.048,39.256 L432.528,1.672 L442.032,1.672 L421.8,52 Z M505.584,1.672 L505.584,9.664 L478.728,9.664 L478.728,22.984 L502.848,22.984 L502.848,30.544 L478.728,30.544 L478.728,44.008 L506.448,44.008 L506.448,52 L470.232,52 L470.232,1.672 L505.584,1.672 Z" id="CREVTIVE" fill="#FFFFFF"></path>
                <path d="M537.984,52 L537.984,1.672 L546.48,1.672 L546.48,43.936 L569.448,43.936 L569.448,52 L537.984,52 Z M606.864,40.552 L601.824,52 L592.752,52 L614.928,1.672 L624,1.672 L646.176,52 L637.104,52 L632.064,40.552 L606.864,40.552 Z M628.608,32.704 L619.464,11.968 L610.32,32.704 L628.608,32.704 Z M696.192,52 L674.16,52 L674.16,1.672 L693.744,1.672 C697.152017,1.672 700.091988,2.07999592 702.564,2.896 C705.036012,3.71200408 706.871994,4.81599304 708.072,6.208 C710.376012,8.80001296 711.528,11.7279837 711.528,14.992 C711.528,18.9280197 710.280012,21.8559904 707.784,23.776 C706.871995,24.4480034 706.248002,24.8679992 705.912,25.036 C705.575998,25.2040008 704.976004,25.4799981 704.112,25.864 C707.232016,26.5360034 709.715991,27.9399893 711.564,30.076 C713.412009,32.2120107 714.336,34.8639842 714.336,38.032 C714.336,41.5360175 713.136012,44.6319866 710.736,47.32 C707.903986,50.4400156 703.056034,52 696.192,52 L696.192,52 Z M682.656,22.552 L693.456,22.552 C699.600031,22.552 702.672,20.4640209 702.672,16.288 C702.672,13.887988 701.928007,12.1600053 700.44,11.104 C698.951993,10.0479947 696.648016,9.52 693.528,9.52 L682.656,9.52 L682.656,22.552 Z M682.656,44.152 L695.976,44.152 C699.096016,44.152 701.483992,43.6600049 703.14,42.676 C704.796008,41.6919951 705.624,39.8320137 705.624,37.096 C705.624,32.6319777 702.048036,30.4 694.896,30.4 L682.656,30.4 L682.656,44.152 Z M755.136,9.808 C753.551992,10.816005 752.76,12.3399898 752.76,14.38 C752.76,16.4200102 753.551992,17.9799946 755.136,19.06 C756.720008,20.1400054 760.091974,21.3039938 765.252,22.552 C770.412026,23.8000062 774.299987,25.5519887 776.916,27.808 C779.532013,30.0640113 780.84,33.387978 780.84,37.78 C780.84,42.172022 779.184017,45.7359863 775.872,48.472 C772.559983,51.2080137 768.216027,52.576 762.84,52.576 C754.967961,52.576 747.98403,49.8640271 741.888,44.44 L747.216,38.032 C752.304025,42.4480221 757.583973,44.656 763.056,44.656 C765.792014,44.656 767.963992,44.0680059 769.572,42.892 C771.180008,41.7159941 771.984,40.1560097 771.984,38.212 C771.984,36.2679903 771.228008,34.7560054 769.716,33.676 C768.203992,32.5959946 765.600018,31.6120044 761.904,30.724 C758.207982,29.8359956 755.40001,29.0200037 753.48,28.276 C751.55999,27.5319963 749.856007,26.560006 748.368,25.36 C745.391985,23.1039887 743.904,19.6480233 743.904,14.992 C743.904,10.3359767 745.595983,6.7480126 748.98,4.228 C752.364017,1.7079874 756.551975,0.448 761.544,0.448 C764.760016,0.448 767.951984,0.97599472 771.12,2.032 C774.288016,3.08800528 777.023988,4.5759904 779.328,6.496 L774.792,12.904 C773.303993,11.5599933 771.288013,10.4560043 768.744,9.592 C766.199987,8.72799568 763.692012,8.296 761.22,8.296 C758.747988,8.296 756.720008,8.79999496 755.136,9.808 L755.136,9.808 Z" id="LABS" fill="#F57676"></path>
            </g>
        </g>
    </g>
</svg>