<?xml version="1.0" encoding="UTF-8" standalone="no"?>
<svg width="280px" height="187px" viewBox="0 0 280 187" version="1.1" xmlns="http://www.w3.org/2000/svg" xmlns:xlink="http://www.w3.org/1999/xlink">
    <!-- Generator: Sketch 3.6.1 (26313) - http://www.bohemiancoding.com/sketch -->
    <title>Page 1 Copy</title>
    <desc>Created with Sketch.</desc>
    <defs>
        <path id="path-1" d="M0,186.917593 L279.509605,186.917593 L279.509605,0 L0,0 L0,186.917593 Z"></path>
    </defs>
    <g id="Page-1" stroke="none" stroke-width="1" fill="none" fill-rule="evenodd">
        <g id="Desktop-HD-Copy-3" transform="translate(-580.000000, -1788.000000)">
            <g id="Group-2-Copy" transform="translate(251.000000, 1351.000000)">
                <g id="Page-1-Copy" transform="translate(329.000000, 437.000000)">
                    <path d="M248.967932,81.1752737 C248.221266,82.8883839 246.209853,83.6783797 244.499797,82.9295873 L221.443299,72.8387186 C219.731661,72.0891339 218.943073,70.074922 219.690531,68.3610195 L244.185785,12.1944602 C244.933243,10.48135 246.943864,9.69135424 248.655503,10.4401466 L271.712,20.5318076 C273.422056,21.2806 274.210644,23.2956042 273.463186,25.0087144 L248.967932,81.1752737 L248.967932,81.1752737 Z" id="Fill-1" fill="#666666"></path>
                    <path d="M244.066904,19.8840428 L225.132893,63.2989453 L248.979559,73.7352886 L267.91278,30.3211784 L244.066904,19.8840428 Z" id="Fill-3" fill="#4D4D4D"></path>
                    <path d="M237.706,74.6141886 C237.035266,76.1505996 235.248486,76.8518496 233.714023,76.1815021 C232.178768,75.5087775 231.478768,73.7188072 232.149503,72.1823962 C232.820237,70.6436081 234.607017,69.9423581 236.14148,70.6134979 C237.675944,71.2854301 238.376734,73.0754004 237.706,74.6141886" id="Fill-5" fill="#4D4D4D"></path>
                    <path d="M236.026791,72.7679597 C236.006226,72.7529047 235.983288,72.7402267 235.959559,72.7291335 L234.715379,72.1855657 C234.541367,72.1087055 234.337299,72.1895275 234.260576,72.3638496 L233.717186,73.6094597 C233.642836,73.7798199 233.722723,73.9858369 233.895944,74.0658665 L235.139333,74.6086419 C235.223966,74.6466758 235.31809,74.6482606 235.403514,74.6149809 C235.489729,74.5809089 235.557751,74.5151419 235.594136,74.4311504 L236.136734,73.1847479 C236.201593,73.0381589 236.154927,72.8622521 236.026791,72.7679597 M233.593797,74.3463665 C233.317751,74.1427267 233.217299,73.7663496 233.354136,73.4509852 L233.898316,72.205375 C234.062836,71.8297903 234.500237,71.6586377 234.873571,71.8226589 L236.118542,72.3670191 C236.489503,72.5239089 236.661141,72.9739767 236.498994,73.3448072 L235.956395,74.589625 C235.877299,74.770286 235.731763,74.9113284 235.54826,74.9834343 C235.363966,75.0563326 235.162271,75.0523708 234.981141,74.9723411 L233.737751,74.4295657 C233.686339,74.4065869 233.63809,74.3788538 233.593797,74.3463665" id="Fill-7" fill="#AD9E9E"></path>
                    <path d="M260.518723,22.2289911 C260.398497,22.5047369 260.078158,22.6299318 259.803695,22.5102835 L255.269119,20.5253894 C254.994655,20.4049487 254.869684,20.0848301 254.98991,19.8098767 L255.14652,19.4501394 C255.266746,19.1743936 255.587085,19.047614 255.860757,19.1680547 L260.395333,21.1529487 C260.669797,21.2733894 260.795559,21.5935081 260.675333,21.8692538 L260.518723,22.2289911 Z" id="Fill-9" fill="#4D4D4D"></path>
                    <path d="M259.487548,19.0080746 C259.317492,19.397922 258.86348,19.5754136 258.475119,19.4050534 C258.084384,19.2339008 257.907209,18.7806636 258.078056,18.3908161 C258.248113,17.9993839 258.700542,17.8218924 259.090486,17.9922525 C259.480429,18.1626127 259.657605,18.6174347 259.487548,19.0080746" id="Fill-11" fill="#4D4D4D"></path>
                    <path d="M249.39426,74.7635508 L224.098554,63.6917246 L243.658215,18.84025 L268.953921,29.9120763 L249.39426,74.7635508 Z" id="Fill-13" fill="#AD9E9E"></path>
                    <path d="M243.862994,19.3624237 L224.618927,63.4872924 L249.190113,74.2421695 L268.43339,30.1165085 L243.862994,19.3624237 Z M223.577232,63.8969492 L243.454068,18.3188686 L269.475085,29.7076441 L249.598249,75.2841398 L223.577232,63.8969492 Z" id="Fill-15" fill="#4D4D4D"></path>
                    <path d="M224.618847,63.4869754 L268.434102,30.1169839 L249.190034,74.2418525 L224.618847,63.4869754 Z" id="Fill-17" fill="#E6E6E6"></path>
                    <mask id="mask-2" fill="white">
                        <use xlink:href="#path-1"></use>
                    </mask>
                    <g id="Clip-20"></g>
                    <path d="M111.636949,126.506292 L186.02678,126.506292 L186.02678,21.2379703 L111.636949,21.2379703 L111.636949,126.506292 Z" id="Fill-19" fill="#FFFFFF" mask="url(#mask-2)"></path>
                    <path d="M111.339627,21.2377326 C108.716802,21.2377326 106.590701,23.3676309 106.590701,25.9951394 L106.590701,121.748648 C106.590701,124.376949 108.716802,126.506055 111.339627,126.506055 C111.44087,126.506055 111.536576,126.483076 111.637028,126.476737 L111.637028,21.2678428 C111.536576,21.2615038 111.44087,21.2377326 111.339627,21.2377326" id="Fill-21" fill="#AD9E9E" mask="url(#mask-2)"></path>
                    <path d="M110.184113,27.1670589 C110.184113,27.5061945 109.961062,27.7803555 109.684226,27.7803555 L105.229537,27.7803555 C104.953492,27.7803555 104.72965,27.5061945 104.72965,27.1670589 C104.72965,26.8279233 104.953492,26.5537623 105.229537,26.5537623 L109.684226,26.5537623 C109.961062,26.5537623 110.184113,26.8279233 110.184113,27.1670589" id="Fill-22" fill="#808080" mask="url(#mask-2)"></path>
                    <path d="M110.184113,32.0187581 C110.184113,32.3578936 109.961062,32.6320547 109.684226,32.6320547 L105.229537,32.6320547 C104.953492,32.6320547 104.72965,32.3578936 104.72965,32.0187581 C104.72965,31.6796225 104.953492,31.4054614 105.229537,31.4054614 L109.684226,31.4054614 C109.961062,31.4054614 110.184113,31.6796225 110.184113,32.0187581" id="Fill-23" fill="#808080" mask="url(#mask-2)"></path>
                    <path d="M110.184113,36.8708534 C110.184113,37.209989 109.961062,37.48415 109.684226,37.48415 L105.229537,37.48415 C104.953492,37.48415 104.72965,37.209989 104.72965,36.8708534 C104.72965,36.5317178 104.953492,36.2575568 105.229537,36.2575568 L109.684226,36.2575568 C109.961062,36.2575568 110.184113,36.5317178 110.184113,36.8708534" id="Fill-24" fill="#808080" mask="url(#mask-2)"></path>
                    <path d="M110.184113,41.7226318 C110.184113,42.0617674 109.961062,42.3359284 109.684226,42.3359284 L105.229537,42.3359284 C104.953492,42.3359284 104.72965,42.0617674 104.72965,41.7226318 C104.72965,41.3834962 104.953492,41.1093352 105.229537,41.1093352 L109.684226,41.1093352 C109.961062,41.1093352 110.184113,41.3834962 110.184113,41.7226318" id="Fill-25" fill="#808080" mask="url(#mask-2)"></path>
                    <path d="M110.184113,46.5743309 C110.184113,46.9134665 109.961062,47.1876275 109.684226,47.1876275 L105.229537,47.1876275 C104.953492,47.1876275 104.72965,46.9134665 104.72965,46.5743309 C104.72965,46.2351953 104.953492,45.9610343 105.229537,45.9610343 L109.684226,45.9610343 C109.961062,45.9610343 110.184113,46.2351953 110.184113,46.5743309" id="Fill-26" fill="#808080" mask="url(#mask-2)"></path>
                    <path d="M110.184113,51.4265055 C110.184113,51.7656411 109.961062,52.0398021 109.684226,52.0398021 L105.229537,52.0398021 C104.953492,52.0398021 104.72965,51.7656411 104.72965,51.4265055 C104.72965,51.0873699 104.953492,50.8132089 105.229537,50.8132089 L109.684226,50.8132089 C109.961062,50.8132089 110.184113,51.0873699 110.184113,51.4265055" id="Fill-27" fill="#808080" mask="url(#mask-2)"></path>
                    <path d="M110.184113,56.2782047 C110.184113,56.6173403 109.961062,56.8915013 109.684226,56.8915013 L105.229537,56.8915013 C104.953492,56.8915013 104.72965,56.6173403 104.72965,56.2782047 C104.72965,55.9390691 104.953492,55.6649081 105.229537,55.6649081 L109.684226,55.6649081 C109.961062,55.6649081 110.184113,55.9390691 110.184113,56.2782047" id="Fill-28" fill="#808080" mask="url(#mask-2)"></path>
                    <path d="M110.184113,61.1299831 C110.184113,61.4691186 109.961062,61.7432797 109.684226,61.7432797 L105.229537,61.7432797 C104.953492,61.7432797 104.72965,61.4691186 104.72965,61.1299831 C104.72965,60.7908475 104.953492,60.5166864 105.229537,60.5166864 L109.684226,60.5166864 C109.961062,60.5166864 110.184113,60.7908475 110.184113,61.1299831" id="Fill-29" fill="#808080" mask="url(#mask-2)"></path>
                    <path d="M110.184113,65.9820784 C110.184113,66.321214 109.961062,66.595375 109.684226,66.595375 L105.229537,66.595375 C104.953492,66.595375 104.72965,66.321214 104.72965,65.9820784 C104.72965,65.6429428 104.953492,65.3687818 105.229537,65.3687818 L109.684226,65.3687818 C109.961062,65.3687818 110.184113,65.6429428 110.184113,65.9820784" id="Fill-30" fill="#808080" mask="url(#mask-2)"></path>
                    <path d="M110.184113,70.8337775 C110.184113,71.1729131 109.961062,71.4470742 109.684226,71.4470742 L105.229537,71.4470742 C104.953492,71.4470742 104.72965,71.1729131 104.72965,70.8337775 C104.72965,70.4946419 104.953492,70.2204809 105.229537,70.2204809 L109.684226,70.2204809 C109.961062,70.2204809 110.184113,70.4946419 110.184113,70.8337775" id="Fill-31" fill="#808080" mask="url(#mask-2)"></path>
                    <path d="M110.184113,75.6855559 C110.184113,76.0246915 109.961062,76.2988525 109.684226,76.2988525 L105.229537,76.2988525 C104.953492,76.2988525 104.72965,76.0246915 104.72965,75.6855559 C104.72965,75.3464203 104.953492,75.0722593 105.229537,75.0722593 L109.684226,75.0722593 C109.961062,75.0722593 110.184113,75.3464203 110.184113,75.6855559" id="Fill-32" fill="#808080" mask="url(#mask-2)"></path>
                    <path d="M110.184113,80.5376513 C110.184113,80.8767869 109.961062,81.1501555 109.684226,81.1501555 L105.229537,81.1501555 C104.953492,81.1501555 104.72965,80.8767869 104.72965,80.5376513 C104.72965,80.1985157 104.953492,79.9243547 105.229537,79.9243547 L109.684226,79.9243547 C109.961062,79.9243547 110.184113,80.1985157 110.184113,80.5376513" id="Fill-33" fill="#808080" mask="url(#mask-2)"></path>
                    <path d="M110.184113,85.3894297 C110.184113,85.7285653 109.961062,86.0019339 109.684226,86.0019339 L105.229537,86.0019339 C104.953492,86.0019339 104.72965,85.7285653 104.72965,85.3894297 C104.72965,85.0502941 104.953492,84.7761331 105.229537,84.7761331 L109.684226,84.7761331 C109.961062,84.7761331 110.184113,85.0502941 110.184113,85.3894297" id="Fill-34" fill="#808080" mask="url(#mask-2)"></path>
                    <path d="M110.184113,90.2411288 C110.184113,90.5802644 109.961062,90.8536331 109.684226,90.8536331 L105.229537,90.8536331 C104.953492,90.8536331 104.72965,90.5802644 104.72965,90.2411288 C104.72965,89.9019932 104.953492,89.6278322 105.229537,89.6278322 L109.684226,89.6278322 C109.961062,89.6278322 110.184113,89.9019932 110.184113,90.2411288" id="Fill-35" fill="#808080" mask="url(#mask-2)"></path>
                    <path d="M110.184113,95.0929072 C110.184113,95.4320428 109.961062,95.7054114 109.684226,95.7054114 L105.229537,95.7054114 C104.953492,95.7054114 104.72965,95.4320428 104.72965,95.0929072 C104.72965,94.7537716 104.953492,94.4796106 105.229537,94.4796106 L109.684226,94.4796106 C109.961062,94.4796106 110.184113,94.7537716 110.184113,95.0929072" id="Fill-36" fill="#808080" mask="url(#mask-2)"></path>
                    <path d="M110.184113,99.9446064 C110.184113,100.283742 109.961062,100.557903 109.684226,100.557903 L105.229537,100.557903 C104.953492,100.557903 104.72965,100.283742 104.72965,99.9446064 C104.72965,99.6054708 104.953492,99.3313097 105.229537,99.3313097 L109.684226,99.3313097 C109.961062,99.3313097 110.184113,99.6054708 110.184113,99.9446064" id="Fill-37" fill="#808080" mask="url(#mask-2)"></path>
                    <path d="M110.184113,104.797098 C110.184113,105.136233 109.961062,105.409602 109.684226,105.409602 L105.229537,105.409602 C104.953492,105.409602 104.72965,105.136233 104.72965,104.797098 C104.72965,104.457962 104.953492,104.183801 105.229537,104.183801 L109.684226,104.183801 C109.961062,104.183801 110.184113,104.457962 110.184113,104.797098" id="Fill-38" fill="#808080" mask="url(#mask-2)"></path>
                    <path d="M110.184113,109.648876 C110.184113,109.988012 109.961062,110.261381 109.684226,110.261381 L105.229537,110.261381 C104.953492,110.261381 104.72965,109.988012 104.72965,109.648876 C104.72965,109.309741 104.953492,109.03558 105.229537,109.03558 L109.684226,109.03558 C109.961062,109.03558 110.184113,109.309741 110.184113,109.648876" id="Fill-39" fill="#808080" mask="url(#mask-2)"></path>
                    <path d="M110.184113,114.500575 C110.184113,114.839711 109.961062,115.11308 109.684226,115.11308 L105.229537,115.11308 C104.953492,115.11308 104.72965,114.839711 104.72965,114.500575 C104.72965,114.16144 104.953492,113.887279 105.229537,113.887279 L109.684226,113.887279 C109.961062,113.887279 110.184113,114.16144 110.184113,114.500575" id="Fill-40" fill="#808080" mask="url(#mask-2)"></path>
                    <path d="M110.184113,119.352354 C110.184113,119.691489 109.961062,119.964858 109.684226,119.964858 L105.229537,119.964858 C104.953492,119.964858 104.72965,119.691489 104.72965,119.352354 C104.72965,119.013218 104.953492,118.739057 105.229537,118.739057 L109.684226,118.739057 C109.961062,118.739057 110.184113,119.013218 110.184113,119.352354" id="Fill-41" fill="#808080" mask="url(#mask-2)"></path>
                    <path d="M118.941073,28.9699449 L179.792825,28.9699449" id="Stroke-42" stroke="#E6E6E6" mask="url(#mask-2)"></path>
                    <path d="M118.941073,38.7500449 L179.792825,38.7500449" id="Stroke-43" stroke="#E6E6E6" mask="url(#mask-2)"></path>
                    <path d="M118.941073,48.5301449 L179.792825,48.5301449" id="Stroke-44" stroke="#E6E6E6" mask="url(#mask-2)"></path>
                    <path d="M118.941073,58.3106411 L179.792825,58.3106411" id="Stroke-45" stroke="#E6E6E6" mask="url(#mask-2)"></path>
                    <path d="M118.941073,68.0906619 L179.792825,68.0906619" id="Stroke-46" stroke="#E6E6E6" mask="url(#mask-2)"></path>
                    <path d="M118.941073,77.8707619 L179.792825,77.8707619" id="Stroke-47" stroke="#E6E6E6" mask="url(#mask-2)"></path>
                    <path d="M118.941073,87.6512581 L179.792825,87.6512581" id="Stroke-48" stroke="#E6E6E6" mask="url(#mask-2)"></path>
                    <path d="M118.941073,97.4312788 L179.792825,97.4312788" id="Stroke-49" stroke="#E6E6E6" mask="url(#mask-2)"></path>
                    <path d="M118.941073,107.211379 L179.792825,107.211379" id="Stroke-50" stroke="#E6E6E6" mask="url(#mask-2)"></path>
                    <path d="M118.941073,116.991479 L179.792825,116.991479" id="Stroke-51" stroke="#E6E6E6" mask="url(#mask-2)"></path>
                    <path d="M176.203446,86.8379665 L181.189661,81.8119453 L202.552712,89.2356869 L195.342316,91.5779411 L176.203446,86.8379665 Z" id="Fill-52" fill="#D8A387" mask="url(#mask-2)"></path>
                    <path d="M168.491582,88.9132703 L173.477797,83.8872492 L195.256102,91.5178 L187.722203,93.9408763 L168.491582,88.9132703 Z" id="Fill-53" fill="#E2B08F" mask="url(#mask-2)"></path>
                    <path d="M214.99096,119.297363 L183.155593,129.121202 L173.668814,98.2677869 L202.553107,89.2363208 L208.376949,97.7891936 L214.99096,119.297363 Z" id="Fill-54" fill="#EDB996" mask="url(#mask-2)"></path>
                    <path d="M214.936938,119.121773 C215.680441,121.540095 214.325525,124.105006 211.910723,124.850629 L188.805186,131.981193 C186.390384,132.726023 183.828463,131.369481 183.08496,128.951159 C182.340667,126.532044 183.696373,123.967133 186.111966,123.222303 L209.216712,116.091739 C211.632305,115.346909 214.193435,116.701867 214.936938,119.121773" id="Fill-55" fill="#EDB996" mask="url(#mask-2)"></path>
                    <path d="M218.74035,152.344938 L198.620689,158.553972 L188.787469,126.574595 L208.906339,120.366353 L218.74035,152.344938 Z" id="Fill-56" fill="#EDB996" mask="url(#mask-2)"></path>
                    <path d="M201.895345,136.658411 L185.580203,141.693149 L199.24009,186.917831 L217.166418,186.917831 L201.895345,136.658411 Z" id="Fill-57" fill="#EF7554" mask="url(#mask-2)"></path>
                    <path d="M218.210486,131.623278 L201.895345,136.658808 L217.166418,186.917435 L235.065853,186.917435 L218.210486,131.623278 Z" id="Fill-58" fill="#FE7C52" mask="url(#mask-2)"></path>
                    <path d="M199.447164,128.696728 L190.307616,131.517575 L192.755638,139.479338 L201.895186,136.658491 L199.447164,128.696728 Z" id="Fill-59" fill="#E6E6E6" mask="url(#mask-2)"></path>
                    <path d="M181.735898,99.9113267 C181.001887,99.6577674 176.282226,98.4224581 171.168667,97.1205894 L169.865164,103.320907 L162.480757,101.761517 L165.403356,87.869636 C165.403356,87.869636 193.00313,92.7221275 193.96652,94.0731233 L180.059062,98.6070809 C180.713186,99.523064 181.570588,99.8542758 181.735898,99.9113267" id="Fill-60" fill="#EDB996" mask="url(#mask-2)"></path>
                    <path d="M170.078881,101.445044 C170.717977,103.523438 169.554475,105.726234 167.479785,106.366472 C165.405096,107.007501 163.206226,105.841921 162.566339,103.763527 C161.927243,101.685133 163.090746,99.4807513 165.165435,98.8413064 C167.240124,98.2010691 169.439785,99.3666496 170.078881,101.445044" id="Fill-61" fill="#EDB996" mask="url(#mask-2)"></path>
                    <path d="M170.161537,103.483185 L171.168429,97.1204309 L166.632271,100.588647 L170.161537,103.483185 Z" id="Fill-62" fill="#EDB996" mask="url(#mask-2)"></path>
                    <path d="M204.999706,94.470736 L202.255073,87.6254267 L199.239932,88.8393419 L201.986147,95.6846513 L204.999706,94.470736 Z" id="Fill-63" fill="#FF1F37" mask="url(#mask-2)"></path>
                    <path d="M204.999706,94.4715284 L203.626599,91.0492699 L200.612249,92.2616004 L201.984565,95.6838589 L204.999706,94.4715284 Z" id="Fill-64" fill="#FF4A64" mask="url(#mask-2)"></path>
                    <path d="M201.445446,95.9208576 L200.028045,92.3829127 L157.462508,109.514014 L158.880701,113.051959 L201.445446,95.9208576 Z" id="Fill-65" fill="#FC9F3A" mask="url(#mask-2)"></path>
                    <path d="M200.119164,92.6128593 L198.700972,89.0749144 L156.136226,106.206808 L157.553627,109.743169 L200.119164,92.6128593 Z" id="Fill-66" fill="#F98410" mask="url(#mask-2)"></path>
                    <path d="M201.977209,95.7065208 L199.233367,88.8604191 L198.168734,89.2898852 L200.913367,96.1351945 L201.977209,95.7065208 Z" id="Fill-67" fill="#666666" mask="url(#mask-2)"></path>
                    <path d="M156.13591,106.206967 L149.36687,112.541196 L158.880542,113.052276 L156.13591,106.206967 Z" id="Fill-68" fill="#EDB996" mask="url(#mask-2)"></path>
                    <path d="M149.367186,112.541354 L150.468203,111.511269 L150.922215,112.624553 L149.367186,112.541354 Z" id="Fill-69" fill="#666666" mask="url(#mask-2)"></path>
                    <path d="M183.204633,129.341323 L177.036723,109.283196 L171.887571,105.747628 L171.884407,105.750798 C170.844294,105.182667 169.586667,105.015476 168.366215,105.391853 C165.960904,106.134306 164.611525,108.688917 165.352655,111.099315 C165.567797,111.800565 165.949831,112.397222 166.422825,112.894039 L166.414915,112.906717 L166.728927,113.193556 C166.778757,113.237929 166.824633,113.287056 166.876045,113.329052 L183.204633,129.341323 Z" id="Fill-70" fill="#DDA885" mask="url(#mask-2)"></path>
                    <path d="M118.940678,113.844174 L149.378418,113.844174 L149.378418,110.552657 L118.940678,110.552657 L118.940678,113.844174 Z" id="Fill-71" fill="#E6E6E6" mask="url(#mask-2)"></path>
                    <path d="M96.2893898,146.327025 L31.8949266,168.99602 L0.000237288135,78.0704398 L64.3939096,55.4014441 L96.2893898,146.327025 Z" id="Fill-72" fill="#F2F2F2" mask="url(#mask-2)"></path>
                    <path d="M34.6547458,73.7436877 L5.93892655,83.8527809 L4.84898305,80.7466792 L33.5655932,70.6383784 L34.6547458,73.7436877 Z" id="Fill-73" fill="#CCCCCC" mask="url(#mask-2)"></path>
                    <path d="M50.8404068,74.0284665 L18.2694463,85.4948945 L17.1795028,82.3895852 L49.7512542,70.9223648 L50.8404068,74.0284665 Z" id="Fill-74" fill="#CCCCCC" mask="url(#mask-2)"></path>
                    <path d="M45.1171751,70.0604216 L36.2845198,73.1696928 L35.1953672,70.0635911 L44.0280226,66.9543199 L45.1171751,70.0604216 Z" id="Fill-75" fill="#E6E6E6" mask="url(#mask-2)"></path>
                    <path d="M62.1935367,70.1435415 L53.3608814,73.2528127 L52.2717288,70.1475034 L61.1035932,67.0382322 L62.1935367,70.1435415 Z" id="Fill-76" fill="#E6E6E6" mask="url(#mask-2)"></path>
                    <path d="M16.6391186,86.0688102 L7.80646328,89.1780814 L6.71731073,86.0719797 L15.5499661,82.9635008 L16.6391186,86.0688102 Z" id="Fill-77" fill="#CCCCCC" mask="url(#mask-2)"></path>
                    <path d="M54.1494689,83.461111 L21.5777175,94.927539 L20.488565,91.8214373 L53.0603164,80.3558017 L54.1494689,83.461111 Z" id="Fill-78" fill="#CCCCCC" mask="url(#mask-2)"></path>
                    <path d="M67.492339,78.8759661 L56.6696271,82.6856949 L55.5804746,79.5803856 L66.4023955,75.7706568 L67.492339,78.8759661 Z" id="Fill-79" fill="#E6E6E6" mask="url(#mask-2)"></path>
                    <path d="M19.9477853,95.5014547 L11.1159209,98.6107258 L10.0259774,95.5046242 L18.8586328,92.395353 L19.9477853,95.5014547 Z" id="Fill-80" fill="#CCCCCC" mask="url(#mask-2)"></path>
                    <path d="M62.2807797,64.0181822 L47.4787458,69.2296186 L46.3888023,66.1235169 L61.1908362,60.9120805 L62.2807797,64.0181822 Z" id="Fill-81" fill="#E6E6E6" mask="url(#mask-2)"></path>
                    <path d="M36.0153559,81.1141818 L64.7311751,71.0050886 L65.8211186,74.1103979 L37.1045085,84.2194911 L36.0153559,81.1141818 Z" id="Fill-82" fill="#E6E6E6" mask="url(#mask-2)"></path>
                    <path d="M25.552452,84.7966555 L34.3851073,81.6873843 L35.4742599,84.793486 L26.6423955,87.9027572 L25.552452,84.7966555 Z" id="Fill-83" fill="#E6E6E6" mask="url(#mask-2)"></path>
                    <path d="M8.38924294,90.8392911 L23.1912768,85.628647 L24.2812203,88.7339564 L9.47918644,93.9446004 L8.38924294,90.8392911 Z" id="Fill-84" fill="#CCCCCC" mask="url(#mask-2)"></path>
                    <path d="M64.043435,111.666178 L31.4716836,123.132606 L30.3825311,120.027297 L62.9542825,108.560869 L64.043435,111.666178 Z" id="Fill-85" fill="#E6E6E6" mask="url(#mask-2)"></path>
                    <path d="M77.3863051,107.08135 L66.5643842,110.891872 L65.4744407,107.786562 L76.2971525,103.976041 L77.3863051,107.08135 Z" id="Fill-86" fill="#E6E6E6" mask="url(#mask-2)"></path>
                    <path d="M89.7608814,142.357474 L78.9381695,146.167995 L77.8490169,143.062686 L88.6717288,139.252165 L89.7608814,142.357474 Z" id="Fill-87" fill="#E6E6E6" mask="url(#mask-2)"></path>
                    <path d="M29.8417514,123.706522 L21.009096,126.816586 L19.9199435,123.710484 L28.7525989,120.601213 L29.8417514,123.706522 Z" id="Fill-88" fill="#CCCCCC" mask="url(#mask-2)"></path>
                    <path d="M45.909322,109.319962 L74.6251412,99.2108691 L75.7150847,102.315386 L46.9984746,112.425272 L45.909322,109.319962 Z" id="Fill-89" fill="#E6E6E6" mask="url(#mask-2)"></path>
                    <path d="M35.4468136,113.002515 L44.2794689,109.893244 L45.3686215,112.999346 L36.5359661,116.107825 L35.4468136,113.002515 Z" id="Fill-90" fill="#E6E6E6" mask="url(#mask-2)"></path>
                    <path d="M18.2836045,119.045151 L33.0856384,113.833714 L34.174791,116.939816 L19.3727571,122.15046 L18.2836045,119.045151 Z" id="Fill-91" fill="#CCCCCC" mask="url(#mask-2)"></path>
                    <path d="M43.0741243,106.458466 L17.0784181,115.609581 L12.5833898,102.793742 L38.5783051,93.6426271 L43.0741243,106.458466 Z" id="Fill-92" fill="#FC9F3A" mask="url(#mask-2)"></path>
                    <path d="M73.1105311,95.8844877 L47.1148249,105.036394 L42.6190056,92.2205555 L68.6147119,83.0686487 L73.1105311,95.8844877 Z" id="Fill-93" fill="#FE7C52" mask="url(#mask-2)"></path>
                    <path d="M97.5855367,155.228066 L29.8374011,163.542435 L18.1383051,67.8824263 L85.8864407,59.5664729 L97.5855367,155.228066 Z" id="Fill-94" fill="#FFFFFF" mask="url(#mask-2)"></path>
                    <path d="M52.9135932,71.0969246 L22.7020678,74.8052297 L22.3026328,71.5374839 L52.5141582,67.8291788 L52.9135932,71.0969246 Z" id="Fill-95" fill="#E6E6E6" mask="url(#mask-2)"></path>
                    <path d="M68.6621695,74.8506326 L34.3945989,79.0565479 L33.9943729,75.7888021 L68.2627345,71.5828869 L68.6621695,74.8506326 Z" id="Fill-96" fill="#E6E6E6" mask="url(#mask-2)"></path>
                    <path d="M63.9209944,69.7458496 L54.628791,70.8860742 L54.2293559,67.6191208 L63.5215593,66.4781038 L63.9209944,69.7458496 Z" id="Fill-97" fill="#E6E6E6" mask="url(#mask-2)"></path>
                    <path d="M80.5821808,73.4941695 L71.2899774,74.6343941 L70.8905424,71.3666483 L80.1827458,70.2264237 L80.5821808,73.4941695 Z" id="Fill-98" fill="#E6E6E6" mask="url(#mask-2)"></path>
                    <path d="M32.6796384,79.2670814 L23.3866441,80.4073059 L22.987209,77.1395602 L32.2794124,75.9993356 L32.6796384,79.2670814 Z" id="Fill-99" fill="#E6E6E6" mask="url(#mask-2)"></path>
                    <path d="M69.8759774,84.7742314 L35.6076158,88.9801466 L35.2081808,85.7131932 L69.4765424,81.507278 L69.8759774,84.7742314 Z" id="Fill-100" fill="#E6E6E6" mask="url(#mask-2)"></path>
                    <path d="M83.889661,83.1608809 L72.5037853,84.5586267 L72.1035593,81.2908809 L83.490226,79.8939275 L83.889661,83.1608809 Z" id="Fill-101" fill="#E6E6E6" mask="url(#mask-2)"></path>
                    <path d="M33.8927345,89.1902839 L24.6005311,90.3305085 L24.201096,87.0635551 L33.4932994,85.9233305 L33.8927345,89.1902839 Z" id="Fill-102" fill="#E6E6E6" mask="url(#mask-2)"></path>
                    <path d="M81.9783051,67.5296619 L66.4050847,69.4408653 L66.0056497,66.1739119 L81.5788701,64.2619161 L81.9783051,67.5296619 Z" id="Fill-103" fill="#E6E6E6" mask="url(#mask-2)"></path>
                    <path d="M52.6657062,78.588097 L82.8772316,74.8797919 L83.2766667,78.1467453 L53.0643503,81.8550504 L52.6657062,78.588097 Z" id="Fill-104" fill="#E6E6E6" mask="url(#mask-2)"></path>
                    <path d="M41.6579096,79.9387758 L50.950904,78.7977589 L51.349548,82.0655047 L42.0573446,83.2057292 L41.6579096,79.9387758 Z" id="Fill-105" fill="#E6E6E6" mask="url(#mask-2)"></path>
                    <path d="M23.6009944,82.1556767 L39.1734237,80.2436809 L39.5736497,83.5114267 L24.0004294,85.4226301 L23.6009944,82.1556767 Z" id="Fill-106" fill="#E6E6E6" mask="url(#mask-2)"></path>
                    <path d="M73.5048249,114.448754 L39.2364633,118.654669 L38.8370282,115.387716 L73.1061808,111.181801 L73.5048249,114.448754 Z" id="Fill-107" fill="#E6E6E6" mask="url(#mask-2)"></path>
                    <path d="M87.518904,112.835404 L76.1330282,114.233942 L75.7328023,110.966196 L87.1194689,109.56845 L87.518904,112.835404 Z" id="Fill-108" fill="#E6E6E6" mask="url(#mask-2)"></path>
                    <path d="M92.0580678,149.949199 L80.6721921,151.346944 L80.2719661,148.079991 L91.6586328,146.681453 L92.0580678,149.949199 Z" id="Fill-109" fill="#E6E6E6" mask="url(#mask-2)"></path>
                    <path d="M37.5219774,118.865599 L28.229774,120.005824 L27.830339,116.738078 L37.1225424,115.598646 L37.5219774,118.865599 Z" id="Fill-110" fill="#E6E6E6" mask="url(#mask-2)"></path>
                    <path d="M56.2944746,108.263016 L86.506,104.554711 L86.905435,107.821664 L56.6939096,111.529969 L56.2944746,108.263016 Z" id="Fill-111" fill="#E6E6E6" mask="url(#mask-2)"></path>
                    <path d="M45.2870734,109.613299 L54.5792768,108.473074 L54.9787119,111.740028 L45.6865085,112.881044 L45.2870734,109.613299 Z" id="Fill-112" fill="#E6E6E6" mask="url(#mask-2)"></path>
                    <path d="M27.2298418,111.829407 L42.8030621,109.918204 L43.2024972,113.185157 L27.6292768,115.097153 L27.2298418,111.829407 Z" id="Fill-113" fill="#E6E6E6" mask="url(#mask-2)"></path>
                    <path d="M54.1371299,104.859775 L26.7880904,108.215474 L25.1389379,94.7324568 L52.4887684,91.3759653 L54.1371299,104.859775 Z" id="Fill-114" fill="#2FA3DD" mask="url(#mask-2)"></path>
                    <path d="M85.7380565,100.980713 L58.388226,104.337205 L56.7390734,90.8541877 L84.088904,87.4969038 L85.7380565,100.980713 Z" id="Fill-115" fill="#FE7C52" mask="url(#mask-2)"></path>
                    <path d="M77.4029153,33.3400398 C73.788226,41.211472 64.488904,44.6559169 56.6322938,41.0347729 C48.7756836,37.4136288 45.3365876,28.0969085 48.9512768,20.2262686 C52.5667571,12.3564212 61.8652881,8.9111839 69.7218983,12.532328 C77.5792994,16.153472 81.0176045,25.4686076 77.4029153,33.3400398" id="Fill-116" fill="#603813" mask="url(#mask-2)"></path>
                    <path d="M77.4029153,33.3400398 C73.788226,41.211472 64.488904,44.6559169 56.6322938,41.0347729 C48.7756836,37.4136288 45.3365876,28.0969085 48.9512768,20.2262686 C52.5667571,12.3564212 61.8652881,8.9111839 69.7218983,12.532328 C77.5792994,16.153472 81.0176045,25.4686076 77.4029153,33.3400398 L77.4029153,33.3400398 Z" id="Stroke-117" stroke="#FFFFFF" stroke-width="6" mask="url(#mask-2)"></path>
                    <path d="M69.7218983,12.5324864 L74.0215593,3.17139322 L69.7218983,12.5324864 Z M72.5970395,13.8573339 L76.8959096,4.49544831 C77.6259661,2.90515593 76.9315028,1.02327034 75.3432542,0.291117797 C73.7573785,-0.440242373 71.8780565,0.255461017 71.148,1.84654576 L66.848339,11.207639 C66.7921808,11.3296644 66.7597514,11.4556517 66.7202034,11.5800542 L72.3977175,14.1964695 C72.4657401,14.0847449 72.5400904,13.9785669 72.5970395,13.8573339 L72.5970395,13.8573339 Z" id="Fill-118" fill="#FFFFFF" mask="url(#mask-2)"></path>
                    <path d="M279.509921,136.074987 C279.509921,138.254013 277.73026,140.036852 275.555119,140.036852 L245.575345,140.036852 C243.400203,140.036852 241.620542,138.254013 241.620542,136.074987 L241.620542,106.039301 C241.620542,103.860275 243.400203,102.077436 245.575345,102.077436 L275.555119,102.077436 C277.73026,102.077436 279.509921,103.860275 279.509921,106.039301 L279.509921,136.074987 Z" id="Fill-119" fill="#F98410" mask="url(#mask-2)"></path>
                    <path d="M277.111492,121.056986 C277.111492,130.212854 269.703356,137.633426 260.563808,137.633426 C251.425051,137.633426 244.016124,130.212854 244.016124,121.056986 C244.016124,111.901117 251.425051,104.47896 260.563808,104.47896 C269.703356,104.47896 277.111492,111.901117 277.111492,121.056986" id="Fill-120" fill="#FFFFFF" mask="url(#mask-2)"></path>
                    <path d="M260.563887,106.379546 L260.563887,109.743961" id="Stroke-121" stroke="#999999" mask="url(#mask-2)"></path>
                    <path d="M254.605819,107.64861 L255.971017,110.722225" id="Stroke-122" stroke="#999999" mask="url(#mask-2)"></path>
                    <path d="M249.676633,111.23592 L252.172113,113.487051" id="Stroke-123" stroke="#999999" mask="url(#mask-2)"></path>
                    <path d="M246.63096,116.52176 L249.824859,117.560561" id="Stroke-124" stroke="#999999" mask="url(#mask-2)"></path>
                    <path d="M245.993288,122.590703 L249.333514,122.239681" id="Stroke-125" stroke="#999999" mask="url(#mask-2)"></path>
                    <path d="M247.876881,128.394992 L250.784452,126.712785" id="Stroke-126" stroke="#999999" mask="url(#mask-2)"></path>
                    <path d="M251.952542,132.930218 L253.925989,130.207625" id="Stroke-127" stroke="#999999" mask="url(#mask-2)"></path>
                    <path d="M257.517107,135.412564 L258.215525,132.122631" id="Stroke-128" stroke="#999999" mask="url(#mask-2)"></path>
                    <path d="M263.609955,135.412564 L262.910746,132.122631" id="Stroke-129" stroke="#999999" mask="url(#mask-2)"></path>
                    <path d="M269.175232,132.931803 L267.201785,130.209209" id="Stroke-130" stroke="#999999" mask="url(#mask-2)"></path>
                    <path d="M273.253266,128.395785 L270.344904,126.713577" id="Stroke-131" stroke="#999999" mask="url(#mask-2)"></path>
                    <path d="M275.136463,122.592208 L271.795446,122.240394" id="Stroke-132" stroke="#999999" mask="url(#mask-2)"></path>
                    <path d="M274.499186,116.52176 L271.305288,117.562146" id="Stroke-133" stroke="#999999" mask="url(#mask-2)"></path>
                    <path d="M271.454701,111.235128 L268.956847,113.487844" id="Stroke-134" stroke="#999999" mask="url(#mask-2)"></path>
                    <path d="M266.524328,107.647025 L265.157548,110.722225" id="Stroke-135" stroke="#999999" mask="url(#mask-2)"></path>
                    <path d="M260.563887,112.361803 L260.563887,121.057303 L267.792475,125.557981" id="Stroke-136" stroke="#999999" mask="url(#mask-2)"></path>
                </g>
            </g>
        </g>
    </g>
</svg>