<?xml version="1.0" encoding="utf-8"?>
<!-- Generator: Adobe Illustrator 20.0.0, SVG Export Plug-In . SVG Version: 6.00 Build 0)  -->
<svg version="1.1" id="Layer_1" xmlns="http://www.w3.org/2000/svg" xmlns:xlink="http://www.w3.org/1999/xlink" x="0px" y="0px"
	 viewBox="0 0 1164.9 1104.1" style="enable-background:new 0 0 1164.9 1104.1;" xml:space="preserve">
<style type="text/css">
	.st0{opacity:0.18;fill:#6C409A;enable-background:new    ;}
	.st1{fill:#FFFFFF;}
	.st2{fill:#E4E4E3;}
	.st3{fill:#CFD1D2;}
	.st4{fill:#E5E6E7;}
	.st5{fill:#A5A7AA;}
	.st6{fill:#BABCBE;}
	.st7{fill:#58595B;stroke:#CFD1D2;stroke-width:3;stroke-miterlimit:10;}
	.st8{opacity:0.6;fill:#00A59B;enable-background:new    ;}
	.st9{fill:#7A56B9;}
	.st10{fill:#E4617B;}
	.st11{fill:#C74564;}
	.st12{fill:#5A4A42;stroke:#BABCBE;stroke-width:10;stroke-miterlimit:10;}
	.st13{fill:#BABCBE;stroke:#BABCBE;stroke-miterlimit:10;}
	.st14{fill:#716558;}
	.st15{fill:none;stroke:#BABCBE;stroke-width:3;stroke-miterlimit:10;}
	.st16{fill:#FFFFFF;stroke:#BABCBE;stroke-width:3;stroke-miterlimit:10;}
	.st17{fill:#F0F0F1;}
	.st18{fill:#284250;}
	.st19{fill:none;stroke:#284250;stroke-width:2;stroke-miterlimit:10;}
	.st20{fill:#497A74;}
	.st21{fill:#00A59B;}
	.st22{fill:#FFD25E;}
	.st23{opacity:0.23;}
	.st24{fill:#5A4A42;}
	.st25{opacity:0.3;fill:#284250;enable-background:new    ;}
	.st26{fill:#DEAE7E;}
	.st27{fill:#404041;}
	.st28{fill:#67C7D3;}
	.st29{fill:#1CBDD6;}
	.st30{fill:#6D6E70;}
	.st31{opacity:0.44;}
	.st32{opacity:0.44;fill:none;stroke:#284250;stroke-width:2;stroke-miterlimit:10;enable-background:new    ;}
	.st33{fill:#273135;}
	.st34{fill:#717B7D;}
	.st35{fill:#586366;}
	.st36{fill:#6F2F88;}
	.st37{fill:#FAD2AB;}
	.st38{fill:#23222D;}
	.st39{fill:#632E7C;}
	.st40{fill:#EBBB94;}
	.st41{fill:#344144;}
	.st42{fill:#0FA6B5;}
	.st43{fill:#D15472;}
</style>
<title>webmocup_v2</title>
<rect x="239" y="32.1" class="st0" width="764.3" height="1072"/>
<rect x="206.3" y="39" class="st1" width="768.1" height="1065.1"/>
<rect x="252.8" y="637.3" class="st2" width="208.4" height="91.5"/>
<rect x="206.3" class="st3" width="768.1" height="39"/>
<rect x="206.3" y="39" class="st4" width="768.1" height="341.4"/>
<circle class="st1" cx="233.4" cy="21" r="8.6"/>
<circle class="st1" cx="260.8" cy="21" r="8.6"/>
<circle class="st1" cx="288.1" cy="21" r="8.6"/>
<path class="st3" d="M252.9,1008.7V782.3c0-10.3,8.4-18.7,18.7-18.7h170.8c10.3,0,18.7,8.4,18.7,18.7v226.4
	c0,10.3-8.4,18.7-18.7,18.7H271.6C261.3,1027.4,252.9,1019,252.9,1008.7z"/>
<path class="st5" d="M266,926.7v-62.4c0-7.3,5.9-13.2,13.2-13.2h30c7.3,0,13.2,5.9,13.2,13.2v62.4c0,7.3-5.9,13.2-13.2,13.2h-30
	C271.9,939.9,266,934,266,926.7z"/>
<path class="st6" d="M443,1027.4V763.6l0,0h2.9c8.4,0,15.1,6.8,15.1,15.1l0,0v233.5c0,8.4-6.8,15.1-15.1,15.1l0,0H443L443,1027.4z"
	/>
<path class="st5" d="M442.9,906.6v-38l0,0h0.1c2.6,0,4.6,2.1,4.6,4.6v0v28.7C447.6,904.4,445.6,906.5,442.9,906.6L442.9,906.6
	L442.9,906.6L442.9,906.6L442.9,906.6z"/>
<rect x="334.5" y="855.4" class="st7" width="16" height="80.4"/>
<rect x="334.5" y="935.6" class="st7" width="16" height="16.1"/>
<rect x="334.5" y="951.7" class="st7" width="16" height="16.1"/>
<rect x="334.5" y="967.9" class="st7" width="16" height="16.1"/>
<rect x="334.5" y="984" class="st7" width="16" height="16.1"/>
<rect x="334.5" y="790.9" class="st7" width="16" height="16.1"/>
<rect x="334.5" y="807" class="st7" width="16" height="16.1"/>
<rect x="334.5" y="823.2" class="st7" width="16" height="16.1"/>
<rect x="334.5" y="839.3" class="st7" width="16" height="16.1"/>
<rect x="350.5" y="935.6" class="st7" width="16" height="16.1"/>
<rect x="350.5" y="951.7" class="st7" width="16" height="16.1"/>
<rect x="350.5" y="967.9" class="st7" width="16" height="32.3"/>
<rect x="366.5" y="943.7" class="st7" width="16" height="16.1"/>
<rect x="366.5" y="959.8" class="st7" width="16" height="16.1"/>
<rect x="366.5" y="975.9" class="st7" width="16" height="24.2"/>
<rect x="382.5" y="935.6" class="st7" width="16" height="16.1"/>
<rect x="382.5" y="951.7" class="st7" width="16" height="16.1"/>
<rect x="382.5" y="967.9" class="st7" width="16" height="16.1"/>
<rect x="382.5" y="984" class="st7" width="16" height="16.1"/>
<rect x="398.5" y="943.8" class="st7" width="16" height="16.1"/>
<rect x="398.5" y="959.9" class="st7" width="16" height="16.1"/>
<rect x="398.5" y="975.9" class="st7" width="16" height="24.2"/>
<rect x="350.5" y="871.3" class="st7" width="16" height="16.1"/>
<rect x="350.5" y="887.5" class="st7" width="16" height="16.1"/>
<rect x="350.5" y="903.6" class="st7" width="16" height="16.1"/>
<rect x="350.5" y="919.7" class="st7" width="16" height="16.1"/>
<rect x="366.5" y="879.5" class="st7" width="16" height="16.1"/>
<rect x="366.5" y="895.5" class="st7" width="16" height="16.1"/>
<rect x="366.5" y="911.6" class="st7" width="16" height="16.1"/>
<rect x="366.5" y="927.8" class="st7" width="16" height="16.1"/>
<rect x="382.5" y="871.3" class="st7" width="16" height="16.1"/>
<rect x="382.5" y="887.5" class="st7" width="16" height="16.1"/>
<rect x="382.5" y="903.6" class="st7" width="16" height="16.1"/>
<rect x="382.5" y="919.7" class="st7" width="16" height="16.1"/>
<rect x="398.5" y="879.5" class="st7" width="16" height="16.1"/>
<rect x="398.5" y="895.6" class="st7" width="16" height="16.1"/>
<rect x="398.5" y="911.8" class="st7" width="16" height="16.1"/>
<rect x="398.5" y="927.9" class="st7" width="16" height="16.1"/>
<rect x="350.5" y="823.2" class="st7" width="16" height="16.1"/>
<rect x="350.5" y="839.3" class="st7" width="16" height="16.1"/>
<rect x="350.5" y="855.4" class="st7" width="16" height="16.1"/>
<rect x="366.5" y="815.1" class="st7" width="16" height="16.1"/>
<rect x="366.5" y="831.2" class="st7" width="16" height="16.1"/>
<rect x="366.5" y="847.4" class="st7" width="16" height="16.1"/>
<rect x="366.5" y="863.5" class="st7" width="16" height="16.1"/>
<rect x="382.5" y="807" class="st7" width="16" height="16.1"/>
<rect x="382.5" y="823.2" class="st7" width="16" height="16.1"/>
<rect x="382.5" y="839.3" class="st7" width="16" height="16.1"/>
<rect x="382.5" y="855.4" class="st7" width="16" height="16.1"/>
<rect x="398.5" y="815.2" class="st7" width="16" height="16.1"/>
<rect x="350.5" y="790.9" class="st7" width="16" height="32.3"/>
<rect x="366.5" y="790.9" class="st7" width="16" height="24.2"/>
<rect x="382.5" y="790.9" class="st7" width="16" height="16.1"/>
<rect x="398.5" y="790.9" class="st7" width="16" height="24.3"/>
<rect x="398.5" y="831.4" class="st7" width="16" height="16.1"/>
<rect x="398.5" y="847.5" class="st7" width="16" height="16.1"/>
<rect x="398.5" y="863.6" class="st7" width="16" height="16.1"/>
<rect x="414.1" y="935.7" class="st7" width="9" height="16.1"/>
<rect x="414.1" y="951.8" class="st7" width="9" height="16.1"/>
<rect x="414.1" y="968" class="st7" width="9" height="16.1"/>
<rect x="414.1" y="984.1" class="st7" width="9" height="16.1"/>
<rect x="414.1" y="871.4" class="st7" width="9" height="16.1"/>
<rect x="414.1" y="887.6" class="st7" width="9" height="16.1"/>
<rect x="414.1" y="903.7" class="st7" width="9" height="16.1"/>
<rect x="414.1" y="919.8" class="st7" width="9" height="16.1"/>
<rect x="414.1" y="807.2" class="st7" width="9" height="16.1"/>
<rect x="414.1" y="791" class="st7" width="9" height="16.1"/>
<rect x="414.1" y="823.3" class="st7" width="9" height="16.1"/>
<rect x="414.1" y="839.4" class="st7" width="9" height="16.1"/>
<rect x="414.1" y="855.6" class="st7" width="9" height="16.1"/>
<path class="st8" d="M621.1,221.6c0,24.6-7.9,48.6-22.7,68.2c-30.2-40.5-30.2-96,0-136.5C613.2,173.1,621.1,197,621.1,221.6z"/>
<path class="st9" d="M575.7,221.6c0,24.6,7.9,48.6,22.7,68.2c-37.7,50.4-109.1,60.8-159.6,23.1s-60.8-109.1-23.1-159.6
	s109.1-60.8,159.6-23.1c8.8,6.5,16.5,14.3,23.1,23.1C583.7,173.1,575.7,197,575.7,221.6z"/>
<path class="st10" d="M621.1,221.6c0,24.6-7.9,48.6-22.7,68.2c-30.2-40.5-30.2-96,0-136.5C613.2,173.1,621.1,197,621.1,221.6z"/>
<path class="st11" d="M803.7,221.6c-0.1,63-51.2,113.9-114.1,113.9c-35.9,0-69.6-16.9-91.1-45.6c30.2-40.5,30.2-96,0-136.5
	C636.2,103,707.6,92.8,758,130.5C786.7,152,803.6,185.8,803.7,221.6L803.7,221.6z"/>
<rect x="252.8" y="429.3" class="st2" width="506.4" height="171.1"/>
<rect x="541.2" y="641.5" class="st2" width="377.3" height="386"/>
<ellipse transform="matrix(0.7123 -0.7019 0.7019 0.7123 -392.4188 418.2896)" class="st12" cx="314" cy="687.8" rx="30" ry="30"/>
<rect x="282" y="649.1" transform="matrix(0.7123 -0.7019 0.7019 0.7123 -380.4758 390.3356)" class="st13" width="7.8" height="20.2"/>
<path class="st14" d="M309.2,672c0,0-15.5,4.8-12.3,21.8C296.9,693.8,305.7,674,309.2,672z"/>
<path class="st15" d="M626.2,872c0,0-21.2,11.4-33.6,19.4s-45,2-45,2"/>
<path class="st6" d="M537.9,796.8h10.3c15.6,0,28.3,12.7,28.3,28.3v22.3c0,15.6-12.7,28.3-28.3,28.3h-10.3
	c-15.6,0-28.3-12.7-28.3-28.3v-22.3C509.6,809.5,522.3,796.8,537.9,796.8z"/>
<path class="st6" d="M828.5,677.2h30.9c8.8,0,16,7.2,16,16v26.3c0,8.8-7.2,16-16,16h-30.9c-8.8,0-16-7.2-16-16v-26.3
	C812.5,684.3,819.7,677.2,828.5,677.2z"/>
<path class="st1" d="M836.7,695.1h14.6c6.1,0,11.1,5,11.1,11.1v0.3c0,6.1-5,11.1-11.1,11.1h-14.6c-6.1,0-11.1-5-11.1-11.1v-0.3
	C825.7,700.1,830.6,695.1,836.7,695.1z"/>
<path class="st3" d="M530.2,1022.3V647.5c0-3.2,2.6-5.8,5.8-5.8h14.2c3.2,0,5.8,2.6,5.8,5.8v374.8c0,3.2-2.6,5.8-5.8,5.8H536
	C532.8,1028.1,530.2,1025.5,530.2,1022.3z"/>
<rect x="620.1" y="719.6" class="st6" width="73.3" height="281.4"/>
<rect x="673.9" y="872.1" class="st16" width="13.2" height="66.1"/>
<rect x="673.9" y="938" class="st16" width="13.2" height="13.3"/>
<rect x="673.9" y="951.3" class="st16" width="13.2" height="13.3"/>
<rect x="673.9" y="964.6" class="st16" width="13.2" height="13.3"/>
<rect x="673.9" y="977.9" class="st16" width="13.2" height="13.3"/>
<rect x="674" y="819.1" class="st16" width="13.2" height="13.3"/>
<rect x="674" y="832.3" class="st16" width="13.2" height="13.3"/>
<rect x="674" y="845.6" class="st16" width="13.2" height="13.3"/>
<rect x="674" y="858.8" class="st16" width="13.2" height="13.3"/>
<rect x="660.8" y="938" class="st16" width="13.2" height="13.3"/>
<rect x="660.8" y="951.3" class="st16" width="13.2" height="13.3"/>
<rect x="660.8" y="964.6" class="st16" width="13.2" height="26.5"/>
<rect x="647.6" y="944.7" class="st16" width="13.2" height="13.3"/>
<rect x="647.6" y="958" class="st16" width="13.2" height="13.3"/>
<rect x="647.6" y="971.2" class="st16" width="13.2" height="19.9"/>
<rect x="634.5" y="938" class="st16" width="13.2" height="13.3"/>
<rect x="634.5" y="951.3" class="st16" width="13.2" height="13.3"/>
<rect x="634.5" y="964.6" class="st16" width="13.2" height="13.3"/>
<rect x="634.5" y="977.9" class="st16" width="13.2" height="13.3"/>
<rect x="660.8" y="885.2" class="st16" width="13.2" height="13.3"/>
<rect x="660.8" y="898.5" class="st16" width="13.2" height="13.3"/>
<rect x="660.8" y="911.7" class="st16" width="13.2" height="13.3"/>
<rect x="660.8" y="925" class="st16" width="13.2" height="13.3"/>
<rect x="647.6" y="891.9" class="st16" width="13.2" height="13.3"/>
<rect x="647.6" y="905.1" class="st16" width="13.2" height="13.3"/>
<rect x="647.6" y="918.3" class="st16" width="13.2" height="13.3"/>
<rect x="647.6" y="931.6" class="st16" width="13.2" height="13.3"/>
<rect x="634.5" y="885.2" class="st16" width="13.2" height="13.3"/>
<rect x="634.5" y="898.5" class="st16" width="13.2" height="13.3"/>
<rect x="634.5" y="911.7" class="st16" width="13.2" height="13.3"/>
<rect x="634.5" y="925" class="st16" width="13.2" height="13.3"/>
<rect x="660.8" y="845.6" class="st16" width="13.2" height="13.3"/>
<rect x="660.8" y="858.8" class="st16" width="13.2" height="13.3"/>
<rect x="660.8" y="872.1" class="st16" width="13.2" height="13.3"/>
<rect x="647.6" y="839" class="st16" width="13.2" height="13.3"/>
<rect x="647.6" y="852.2" class="st16" width="13.2" height="13.3"/>
<rect x="647.6" y="865.5" class="st16" width="13.2" height="13.3"/>
<rect x="647.6" y="878.8" class="st16" width="13.2" height="13.3"/>
<rect x="634.5" y="832.3" class="st16" width="13.2" height="13.3"/>
<rect x="634.5" y="845.6" class="st16" width="13.2" height="13.3"/>
<rect x="634.5" y="858.8" class="st16" width="13.2" height="13.3"/>
<rect x="634.5" y="872.1" class="st16" width="13.2" height="13.3"/>
<rect x="660.8" y="819.1" class="st16" width="13.2" height="26.5"/>
<rect x="647.6" y="819.1" class="st16" width="13.2" height="19.9"/>
<rect x="634.5" y="819.1" class="st16" width="13.2" height="13.3"/>
<rect x="627" y="938.1" class="st16" width="7.4" height="13.3"/>
<rect x="627" y="951.4" class="st16" width="7.4" height="13.3"/>
<rect x="627" y="964.7" class="st16" width="7.4" height="13.3"/>
<rect x="627" y="978" class="st16" width="7.4" height="13.3"/>
<rect x="627" y="885.3" class="st16" width="7.4" height="13.3"/>
<rect x="627" y="898.5" class="st16" width="7.4" height="13.3"/>
<rect x="627" y="911.8" class="st16" width="7.4" height="13.3"/>
<rect x="627" y="925.1" class="st16" width="7.4" height="13.3"/>
<rect x="627" y="832.4" class="st16" width="7.4" height="13.3"/>
<rect x="627.1" y="819.1" class="st16" width="7.4" height="13.3"/>
<rect x="627" y="845.7" class="st16" width="7.4" height="13.3"/>
<rect x="628.2" y="741.2" class="st16" width="7.4" height="13.3"/>
<rect x="628.2" y="728" class="st16" width="7.4" height="13.3"/>
<rect x="628.2" y="754.5" class="st16" width="7.4" height="13.3"/>
<rect x="677.3" y="799.4" class="st16" width="10.7" height="13.3"/>
<rect x="677.3" y="786.6" class="st16" width="10.7" height="13.3"/>
<rect x="677.3" y="773.6" class="st16" width="10.7" height="13.3"/>
<rect x="666.6" y="786.9" class="st16" width="10.7" height="13.3"/>
<rect x="627" y="859" class="st16" width="7.4" height="13.3"/>
<rect x="627" y="872.2" class="st16" width="7.4" height="13.3"/>
<rect x="648.8" y="754.5" class="st16" width="13.2" height="13.3"/>
<rect x="661.9" y="754.5" class="st16" width="26.4" height="13.3"/>
<rect x="635.6" y="754.5" class="st16" width="13.2" height="13.3"/>
<rect x="635.6" y="741.2" class="st16" width="13.2" height="13.3"/>
<rect x="635.6" y="728" class="st16" width="13.2" height="13.3"/>
<rect x="648.8" y="741.2" class="st16" width="13.2" height="13.3"/>
<rect x="648.8" y="728" class="st16" width="13.2" height="13.3"/>
<rect x="662" y="741.2" class="st16" width="13.2" height="13.3"/>
<rect x="662" y="728" class="st16" width="13.2" height="13.3"/>
<rect x="675.1" y="727.9" class="st16" width="13.2" height="26.5"/>
<rect x="282.2" y="461.1" transform="matrix(0.9921 -0.1255 0.1255 0.9921 -62.1677 50.0352)" class="st3" width="167.6" height="114.6"/>
<rect x="323.3" y="434.6" transform="matrix(8.315601e-02 -0.9965 0.9965 8.315601e-02 -167.6472 854.61)" class="st17" width="114.6" height="167.6"/>
<path class="st18" d="M803.8,429.3h106.9c4.3,0,7.8,3.5,7.8,7.8v155.5c0,4.3-3.5,7.8-7.8,7.8H803.8c-4.3,0-7.8-3.5-7.8-7.8V437.1
	C796,432.8,799.5,429.3,803.8,429.3z"/>
<path class="st17" d="M810.3,435.6h93.8c4.5,0,8.1,3.6,8.1,8.1c0,0,0,0,0,0v69.9l0,0h-110l0,0v-69.9
	C802.2,439.3,805.8,435.6,810.3,435.6C810.3,435.6,810.3,435.6,810.3,435.6z"/>
<path class="st17" d="M802.2,516.1h110l0,0V587c0,3.9-3.2,7.1-7.1,7.1h-95.9c-3.9,0-7.1-3.2-7.1-7.1L802.2,516.1L802.2,516.1z"/>
<rect x="819.7" y="449.1" class="st19" width="75.2" height="47.1"/>
<rect x="819.5" y="449.1" class="st19" width="31.9" height="47.1"/>
<line class="st19" x1="819.7" y1="449.1" x2="851.4" y2="496.2"/>
<line class="st19" x1="819.7" y1="496.2" x2="851.4" y2="449.1"/>
<line class="st19" x1="863.8" y1="457.1" x2="863.8" y2="488.2"/>
<line class="st19" x1="872.8" y1="457.1" x2="872.8" y2="488.2"/>
<line class="st19" x1="881" y1="457.1" x2="881" y2="488.2"/>
<line class="st19" x1="819.5" y1="528.6" x2="819.5" y2="582"/>
<line class="st19" x1="830.6" y1="528.6" x2="830.6" y2="582"/>
<line class="st19" x1="841.6" y1="528.6" x2="841.6" y2="582"/>
<line class="st19" x1="852.6" y1="546.1" x2="852.6" y2="582"/>
<rect x="796" y="513.6" class="st20" width="122.5" height="2.5"/>
<path class="st18" d="M621.9,456.8l81.4-16.3c9.4-1.9,18.6,4.2,20.5,13.7c0,0,0,0,0,0l19.4,96.8c1.9,9.4-4.2,18.6-13.7,20.5l0,0
	l-81.4,16.3l0,0L621.9,456.8L621.9,456.8z"/>
<path class="st21" d="M648.5,446.2l56.7,8.6c9.5,1.4,16.1,10.4,14.7,19.9c0,0,0,0,0,0l-11.5,75.9c-1.4,9.5-10.4,16.1-19.9,14.7l0,0
	l-56.7-8.6l0,0L648.5,446.2L648.5,446.2z"/>
<rect x="673.6" y="450.9" transform="matrix(0.148 -0.989 0.989 0.148 109.5571 1080.2616)" class="st18" width="16.3" height="51.3"/>
<rect x="435.2" y="350.5" transform="matrix(6.108614e-03 -1 1 6.108614e-03 -19.9844 906.3843)" class="st22" width="21.6" height="225.6"/>
<g class="st23">
	
		<rect x="341.2" y="456" transform="matrix(6.108614e-03 -1 1 6.108614e-03 -112.7222 801.0546)" class="st24" width="10.8" height="2.5"/>
	
		<rect x="350.5" y="453.3" transform="matrix(6.108614e-03 -1 1 6.108614e-03 -103.5364 804.9771)" class="st24" width="5.4" height="2.5"/>
	
		<rect x="357.8" y="453.4" transform="matrix(6.108614e-03 -1 1 6.108614e-03 -96.2867 812.381)" class="st24" width="5.4" height="2.5"/>
	
		<rect x="365.2" y="453.4" transform="matrix(6.108614e-03 -1 1 6.108614e-03 -89.0268 819.7552)" class="st24" width="5.4" height="2.5"/>
	
		<rect x="378.3" y="453.5" transform="matrix(6.108614e-03 -1 1 6.108614e-03 -76.0776 832.9438)" class="st24" width="5.4" height="2.5"/>
	
		<rect x="385.6" y="453.5" transform="matrix(6.108614e-03 -1 1 6.108614e-03 -68.8377 840.3377)" class="st24" width="5.4" height="2.5"/>
	
		<rect x="393" y="453.6" transform="matrix(6.108614e-03 -1 1 6.108614e-03 -61.5678 847.7218)" class="st24" width="5.4" height="2.5"/>
	
		<rect x="406.1" y="453.7" transform="matrix(6.108614e-03 -1 1 6.108614e-03 -48.6187 860.9105)" class="st24" width="5.4" height="2.5"/>
	
		<rect x="413.4" y="453.7" transform="matrix(6.108614e-03 -1 1 6.108614e-03 -41.369 868.3144)" class="st24" width="5.4" height="2.5"/>
	
		<rect x="420.8" y="453.7" transform="matrix(6.108614e-03 -1 1 6.108614e-03 -34.109 875.6885)" class="st24" width="5.4" height="2.5"/>
	
		<rect x="433.9" y="453.8" transform="matrix(6.108614e-03 -1 1 6.108614e-03 -21.1599 888.8771)" class="st24" width="5.4" height="2.5"/>
	
		<rect x="441.2" y="453.9" transform="matrix(6.108614e-03 -1 1 6.108614e-03 -13.9201 896.2711)" class="st24" width="5.4" height="2.5"/>
	
		<rect x="448.6" y="453.9" transform="matrix(6.108614e-03 -1 1 6.108614e-03 -6.6601 903.6451)" class="st24" width="5.4" height="2.5"/>
	
		<rect x="461.7" y="454" transform="matrix(6.108614e-03 -1 1 6.108614e-03 6.289 916.8338)" class="st24" width="5.4" height="2.5"/>
	
		<rect x="469" y="454" transform="matrix(6.108614e-03 -1 1 6.108614e-03 13.5289 924.2277)" class="st24" width="5.4" height="2.5"/>
	
		<rect x="476.4" y="454.1" transform="matrix(6.108614e-03 -1 1 6.108614e-03 20.7987 931.6119)" class="st24" width="5.4" height="2.5"/>
	
		<rect x="489.5" y="454.2" transform="matrix(6.108614e-03 -1 1 6.108614e-03 33.7378 944.8104)" class="st24" width="5.4" height="2.5"/>
	
		<rect x="496.8" y="454.2" transform="matrix(6.108614e-03 -1 1 6.108614e-03 40.9877 952.1944)" class="st24" width="5.4" height="2.5"/>
	
		<rect x="504.2" y="454.3" transform="matrix(6.108614e-03 -1 1 6.108614e-03 48.2376 959.5784)" class="st24" width="5.4" height="2.5"/>
	
		<rect x="517.3" y="454.3" transform="matrix(6.108614e-03 -1 1 6.108614e-03 61.1867 972.767)" class="st24" width="5.4" height="2.5"/>
	
		<rect x="524.6" y="454.4" transform="matrix(6.108614e-03 -1 1 6.108614e-03 68.4367 980.1511)" class="st24" width="5.4" height="2.5"/>
	
		<rect x="532" y="454.4" transform="matrix(6.108614e-03 -1 1 6.108614e-03 75.6964 987.5451)" class="st24" width="5.4" height="2.5"/>
	
		<rect x="369" y="456.1" transform="matrix(6.108614e-03 -1 1 6.108614e-03 -85.2634 829.0213)" class="st24" width="10.8" height="2.5"/>
	
		<rect x="396.8" y="456.3" transform="matrix(6.108614e-03 -1 1 6.108614e-03 -57.8145 856.978)" class="st24" width="10.8" height="2.5"/>
	
		<rect x="424.6" y="456.5" transform="matrix(6.108614e-03 -1 1 6.108614e-03 -30.3556 884.9446)" class="st24" width="10.8" height="2.5"/>
	
		<rect x="452.4" y="456.7" transform="matrix(6.108614e-03 -1 1 6.108614e-03 -2.8968 912.9113)" class="st24" width="10.8" height="2.5"/>
	
		<rect x="480.2" y="456.8" transform="matrix(6.108614e-03 -1 1 6.108614e-03 24.5522 940.868)" class="st24" width="10.8" height="2.5"/>
	
		<rect x="508" y="457" transform="matrix(6.108614e-03 -1 1 6.108614e-03 52.0009 968.8446)" class="st24" width="10.8" height="2.5"/>
	
		<rect x="535.8" y="457.2" transform="matrix(6.108614e-03 -1 1 6.108614e-03 79.4499 996.8012)" class="st24" width="10.8" height="2.5"/>
</g>
<polyline class="st18" points="594.8,470.4 597.3,463.2 602,469.2 "/>
<polyline class="st22" points="602,469.2 610,518.2 602.8,519.3 594.8,470.4 "/>
<rect x="603.1" y="518.7" transform="matrix(0.9869 -0.1614 0.1614 0.9869 -76.2133 104.7961)" class="st11" width="7.3" height="5.3"/>
<rect x="722.3" y="725.8" transform="matrix(0.9994 -3.577162e-02 3.577162e-02 0.9994 -26.1915 27.0183)" class="st22" width="39.4" height="39.4"/>
<rect x="731.7" y="730.6" transform="matrix(0.9992 -3.996804e-02 3.996804e-02 0.9992 -29.1393 29.925)" class="st25" width="4.3" height="26.3"/>
<rect x="737.9" y="741.3" transform="matrix(0.9994 -3.577162e-02 3.577162e-02 0.9994 -26.3639 26.9513)" class="st25" width="4.3" height="17.8"/>
<rect x="664.8" y="662.1" transform="matrix(0.9994 -3.577162e-02 3.577162e-02 0.9994 -23.9527 24.9226)" class="st22" width="39.4" height="39.4"/>
<rect x="670.7" y="669.6" transform="matrix(0.9994 -3.577162e-02 3.577162e-02 0.9994 -23.9919 24.5035)" class="st25" width="4.3" height="26.3"/>
<rect x="680.4" y="677.7" transform="matrix(0.9994 -3.577162e-02 3.577162e-02 0.9994 -24.1247 24.8552)" class="st25" width="4.3" height="17.8"/>
<rect x="733.8" y="663.5" transform="matrix(0.9873 -0.1588 0.1588 0.9873 -98.9503 128.3598)" class="st22" width="39.4" height="39.4"/>
<rect x="739.8" y="672.3" transform="matrix(0.9873 -0.1588 0.1588 0.9873 -99.4659 126.5603)" class="st25" width="4.3" height="26.3"/>
<rect x="749.3" y="670.8" transform="matrix(0.9873 -0.1588 0.1588 0.9873 -99.1027 128.0478)" class="st25" width="4.3" height="26.3"/>
<rect x="759.3" y="675.3" transform="matrix(0.9873 -0.1588 0.1588 0.9873 -99.2085 129.6528)" class="st25" width="4.3" height="20.2"/>
<circle class="st17" cx="400.8" cy="683" r="38.2"/>
<path class="st26" d="M400.8,654.4c-15.5,0-28.1,12.6-28.1,28.1c0,15.5,12.6,28.1,28.1,28.1c15.5,0,28.1-12.6,28.1-28.1
	S416.3,654.4,400.8,654.4L400.8,654.4z M400.3,691.1c-5,0-9-4-9-9s4-9,9-9s9,4,9,9C409.3,687.1,405.3,691.1,400.3,691.1
	C400.3,691.2,400.3,691.2,400.3,691.1L400.3,691.1z"/>
<path class="st11" d="M400.8,658.6c-13.2,0-23.9,10.7-23.9,23.9s10.7,23.9,23.9,23.9c13.2,0,23.9-10.7,23.9-23.9
	S414,658.6,400.8,658.6L400.8,658.6z M400.3,691.2c-5,0-9-4-9-9s4-9,9-9s9,4,9,9l0,0C409.3,687.1,405.3,691.2,400.3,691.2
	L400.3,691.2z"/>
<path class="st27" d="M511.6,492.6l32.6-5.2c3.9-0.6,7.6,2,8.2,5.9l11.6,72.3c0.6,3.9-2,7.6-5.9,8.2l-32.6,5.2
	c-3.9,0.6-7.6-2-8.2-5.9l-11.6-72.3C505,496.8,507.7,493.2,511.6,492.6z"/>
<polyline class="st28" points="561.5,561.2 518.6,568.1 508,502.2 "/>
<polyline class="st29" points="508,502.2 550.9,495.4 561.5,561.2 "/>
<ellipse transform="matrix(0.9874 -0.158 0.158 0.9874 -83.293 92.5895)" class="st30" cx="540.7" cy="570.2" rx="3" ry="3"/>
<g class="st31">
	<path class="st19" d="M440.1,501.8l-4.3,45.6c-0.4,3.9-3.9,6.8-7.8,6.5l-96.5-9c-3.9-0.4-6.8-3.9-6.5-7.8l4.3-45.6
		c0.4-3.9,3.9-6.8,7.8-6.5l96.5,9C437.6,494.3,440.5,497.8,440.1,501.8z"/>
	<polyline class="st19" points="339.6,543.3 344.7,488.3 429.2,496.2 	"/>
	<polyline class="st19" points="429.2,496.2 424,551.2 339.6,543.3 	"/>
	
		<ellipse transform="matrix(9.323946e-02 -0.9956 0.9956 9.323946e-02 -208.7861 800.4637)" class="st19" cx="335.1" cy="514.9" rx="3.8" ry="3.8"/>
</g>
<line class="st32" x1="429.2" y1="496.2" x2="339.6" y2="543.3"/>
<path class="st33" d="M776.7,790h86c12.8,0,23.2,10.4,23.2,23.2v0v164.3l0,0H753.5l0,0V813.2C753.5,800.4,763.8,790,776.7,790
	C776.7,790,776.7,790,776.7,790z"/>
<polyline class="st34" points="768.4,939.2 768.4,977.5 870.5,977.5 870.5,939.1 "/>
<path class="st35" d="M870.6,940l-0.1-124.8c0.1-4.6-3.6-8.4-8.1-8.5h-85.8c-4.6,0.1-8.2,3.9-8.1,8.5l0.1,125.2"/>
<circle class="st35" cx="819.3" cy="959.4" r="12.1"/>
<circle class="st34" cx="819.3" cy="959.4" r="5.3"/>
<rect x="837.7" y="951.4" class="st35" width="6.4" height="16"/>
<rect x="850" y="951.4" class="st35" width="6.4" height="16"/>
<rect x="783.1" y="951.4" class="st35" width="6.4" height="16"/>
<rect x="795.4" y="951.4" class="st35" width="6.4" height="16"/>
<path class="st36" d="M1087.7,787.7c0,0,17.2,60.9,23.5,109.8s-22.5,101.9-22.5,101.9s-65.4,33.3-90,33.4s-96.3-23.4-96.3-23.4
	l6.7-33.5l65.4,9l0.1-179.8L877.7,839l-11.4-25.7c0,0,86.2-65.5,110.3-66.8S1087.7,787.7,1087.7,787.7z"/>
<path class="st37" d="M909.3,975.1l-5.9,32.3c-0.8,4.6-8.5,6.6-15,5.4l-23.4-6.4c-4.6-0.8-7.8-8.4-6.9-13l-1.6-35.9
	c0-6.2,5.3-7.6,9.8-6.8l36.3,14.5C907.2,966.1,910.2,970.5,909.3,975.1z"/>
<path class="st37" d="M871.6,811.4l10.8,23.6c1.9,4.2,0,9.2-4.2,11.2l-34.3,16.1c-4.2,1.9-9.3,0.4-11.2-7.4l1.4-25.1
	c0.7-4.7,0-9.3,4.2-11.2l14.5-7.5C857.1,809.2,869.7,807.2,871.6,811.4z"/>
<path class="st37" d="M1050.8,956.8h-1.4c-33.3,0-60.3-27-60.3-60.3v-14c0-33.3,27-60.3,60.3-60.3h1.4c33.3,0,60.3,27,60.3,60.3v14
	C1111.1,929.8,1084.1,956.8,1050.8,956.8z"/>
<path class="st37" d="M1003.1,903.8h-9c-6.9,0-12.5-5.6-12.5-12.5V891c0-6.9,5.6-12.5,12.5-12.5h9c6.9,0,12.5,5.6,12.5,12.5v0.3
	C1015.6,898.2,1010,903.8,1003.1,903.8z"/>
<path class="st37" d="M1059.9,967.2h-0.3c-7.9,0-14.4-6.4-14.4-14.4V819.5c0-7.9,6.4-14.4,14.4-14.4h0.3c7.9,0,14.4,6.4,14.4,14.4
	v133.3C1074.3,960.8,1067.9,967.2,1059.9,967.2z"/>
<path class="st38" d="M1136.5,873.7c-2.9-5.2-5.2-10.8-6.9-16.5c-2-6.6-3.2-13.5-6.6-19.5c-7.2-12.7-22.6-18.4-37.1-19.6
	c-19.4-1.5-42.6-3.4-59.9,7.6c-12.4,7.9-16.8,23.7-18.3,37.5c-0.8,7.5-0.8,15-0.1,22.5c1,11.1,3.1,11.5,14.1,11.5l-8.1,6.2
	c-1.6,1.1-2.9,2.4-4,3.9c-4.5,7.2,4.5,6,8.6,6.6l-2.4,5c-1.2,2.5-2.4,5-3.5,7.5c-0.3,0.5-0.4,1.2-0.4,1.8c0.1,0.4,0.2,0.8,0.4,1.2
	c7,15.3,22.4,24.6,39,26.8c7.4,1,14.8-0.6,22.3-0.7c10-0.1,19.9-1.1,29.7-3.1c3.5-0.6,7-1.7,10.2-3.2c10-5.3,14.1-17.5,15.7-28.7
	c0.9-6.6-2.6-6.9,3.6-10.9c1.1,4.5,7.2,5.8,11.2,7.8c3.1,1.6,6.4-3.2,8.5-5.9c4-5.1,3.1-5.2,4.3-8.4s7-10.2,7-13.5
	c0-15.1-4.9-19.8-6.1-27c-0.1-1.5-0.6-2.9-1.4-4.1c-0.8-1.3-2.3-1.9-3.8-1.5c1.3-2.4,0.4-5.4-2-6.7c-0.4-0.2-0.8-0.4-1.2-0.5
	c-1.2-0.1-2.5,0-3.7,0.4c-4.1,1-8.5,2.2-11.1,5.5c-2.2,2.7-7.3,10.2,1.6,18.8c-7.9-5.3-13.4-15.2-18.4-23.1
	c-5.5-8.7-11-17.5-18.8-24.1s-18.4-10.8-28.3-8.4"/>
<path class="st38" d="M1137.6,873c-5.1-9.5-7-19.5-10.6-29.5c-2.4-7-6.9-13.1-12.9-17.5c-13.4-9.5-31-10-46.9-10.4
	s-34.3,1.2-46.5,12.5c-11.1,10.3-14.1,27.1-14.7,41.5c-0.3,5.8-0.1,11.5,0.5,17.2c0.3,2.5,0.5,5.3,1.9,7.5c2.7,4.5,8.9,3.9,13.4,4
	l-0.6-2.3c-3.7,2.9-15.3,9-13.9,15.2c1,4.3,7.8,3.4,11,3.8l-1.1-1.9c-2,4.1-4.4,8.2-5.9,12.5c-1,2.8-0.1,4.3,1.3,6.9
	c3.4,6.1,8.1,11.3,13.8,15.3c5.7,4,12,6.8,18.8,8.4c8.9,2.1,17.5,0.8,26.5,0.5c9.5-0.4,18.8-0.8,28.2-2.5c7.3-1.3,14.6-2.9,19.9-8.4
	c4.8-4.9,7.5-11.5,9.1-18c0.9-3.2,1.4-6.5,1.5-9.9c0-3.7-0.8-4.9,2.8-7.4l-1.8-0.8c1.3,3.6,4.1,5.2,7.5,6.7s6.3,3.4,9.7,1
	c6.6-4.7,8.3-13,12.4-19.4c2.2-3.5,4-6.3,3.9-10.4c-0.1-5.1-0.9-10.2-2.6-15c-1.1-3.2-2.6-6.3-3.3-9.7c-0.9-3.9-1.8-7.7-6.5-7.5
	l1.1,1.9c1.4-3.2,0.6-7.2-2.9-8.6c-4.1-1.7-11.6,1.4-15,3.9c-8.1,6-6.9,15.9-0.5,22.6l1.5-2c-13-9.2-19-26.2-28.7-38.4
	c-9.1-11.4-22.6-20.4-37.8-17.3c-1.6,0.3-0.9,2.7,0.7,2.4c18.2-3.7,32,11,41.1,24.8c7,10.6,12.8,23.2,23.5,30.8c1.2,0.8,2.5-1,1.5-2
	c-4.3-4.5-6.2-9.8-2.8-15.4c1.1-1.9,2.8-3.4,4.8-4.5c1.4-0.7,2.8-1.3,4.3-1.7l1.4-0.4c2.9-1.2,5.2,0.4,6.9,4.5
	c-0.3,0.6-0.1,1.4,0.5,1.7c0.2,0.1,0.4,0.2,0.6,0.2c3.4-0.1,6.8,13.2,7.8,16.3c2.2,6.9,3.5,14.4-0.4,20.8c-1.4,2.4-3.2,4.7-4.3,7.2
	c-0.5,1.7-1.1,3.3-1.8,4.9c-1.9,3.5-5.7,9.1-10.3,8.4c-3.3-0.5-8.5-3.4-9.6-6.6c-0.2-0.7-0.9-1.1-1.6-0.9c-0.1,0-0.2,0.1-0.3,0.1
	c-3.4,2.3-4.5,3.7-4.2,7.7c0.5,6-1.3,12.5-3.5,18c-3.1,7.6-8.3,13.3-16.3,15.9c-8.3,2.6-17.5,3.5-26.2,4c-15.8,1-32,3.3-46.8-3.8
	c-6-2.8-11.3-6.9-15.7-11.9c-2.8-3.3-6.7-8.1-5.4-12.8c1.1-3.8,3.5-7.5,5.2-11c0.3-0.6,0.1-1.4-0.5-1.7c-0.2-0.1-0.4-0.2-0.6-0.2
	c-2.1-0.3-8.4,0.5-8.4-2.9c0-2.4,4.1-5,5.8-6.3l6.8-5.2c0.6-0.4,0.8-1.1,0.4-1.7c-0.2-0.4-0.6-0.6-1-0.6c-4.8,0-10.5,0.7-12.1-5
	c-2-7.2-1.5-15.8-1-23.1c0.9-14,4.2-30.5,15.9-39.6c12.3-9.5,29.4-10.5,44.3-10c14.3,0.5,29.8,0.9,42.2,8.8
	c8.2,5.2,12.5,12.9,15.1,22.1c2.5,8.8,5,17.1,9.3,25.2C1136.2,875.7,1138.3,874.4,1137.6,873L1137.6,873z"/>
<path class="st39" d="M998.6,818.5l-15-1c-7.5,17.1-8.9,50.2-9.2,63.5v-75.8L998.6,818.5z"/>
<path class="st39" d="M981.6,977.5h-7.1v-78.9C975.2,959,981.6,977.5,981.6,977.5z"/>
<polygon class="st39" points="1000.7,977.9 987.6,986.6 974.5,984.9 974.5,977.5 "/>
<path class="st40" d="M868.8,834.5l2.2,4c1.9,3.4,0.6,7.7-2.8,9.6l-14,7.6c-3.4,1.9-7.7,0.6-9.6-2.8l-0.5-1.3
	c-1.8-3.4-0.1-6.5,2.8-9.6l14-9.2C864.3,830.9,867,831.1,868.8,834.5z"/>
<polygon class="st41" points="865.4,811.1 874.5,814.8 871.9,821.4 847.5,883.1 839.6,889.5 838.3,879.5 862.8,817.8 "/>
<path class="st37" d="M850.1,842.9l19.3-10.5c3.6-2,8.1-0.6,10.1,3l0.1,0.1c2,3.6,0.6,8.1-3,10.1l-19.3,10.5c-3.6,2-8.1,0.6-10.1-3
	l-0.1-0.1C845.1,849.4,846.5,844.9,850.1,842.9z"/>
<path class="st37" d="M893.6,951.4l14.2,16.8c2.7,3.1,2.3,7.8-0.9,10.5l-0.1,0.1c-3.1,2.7-7.8,2.3-10.5-0.9l-14.2-16.8
	c-2.7-3.1-2.3-7.8,0.9-10.5l0.1-0.1C886.3,947.9,891,948.3,893.6,951.4z"/>
<path class="st42" d="M974.5,880.9v17.7c0-3.8-0.1-7.8-0.1-11.9C974.5,880.5,974.4,884.5,974.5,880.9z"/>
<path class="st37" d="M381.1,866.2c-3.9,1.6-20.5-13.2-20.5-13.2l-11.8-2.2l4.9,7.2c2,3.2,1,7.3-2.2,9.3c-3,1.9-6.9,1.1-9-1.7
	l-13.9-20.5c-0.1-0.2-0.2-0.3-0.3-0.5c-2.8-3.4-3.8-8.2-3.4-10.6l5.2-28.3c0.8-4.2,12-4.6,16.5-3.8l23,8.4c3.3,0.5,6,3,6.9,6.2
	c2.1,3.8,7.1,13.2,7.1,17.5C383.5,839.5,389.1,863,381.1,866.2z"/>
<path class="st37" d="M369.7,965.2c0.2,3.4-1.7,6.5-4.7,8L345.5,988c-4.1,2.2-14.9,5-16.9,1.3l-13.4-25.5c-1.2-2.2-1.6-7.1,0.1-11.2
	c0-0.2,0.1-0.4,0.1-0.6l7.2-23.7c0.9-2.8,3.5-4.8,6.5-4.8c0.7,0,1.3,0.1,2,0.3c3.6,1.1,5.6,4.9,4.5,8.4l-2.5,8.3l10.7-5.5
	c0,0,11.4-19,15.7-18.7c8.5,0.7,10.2,24.8,11.9,30.1C372.5,950.5,370.6,960.9,369.7,965.2z"/>
<path class="st10" d="M84.1,1025.1c0,0-18.5-65.8-25.3-118.5s24.3-110,24.3-110s109-52,135.6-52s112.8,59.1,112.8,59.1l-6.3,34.2
	l-104.6-35l-14.2,9.3l-0.1,194.1l17.6,0.4l90.2-48.5l16.8,32.8c0,0-86.6,77.2-112.6,78.2C139.1,1072,84.1,1025.1,84.1,1025.1z"/>
<path class="st37" d="M113.8,834.2h1.6c36,0,65.1,29.2,65.1,65.1v15.1c0,36-29.2,65.1-65.1,65.1h-1.6c-36,0-65.1-29.2-65.1-65.1
	v-15.1C48.7,863.3,77.8,834.2,113.8,834.2z"/>
<path class="st37" d="M165.3,894.9h9.7c7.5,0,13.5,6,13.5,13.5v0.3c0,7.5-6,13.5-13.5,13.5h-9.7c-7.5,0-13.5-6-13.5-13.5v-0.3
	C151.8,901,157.8,894.9,165.3,894.9z"/>
<path class="st37" d="M104,815.8h0.4c8.6,0,15.5,7,15.5,15.5v144c0,8.6-7,15.5-15.5,15.5H104c-8.6,0-15.5-7-15.5-15.5v-144
	C88.4,822.7,95.4,815.8,104,815.8z"/>
<path class="st38" d="M2.7,904.8c-1.3-17.8-0.4-36.6,11.8-51.9c9.3-11.6,24.6-20.1,41.4-24.9s35.2-6,53.2-5c5.7,0.3,11.6,0.9,16.5,3
	c4.9,2.1,8.6,5.9,12,9.5l8.2,8.6c2.4,2.5,4.9,5.2,5.1,8.3s-3,6.5-7.1,6.2c9.4,9.1,15.5,20.1,17.5,31.5c0.4,1.2,0.2,2.5-0.4,3.6
	c-1,1.2-2.7,1.6-4.1,0.9c4,5.8,8.6,11.3,13.5,16.3l-15.7,9.2c6.1,1.8,5.5,8.4,3.8,13.1l-8.6,24.1c-1.5,4.2-3.1,8.5-6.1,12.2
	c-5,6-13.6,9.9-22.6,11.8s-18.5,2.3-27.9,2.5c-21.3,0.4-44.4,0-61.4-9.7c-19.5-11-25.5-30.7-28.1-48.9c-1.2-8.1-1.9-16.3-2.3-24.4"
	/>
<path class="st38" d="M3.9,904.8c-1.1-16.2-0.4-33.1,8.7-47.1c9.3-14.2,25.4-22.8,41.2-27.7c17.5-5.4,36.2-6.6,54.4-5.8
	c9.8,0.5,18.2,2,25.4,9c3,2.9,5.8,6,8.6,9c2,2.1,4.4,4.2,5.9,6.6c2.7,4.2,0.8,8.6-4.4,8.7c-0.7,0-1.2,0.6-1.2,1.3
	c0,0.3,0.1,0.6,0.3,0.8c4.6,4.5,8.6,9.6,11.7,15.3c1.4,2.6,2.6,5.4,3.6,8.2c0.6,1.7,4.1,12-1.1,10.3c-0.7-0.2-1.4,0.2-1.5,0.9
	c-0.1,0.3,0,0.6,0.1,0.9c4.1,5.9,8.7,11.4,13.7,16.5l0.2-2L154,919c-0.6,0.4-0.8,1.2-0.4,1.8c0.2,0.2,0.4,0.4,0.7,0.5
	c8.6,3.3,0.9,17.3-1.1,22.7c-3,8.4-5.1,19-11.4,25.7c-11.6,12.4-32.2,12.5-47.9,12.9c-30.2,0.6-66.9-0.2-82-31.4
	c-7.4-15.4-8.7-33.5-9.5-50.3c-0.1-1.6-2.6-1.6-2.5,0c0.8,16.8,2.2,34.8,9.3,50.3c6.8,14.9,19.4,25,35,29.6
	c18.3,5.4,38.3,4.8,57.2,4c16.2-0.7,37.5-3.2,46-19.1c2.5-4.6,3.9-9.7,5.7-14.6c2.1-5.9,4.4-11.7,6.3-17.6s1.9-12.2-4.6-14.7
	l0.3,2.3l15.7-9.1c0.6-0.3,0.8-1.1,0.5-1.7c-0.1-0.1-0.1-0.2-0.2-0.3c-4.8-5-9.3-10.3-13.3-16l-1.4,1.8c8.8,2.8,5.6-9.4,4.2-13.4
	c-3.1-9.5-8.9-17.7-15.9-24.7l-0.9,2.1c4.1-0.1,8.5-2.8,8.4-7.4c-0.1-2.5-1.6-4.8-3.1-6.6c-3.2-4-7-7.5-10.5-11.2
	c-5-5.2-10.1-9.6-17.2-11.4c-7.8-2-16.3-1.9-24.3-1.8c-30,0.2-67.2,7.2-85.6,33.5c-10.2,14.5-11.2,32.6-10,49.7
	C1.5,906.3,4,906.4,3.9,904.8z"/>
<polygon class="st43" points="206.3,812 206.3,825.2 188.5,824.5 "/>
<path class="st43" d="M206.2,997.3l-11.6,1.1c8.6-6.9,8.8-52.7,8.8-94.2c-0.2-26.5-2.2-53.1-6.1-79.3l9.1,0.3L206.2,997.3z"/>
<polygon class="st43" points="183.1,1000.2 206.2,997.3 206.2,1006.3 "/>
</svg>
