<svg id="Layer_1" data-name="Layer 1" xmlns="http://www.w3.org/2000/svg" viewBox="0 0 330.66 1067.63"><defs><style>.cls-1{fill:#b13f60;}.cls-2{fill:#7a56b9;}.cls-3,.cls-8{fill:#23222d;}.cls-4{fill:#c74564;}.cls-5{fill:#ecbe98;}.cls-6{fill:#fad2ab;}.cls-7{fill:#716558;}.cls-8,.cls-9{stroke:#23222d;stroke-miterlimit:10;}.cls-9{fill:none;stroke-width:11px;}</style></defs><title>webmocup_v2</title><polygon class="cls-1" points="84.01 381.75 43.88 537.64 97.92 553.43 121.57 461.96 84.01 381.75"/><polygon class="cls-2" points="107.84 639.76 138.63 1033.01 173.75 1033.01 191.17 758.93 213.75 1033.01 247.35 1033.01 272.68 639.76 107.84 639.76"/><rect class="cls-3" x="107.84" y="1026.13" width="71.65" height="41.5" rx="18.57" ry="18.57"/><rect class="cls-3" x="208.88" y="1026.13" width="71.65" height="41.5" rx="18.57" ry="18.57"/><path class="cls-4" d="M272.68,639.76H107.84L80.1,398.43a37.91,37.91,0,0,1,37.8-37.8H264.45a37.91,37.91,0,0,1,37.8,37.8Z"/><path class="cls-5" d="M226.6,292.79v69.72c0,19.48-36.34,42.29-36.34,42.29s-34.5-28.26-34.5-47.74V287.34a35.53,35.53,0,0,1,35.42-35.42C210.66,251.92,226.6,273.31,226.6,292.79Z"/><path class="cls-6" d="M302.63,145.83c-.19,63.41-2.67,100.78-8.76,125s-15.78,35.4-30.4,46.37c0,0-43.75,33-72.29,33-23.61,0-55.73-23.58-55.73-23.58C90,304.22,80.11,251.92,79.72,145.57a79.59,79.59,0,0,1,79.36-79.36h64.2C266.92,66.21,302.63,102,302.63,145.83Z"/><rect class="cls-7" x="97.73" y="468.54" width="134.72" height="179.71" rx="20" ry="20" transform="translate(-101.12 40.53) rotate(-10.74)"/><rect class="cls-8" x="121.82" y="467.35" width="52.13" height="8.98" rx="4.49" ry="4.49" transform="translate(-85.3 35.8) rotate(-10.74)"/><rect class="cls-9" x="129.78" y="456.95" width="32.38" height="15.71" rx="5.97" ry="5.97" transform="translate(-84.03 35.32) rotate(-10.74)"/><path class="cls-1" d="M302.25,398.43s31,173.78,28.24,180.68-3.48,19.64-28.24,20.51-71.8,1.28-71.8,1.28l-3.85-50,58.6-13.26Z"/><rect class="cls-6" x="188.61" y="538.3" width="58.18" height="58.18" rx="16.34" ry="16.34" transform="translate(249 -39.52) rotate(23.94)"/><path class="cls-1" d="M97.91,553.43S87.49,585,71.57,583.94c-17.19-1.2-41-16.55-48.46-64C12.84,454.57,7.88,425.28,7.88,425.28l36-3,27.69,72.32"/><path class="cls-3" d="M89.12,262.12c-13.49-1.86-23.14-14.51-27.2-27.51s-4.07-26.9-6.93-40.22c-3.89-18.09-13-34.94-15.08-53.33-1.14-10.08-.12-20.27,1-30.36,3-27.09,7.27-55.65,24.52-76.75C80.76,15.16,104.86,4.88,129,2.67c16.21-1.48,32.13,1.55,47.82,5.3,20,4.77,31.37,4.38,51.61,2.89,16.75-1.23,33.94,1.59,48.92,9.2C301,32,314.2,54,319.24,79.29A420.05,420.05,0,0,1,327.1,148c.57,18.15-.23,36.88-5.43,54.4-1.53,5.16-20.62,46.63-26.39,40.91q-1-36.51-1.34-73c-4.54,11.42-13.31,15.57-29.46,14.19-14.77-6.92-10.49-15.35-5.77-26.22-22.18,22.51-56.51,37.32-87.55,35.79-17.75-.88-23.73-9.07-33.7-24.29l-14,23.82c-2.29,3.88-5.53,8.28-9.9,7.81-2.61-.28-4.69-2.31-6.56-4.22L93.43,183.33a150.07,150.07,0,0,0-4.15,79.27"/><path class="cls-3" d="M89.78,259.7c-29.78-5-27.63-43.85-32.39-66-2.9-13.47-8.64-26.09-12.27-39.36-4.15-15.13-3.28-29.86-1.55-45.27,2.77-24.64,6.68-51,22-71.38,16-21.18,43.22-32.15,69.25-32.9,15.36-.44,30.1,3.15,45,6.39a137,137,0,0,0,34.83,3c14.43-.57,28.23-2.09,42.51,1.22,12.57,2.91,24.56,8.52,34.23,17.15,19.36,17.27,25,41.7,28.76,66.32,4.36,28.78,7.32,59.74,2.39,88.63-2.86,16.8-10.44,32.76-19.86,46.9-1.55,2.32-3.32,5.29-5.79,6.76-.56.33-.56.1-.12.22,1.8.47.83-4.79.8-6q-.15-5.92-.28-11.84-.59-26.65-.85-53.31c0-3-3.88-3.13-4.91-.66-4.19,10-13.55,13.34-23.92,12.56-4.81-.36-10.45-4.09-10.83-9.33-.33-4.52,2.34-9.33,4.09-13.32,1.07-2.45-1.77-5.19-3.93-3a122,122,0,0,1-64.32,33.65c-10.41,1.85-23.15,3.19-33.2-.92-9.17-3.75-14.61-12.81-19.8-20.72a2.53,2.53,0,0,0-4.32,0c-5.1,8.65-9.7,18-15.53,26.17-1.87,2.62-4.13,5.31-7.89,3.51-2.19-1-4.19-3.83-5.86-5.54L95.2,181.56a2.53,2.53,0,0,0-4.18,1.1,154.88,154.88,0,0,0-4.15,80.6c.67,3.14,5.49,1.81,4.82-1.33A149.69,149.69,0,0,1,95.85,184l-4.18,1.1c5,5.16,9.87,10.79,15.29,15.54,3.33,2.91,7.32,4.32,11.47,2.18,4.35-2.25,6.81-7.37,9.17-11.36l12-20.42h-4.32c5.4,8.23,11.06,17.36,20.19,21.88,10.33,5.12,23.21,4.27,34.29,2.72,26.5-3.71,51.83-16.7,70.7-35.59l-3.93-3c-2.3,5.28-5.44,11.15-4.65,17.1s6.56,11.44,12.24,12.83c6.23,1.53,14.95.2,20.68-2.59S294,176.64,296.35,171l-4.91-.66q.25,25.67.81,51.33.14,6.42.3,12.83c.07,2.72-.83,7.75.57,10.14,1.14,1.95,3.72,2,5.56,1.27,5.4-2.28,9.05-9.82,11.8-14.56a219,219,0,0,0,11.12-22.07c10.38-23.68,8.95-52.34,7.17-77.54a426.06,426.06,0,0,0-6.21-48.36c-2.35-12.54-5.94-24.7-12.48-35.74-13.54-22.85-37.27-36.13-63.38-38.94-14.48-1.56-28.91,1.12-43.41.63-15.6-.52-30.35-5.4-45.67-7.79C129.74-2.84,100,2,77.16,19.29c-22.32,16.89-31.64,43.15-36,69.89-2.34,14.5-4.58,29.59-4.29,44.3.31,15.54,5.74,29.84,10.67,44.36a143.6,143.6,0,0,1,6,22.69c1.32,7.95,1.93,16,3.34,23.93,2.21,12.4,6.87,24.92,16.81,33.21a30.67,30.67,0,0,0,14.7,6.85c3.15.53,4.5-4.29,1.33-4.82Z"/><polygon class="cls-8" points="73.05 444.01 74.03 461.03 59.83 451.58 4.77 355.5 17.98 347.93 73.05 444.01"/><rect class="cls-6" y="368.78" width="61.13" height="61.13" rx="20" ry="20" transform="translate(429.91 368.78) rotate(90)"/></svg>