<svg id="Layer_1" data-name="Layer 1" xmlns="http://www.w3.org/2000/svg" viewBox="0 0 373.06 1100.04"><defs><style>.cls-1{fill:#b13f60;}.cls-2{fill:#f7ddb9;}.cls-3{fill:#58595b;}.cls-4{fill:#353535;}.cls-5{fill:#404041;}.cls-6{fill:#4f4f4f;}.cls-7{fill:#808083;}.cls-8{fill:#444344;}.cls-9{fill:#231f20;opacity:0.18;}.cls-10{fill:#7a56b9;}.cls-11{fill:#23222d;}.cls-12{fill:#fad2ab;}.cls-13{fill:#c74564;}.cls-14{fill:#ecbe98;}.cls-15{fill:#cfd1d2;}.cls-16{fill:#ffd25e;}.cls-17{fill:#5a4a42;stroke:#c2986b;stroke-miterlimit:10;stroke-width:2px;}.cls-18{fill:#f0f0f1;}.cls-19{fill:#716558;}</style></defs><title>webmocup_v2</title><polygon class="cls-1" points="75.63 414.17 25.34 539.47 67.95 584.01 113.19 494.38 75.63 414.17"/><rect class="cls-2" x="278.2" y="719.97" width="30.18" height="63.76" rx="15.09" ry="15.09"/><path class="cls-1" d="M99.46,642.91,70.11,571.17l-44.77-31.7S8.5,580.31,13.69,595.89s85.77,82.33,85.77,82.33Z"/><polyline class="cls-1" points="293.72 424.89 313.94 724.19 277.9 724.19 251.49 510.05"/><path class="cls-3" d="M372.83,807.82s-1.49,5.39-8.07,5.24Z"/><path class="cls-4" d="M223.13,734.18l143.35,76.18a4.48,4.48,0,0,0,6.58-4V688a4.48,4.48,0,0,0-2.23-3.87L227.47,601a4.48,4.48,0,0,0-6.72,3.87v125.4A4.48,4.48,0,0,0,223.13,734.18Z"/><path class="cls-5" d="M219.25,736.36,362.6,812.54a4.48,4.48,0,0,0,6.58-4V690.18a4.48,4.48,0,0,0-2.23-3.87L223.6,603.14a4.48,4.48,0,0,0-6.72,3.87v125.4A4.48,4.48,0,0,0,219.25,736.36Z"/><polygon class="cls-6" points="264.3 644.51 260.29 739.98 369.18 798.31 369.18 705.39 264.3 644.51"/><polygon class="cls-7" points="264.3 644.51 260.29 739.98 336.41 780.74 336.41 686.43 264.3 644.51"/><polygon class="cls-5" points="346.05 701.67 346.05 707.98 357.3 713.92 357.3 707.76 346.05 701.67"/><polygon class="cls-5" points="346.05 712.63 346.05 718.94 357.3 724.88 357.3 718.72 346.05 712.63"/><polygon class="cls-5" points="346.05 756.79 346.05 763.1 357.3 769.04 357.3 762.88 346.05 756.79"/><polygon class="cls-5" points="346.05 767.54 346.05 773.85 357.3 779.79 357.3 773.63 346.05 767.54"/><path class="cls-5" d="M348.94,754.89a12.29,12.29,0,0,1-4.94-7.64,27.84,27.84,0,0,1-.1-8.81c.32-3,.76-6.18,2.64-8.82a4.32,4.32,0,0,1,1.17-1.19,4.9,4.9,0,0,1,1.77-.62,9.42,9.42,0,0,1,6,.91c2.93,1.58,4.27,4.55,4.84,7.4a21.84,21.84,0,0,1-.81,11.48,12.37,12.37,0,0,1-3.59,5.6c-1.66,1.39-4.73,2.75-7.07,1.83s-4.08-3.41-4.9-5.41a21.9,21.9,0,0,1-1.26-7.21c-.2-3.79-.24-7.66,1.08-11.29a7.41,7.41,0,0,1,4-4.64,8.75,8.75,0,0,1,7.23.86,10.35,10.35,0,0,1,4.28,4.43,13.17,13.17,0,0,1,1,3.17,29.78,29.78,0,0,1,0,11.58,12,12,0,0,1-3.17,6.57,8.11,8.11,0,0,1-7.77,1.95"/><path class="cls-8" d="M350.19,746a4.61,4.61,0,0,1-1.85-2.86,10.44,10.44,0,0,1,0-3.3,6.69,6.69,0,0,1,1-3.3,1.62,1.62,0,0,1,.44-.45,1.84,1.84,0,0,1,.66-.23,3.53,3.53,0,0,1,2.23.34,3.84,3.84,0,0,1,1.81,2.78,8.19,8.19,0,0,1-.3,4.3,4.64,4.64,0,0,1-1.35,2.1,2.94,2.94,0,0,1-2.65.69,3.63,3.63,0,0,1-1.84-2,8.21,8.21,0,0,1-.47-2.7,10.63,10.63,0,0,1,.4-4.23,2.78,2.78,0,0,1,1.5-1.74,3.28,3.28,0,0,1,2.71.32,3.88,3.88,0,0,1,1.6,1.66,4.93,4.93,0,0,1,.36,1.19,11.16,11.16,0,0,1,0,4.34,4.48,4.48,0,0,1-1.19,2.46,3,3,0,0,1-2.91.73"/><polyline class="cls-9" points="269.41 582.04 268.36 762.91 253.57 753.4"/><polygon class="cls-10" points="99.46 672.17 130.25 1065.42 165.37 1065.42 182.79 791.35 205.37 1065.42 238.97 1065.42 264.3 672.17 99.46 672.17"/><rect class="cls-11" x="99.46" y="1058.55" width="71.65" height="41.5" rx="18.57" ry="18.57"/><rect class="cls-11" x="200.5" y="1058.55" width="71.65" height="41.5" rx="18.57" ry="18.57"/><rect class="cls-12" x="265.97" y="767.11" width="42.41" height="16.61" rx="8.31" ry="8.31" transform="translate(339.41 -49.82) rotate(23.94)"/><path class="cls-13" d="M264.3,672.17H99.46L71.72,430.85a37.91,37.91,0,0,1,37.8-37.8H256.07a37.91,37.91,0,0,1,37.8,37.8Z"/><path class="cls-14" d="M218.22,319.76v69.72a35.42,35.42,0,0,1-70.84,0V319.76a35.42,35.42,0,0,1,70.84,0Z"/><path class="cls-12" d="M294.25,178.24V294.91c0,43.79-32.18,66.92-76.56,82.1,0,0-20.77,5.66-34.89,5.66-14.72,0-35.22-5.47-35.22-5.47-45.71-13.28-76.24-39.28-76.24-82.93V178A79.59,79.59,0,0,1,150.7,98.63h64.19C258.54,98.63,294.25,134.45,294.25,178.24Z"/><polyline class="cls-15" points="88.95 614.23 90.66 614.48 124.29 653.7 119.31 708.22 117.5 712.75"/><polyline class="cls-16" points="66.38 669.13 46.42 595.02 64.87 589.66 101.52 737.12"/><line class="cls-17" x1="67.15" y1="676.18" x2="72.86" y2="674.65"/><line class="cls-17" x1="49.26" y1="605.56" x2="54.97" y2="604.02"/><line class="cls-17" x1="52.93" y1="619.34" x2="58.64" y2="617.8"/><line class="cls-17" x1="56.64" y1="633.1" x2="62.36" y2="631.57"/><line class="cls-17" x1="60.44" y1="646.96" x2="66.15" y2="645.42"/><line class="cls-17" x1="64.15" y1="660.72" x2="69.86" y2="659.19"/><polygon class="cls-18" points="122.31 653.7 114.09 754.78 80.73 715.32 88.95 614.23 122.31 653.7"/><polyline class="cls-18" points="113.3 652.31 79.94 612.84 88.95 614.23 113.3 652.31"/><polygon class="cls-15" points="113.3 652.31 105.08 753.4 71.72 713.93 79.94 612.84 113.3 652.31"/><rect class="cls-19" x="53.65" y="710.19" width="71.07" height="7.23" transform="translate(-624.62 803) rotate(-90)"/><path class="cls-11" d="M105.08,744h19s6.37,127.2-8.9,129.17S77,869,69.27,822.2s-2.89-153.07-2.89-153.07Z"/><path class="cls-5" d="M85.57,678.27s-6.66-11.72,3.61-23.54c0,0,11.76,14.08,3.61,23.54C92.8,678.27,90.42,681.27,85.57,678.27Z"/><polygon class="cls-15" points="81.36 613.06 115.14 652.59 108.23 736.09 108.88 734.45 115.94 652.71 82.24 613.2 81.36 613.06"/><polygon class="cls-15" points="84.23 613.51 118.02 653.03 111.1 736.54 111.75 734.9 118.81 653.16 85.11 613.64 84.23 613.51"/><polygon class="cls-15" points="86.63 613.86 120.42 653.38 113.5 736.89 114.16 735.25 121.22 653.51 87.51 613.99 86.63 613.86"/><path class="cls-11" d="M244.57,393,105.08,744l3.11,39.72L264.3,394S261.18,391.32,244.57,393Z"/><polygon class="cls-15" points="80.8 613.86 89.75 615.12 88.95 614.23 79.94 612.84 80.8 613.86"/><path class="cls-11" d="M240.07,161.55c-21.43,53.52-80.27,89.46-137.66,84.1-6-.56-13.16-1.09-16.94,3.62-2.81,3.51-2.46,8.49-2.21,13,1.11,20.19-3.48,40.31-3.57,60.61-12.8,2.72-26.18-5.06-33.14-16.14S38,282,38.56,268.9c.19-4.8.64-9.71-.64-14.34-1.35-4.87-4.49-9-7.56-13L12.9,218.67c-5.4-7.07-11-14.51-12.48-23.27-2.29-13.31,5.24-26.18,13-37.23,10.56-15,28.56-29.25,36-45.75,7.76-17.22,8.28-35.17,19-51.92C87.86,30.24,120.18,7.94,155.75,1.85c55.11-9.44,113.52,18,145.56,63.86,6.54,9.35,12.15,19.45,20.09,27.64s18.17,14.39,24.89,23.7c10.85,15,10.61,35.26,8,53.6-5.43,37.82-19,73.91-32.56,109.65-5.5,14.53-13.22,31.08-28.4,34.38L286,246.77c-2.36-21.89-5.71-45.83-22-60.65-9.26-8.43-22-13.12-29.11-23.46"/></svg>