<?xml version="1.0" encoding="utf-8"?>
<!-- Generator: Adobe Illustrator 20.0.0, SVG Export Plug-In . SVG Version: 6.00 Build 0)  -->
<svg version="1.1" id="Layer_1" xmlns="http://www.w3.org/2000/svg" xmlns:xlink="http://www.w3.org/1999/xlink" x="0px" y="0px"
	 viewBox="0 0 555.9 392.6" style="enable-background:new 0 0 555.9 392.6;" xml:space="preserve">
<style type="text/css">
	.st0{fill:#FFFFFF;}
	.st1{fill:#323333;}
	.st2{fill:#676767;}
	.st3{fill:none;stroke:#7A56B9;stroke-width:18;stroke-miterlimit:10;}
	.st4{fill:#7A56B9;}
</style>
<title>webmocup_v2</title>
<path class="st0" d="M19,0h517.8c10.5,0,19,8.5,19,19v354.5c0,10.5-8.5,19-19,19H19c-10.5,0-19-8.5-19-19V19C0,8.5,8.5,0,19,0z"/>
<rect x="54" y="19.5" class="st1" width="448" height="349.2"/>
<circle class="st2" cx="529.8" cy="219.2" r="12.5"/>
<circle class="st3" cx="278" cy="144.1" r="62.6"/>
<rect x="162.6" y="269.1" class="st4" width="230.7" height="59.1"/>
<path class="st1" d="M30.1,151.3h0.2c1.1,0,2.1,0.9,2.1,2.1v58.4c0,1.1-0.9,2.1-2.1,2.1h-0.2c-1.1,0-2.1-0.9-2.1-2.1v-58.4
	C28,152.2,29,151.3,30.1,151.3z"/>
<circle class="st1" cx="30.2" cy="238.8" r="6.2"/>
</svg>
