<svg id="Layer_1" data-name="Layer 1" xmlns="http://www.w3.org/2000/svg" viewBox="0 0 623.17 523.77"><defs><style>.cls-1{fill:#2d2d2c;}.cls-2{fill:#c4c3c3;}.cls-3{fill:#d3d2d1;}.cls-4{fill:#ece9e5;}.cls-5{fill:#fff;}.cls-6,.cls-8{fill:none;stroke:#161616;}.cls-12,.cls-6,.cls-8{stroke-miterlimit:10;}.cls-6{stroke-width:0.75px;}.cls-7{fill:#221f1f;}.cls-8{stroke-width:0.5px;}.cls-9{fill:#ffd25e;}.cls-10{fill:#f3d39d;}.cls-11{fill:#333;}.cls-12{fill:#7a56b9;stroke:#58595b;stroke-width:3px;}</style></defs><title>webmocup_v2</title><path class="cls-1" d="M7.29,73.95h264a0,0,0,0,1,0,0V522.24a0,0,0,0,1,0,0H7.29a6.42,6.42,0,0,1-6.42-6.42V80.36a6.42,6.42,0,0,1,6.42-6.42Z" transform="translate(1.2 -0.55) rotate(0.23)"/><path class="cls-1" d="M261.48,75h264a0,0,0,0,1,0,0V523.26a0,0,0,0,1,0,0h-264a6.42,6.42,0,0,1-6.42-6.42V81.39A6.42,6.42,0,0,1,261.48,75Z" transform="translate(779.32 599.79) rotate(-179.77)"/><path class="cls-2" d="M283.14,104.11H512a0,0,0,0,1,0,0v390a0,0,0,0,1,0,0H283.14a6.42,6.42,0,0,1-6.42-6.42V110.53a6.42,6.42,0,0,1,6.42-6.42Z" transform="translate(787.5 599.85) rotate(-179.77)"/><path class="cls-3" d="M279.13,104.1H508a0,0,0,0,1,0,0v390a0,0,0,0,1,0,0H279.13a6.42,6.42,0,0,1-6.42-6.42V110.51a6.42,6.42,0,0,1,6.42-6.42Z" transform="matrix(-1, 0, 0, -1, 779.47, 599.8)"/><path class="cls-4" d="M272.45,104.07H501.29a0,0,0,0,1,0,0v390a0,0,0,0,1,0,0H272.45a6.42,6.42,0,0,1-6.42-6.42V110.49a6.42,6.42,0,0,1,6.42-6.42Z" transform="translate(766.11 599.72) rotate(-179.77)"/><path class="cls-2" d="M22.9,103.06H251.74a0,0,0,0,1,0,0v390a0,0,0,0,1,0,0H22.9a6.42,6.42,0,0,1-6.42-6.42V109.48a6.42,6.42,0,0,1,6.42-6.42Z" transform="translate(1.2 -0.54) rotate(0.23)"/><path class="cls-3" d="M26.91,103.08H255.75a0,0,0,0,1,0,0v390a0,0,0,0,1,0,0H26.91a6.42,6.42,0,0,1-6.42-6.42V109.49a6.42,6.42,0,0,1,6.42-6.42Z" transform="matrix(1, 0, 0, 1, 1.2, -0.55)"/><path class="cls-4" d="M33.59,103.1H262.43a0,0,0,0,1,0,0v390a0,0,0,0,1,0,0H33.59a6.42,6.42,0,0,1-6.42-6.42V109.52a6.42,6.42,0,0,1,6.42-6.42Z" transform="translate(1.2 -0.58) rotate(0.23)"/><path class="cls-5" d="M263.81,104H492.66a0,0,0,0,1,0,0v390a0,0,0,0,1,0,0H263.81a6.42,6.42,0,0,1-6.42-6.42V110.45A6.42,6.42,0,0,1,263.81,104Z" transform="translate(748.85 599.61) rotate(-179.77)"/><path class="cls-5" d="M37.65,103.12H266.49a0,0,0,0,1,0,0v390a0,0,0,0,1,0,0H37.65a6.42,6.42,0,0,1-6.42-6.42V109.54A6.42,6.42,0,0,1,37.65,103.12Z" transform="translate(1.2 -0.6) rotate(0.23)"/><rect class="cls-6" x="297.2" y="283.77" width="44.67" height="30.12" transform="translate(1.21 -1.28) rotate(0.23)"/><line class="cls-6" x1="297.27" y1="283.68" x2="341.81" y2="313.98"/><line class="cls-6" x1="341.93" y1="283.86" x2="297.14" y2="313.8"/><rect class="cls-6" x="358.66" y="284.02" width="44.67" height="30.12" transform="translate(1.21 -1.53) rotate(0.23)"/><line class="cls-6" x1="358.72" y1="283.93" x2="403.26" y2="314.23"/><line class="cls-6" x1="403.38" y1="284.11" x2="358.6" y2="314.05"/><rect class="cls-6" x="420.11" y="284.26" width="44.67" height="30.12" transform="translate(1.21 -1.78) rotate(0.23)"/><line class="cls-6" x1="420.17" y1="284.17" x2="464.71" y2="314.48"/><line class="cls-6" x1="464.84" y1="284.35" x2="420.05" y2="314.3"/><rect class="cls-6" x="299.78" y="153.77" width="163.16" height="108.23" transform="translate(0.84 -1.53) rotate(0.23)"/><line class="cls-6" x1="300" y1="153.44" x2="462.72" y2="262.32"/><line class="cls-6" x1="463.15" y1="154.09" x2="299.56" y2="261.66"/><line class="cls-6" x1="297.04" y1="339.39" x2="464.61" y2="340.06"/><line class="cls-6" x1="297" y1="349.98" x2="464.57" y2="350.66"/><line class="cls-6" x1="296.96" y1="360.52" x2="464.53" y2="361.2"/><line class="cls-6" x1="296.91" y1="371.08" x2="464.48" y2="371.76"/><line class="cls-6" x1="296.87" y1="381.67" x2="464.44" y2="382.35"/><line class="cls-6" x1="296.83" y1="392.22" x2="464.4" y2="392.89"/><line class="cls-6" x1="296.78" y1="403.73" x2="464.35" y2="404.41"/><line class="cls-6" x1="296.74" y1="414.33" x2="464.31" y2="415"/><line class="cls-6" x1="296.7" y1="424.87" x2="464.27" y2="425.54"/><path class="cls-7" d="M95.56,318.06c-1,1.42-5.22,4-9.35,4.88-2.3.52-9,1.82-13.44-1a21.36,21.36,0,0,1-9-12.41c-1.26-5.51-.22-9.2,2.26-14.26s9.62-10.21,9.62-10.21l4.84,2.43,5.12,6.62a33.73,33.73,0,0,0-6.26,3.59c-2.56,2.1-5,3.37-5.39,6.71-.36,2.94-1.24,4.13,3,9.62,2.37,3.06,7.2,1,9.71-2a11.88,11.88,0,0,0,1.84-4.33l3.74-2.56L98,309.35S97.31,315.75,95.56,318.06ZM75.7,286.76s-4.95,3.72-7.17,6.9c-2.52,3.67-4.06,6.21-4.19,10.72s1.39,7.21,3.9,11c3.27,4.81,6.73,6.18,6.73,6.18s-4-4-5.45-7.14c-1.9-4.23-2.61-7.2-1.63-11.72a17.39,17.39,0,0,1,3.33-7c2.4-3.47,8.13-7.14,8.13-7.14Zm17.93,24.38a19.35,19.35,0,0,1-3.74,3.79,10.67,10.67,0,0,1-6.56,2.19,9.82,9.82,0,0,1-7.95-3.23c-2.36-2.58-2.94-7.05-2.77-8.58.4-3.52,1.9-5.66,4.71-7.75a50.06,50.06,0,0,1,6.48-3.92l-3.24-4s-5.66,3-8.15,6.17c-2.14,2.75-3.32,4.62-3.86,8.11-.57,3.94.19,6.51,2,10.1,1.77,3.27,3.17,5.42,6.53,7s5.82,1.3,9.37.52c3.39-.74,5.73-1.4,7.85-4.07,1.8-2.23,2.48-6.84,2.48-6.84Zm-4.22-2a17.74,17.74,0,0,1-2.31,3.9A19.11,19.11,0,0,1,83,316.12s2.67.41,6-1.94a22,22,0,0,0,3.48-3.44Zm2.94-2.84L90,307.78,93.85,310l3.1-.79Z"/><path class="cls-7" d="M123.11,300.89l-6.68-.07-6-7.26-2,1.14a90.45,90.45,0,0,1,1.87,12.85c.08.5.31,1.14.44,1.61l-4.92,1.31-5.66-1.9a120,120,0,0,0-3.24-15.71c-.62-2.18-1.57-4.38-2.1-6.62a114.64,114.64,0,0,1-1.54-13.38l5-.2c1.66.94,3.69,1.89,5.25,3l3.14,2.74c1.88,1.66,3.81,3.29,5.73,4.93,5.29,4.53,9.61,8,14.2,13.29Zm-28.87-27c.32,2.37.57,4.73.82,7.09l.33,3.72c.56,2.64,1.89,5.34,2.64,8,1.28,4.88,2.08,9.89,2.89,14.89l4.33,1.54c-1-5.71-2.24-11.45-3.74-17-.46-1.84-1.12-3.69-1.61-5.58-1-4-1.65-8.27-2.35-12.36ZM111,283.5c-1.9-1.59-3.91-3.54-5.92-4.93-1.79-1.23-3.87-2.82-5.76-3.93l.2,2.57.67,4,.76,4.18c.58,3.25,1.87,6.34,2.64,9.52,1.16,4.59,2.09,9.33,3,14l2.92-.43c-.51-3.79-1-10.32-2.6-13.79l2.52-2.07c.71-1.08,2.23-1.58,3.3-2.21,1.74,1.63,2.33,2,4,3.44.75.68,1.32,1.65,2.07,2.33,1.12,1.05,2.41,2,3.58,2.95l2.41-2.8A125,125,0,0,0,111,283.5Zm-.58,4.68-2.22,2.06-1.72.2a33.1,33.1,0,0,1-3-6.51,7.26,7.26,0,0,1,3.3-1.17c.41.72.76,1.54,1.18,2.18.06.09,1.77,1.68,1.92,1.82Zm-4.2-4.08-1.37.34,2.38,5,1.94-1.26Zm6.68,7.69L111.19,293c1.61,1.35,2.42,3,3.55,4.69a19.36,19.36,0,0,0,2,2.18c1.66-.1,3.27-.17,4.89-.24A97.42,97.42,0,0,1,112.86,291.78Z"/><path class="cls-7" d="M133.76,262.05l-3.31,2.46,5.56,8.05,4.66,7.9,3.47,5.79-5.08,3.8-5.67.07-7.19-10.55-6.46-8.87-4.79,2.45-5.64.12-3.88-7,4.21-3.05,6.69-4.06,6.76-4.9,5.48-2.9,5.35,1.42,4,5.86Zm-22.46,6-4.51-1.18,3,5.31,4.1-.21Zm16.81-15.58-6.91,4.2L115.05,261l-7.6,4.65,4.07,1,5.79-3.65,6.38-4,8.49-5.35Zm5.41,1.69-6,3.83-7.2,4.51-7.8,5.09,2.34,3.88,4-1.91,5-3.15,5,8,4.86,7.46,4.76,6.73,4.08-2.78L138,277.94l-4.5-6.9-4.59-7.33,3.15-2.24,4.07-3.27Zm-2.61,25.67L127.08,274l-3.81-5.38-2.37,1.36c3.08,4.44,8,11.32,7.91,11.37s3.19,4.61,5.25,7.58l2.67-.15Z"/><path class="cls-7" d="M87.21,162l-2.86,4.79-2.28-1.09-.84-2.9,1.89-2.68-1.66-.8-2.22,4-2.43-1.47-1-2.25,1.84-3.28-2-1.14S74.43,153,74.46,153s1.65-2.27,1.65-2.27l3.5,2.32.78-1.63-2.08-1.34-.62-2.49,2.11-2.5L83,146.79l3.33-5.36,2.78.35,1.06,2.66-2.86,4.3,1.06.24,2.77-4.27,2.74,0,.2,2.74-1.86,3.87,1.83,1.07,0,2.33L93,156.9l-2.07-1.11-1.46,1.95,2.41,1,0,2.52-1.16,2.42ZM75.9,151.69,75,153.16l.69,1.24.85-1.22Zm3.28-5.34-1.06,1.27.44,1.76,1.07-1.6Zm.42,7.16-3.2-2,.45,1.35,3,1.72Zm3.21-6.21-2.92-1.4.25,1.93,3,1.53Zm8.23,14-3.15-1.78,1-2.33L90.51,155l2.3,1,.46-1.1-2.78-1.52,1.16-2.5,1.7-3.38-1.64-.37L90.08,150l-1.35,2.19-3-1.76,1.9-3,1.66-2.6-1.8-.49-1.88,3.37-1.61,3-4.17-2.34-.72,1.51,1.81,1,2,1-1,2.17-1.13,1.73-3.86-2.34-.76,1.34,1.8,1,2,1.44-1.17,2-1.4,2.35,1.68.84.95-1.74,1.32-2.43,4.27,2.2-1.15,2.32-1.6,2.41,1.67.69,2.33-4.7,3.64,1.63Zm-12.89-4.72-1.51,3,.35,1.08,1.91-3.43Zm2.69-4.9L80,153.43l.37,1.42,1.58-2.57Zm5.55-9.51-3,5.16.28,2.1L87,144Zm2.41-.05-2-.07.33,1.52,2.32.43Zm-2.39,16.47-3.45-2,2-3.65,3.37,2Zm1.81-8.73-1.14-.55-.55.91,1.9,1ZM85,156.42l-1-.58-.4.76,1.68.84Zm0-2.52-.77,1.6.81.35,1-1.46Zm-1.56,6.4-1.75,2.79.5,1.79,2.37-4Zm7.73-14.85-2.6,4,.39,1.32,2.33-4Zm-4.59,9.33-1.06,1.72.42,1.41,1.53-2.63Zm6.76-9.68-1.66.3.11,1.26,1.68.35Zm.23,7.56L91.87,152l-.52,1.08,2.18,1.2Zm-2.47,6.71L89,158.49l-.34,1,2.51,1.24Z"/><path class="cls-7" d="M102.67,175.57l-1.09-1.66a7.63,7.63,0,0,1-4.45-.58c-4-1.9-5.13-6.24-3.28-10.08,2.06-4.3,6.44-7.45,11.21-5.16a11.75,11.75,0,0,1,3.29,2.75l1.16-1.56,2.77,1.48,0,3.11c-1,2-2,3.9-2.89,5.87-1.18,2.46-2.24,5-3.36,7.46Zm5.13-14.32a7.27,7.27,0,0,0-7.51-2.78,7.62,7.62,0,0,0-5,3.44,9.58,9.58,0,0,0-1.73,5.74A20.43,20.43,0,0,1,97,162.19a7.65,7.65,0,0,1,6.55-2.3c1.62.09,4.41,3.25,4.41,3.25Zm3.49,2.73-1.4-.71-1.39,2s-1.64-3.36-3.63-4.24a5.72,5.72,0,0,0-5.64.24,11.11,11.11,0,0,0-4.7,5.54c-1.45,3.65.87,4.65,3.14,5.89,1.91,1.07,5.55.24,5.55.24l.52.33-.67,1.56,2.43,1.24,3.27-6.52Zm-12.81,7.39c-1.66-.8-2.84-2.12-1.34-5.71.73-1.77,1.52-2.22,3.09-3.13,2.2-1.29,5,.8,5,.8l.67,1.91-1.24,2.88-1.59,3.32S99.41,171.82,98.48,171.38Zm2.22-8.09a4.55,4.55,0,0,0-3,2.7c-.63,1.32-.87,3.63.53,3.7a4.3,4.3,0,0,0,1.66-.15,4.8,4.8,0,0,0,1.77-1l2.59-5A3.78,3.78,0,0,0,100.7,163.29Zm.72,6.13-1.41.8c-.51.28-2.33.05-1.81.23a5.87,5.87,0,0,0,1.92.65,10.67,10.67,0,0,0,1.74-.07Zm3.24-5.4-1.36,2.52L102,169l.44,1.91,2.74-5.64Zm-1.49,9.56-1,.32.53.71Zm6.26-13.44-1,1.4.17,2.72.87-1.74Zm2.36.91-1.75-.84.07,2.3,1.48.78Z"/><path class="cls-7" d="M124.08,175.57l-6.27-3.08-1.14,2.13-.09,1.21.3,1.35a5.52,5.52,0,0,0,3.65,1.37,5.29,5.29,0,0,0,3.83-1.22l2.62,1.56v2.58c-1.66.79-2.43,1.74-4.22,2a8.22,8.22,0,0,1-5.48-1.19,9.06,9.06,0,0,1-4.81-5.48c-.91-2.59-1.1-4.57.18-7a7.55,7.55,0,0,1,5.51-4,9.72,9.72,0,0,1,5-.26,10.94,10.94,0,0,1,5.65,2.48c1.14,1,1.22.93,2,4.16a7.34,7.34,0,0,1-1,5.72Zm4.49-6.84a10.05,10.05,0,0,0-5.41-2.44c-2.54-.39-4.23-.33-6.47,1a7.09,7.09,0,0,0-3.73,4.15,6.55,6.55,0,0,0,.19,5.42c.23-2-.37-3.24.67-5.09a8,8,0,0,1,3.89-3.61,7.12,7.12,0,0,1,6.14-.27,16.11,16.11,0,0,1,5.65,3.43Zm-.62,2c-3.28-2.14-3.08-2.08-5.18-2.6a7.53,7.53,0,0,0-8.22,10.53,7,7,0,0,0,3.77,3.32,6.54,6.54,0,0,0,4.14.74c1.35-.14,2-.71,3.26-1.2l-1.51-1a5.21,5.21,0,0,1-5.76,0,5.09,5.09,0,0,1-2.65-4.07c-.3-2.07.83-3,1.75-4.91l5.56,2.67,6.32,2.58C130.54,174.32,130,172,127.95,170.74Zm-5.41,1.9L119,170.81a4.93,4.93,0,0,1,5.28-.53,4.87,4.87,0,0,1,2.52,4.12Zm1.58-.45-3.19-1.69h-.57l-.21.28,2.69,1.4,1.72.83Zm-.11,6.14a5.55,5.55,0,0,1-3.28,1c-1.35.07-2.08-.47-3.44-.78a4.9,4.9,0,0,0,3,1.84c1.41.3,2.25-.28,3.65-.44Zm.51-7.12a6.29,6.29,0,0,0-1.44-.77,5.5,5.5,0,0,0-1.25-.15l2.64,1.27Zm1.43,1.44-.72-.87-.37.54.23.86,1.23.59Zm.63,6.72L124.64,178l.16,2.19,1.72.83Z"/><path class="cls-7" d="M135.53,191.91c-1.63-.78-4.64-4.68-5.56-6.3l-.07-3.47,3.24-1.09c1.28,2.61,1.65,4.19,4.26,5.45a4.52,4.52,0,0,0,2.57.4c-.47-1.06-1.69-2-2.47-2.88-2.19-2.45-1.64-4-.29-6.79,2.24-4.67,5.4-2.81,9.06-1.47l.16,4.23-3,2.84c-.52-.89-.71-1.81-1.73-2.3-.77-.37-1.87-.82-2.36.19-.62,1.29,5.46,4.77,3.38,9.1C141.5,192.39,138,193.08,135.53,191.91Zm-3.08-10.13-1.92.78,0,2.54,2.12-1.74Zm7.45,6a5.23,5.23,0,0,1-3-.59c-2.46-1.18-2.75-3.25-3.91-5.39,0,.7,0,1.42.12,2.1.1,1.22,2.25,4.52,3.36,5.05.7.34,2.76.8,3.2-.13A2.76,2.76,0,0,0,139.9,187.77Zm-1.2-7a2.45,2.45,0,0,1,3.14-1.11c.92.44,1.29,1.49,1.81,2.31l1.87-2.09a7,7,0,0,0-2.3-2.23,4.59,4.59,0,0,0-6.08,2c-1.58,3.29,1,3.44,2.38,5.6.58.92,1.62,2.45,1.09,3.55-.65,1.35-2.7,1.69-3.93,1.1-1.72-.83-3.49-3.75-4.2-5.49l-1.33,1.52a11.25,11.25,0,0,0,4.92,5.34c2,1,4.68,1,5.76-1.28C144.21,184.93,137.81,182.58,138.7,180.73Zm7-4.58a12.8,12.8,0,0,0-4.44-1.38c-2-.15-2.92,1.59-4.25,4,1.46-1.08,2.24-2.93,5.78-2a8.23,8.23,0,0,1,3,2.3Z"/><path class="cls-7" d="M155,200.15l-3.3-1.17c-1.21-.7-2.24-.85-3.06-2-.94-1.28-1.58-2.46-.9-3.95a50.72,50.72,0,0,1,3.56-7l-1.82-1.17-.87-3.22,1.63-2.13,4.22,1.84,3-4.73,3.13,1.35.3,2.83-1.4,2.92,1.3,1.23.17,2.31-1.18,2.46-2.87-1.11-2.24,4.67.58.28,1.25,3.7Zm-4.79-19.72-.94,1.25.7,2.57.87-1.43Zm3.83,1.39-3.24-1.44.51,2.09,3.23,1.78Zm1.56,15.57c-.59-.43-2.05-.68-2.59-1.54s.46-1.59.71-2.49l2.92-5.45,2.77,1.07.63-1.7-2.25-1.38,2.1-4.62-1.75-.84-2.5,4.89v0l-2.15-1-2.22-1.21-.87,1.58,3.52,1.88-2.33,4.63a35.5,35.5,0,0,0-1.42,3.51c-.57,1.43-1,2.24,1,3.08a14.69,14.69,0,0,0,3.65,1.45Zm-5.46-4.47c.92-2.32,1.86-3.79,2.92-5.93l-1.2-.65-2.62,5.06a6.32,6.32,0,0,0-.88,2.07,3.48,3.48,0,0,0,.63,3A20.77,20.77,0,0,1,150.14,192.91Zm7-15-2.48,4.14.53,2.44L157.6,180Zm3,.29-2.3-.88.49,2.35,2,1Zm-5,16.09-.74-.43c-.37.46-1.13,1.5-.5,1.91.85.52,1,.49,2,1Zm5.22-9.14-1.18-.94-.57,1.43,1.74.95Z"/><path class="cls-7" d="M167.66,207l-2.43-3.05c.62-1.21,1.15-1.38,1.51-2.68a5.24,5.24,0,0,0,.06-3.67c-1.43.22-2,1.55-2.83,2.91a10.11,10.11,0,0,0-1.66,3.7l-3.47-1.67-1.56-3.28,3.31-6.2,3.09-6,4.58-8.12,3.46.9.71,2.53-4.68,9.28c1.65-.84,3.11.21,4.61,1.34,2.21,1.63,1.87,4.37,1,6.83-1.07,2.93-2,4.25-3.39,7.45Zm.47-26.65-2.47,4.52-2.55,4.6-2.52,5.25-2.5,4.58,1,2.35,2.73-6.33,3-5.95,4-7.29Zm3.23,0-2.57-.71.52,2,2.38.62ZM173,199a4.52,4.52,0,0,0-2.31-3.86c-1.75-1.3-3-.24-5.19-.45l2.15-4.41,2-4,1.76-3.43-2.08-.54-2.75,5-2.45,4.87-2.68,5.59-1.78,4.33,2.12,1.09,1.77-3.53c.9-1.72,2.57-3.38,4.51-2.64s2.44,2.87,1.72,4.76l-1.68,4.6,1.41.22Zm-1.91-6.1a4.58,4.58,0,0,0-3.5-.58L166.6,194a4.72,4.72,0,0,1,3.29-.08,5.59,5.59,0,0,1,3.34,3A4.27,4.27,0,0,0,171,192.89ZM169,202c.67-2.89.18-3.2-1.28-4.09.67.25.06,2.15-.22,3.37s-.83,1.49-1.34,2.72l1.14,1.8A14.64,14.64,0,0,0,169,202Z"/><path class="cls-7" d="M187.74,206.12,181.46,203l-1.14,2.14-.09,1.21.3,1.35a5.51,5.51,0,0,0,3.65,1.37,5.3,5.3,0,0,0,3.83-1.22l2.62,1.56V212c-1.66.79-2.43,1.74-4.22,2a8.22,8.22,0,0,1-5.48-1.19,9.07,9.07,0,0,1-4.81-5.48c-.91-2.59-1.1-4.57.18-7a7.55,7.55,0,0,1,5.51-4,9.7,9.7,0,0,1,5-.26,10.94,10.94,0,0,1,5.65,2.48c1.14,1,1.22.93,2,4.16a7.31,7.31,0,0,1-1,5.72Zm4.49-6.84a10,10,0,0,0-5.41-2.44c-2.54-.39-4.23-.33-6.48,1a7.11,7.11,0,0,0-3.73,4.15,6.55,6.55,0,0,0,.2,5.42c.23-2-.37-3.24.66-5.09a8,8,0,0,1,3.89-3.61,7.11,7.11,0,0,1,6.14-.27,16.11,16.11,0,0,1,5.65,3.43Zm-.62,2c-3.28-2.14-3.08-2.08-5.18-2.6a7.53,7.53,0,0,0-8.23,10.53,7,7,0,0,0,3.77,3.32,6.54,6.54,0,0,0,4.14.74c1.35-.14,2-.72,3.26-1.19l-1.51-1a5.21,5.21,0,0,1-5.76,0,5.09,5.09,0,0,1-2.65-4.07c-.3-2.07.83-3,1.75-4.91l5.56,2.67,6.32,2.58C194.19,204.87,193.62,202.59,191.6,201.28Zm-5.41,1.9-3.58-1.83a4.93,4.93,0,0,1,5.28-.53,4.87,4.87,0,0,1,2.52,4.12Zm1.58-.45L184.58,201H184l-.21.28,2.69,1.41,1.72.83Zm-.11,6.14a5.56,5.56,0,0,1-3.28,1c-1.36.07-2.08-.47-3.44-.79a4.9,4.9,0,0,0,3,1.84c1.41.3,2.25-.28,3.65-.44Zm.51-7.12a6.28,6.28,0,0,0-1.44-.77,5.5,5.5,0,0,0-1.25-.15l2.64,1.27Zm1.43,1.44-.72-.87-.37.54.23.87,1.23.59Zm.63,6.72-1.93-1.34.16,2.19,1.72.83Z"/><path class="cls-7" d="M203.27,223.32,200,222.15c-1.21-.7-2.24-.85-3.07-2-.93-1.28-1.58-2.46-.9-3.95a50.72,50.72,0,0,1,3.56-7L197.75,208l-.87-3.22,1.63-2.13,4.22,1.84,3-4.73,3.13,1.35.3,2.83-1.4,2.92,1.3,1.23.18,2.31L208,212.91l-2.87-1.11-2.24,4.67.58.28,1.25,3.7Zm-4.79-19.72-.94,1.25.7,2.57.87-1.43Zm3.83,1.39-3.24-1.44.51,2.09,3.23,1.78Zm1.56,15.57c-.59-.43-2.05-.68-2.59-1.54s.46-1.59.7-2.49l2.92-5.45,2.78,1.07.63-1.7-2.25-1.38,2.1-4.62-1.75-.84-2.5,4.89v0l-2.15-1-2.21-1.21-.87,1.58,3.52,1.88-2.33,4.63a33.84,33.84,0,0,0-1.42,3.51c-.57,1.43-1,2.24,1,3.08a14.65,14.65,0,0,0,3.65,1.45Zm-5.45-4.47c.92-2.32,1.86-3.8,2.92-5.93l-1.2-.65-2.62,5.06a6.17,6.17,0,0,0-.88,2.07,3.47,3.47,0,0,0,.63,3A19.89,19.89,0,0,1,198.43,216.08Zm7-15-2.48,4.14.53,2.44,2.44-4.53Zm3,.29-2.3-.88.5,2.35,2,1Zm-5,16.09-.74-.43c-.37.46-1.13,1.5-.5,1.91.85.52,1,.49,2,1Zm5.22-9.14-1.18-.94-.57,1.43,1.74.95Z"/><path class="cls-7" d="M215.92,207.55l-1-2.19c0-.81.2-1.6,1-2a1.63,1.63,0,0,1,2,.71l1.27,2.16a1.8,1.8,0,0,1-.61,2.77C217.51,209.59,216.31,208.64,215.92,207.55Zm-7.62,18.72-.89-4.28,5.74-12.67,4,1.35.41,2.69-6.72,14Zm8.84-21.88a.77.77,0,0,0-.92-.36.9.9,0,0,0-.61,1.18l.68,1.34a1.44,1.44,0,0,1,.57-.64,2.28,2.28,0,0,1,.86-.3Zm-3.92,6.44L211,215.64,208.19,222l.45,2.6,3.54-7.37,2.17-4.29Zm3.39.26-2.94-1,1.09,2.22,2.07.65Zm2-4.19c-.45-.4-1.12-.58-1.48-.14a.94.94,0,0,0,0,1.3,1,1,0,0,0,1.31.25A1,1,0,0,0,218.58,206.89Zm-4.94,13,3-6-1.75-.61L211.45,220,209,225.8l1.57.75Z"/><path class="cls-7" d="M232.2,226.39c-.25-.12-2-1.23-3.26-1.79l-1.89-.79a19.34,19.34,0,0,1-2-.49c-2.64-1-3.44,1.18-3.46,1.21a17.82,17.82,0,0,0,2.49,2.29,4.43,4.43,0,0,0,1.32.86c.39.15.81.28,1.84.66s2.5.86,2.73.93l0,2.7-1.81,2.76a18,18,0,0,1-5.88-1.76c-2.43-1.47-3.89-2.92-4.66-5.64a7.42,7.42,0,0,1,.57-6.46c1.89-3.55,4.28-4.82,8.28-4.34,3.7.41,7.37,3.61,7.59,3.79l.66,3.19Zm1.14-6a21,21,0,0,0-4.72-2.61,10.07,10.07,0,0,0-6.11-.18c-2.91.79-4.51,5.55-4.51,5.55s2.56-4.07,5.49-4.43a10.34,10.34,0,0,1,5.52.87,23.64,23.64,0,0,1,4.68,2.78Zm-3.81.21c-1.93-.85-3.33-1.49-5.49-1.08-2.48.43-4.21,1.45-5.24,3.76a6,6,0,0,0,0,5.22c.81,1.94,2,2.69,3.78,3.78a17.84,17.84,0,0,0,5.24,1.68L229,232c-.08,0-5.51-1.36-6.91-4.11a9.55,9.55,0,0,1-.54-1.09,3.27,3.27,0,0,1-.25-3.11c1-2,3.3-1.67,5.89-.77a41.44,41.44,0,0,1,5.13,2.46l1.59-1.81A22.46,22.46,0,0,0,229.53,220.61Zm-.35,9.17a21.2,21.2,0,0,1-3.26-1.08,23.16,23.16,0,0,1-4.08-2.83,8.09,8.09,0,0,0,3.49,4.06,15,15,0,0,0,3.77,1.43Z"/><circle class="cls-8" cx="180.26" cy="377.89" r="59.07" transform="translate(-198.36 556.63) rotate(-89.77)"/><circle class="cls-8" cx="136.9" cy="413.66" r="43.22" transform="translate(-277.31 548.89) rotate(-89.77)"/><circle class="cls-8" cx="184.09" cy="436.98" r="28.85" transform="matrix(0, -1, 1, 0, -253.63, 619.3)"/><polyline class="cls-8" points="151.67 294.3 148.92 284.26 212.18 328.08"/><line class="cls-8" x1="160.28" y1="283.54" x2="147.99" y2="283.65"/><rect class="cls-9" x="509.37" y="-34.63" width="22.76" height="251.85" transform="translate(793.99 543.91) rotate(-131.06)"/><polygon class="cls-10" points="433.28 182.59 409.82 187.94 418.33 165.43 433.28 182.59"/><polygon class="cls-11" points="411.39 183.79 409.82 187.94 414.15 186.96 411.39 183.79"/><line class="cls-12" x1="267.28" y1="103.6" x2="267.28" y2="493.63"/></svg>