<svg id="Layer_1" data-name="Layer 1" xmlns="http://www.w3.org/2000/svg" viewBox="0 0 715.38 640.7"><defs><style>.cls-1{fill:#434444;}.cls-2{fill:#2f3030;}.cls-3{fill:#3d3b3e;}.cls-4{fill:none;stroke:#fbfcfa;stroke-miterlimit:10;stroke-width:2px;}.cls-5{fill:#fff;opacity:0.08;}</style></defs><title>webmocup_v2</title><rect class="cls-1" x="83.02" y="572.09" width="387.51" height="34.3"/><path class="cls-2" d="M0,224H704.79a10.59,10.59,0,0,1,10.59,10.59V630.11a10.59,10.59,0,0,1-10.59,10.59H0a0,0,0,0,1,0,0V224A0,0,0,0,1,0,224Z"/><path class="cls-3" d="M0,263.27H653.77a5.07,5.07,0,0,1,5.07,5.07V600.77a5.62,5.62,0,0,1-5.62,5.62H0a0,0,0,0,1,0,0V263.27A0,0,0,0,1,0,263.27Z"/><rect class="cls-4" x="153.93" y="299.25" width="444.48" height="266.24"/><rect class="cls-5" y="263.27" width="387.51" height="343.13"/><polygon class="cls-2" points="89.38 611.34 80.96 606.13 80.96 244.5 89.38 249.71 89.38 611.34"/><rect class="cls-2" y="437.29" width="80.96" height="10.28"/><rect class="cls-1" x="1.14" y="263.27" width="386.37" height="32.93"/><rect class="cls-1" x="6.8" y="572.78" width="380.71" height="32.93"/><rect class="cls-3" x="-7.48" y="143.65" width="311.03" height="29.39" transform="translate(58.51 355.76) rotate(-112.53)"/><path class="cls-2" d="M102,9.07A14.69,14.69,0,0,0,74.87,20.33Z"/><polygon class="cls-2" points="194.06 307.62 221.21 296.36 217.11 324.82 194.06 307.62"/></svg>